<svg width="56" height="29" viewBox="0 0 56 29" fill="none" xmlns="http://www.w3.org/2000/svg">
<path d="M28 0H23.1701C21.9183 0 20.7506 0.491441 19.8823 1.38382C19.1167 2.17051 18.6616 3.19043 18.5798 4.28704C16.5184 1.73008 13.3701 0.0925924 9.84887 0.0925924C7.44765 0.0925924 5.02052 0.923656 3.18974 2.37264C2.24939 3.11723 1.65583 4.2638 1.56087 5.51904C1.46157 6.83229 1.90383 8.12212 2.77426 9.05783C3.57322 9.91667 4.71774 10.3896 5.99704 10.3896C7.21235 10.3896 8.22922 9.98008 8.7273 9.73602C9.152 9.52743 9.63965 9.39902 9.84904 9.39902C10.9377 9.39902 11.8235 10.2912 11.8235 11.3878C11.8235 11.9399 11.7367 12.1087 11.7358 12.1102C11.5005 12.4139 9.90591 12.9486 9.22487 13.1772C7.60782 13.7196 5.39322 14.4624 3.51774 16.0121C1.18556 17.9392 0.00208696 20.5877 0 23.8842V23.8927V24.0295C0 25.3353 0.457565 26.5573 1.28835 27.4706C2.18556 28.4568 3.42452 29 4.77722 29H28.2769C31.1797 29 34.0303 27.7844 36.0977 25.6649C38.2097 23.4997 39.3729 20.5901 39.3729 17.4724V10.4125C39.3729 7.54001 38.017 4.75611 35.653 2.77463C33.5492 1.01118 30.7598 0 28 0Z" fill="white"/>
<path d="M48.0163 0C45.4279 0 43.322 2.11321 43.322 4.71069V20.352C43.322 22.5379 44.1417 24.5641 45.6302 26.0571C46.8846 27.3155 48.5088 28.1724 50.4577 28.6043C50.7985 28.6799 51.1446 28.7184 51.4858 28.7184C53.51 28.7184 55.2455 27.3718 55.8044 25.3674C56.4533 23.0398 55.0184 20.384 52.6712 19.5676C52.6417 19.5573 52.6119 19.547 52.5822 19.5369V12.7458C53.3432 12.5304 54.0578 12.1115 54.6373 11.5267C55.5032 10.6532 55.9999 9.48026 55.9999 8.3087C55.9999 6.12823 54.4608 4.2369 52.457 3.73515C51.9665 1.65077 50.1011 0 48.0163 0Z" fill="white"/>
<path d="M41.398 0.0449219C38.8448 0.0449219 36.7676 2.12546 36.7676 4.68276C36.7676 7.24006 38.8448 9.3206 41.398 9.3206C43.9512 9.3206 46.0284 7.24006 46.0284 4.68276C46.0284 2.12546 43.9512 0.0449219 41.398 0.0449219Z" fill="white"/>
<path d="M41.4079 6.81348C38.8195 6.81348 36.7136 8.92668 36.7136 11.5242C36.7136 13.8231 36.7094 15.9335 36.7053 17.9746C36.7013 19.9513 36.6973 21.9955 36.6973 24.1515C36.6973 26.7031 38.7931 28.7791 41.3691 28.7791C43.7901 28.7791 45.914 26.5733 45.914 24.0586C45.914 23.596 45.9289 20.734 45.9434 17.9663C45.959 14.9655 45.9738 12.1309 45.9738 11.6213C45.9738 9.06016 43.8402 6.81348 41.4079 6.81348Z" fill="white"/>
<path d="M4.77744 27.6022C2.84701 27.6022 1.39136 26.0662 1.39136 24.0294V23.884C1.39571 17.2767 6.57223 15.5402 9.66544 14.5026C12.8167 13.4455 13.2148 13.0963 13.2148 11.3877C13.2148 9.52045 11.7049 8.00124 9.84892 8.00124C9.28997 8.00124 8.56718 8.25875 8.11831 8.47922C7.45327 8.80522 6.6804 8.9918 5.99692 8.9918C5.09431 8.9918 4.33136 8.68467 3.79083 8.10361C3.18527 7.45267 2.87814 6.54945 2.94805 5.62493C3.01362 4.75875 3.41553 3.97346 4.05049 3.47066C5.61727 2.23045 7.78492 1.49023 9.84875 1.49023C15.2764 1.49023 19.6921 5.93031 19.6921 11.3877C19.6921 18.0035 14.699 19.6782 11.7157 20.6789C11.2721 20.8279 10.8806 20.9635 10.535 21.0912H28.2767C29.8289 21.0912 31.5041 19.7076 31.5041 17.4722V10.4123C31.5041 9.27814 29.9409 7.90829 27.9997 7.90829H26.4352V17.2224C26.4352 19.0722 24.9399 20.6347 23.17 20.6347C21.4287 20.6347 19.9578 19.1019 19.9578 17.2874V4.64589C19.9578 2.82426 21.3687 1.39746 23.17 1.39746H27.9997C30.439 1.39746 32.9035 2.29054 34.7614 3.8475C36.8079 5.56273 37.9816 7.95546 37.9816 10.4123V17.4722C37.9816 20.2221 36.9597 22.7843 35.104 24.6866C33.2966 26.5395 30.8082 27.6022 28.2769 27.6022H4.77744Z" fill="url(#paint0_linear_5354_73338)"/>
<path d="M28 2.79525C30.1186 2.79525 32.2583 3.56971 33.8704 4.92086C35.599 6.36985 36.5904 8.37107 36.5904 10.4125V17.4724C36.5904 19.8541 35.7097 22.069 34.1106 23.7086C32.5633 25.2947 30.4372 26.2049 28.2772 26.2049C28.2772 26.2049 10.6562 26.2049 4.77757 26.2049C3.61096 26.2049 2.78278 25.2773 2.78278 24.0297C2.78278 23.9074 2.78278 23.8843 2.78278 23.8843V23.8929C2.78278 18.3501 7.01565 16.8653 10.1063 15.8286C13.1454 14.809 14.6061 14.1948 14.6061 11.388C14.6061 8.75 12.472 6.60395 9.84904 6.60395C9.01913 6.60395 8.08661 6.93938 7.50713 7.22397C7.08643 7.43012 6.52609 7.59452 5.99704 7.59452C5.54069 7.59452 5.10765 7.4724 4.80748 7.14955C4.13809 6.43012 4.17217 5.15444 4.912 4.56849C6.16417 3.57739 7.97896 2.88802 9.84904 2.88802C14.5094 2.88802 18.301 6.70091 18.301 11.388C18.301 16.9967 14.2403 18.359 11.2755 19.3536C8.77756 20.1915 7.27965 20.7792 6.72452 22.4892H28.2772C30.4983 22.4892 32.8957 20.5711 32.8957 17.4727V10.4128C32.8957 8.3709 30.5623 6.51118 28 6.51118C28 6.51118 26.6828 6.51118 25.9452 6.51118C25.2049 6.51118 25.0442 6.51118 25.0442 6.51118C25.0442 6.51118 25.0442 6.60657 25.0442 7.56394C25.0442 9.88278 25.0442 14.7332 25.0442 17.2231C25.0442 18.3222 24.1233 19.2378 23.1703 19.2378C22.2779 19.2378 21.3494 18.4041 21.3494 17.2881C21.3494 14.1127 21.3494 7.73445 21.3494 4.64658C21.3494 3.62544 22.137 2.7956 23.1703 2.7956C25.1393 2.79525 28 2.79525 28 2.79525ZM28 0H23.1701C21.9183 0 20.7506 0.491441 19.8823 1.38382C19.1167 2.17051 18.6616 3.19043 18.5798 4.28704C16.5184 1.73008 13.3701 0.0925924 9.84887 0.0925924C7.44765 0.0925924 5.02052 0.923656 3.18974 2.37264C2.24939 3.11723 1.65583 4.2638 1.56087 5.51904C1.46157 6.83229 1.90383 8.12212 2.77426 9.05783C3.57322 9.91667 4.71774 10.3896 5.99704 10.3896C7.21235 10.3896 8.22922 9.98008 8.7273 9.73602C9.152 9.52743 9.63965 9.39902 9.84904 9.39902C10.9377 9.39902 11.8235 10.2912 11.8235 11.3878C11.8235 11.9399 11.7367 12.1087 11.7358 12.1102C11.5005 12.4139 9.90591 12.9486 9.22487 13.1772C7.60782 13.7196 5.39322 14.4624 3.51774 16.0121C1.18556 17.9392 0.00208696 20.5877 0 23.8842V23.8927V24.0295C0 25.3353 0.457565 26.5573 1.28835 27.4706C2.18556 28.4568 3.42452 29 4.77722 29H28.2769C31.1797 29 34.0303 27.7844 36.0977 25.6649C38.2097 23.4997 39.3729 20.5901 39.3729 17.4724V10.4125C39.3729 7.54001 38.017 4.75611 35.653 2.77463C33.5492 1.01118 30.7598 0 28 0ZM27.8268 9.30608H28C29.1624 9.30608 30.0565 10.0952 30.113 10.4202V17.4726C30.113 18.9878 29.0176 19.6937 28.2772 19.6937H27.1423C27.5751 18.9665 27.8268 18.1185 27.8268 17.2227V9.30608ZM17.1125 19.6937C17.3066 19.5522 17.4983 19.4027 17.687 19.2439C18.044 18.9436 18.373 18.6244 18.6743 18.2869C18.7831 18.7877 18.9718 19.2621 19.2249 19.6937H17.1125Z" fill="white"/>
<path fill-rule="evenodd" clip-rule="evenodd" d="M51.4856 27.3206C51.2452 27.3206 51.0002 27.2933 50.7572 27.2394C49.0713 26.8655 47.677 26.1351 46.6134 25.068C45.3704 23.8213 44.7134 22.1904 44.7134 20.3519V4.71053C44.7134 2.88366 46.1951 1.39746 48.0163 1.39746C49.6777 1.39746 51.1908 3.0229 51.1908 4.80784V5.00281H51.4045C53.1113 5.00281 54.6085 6.54771 54.6085 8.30889C54.6085 10.0163 53.1115 11.514 51.4045 11.514H51.1908V20.352C51.1908 20.4072 51.1946 20.4445 51.1982 20.4665C51.3473 20.591 51.7616 20.7325 52.0402 20.8278L52.2162 20.8884C53.8923 21.4714 54.9221 23.3498 54.4649 24.9902C54.0696 26.406 52.9003 27.3206 51.4856 27.3206Z" fill="black"/>
<path d="M48.0163 2.79525C48.918 2.79525 49.7994 3.80416 49.7994 4.808C49.7994 5.80154 49.7994 6.4006 49.7994 6.4006C50.3166 6.4006 50.8834 6.4006 51.4045 6.4006C52.394 6.4006 53.2171 7.36338 53.2171 8.30905C53.2171 9.22083 52.3502 10.1165 51.4045 10.1165C50.8808 10.1165 50.3149 10.1165 49.7994 10.1165C49.7994 10.1165 49.7994 11.1904 49.7994 12.1986C49.7994 15.0143 49.7994 20.3522 49.7994 20.3522C49.7994 20.9626 50.0163 21.2587 50.2053 21.4481C50.5902 21.8344 51.2098 22.0176 51.7606 22.2091C52.738 22.5491 53.3773 23.7077 53.1248 24.6136C52.9067 25.3957 52.2862 25.9231 51.4857 25.9231C51.3478 25.9231 51.2044 25.9074 51.057 25.8747C49.9359 25.6263 48.6316 25.1178 47.5961 24.0791C46.6203 23.1003 46.1045 21.8115 46.1045 20.352C46.1045 20.352 46.1045 9.26345 46.1045 4.71069C46.1046 3.53494 47.0718 2.79525 48.0163 2.79525ZM48.0163 0C45.4279 0 43.322 2.11321 43.322 4.71069V20.352C43.322 22.5379 44.1417 24.5641 45.6302 26.0571C46.8846 27.3155 48.5088 28.1724 50.4577 28.6043C50.7985 28.6799 51.1446 28.7184 51.4858 28.7184C53.51 28.7184 55.2455 27.3718 55.8044 25.3674C56.4533 23.0398 55.0184 20.384 52.6712 19.5676C52.6417 19.5573 52.6119 19.547 52.5822 19.5369V12.7458C53.3432 12.5304 54.0578 12.1115 54.6373 11.5267C55.5032 10.6532 55.9999 9.48026 55.9999 8.3087C55.9999 6.12823 54.4608 4.2369 52.457 3.73515C51.9665 1.65077 50.1011 0 48.0163 0Z" fill="white"/>
<path fill-rule="evenodd" clip-rule="evenodd" d="M41.3983 7.92281C39.6122 7.92281 38.1592 6.46929 38.1592 4.6826C38.1592 2.89591 39.6122 1.44238 41.3983 1.44238C43.1844 1.44238 44.6374 2.89591 44.6374 4.6826C44.6374 6.46929 43.1844 7.92281 41.3983 7.92281Z" fill="black"/>
<path d="M41.398 2.84017C42.4185 2.84017 43.2458 3.66512 43.2458 4.68276C43.2458 5.70041 42.4185 6.52535 41.398 6.52535C40.3775 6.52535 39.5502 5.70041 39.5502 4.68276C39.5502 3.66512 40.3775 2.84017 41.398 2.84017ZM41.398 0.0449219C38.8448 0.0449219 36.7676 2.12546 36.7676 4.68276C36.7676 7.24006 38.8448 9.3206 41.398 9.3206C43.9512 9.3206 46.0284 7.24006 46.0284 4.68276C46.0284 2.12546 43.9512 0.0449219 41.398 0.0449219Z" fill="white"/>
<path fill-rule="evenodd" clip-rule="evenodd" d="M41.3692 27.3811C39.5605 27.3811 38.0889 25.9323 38.0889 24.1514C38.0889 21.9973 38.0929 19.9985 38.0969 17.9772C38.1009 15.9127 38.1052 13.8247 38.1052 11.524C38.1052 9.69714 39.587 8.21094 41.4082 8.21094C43.0696 8.21094 44.5826 9.83637 44.5826 11.6213C44.5826 12.1273 44.5671 15.092 44.5522 17.959C44.5377 20.7286 44.5228 23.5923 44.5228 24.0586C44.5228 25.7972 43.0196 27.3811 41.3692 27.3811Z" fill="black"/>
<path d="M41.4079 9.60872C42.3096 9.60872 43.191 10.6176 43.191 11.6215C43.191 12.615 43.1312 23.1084 43.1312 24.0588C43.1312 25.0189 42.2602 25.984 41.3689 25.984C40.4354 25.984 39.4797 25.2764 39.4797 24.1517C39.4797 19.7969 39.4961 16.0771 39.4961 11.5243C39.4962 10.3484 40.4634 9.60872 41.4079 9.60872ZM41.4079 6.81348C38.8195 6.81348 36.7136 8.92668 36.7136 11.5242C36.7136 13.8231 36.7094 15.9335 36.7053 17.9746C36.7013 19.9513 36.6973 21.9955 36.6973 24.1515C36.6973 26.7031 38.7931 28.7791 41.3691 28.7791C43.7901 28.7791 45.914 26.5733 45.914 24.0586C45.914 23.596 45.9289 20.734 45.9434 17.9663C45.959 14.9655 45.9738 12.1309 45.9738 11.6213C45.9738 9.06016 43.8402 6.81348 41.4079 6.81348Z" fill="white"/>
<defs>
<linearGradient id="paint0_linear_5354_73338" x1="0.0815316" y1="19.6551" x2="38.0212" y2="9.53518" gradientUnits="userSpaceOnUse">
<stop stop-color="#00CBBF"/>
<stop offset="1" stop-color="#1C65EB"/>
</linearGradient>
</defs>
</svg>
