<svg width="30" height="30" viewBox="0 0 30 30" fill="none" xmlns="http://www.w3.org/2000/svg">
<path fill-rule="evenodd" clip-rule="evenodd" d="M13.5706 10.4225C14.2183 9.54971 14.4505 8.62989 13.7181 7.81798C12.0744 5.518 10.9689 4.09571 10.2756 3.41076C8.95736 2.1086 6.78889 2.28474 5.64724 3.40965C5.03404 4.01385 4.82645 4.22134 4.19683 4.86085C0.68977 8.3698 2.82856 15.7876 8.51424 21.4789C14.1986 27.1688 21.6157 29.3088 25.1301 25.7924C25.7111 25.2323 26.203 24.7401 26.591 24.3301C27.7098 23.1476 27.8797 21.0747 26.5836 19.7281C25.9192 19.0377 24.5629 17.9857 22.1662 16.2713C21.4321 15.6149 20.5618 15.7571 19.7638 16.2806C19.38 16.5325 19.1006 16.7872 18.5732 17.3152L17.6154 18.2735C17.4892 18.3997 15.7762 17.5419 14.1134 15.8774C12.4496 14.212 11.5924 12.4989 11.7179 12.3734C11.9769 12.1145 12.2963 11.7948 12.6764 11.4144C12.8437 11.2469 12.9237 11.1658 13.0264 11.0579C13.2401 10.8333 13.4171 10.6294 13.5706 10.4225ZM19.3822 20.0413L20.3402 19.0828C20.6304 18.7922 20.8186 18.6135 20.9716 18.4903C23.0712 19.9981 24.2872 20.9462 24.7838 21.4622C25.082 21.7721 25.0357 22.3374 24.7765 22.6114C24.4177 22.9906 23.9516 23.4569 23.3797 24.0086C21.1071 26.2821 15.1199 24.5547 10.2814 19.7115C5.44143 14.8668 3.71485 8.8786 5.97025 6.62197C6.59733 5.98508 6.796 5.7865 7.40044 5.19093C7.62708 4.96762 8.2444 4.91747 8.5201 5.18981C9.05393 5.71716 10.0442 6.9851 11.5009 9.01427C11.4255 9.1079 11.3313 9.2137 11.2167 9.33416C11.1325 9.42258 11.0625 9.49363 10.9092 9.647C10.5295 10.0271 10.2103 10.3465 9.9517 10.6051C8.32276 12.2339 9.71003 15.006 12.3462 17.6448C14.9806 20.2818 17.7538 21.6706 19.3822 20.0413Z" fill="#0D99FF"/>
</svg>
