<svg width="17" height="14" viewBox="0 0 17 14" fill="none" xmlns="http://www.w3.org/2000/svg">
<path d="M0.300271 6.71295L4.21742 8.0958L5.73359 12.7078C5.8306 13.0032 6.21248 13.1124 6.46595 12.9164L8.64943 11.2327C8.87831 11.0563 9.20432 11.0475 9.44351 11.2118L13.3817 13.9162C13.6529 14.1026 14.037 13.9621 14.105 13.6522L16.99 0.526311C17.0642 0.187781 16.7125 -0.0946306 16.3718 0.0300401L0.295681 5.89594C-0.101043 6.04066 -0.0975866 6.57193 0.300271 6.71295ZM5.48924 7.35967L13.1448 2.89988C13.2824 2.81996 13.4239 2.99593 13.3058 3.09959L6.98774 8.65456C6.76566 8.85009 6.62241 9.11176 6.58184 9.39578L6.36662 10.9044C6.33811 11.1058 6.03897 11.1258 5.9802 10.9309L5.15247 8.17989C5.05767 7.86613 5.19582 7.53097 5.48924 7.35967Z" fill="#039BE5"/>
</svg>
