<svg width="12" height="12" viewBox="0 0 12 12" fill="none" xmlns="http://www.w3.org/2000/svg">
<path fill-rule="evenodd" clip-rule="evenodd" d="M6 11.5C2.96243 11.5 0.5 9.03757 0.5 6C0.5 2.96243 2.96243 0.5 6 0.5C9.03757 0.5 11.5 2.96243 11.5 6C11.5 9.03757 9.03757 11.5 6 11.5ZM9.69975 8.56232C10.2043 7.83516 10.5 6.95211 10.5 6C10.5 3.51472 8.48528 1.5 6 1.5C3.51472 1.5 1.5 3.51472 1.5 6C1.5 6.95211 1.79569 7.83516 2.30025 8.56233C2.86298 7.81903 4.1853 7.5 6 7.5C7.8147 7.5 9.13702 7.81903 9.69975 8.56232ZM8.98234 9.36988C8.83599 8.84368 7.78469 8.5 6 8.5C4.21531 8.5 3.16401 8.84368 3.01766 9.36988C3.81165 10.0731 4.85597 10.5 6 10.5C7.14403 10.5 8.18835 10.0731 8.98234 9.36988ZM6 3C4.78955 3 4 3.87788 4 5C4 6.71369 4.88043 7.5 6 7.5C7.10904 7.5 8 6.73981 8 5.1C8 3.96079 7.2071 3 6 3ZM5 5C5 6.13463 5.40911 6.5 6 6.5C6.58885 6.5 7 6.1492 7 5.1C7 4.47521 6.60783 4 6 4C5.36687 4 5 4.40791 5 5Z" fill="#464646"/>
</svg>
