<svg width="14" height="14" viewBox="0 0 14 14" fill="none" xmlns="http://www.w3.org/2000/svg">
<path fill-rule="evenodd" clip-rule="evenodd" d="M11.6425 2.33805C10.4145 1.1087 8.78153 0.431385 7.04181 0.430664C3.45695 0.430664 0.539394 3.34814 0.537952 6.93396C0.537472 8.08024 0.836918 9.1992 1.40609 10.1855L0.483398 13.5557L3.93119 12.6512C4.8812 13.1695 5.95073 13.4426 7.03917 13.4429H7.04189C10.6264 13.4429 13.5442 10.5252 13.5456 6.93917C13.5463 5.20129 12.8704 3.56732 11.6425 2.33805ZM7.04181 12.3445H7.03957C6.06961 12.3441 5.11832 12.0834 4.28824 11.591L4.09093 11.4738L2.04496 12.0105L2.59106 10.0157L2.46248 9.81123C1.92135 8.95054 1.6356 7.95575 1.63608 6.93436C1.6372 3.95392 4.06225 1.52911 7.04398 1.52911C8.48785 1.52959 9.84513 2.0926 10.8657 3.11438C11.8863 4.13617 12.448 5.49433 12.4475 6.93877C12.4463 9.91945 10.0214 12.3445 7.04181 12.3445ZM10.007 8.29589C9.84449 8.2145 9.04549 7.82149 8.89649 7.76717C8.74765 7.71294 8.63918 7.68594 8.53095 7.84856C8.42257 8.01118 8.11118 8.37728 8.01633 8.48567C7.92149 8.59414 7.8268 8.60775 7.66426 8.52636C7.50172 8.44505 6.97813 8.27338 6.35736 7.71975C5.87431 7.28885 5.54819 6.75668 5.45334 6.59406C5.35865 6.43128 5.45254 6.35181 5.52464 6.26241C5.70055 6.04396 5.87671 5.81493 5.93087 5.70654C5.9851 5.59807 5.95794 5.50314 5.91725 5.42183C5.87671 5.34052 5.55171 4.54064 5.41633 4.21516C5.28431 3.89841 5.15045 3.94118 5.05063 3.93622C4.95594 3.93149 4.84756 3.93053 4.73917 3.93053C4.63086 3.93053 4.45478 3.97115 4.30578 4.13393C4.15686 4.29663 3.73709 4.68972 3.73709 5.4896C3.73709 6.28949 4.3194 7.06222 4.40063 7.17068C4.48186 7.27915 5.54659 8.92058 7.17672 9.62441C7.56444 9.792 7.86709 9.8919 8.10317 9.9668C8.4925 10.0905 8.84666 10.073 9.12672 10.0312C9.43898 9.9845 10.0881 9.63803 10.2236 9.25848C10.359 8.87884 10.359 8.55352 10.3183 8.48567C10.2778 8.4179 10.1694 8.37728 10.007 8.29589Z" fill="#4CAF50"/>
</svg>
