<svg width="220" height="54" viewBox="0 0 220 54" fill="none" xmlns="http://www.w3.org/2000/svg">
<g clip-path="url(#clip0_5354_73332)">
<path d="M21.7272 4.5918V13.5998H32.2041V44.017L35.1581 50.7959H41.9774V4.5918H27.9012H21.7272Z" fill="#0D99FF"/>
<path d="M35.1581 50.7959L32.2041 44.017V50.7959H35.1581Z" fill="#0D99FF"/>
<path fill-rule="evenodd" clip-rule="evenodd" d="M11.9538 49.069L11.9539 41.7879H19.7903C18.3591 44.6785 15.9436 47.3908 11.9538 49.069Z" fill="#0D99FF"/>
<path fill-rule="evenodd" clip-rule="evenodd" d="M21.7272 4.5918V13.5998L21.7272 32.9384C21.7272 35.3915 21.3233 38.6919 19.7903 41.7879H11.9539L11.9539 32.9384L11.9538 13.5998V4.5918H21.7272Z" fill="#0D99FF"/>
<path fill-rule="evenodd" clip-rule="evenodd" d="M2.18161 50.7959C6.19001 50.7959 9.39556 50.1451 11.9538 49.069L11.9539 41.7879L11.9539 32.9384C11.8757 38.311 7.82565 41.7879 2.18165 41.7879L2.18161 50.7959Z" fill="#0D99FF"/>
<path d="M32.1973 4.5918V13.5998H41.7112V44.017L44.6652 50.7959H51.4846V4.5918H37.4083H32.1973Z" fill="#ED5100"/>
<path d="M51.4846 4.5918V13.5998H61.111V4.5918H57.6586H51.4846Z" fill="#ED5100"/>
<path d="M44.6652 50.7959L41.7112 44.017V50.7959H44.6652Z" fill="#ED5100"/>
<path d="M66.842 25.0498C68.7704 25.2399 70.2914 24.914 71.6765 23.8276C73.0889 22.7412 73.9309 20.4597 73.9309 17.1733V9.62264H79.4173V25.0498H83.1383V6.03746H70.2099V17.2819C70.2099 20.8671 69.0963 21.8992 66.842 21.5733V25.0498ZM102.661 22.5782C104.589 20.6498 105.54 18.314 105.54 15.5436C105.54 12.7733 104.589 10.4375 102.661 8.53622C100.732 6.60783 98.3965 5.65721 95.6533 5.65721C92.9101 5.65721 90.5743 6.60783 88.6459 8.53622C86.7447 10.4375 85.7941 12.7733 85.7941 15.5436C85.7941 18.314 86.7447 20.6498 88.6459 22.5782C90.5743 24.4794 92.9101 25.4301 95.6533 25.4301C98.3965 25.4301 100.732 24.4794 102.661 22.5782ZM91.2805 20.0251C90.1126 18.8572 89.5151 17.3634 89.5151 15.5436C89.5151 13.7239 90.1126 12.2301 91.2805 11.0621C92.4484 9.89425 93.9151 9.29672 95.6533 9.29672C97.3916 9.29672 98.8583 9.89425 100.026 11.0621C101.194 12.2301 101.792 13.7239 101.792 15.5436C101.792 17.3634 101.194 18.8572 100.026 20.0251C98.8583 21.193 97.3916 21.7634 95.6533 21.7634C93.9151 21.7634 92.4484 21.193 91.2805 20.0251ZM122.922 6.03746L117.49 15.0276L112.031 6.03746H108.174V25.0498H111.922V12.7461L117.273 21.5461H117.707L123.058 12.7189V25.0498H126.779V6.03746H122.922ZM134.07 13.235V9.62264H142.272V6.03746H130.322V25.0498H137.601C139.447 25.0498 140.968 24.5066 142.136 23.4202C143.304 22.3066 143.902 20.8942 143.902 19.1288C143.902 17.3905 143.304 15.9782 142.136 14.8918C140.968 13.7782 139.447 13.235 137.601 13.235H134.07ZM134.07 21.5461V16.7387H137.601C139.094 16.7387 140.181 17.6078 140.181 19.1288C140.181 20.6498 139.094 21.5461 137.601 21.5461H134.07ZM162.108 25.0498L155.426 6.03746H150.782L144.128 25.0498H148.174L149.315 21.6276H156.893L158.034 25.0498H162.108ZM153.118 10.356L155.725 18.1239H150.51L153.118 10.356ZM163.954 6.03746V25.0498H167.702V18.8029H171.043C172.863 18.8029 174.411 18.1782 175.66 16.956C176.909 15.7338 177.534 14.2128 177.534 12.4202C177.534 10.6276 176.909 9.10659 175.66 7.88437C174.411 6.66215 172.863 6.03746 171.043 6.03746H163.954ZM167.702 15.2992V9.54116H171.043C172.645 9.54116 173.813 10.7634 173.813 12.4202C173.813 14.0498 172.645 15.2992 171.043 15.2992H167.702ZM193.207 6.03746H180.659V15.0276C180.659 17.8523 180.143 19.998 179.084 21.4646H177.237V28.6893H180.985V25.0498H191.496V28.6893H195.244V21.4646H193.207V6.03746ZM183.104 21.4646C183.973 19.9708 184.407 17.8251 184.407 15.0819V9.54116H189.459V21.4646H183.104ZM66.8963 33.0375V36.6226H72.0025V52.0498H75.7506V36.6226H80.884V33.0375H66.8963ZM82.9764 33.0375V52.0498H86.7245V45.8029H90.0653C91.885 45.8029 93.4332 45.1782 94.6825 43.956C95.9319 42.7338 96.5566 41.2128 96.5566 39.4202C96.5566 37.6276 95.9319 36.1066 94.6825 34.8844C93.4332 33.6621 91.885 33.0375 90.0653 33.0375H82.9764ZM86.7245 42.2992V36.5412H90.0653C91.6677 36.5412 92.8356 37.7634 92.8356 39.4202C92.8356 41.0498 91.6677 42.2992 90.0653 42.2992H86.7245ZM113.745 52.0498V33.0375H110.893L102.745 44.6621V33.0375H98.9968V52.0498H101.849L109.997 40.4523V52.0498H113.745ZM124.035 42.2177L119.879 33.0375H116.131L122.351 46.3189C121.509 47.9757 120.368 48.7362 118.331 48.5461V52.0498C121.808 52.2399 124.306 50.5017 125.827 46.8078L131.531 33.0375H127.783L124.035 42.2177ZM148.306 33.0375L142.874 42.0276L137.414 33.0375H133.557V52.0498H137.306V39.7461L142.656 48.5461H143.091L148.441 39.7189V52.0498H152.162V33.0375H148.306ZM166.895 50.2572C169.53 50.0128 171.648 49.198 173.223 47.8399C174.799 46.4819 175.586 44.7165 175.586 42.5436C175.586 40.3708 174.799 38.6054 173.223 37.2473C171.648 35.8893 169.53 35.0745 166.895 34.8301V32.6301H163.228V34.8301C160.567 35.1017 158.448 35.9165 156.9 37.2745C155.352 38.6054 154.564 40.3708 154.564 42.5436C154.564 44.7165 155.352 46.4819 156.9 47.8399C158.448 49.1708 160.567 49.9856 163.228 50.2572V52.4572H166.895V50.2572ZM166.895 38.2251C170.182 38.6054 171.838 40.0449 171.838 42.5436C171.838 45.0152 170.182 46.4547 166.895 46.835V38.2251ZM158.285 42.5436C158.285 40.0449 159.942 38.6054 163.228 38.2523V46.8078C159.942 46.4547 158.285 45.0152 158.285 42.5436Z" fill="white"/>
</g>
<defs>
<clipPath id="clip0_5354_73332">
<rect width="220" height="54" fill="white"/>
</clipPath>
</defs>
</svg>
