<svg width="162" height="40" viewBox="0 0 162 40" fill="none" xmlns="http://www.w3.org/2000/svg">
<g clip-path="url(#clip0_5701_29183)">
<path d="M15.9992 3.40094V10.0736H23.7141V32.6048L25.8893 37.6262H30.9108V3.40094H20.5456H15.9992Z" fill="#0D99FF"/>
<path d="M25.8893 37.6262L23.7141 32.6048V37.6262H25.8893Z" fill="#0D99FF"/>
<path fill-rule="evenodd" clip-rule="evenodd" d="M8.80251 36.347L8.80254 30.9536H14.573C13.5191 33.0948 11.7405 35.1039 8.80251 36.347Z" fill="#0D99FF"/>
<path fill-rule="evenodd" clip-rule="evenodd" d="M15.9992 3.40094V10.0736L15.9993 24.3984C15.9993 26.2156 15.7018 28.6603 14.573 30.9536H8.80254L8.80253 24.3984L8.80251 10.0736V3.40094H15.9992Z" fill="#0D99FF"/>
<path fill-rule="evenodd" clip-rule="evenodd" d="M1.6066 37.6262C4.55825 37.6262 6.9187 37.1441 8.80251 36.347L8.80254 30.9536L8.80253 24.3984C8.74502 28.3781 5.76267 30.9536 1.60664 30.9536L1.6066 37.6262Z" fill="#0D99FF"/>
<path d="M23.7091 3.40094V10.0736H30.7149V32.6048L32.8901 37.6262H37.9116V3.40094H27.5464H23.7091Z" fill="#ED5100"/>
<path d="M37.9116 3.40094V10.0736H45.0001V3.40094H42.4579H37.9116Z" fill="#ED5100"/>
<path d="M32.8901 37.6262L30.7149 32.6048V37.6262H32.8901Z" fill="#ED5100"/>
<path d="M49.22 18C50.64 18.14 51.76 17.9 52.78 17.1C53.82 16.3 54.44 14.62 54.44 12.2V6.64H58.48V18H61.22V4H51.7V12.28C51.7 14.92 50.88 15.68 49.22 15.44V18ZM75.5956 16.18C77.0156 14.76 77.7156 13.04 77.7156 11C77.7156 8.96 77.0156 7.24 75.5956 5.84C74.1756 4.42 72.4556 3.72 70.4356 3.72C68.4156 3.72 66.6956 4.42 65.2756 5.84C63.8756 7.24 63.1756 8.96 63.1756 11C63.1756 13.04 63.8756 14.76 65.2756 16.18C66.6956 17.58 68.4156 18.28 70.4356 18.28C72.4556 18.28 74.1756 17.58 75.5956 16.18ZM67.2156 14.3C66.3556 13.44 65.9156 12.34 65.9156 11C65.9156 9.66 66.3556 8.56 67.2156 7.7C68.0756 6.84 69.1556 6.4 70.4356 6.4C71.7156 6.4 72.7956 6.84 73.6556 7.7C74.5156 8.56 74.9556 9.66 74.9556 11C74.9556 12.34 74.5156 13.44 73.6556 14.3C72.7956 15.16 71.7156 15.58 70.4356 15.58C69.1556 15.58 68.0756 15.16 67.2156 14.3ZM90.5155 4L86.5155 10.62L82.4955 4H79.6555V18H82.4155V8.94L86.3555 15.42H86.6755L90.6155 8.92V18H93.3555V4H90.5155ZM98.7241 9.3V6.64H104.764V4H95.9641V18H101.324C102.684 18 103.804 17.6 104.664 16.8C105.524 15.98 105.964 14.94 105.964 13.64C105.964 12.36 105.524 11.32 104.664 10.52C103.804 9.7 102.684 9.3 101.324 9.3H98.7241ZM98.7241 15.42V11.88H101.324C102.424 11.88 103.224 12.52 103.224 13.64C103.224 14.76 102.424 15.42 101.324 15.42H98.7241ZM119.37 18L114.45 4H111.03L106.13 18H109.11L109.95 15.48H115.53L116.37 18H119.37ZM112.75 7.18L114.67 12.9H110.83L112.75 7.18ZM120.73 4V18H123.49V13.4H125.95C127.29 13.4 128.43 12.94 129.35 12.04C130.27 11.14 130.73 10.02 130.73 8.7C130.73 7.38 130.27 6.26 129.35 5.36C128.43 4.46 127.29 4 125.95 4H120.73ZM123.49 10.82V6.58H125.95C127.13 6.58 127.99 7.48 127.99 8.7C127.99 9.9 127.13 10.82 125.95 10.82H123.49ZM142.271 4H133.031V10.62C133.031 12.7 132.651 14.28 131.871 15.36H130.511V20.68H133.271V18H141.011V20.68H143.771V15.36H142.271V4ZM134.831 15.36C135.471 14.26 135.791 12.68 135.791 10.66V6.58H139.511V15.36H134.831ZM49.26 24V26.64H53.02V38H55.78V26.64H59.56V24H49.26ZM61.1008 24V38H63.8608V33.4H66.3208C67.6608 33.4 68.8008 32.94 69.7208 32.04C70.6408 31.14 71.1008 30.02 71.1008 28.7C71.1008 27.38 70.6408 26.26 69.7208 25.36C68.8008 24.46 67.6608 24 66.3208 24H61.1008ZM63.8608 30.82V26.58H66.3208C67.5008 26.58 68.3608 27.48 68.3608 28.7C68.3608 29.9 67.5008 30.82 66.3208 30.82H63.8608ZM83.7577 38V24H81.6577L75.6577 32.56V24H72.8977V38H74.9977L80.9977 29.46V38H83.7577ZM91.3347 30.76L88.2747 24H85.5147L90.0947 33.78C89.4747 35 88.6347 35.56 87.1347 35.42V38C89.6947 38.14 91.5347 36.86 92.6547 34.14L96.8547 24H94.0947L91.3347 30.76ZM109.207 24L105.207 30.62L101.187 24H98.3469V38H101.107V28.94L105.047 35.42H105.367L109.307 28.92V38H112.047V24H109.207ZM122.895 36.68C124.835 36.5 126.395 35.9 127.555 34.9C128.715 33.9 129.295 32.6 129.295 31C129.295 29.4 128.715 28.1 127.555 27.1C126.395 26.1 124.835 25.5 122.895 25.32V23.7H120.195V25.32C118.235 25.52 116.675 26.12 115.535 27.12C114.395 28.1 113.815 29.4 113.815 31C113.815 32.6 114.395 33.9 115.535 34.9C116.675 35.88 118.235 36.48 120.195 36.68V38.3H122.895V36.68ZM122.895 27.82C125.315 28.1 126.535 29.16 126.535 31C126.535 32.82 125.315 33.88 122.895 34.16V27.82ZM116.555 31C116.555 29.16 117.775 28.1 120.195 27.84V34.14C117.775 33.88 116.555 32.82 116.555 31Z" fill="black"/>
</g>
<defs>
<clipPath id="clip0_5701_29183">
<rect width="162" height="40" fill="white"/>
</clipPath>
</defs>
</svg>
