<svg width="131" height="131" viewBox="0 0 131 131" fill="none" xmlns="http://www.w3.org/2000/svg">
<g clip-path="url(#clip0_5497_41873)">
<path d="M65.5064 123.666L91.458 117.112C106.271 104.812 115.706 86.2589 115.706 65.5002C115.706 33.481 93.2643 6.70348 63.2518 0.0380859C28.1182 1.22297 0 30.0778 0 65.5C0 83.6946 7.41992 100.155 19.3972 112.024L65.5064 123.666Z" fill="#0D99FF"/>
<path d="M114.347 65.5C114.347 86.9704 104.015 106.026 88.0535 117.971L111.601 112.025C123.579 100.156 131 83.6952 131 65.5C131 29.3253 101.674 0 65.4998 0C62.6792 0 59.9 0.17859 57.1733 0.524512C89.4165 4.61519 114.347 32.1462 114.347 65.5Z" fill="#1388DE"/>
<path d="M81.778 24.8062C81.778 21.4609 79.0661 18.749 75.7208 18.749H54.8472C47.1482 18.749 40.9067 24.9905 40.9067 32.6895V48.1672H90.0852V32.909C90.0852 29.5637 87.3734 26.8518 84.028 26.8518H83.8238C83.5552 26.8519 83.2891 26.799 83.0409 26.6962C82.7927 26.5934 82.5672 26.4427 82.3772 26.2528C82.1872 26.0628 82.0365 25.8373 81.9337 25.5891C81.8309 25.3409 81.778 25.0749 81.778 24.8062Z" fill="#365E7D"/>
<path d="M84.028 26.8516H83.8239C83.2813 26.8516 82.7609 26.6361 82.3772 26.2524C81.9935 25.8687 81.778 25.3483 81.778 24.8057C81.778 21.4604 79.0661 18.7485 75.7208 18.7485H73.4321V48.1667H90.085V32.9086C90.0852 29.5637 87.3731 26.8516 84.028 26.8516Z" fill="#2B4D66"/>
<path d="M108.752 95.2707C107.114 93.6528 105.116 92.4474 102.921 91.7539L85.0386 86.0922L65.5042 85.4058L45.9617 86.0922L28.0794 91.7539C22.0299 93.6692 17.9185 99.2833 17.9185 105.629V110.514C29.3781 122.624 45.4108 130.361 63.2524 130.963C83.2422 126.523 99.8733 113.161 108.752 95.2707Z" fill="#096BB3"/>
<path d="M113.082 110.514V105.629C113.082 101.142 111.025 97.0229 107.682 94.3164C98.1866 113.666 79.4293 127.647 57.189 130.474C59.9068 130.819 62.6435 130.995 65.3831 131C68.0185 130.997 70.6515 130.844 73.2697 130.544C88.8851 128.699 102.818 121.36 113.082 110.514Z" fill="#085C99"/>
<path d="M66.983 130.019C70.946 122.151 81.2656 99.8108 78.3229 85.8557L65.5041 80.8667L52.6733 85.856C49.6398 100.242 60.6996 123.538 64.3612 130.706C65.2397 130.495 66.1138 130.266 66.983 130.019Z" fill="#E4F6FF"/>
<path d="M73.7377 123.782L68.5402 103.334H62.4591L57.2744 123.726L63.6857 130.864C65.3056 130.493 66.9109 130.061 68.4985 129.57L73.7377 123.782Z" fill="#ED5100"/>
<path d="M63.7861 130.976C64.3171 130.989 64.849 130.999 65.383 131C66.0009 130.999 66.6167 130.988 67.2308 130.971L70.5332 127.323C67.9136 128.242 65.2379 128.992 62.5225 129.569L63.7861 130.976Z" fill="#DD636E"/>
<path d="M76.4443 83.9685V72.438H54.5479V83.9685C54.5479 90.015 65.4961 96.6198 65.4961 96.6198C65.4961 96.6198 76.4443 90.015 76.4443 83.9685Z" fill="#FFDDCE"/>
<path d="M90.0852 46.1359H85.8996C83.5718 46.1359 81.6848 44.249 81.6848 41.9211V39.6146C81.6848 36.5824 78.7181 34.4385 75.8392 35.3901C69.1248 37.6094 61.8746 37.6099 55.1599 35.3916L55.152 35.3891C52.273 34.438 49.3069 36.5819 49.3069 39.6138V41.9214C49.3069 44.2492 47.4199 46.1362 45.0921 46.1362H40.9067V53.0285C40.9067 54.7896 42.3344 56.2175 44.0958 56.2175C44.6515 56.2175 45.1036 56.6528 45.1387 57.2075C45.811 67.8686 54.6656 76.3084 65.4961 76.3084C76.3266 76.3084 85.1812 67.8686 85.8535 57.2075C85.8886 56.653 86.3407 56.2175 86.8964 56.2175C88.6575 56.2175 90.0855 54.7899 90.0855 53.0285V46.1359H90.0852Z" fill="#FFDDCE"/>
<path d="M85.8998 46.1361C83.572 46.1361 81.6851 44.2491 81.6851 41.9213V39.6147C81.6851 36.5826 78.7184 34.4387 75.8394 35.3902C75.0462 35.6515 74.2433 35.8825 73.4326 36.0829V58.8472C73.3205 66.2538 69.2621 72.6999 63.2686 76.1837C64.0083 76.2654 64.7519 76.3069 65.4961 76.308C76.3266 76.308 85.1811 67.8683 85.8535 57.2071C85.8886 56.6527 86.3407 56.2172 86.8964 56.2172C88.6575 56.2172 90.0854 54.7895 90.0854 53.0282V46.1358L85.8998 46.1361Z" fill="#FFCBBE"/>
<path d="M54.5476 80.8667L45.9614 87.8432L54.9656 98.9764C55.4944 99.4912 56.1953 99.7917 56.9328 99.8198C57.6702 99.8479 58.3919 99.6015 58.9583 99.1284L65.7296 93.4721L54.5476 80.8667ZM76.4481 80.8667L65.7296 93.4721L72.0939 98.9137C72.6567 99.3949 73.3783 99.6495 74.1185 99.6281C74.8586 99.6067 75.5643 99.3107 76.0983 98.7978L85.0381 87.8432L76.4481 80.8667Z" fill="#F4FBFF"/>
<path d="M54.5476 80.8667L41.945 87.0582C41.7171 87.1702 41.5139 87.3264 41.3472 87.5178C41.1805 87.7092 41.0536 87.932 40.974 88.173C40.8944 88.414 40.8637 88.6685 40.8836 88.9216C40.9036 89.1746 40.9738 89.4212 41.0901 89.6468L43.5592 94.4339C43.871 95.0383 43.9825 95.7263 43.8776 96.3983C43.7726 97.0703 43.4566 97.6915 42.9753 98.172C42.4632 98.6831 41.9511 99.1942 41.4391 99.7054C40.5851 100.558 40.2783 101.817 40.6544 102.964C43.6354 112.052 57.9825 125.948 63.4121 130.975C63.7772 130.985 64.1431 130.992 64.5097 130.996C60.5723 123.337 46.6195 94.2402 54.5476 80.8667ZM88.0204 98.1718C87.539 97.6912 87.223 97.07 87.118 96.398C87.0131 95.726 87.1246 95.0381 87.4365 94.4336L89.9056 89.6465C90.0219 89.4209 90.0921 89.1744 90.1121 88.9213C90.132 88.6683 90.1013 88.4138 90.0217 88.1727C89.9421 87.9317 89.8152 87.709 89.6485 87.5176C89.4818 87.3261 89.2786 87.1699 89.0507 87.058L76.4481 80.8667C84.3741 94.2366 70.4311 123.321 66.4893 130.99C66.8598 130.983 67.2295 130.974 67.5985 130.962C73.0393 125.923 87.3631 112.043 90.3413 102.965C90.7174 101.818 90.4106 100.558 89.5566 99.7056L88.0204 98.1718Z" fill="#085C99"/>
<path d="M65.7297 93.4722L59.062 99.0407L62.4593 103.334H68.5403L71.9379 98.7874L65.7297 93.4722Z" fill="#CB4601"/>
</g>
<defs>
<clipPath id="clip0_5497_41873">
<rect width="131" height="131" fill="white"/>
</clipPath>
</defs>
</svg>
