<svg width="131" height="131" viewBox="0 0 131 131" fill="none" xmlns="http://www.w3.org/2000/svg">
<path d="M77.7653 46.1388C77.7653 50.2284 74.4498 53.5446 70.3602 53.5446H23.5328C19.4421 53.5446 16.127 56.8598 16.127 60.9507V123.594C16.127 127.685 19.4421 131 23.5331 131H118.692C122.782 131 126.098 127.685 126.098 123.594V46.1388C126.098 42.0481 122.782 38.7329 118.692 38.7329H85.1711C81.0812 38.7329 77.7653 42.0481 77.7653 46.1388Z" fill="#085C99"/>
<path d="M37.2456 19.8853H117.445V122.371H37.2456V19.8853Z" fill="#B3B3B3"/>
<path d="M24.3423 0H104.542V68.0049H24.3423V0Z" fill="#CBCBCB"/>
<path d="M24.3422 0H104.542V14.509H24.3422V0ZM11.4385 19.8851H91.6384V68.0046H11.4385V19.8851Z" fill="#E6E6E6"/>
<path d="M110.227 46.1388V123.594C110.227 127.685 106.911 131 102.82 131H7.66171C3.57436 131 0.255859 127.685 0.255859 123.594V60.9497C0.255859 56.859 3.5741 53.5438 7.66171 53.5438H54.4904C58.58 53.5438 61.8952 50.2284 61.8952 46.1388C61.8952 42.0481 65.2104 38.7329 69.301 38.7329H102.821C106.912 38.7329 110.227 42.0481 110.227 46.1388H110.227Z" fill="#096BB3"/>
<path d="M107.018 46.1388V123.594C107.018 127.685 103.703 131 99.6122 131H7.66171C3.57436 131 0.255859 127.685 0.255859 123.594V60.9497C0.255859 56.859 3.5741 53.5438 7.66171 53.5438H54.4904C58.58 53.5438 61.8952 50.2284 61.8952 46.1388C61.8952 42.0481 65.2104 38.7329 69.301 38.7329H99.6127C103.703 38.7329 107.019 42.0481 107.019 46.1388H107.018Z" fill="#0D99FF"/>
<path d="M72.1322 32.3165H24.0128C22.9052 32.3165 22.0068 31.4189 22.0068 30.3116C22.0068 29.2042 22.9052 28.3066 24.0128 28.3066H72.1322C73.2396 28.3066 74.1372 29.2042 74.1372 30.3116C74.1372 31.4189 73.2396 32.3165 72.1322 32.3165ZM51.5386 42.3418H24.0128C22.9052 42.3418 22.0068 41.4442 22.0068 40.3369C22.0068 39.2295 22.9052 38.331 24.0128 38.331H51.5386C52.065 38.3394 52.5669 38.5543 52.9361 38.9295C53.3053 39.3047 53.5123 39.81 53.5123 40.3364C53.5123 40.8628 53.3053 41.3681 52.9361 41.7432C52.5669 42.1184 52.065 42.3334 51.5386 42.3418Z" fill="#6198CE"/>
<path d="M97.8453 79.2337H61.6581C60.1339 79.2337 58.8999 77.9985 58.8999 76.4753V67.1554C58.8999 65.6323 60.1339 64.397 61.6581 64.397H97.8443C99.3684 64.397 100.603 65.6323 100.603 67.1551V76.4753C100.604 77.9995 99.3684 79.2335 97.8453 79.2335V79.2337Z" fill="#096BB3"/>
</svg>
