<svg width="192" height="131" viewBox="0 0 192 131" fill="none" xmlns="http://www.w3.org/2000/svg">
<g clip-path="url(#clip0_5497_41892)">
<path d="M156.357 55.0706L148.547 50.1405L140.968 31.5533C138.208 24.7856 133.276 19.1379 126.954 15.5082L106.482 3.75617C99.7012 -0.136221 91.6228 -1.04914 84.1509 1.23316L68.716 5.94894L59.8558 0.857425C58.8854 0.30116 57.8289 0.248322 56.8936 0.547736L56.8863 0.543333L56.8337 0.572688C56.3412 0.740008 55.8882 1.0042 55.5024 1.35498L1.87492 32.861C0.781827 33.4892 0 34.6619 0 36.1062V49.138L3.12292 55.5167C5.24628 59.8539 8.71993 63.3778 13.0178 65.553L78.9499 98.9231L127.718 127.108C133.827 130.638 141.081 131.584 147.882 129.738C162.898 125.661 176.417 117.432 186.936 106.053C189.915 102.83 191.543 98.5752 191.543 94.1765V90.0169C182.502 75.921 170.491 63.9928 156.357 55.0706Z" fill="#0D99FF"/>
<path d="M156.357 55.0707L148.547 50.1406L145.366 52.0164L176.402 93.0039L149.702 107.844L96.6837 80.7147L94.2622 82.1428L102.189 87.1462C111.905 93.2798 124.942 107.54 132.069 115.764C135.357 119.559 140.416 121.29 145.331 120.324C164.071 116.637 180.647 105.767 191.545 90.0156C182.502 75.9211 170.491 63.993 156.357 55.0707Z" fill="#096BB3"/>
<path d="M43.7168 68.1613L28.6121 57.4895C26.3909 51.9122 22.6892 46.9557 18.4966 44.5236C11.6998 40.5828 6.19043 44.7658 6.19043 53.8686C6.19043 62.97 11.6998 73.542 18.4966 77.4829C21.7189 79.3513 24.6489 79.3909 26.8424 77.9496L43.7168 68.1613Z" fill="#23292E"/>
<path d="M130.248 117.911L115.143 107.24C112.922 101.662 109.22 96.7057 105.028 94.2751C98.231 90.3343 92.7217 94.5173 92.7217 103.619C92.7217 112.72 98.231 123.292 105.028 127.234C108.25 129.101 111.18 129.142 113.374 127.701L130.248 117.911Z" fill="#23292E"/>
<path d="M145.331 120.324C140.415 121.29 135.355 119.559 132.067 115.764C124.94 107.54 111.904 93.28 102.188 87.1464L94.2605 82.1429L86.6819 63.5557C83.9229 56.7881 78.9908 51.1403 72.6675 47.5106L52.1968 35.7586C45.4161 31.8662 37.3377 30.9533 29.8643 33.2356L14.4295 37.9514L5.5707 32.8613C3.08931 31.4347 0 33.2341 0 36.1065V49.1383L3.12292 55.517C5.24628 59.8542 8.71993 63.3781 13.0178 65.5533L78.9499 98.9234L127.718 127.108C133.827 130.638 141.081 131.585 147.882 129.738C162.898 125.661 176.417 117.433 186.936 106.054C189.915 102.83 191.543 98.5755 191.543 94.1768V90.0172C180.646 105.767 164.071 116.637 145.331 120.324Z" fill="#085C99"/>
<path d="M14.4309 37.9512L68.716 5.94901L59.8558 0.857496C58.8854 0.301231 57.8289 0.248393 56.8936 0.547807L56.8863 0.543404L56.8337 0.572759C56.3412 0.740079 55.8882 1.00427 55.5024 1.35505L1.87492 32.8611C0.781827 33.4893 0 34.662 0 36.1062V49.1381L3.12292 55.5168C5.24628 59.8539 8.71993 63.3779 13.0178 65.5531L78.9499 98.9231L104.055 113.432V102.201L14.4309 37.9512Z" fill="#096BB3"/>
<path d="M187.615 98.0176V102.934C177.63 113.093 165.353 121.086 151.824 125.463L146.479 127.19V121.915L154.945 119.201C166.164 115.605 176.36 109.357 184.675 100.981L187.615 98.0176Z" fill="#23292E"/>
<path d="M117.334 117.889C117.334 126.991 111.825 131.174 105.028 127.233C98.231 123.292 92.7217 112.72 92.7217 103.619C92.7217 94.5173 98.231 90.3343 105.028 94.2751C111.825 98.216 117.334 108.788 117.334 117.889Z" fill="#2E373D"/>
<path d="M111.078 114.262C111.078 118.737 108.37 120.794 105.028 118.856C101.686 116.919 98.978 111.72 98.978 107.245C98.978 102.77 101.686 100.714 105.028 102.651C108.37 104.588 111.078 109.787 111.078 114.262Z" fill="#CECECE"/>
<path d="M108.31 112.657C108.31 115.084 106.84 116.198 105.028 115.149C103.216 114.098 101.746 111.278 101.746 108.851C101.746 106.425 103.216 105.308 105.028 106.36C106.84 107.409 108.31 110.229 108.31 112.657Z" fill="#627681"/>
<path d="M30.8027 68.1394C30.8027 77.2422 25.2934 81.4252 18.4966 77.4844C11.6998 73.542 6.19043 62.97 6.19043 53.8687C6.19043 44.7673 11.6998 40.5843 18.4966 44.5251C25.2934 48.466 30.8027 59.038 30.8027 68.1394Z" fill="#2E373D"/>
<path d="M24.5464 64.5127C24.5464 68.9878 21.8385 71.0441 18.4963 69.1067C15.1557 67.1693 12.4463 61.9706 12.4463 57.4955C12.4463 53.0204 15.1557 50.9641 18.4963 52.9015C21.8385 54.8389 24.5464 60.0376 24.5464 64.5127Z" fill="#CECECE"/>
<path d="M21.7788 62.9069C21.7788 65.3345 20.3087 66.4485 18.4966 65.3976C16.6845 64.3467 15.2144 61.5272 15.2144 59.1011C15.2144 56.6735 16.6845 55.558 18.4966 56.6089C20.3087 57.6598 21.7788 60.4793 21.7788 62.9069Z" fill="#627681"/>
<path d="M96.6833 80.7149L145.366 52.015L137.945 34.3187C136.937 31.9131 134.055 30.94 131.803 32.2462L92.2189 55.1985C89.6264 56.7015 88.5202 59.8835 89.6162 62.681L96.6833 80.7149Z" fill="#25333B"/>
<path d="M88.9503 80.781L82.3099 63.0729C81.0575 59.7338 78.7076 56.9246 75.649 55.1105L49.0171 39.3163C46.1849 37.6372 42.7288 37.4068 39.7009 38.6955L35.5798 40.4494C31.7423 42.083 31.4164 47.4196 35.026 49.5126L88.9503 80.781Z" fill="#0C1B24"/>
<path d="M141.419 50.4842L134.78 32.7747C134.641 32.4063 134.485 32.0467 134.32 31.6915C133.476 31.6196 132.601 31.784 131.803 32.2463L120.885 38.5766L141.419 50.4842Z" fill="#515D62"/>
<path d="M183.967 77.2334C183.535 77.2334 183.102 77.3567 182.684 77.5989L177.853 80.4007L169.631 84.0833L176.402 93.0041C176.826 93.4385 177.382 93.6631 177.935 93.6631C178.367 93.6631 178.8 93.5398 179.218 93.2962L184.051 90.4943C185.302 89.7692 186.246 88.0109 186.246 86.4052V79.9355C186.246 78.161 185.098 77.2334 183.967 77.2334Z" fill="#085C99"/>
<path d="M183.968 77.2334C183.535 77.2334 183.102 77.3567 182.684 77.5989L177.853 80.4007C176.601 81.1258 175.658 82.8841 175.658 84.4898V90.961C175.658 92.7355 176.804 93.6631 177.935 93.6631C178.368 93.6631 178.8 93.5398 179.218 93.2976L184.051 90.4958C185.302 89.7692 186.246 88.0124 186.246 86.4067V79.9355C186.246 78.161 185.099 77.2334 183.968 77.2334Z" fill="#096BB3"/>
<path d="M183.367 89.3066L178.535 92.1085C177.7 92.5929 177.023 92.0777 177.023 90.9608V84.4896C177.023 83.3712 177.7 82.0722 178.535 81.5879L183.367 78.786C184.203 78.3031 184.879 78.8168 184.879 79.9352V86.4049C184.879 87.5234 184.203 88.8223 183.367 89.3066Z" fill="white"/>
<path d="M77.9843 86.6121L37.5703 60.0859V74.7529L77.9843 96.5604V86.6121Z" fill="#085C99"/>
<path d="M37.5703 60.0859L54.829 71.4138L43.2623 65.7939V75.9785L54.829 84.0656L37.5703 74.7529V60.0859Z" fill="#23292E"/>
<path d="M147.423 98.6709C146.991 98.6709 146.56 98.7942 146.14 99.0378L141.309 101.84L130.041 106.886L139.852 114.439C140.277 114.876 140.836 115.102 141.391 115.102C141.824 115.102 142.256 114.979 142.674 114.735L147.507 111.933C148.758 111.208 149.702 109.45 149.702 107.844V101.374C149.702 99.6 148.556 98.6709 147.423 98.6709Z" fill="#085C99"/>
<path d="M147.424 98.6709C146.991 98.6709 146.56 98.7942 146.14 99.0378L141.309 101.84C140.058 102.565 139.114 104.323 139.114 105.929V112.399C139.114 114.173 140.26 115.102 141.393 115.102C141.825 115.102 142.256 114.979 142.676 114.735L147.507 111.933C148.759 111.208 149.702 109.45 149.702 107.844V101.374C149.702 99.6 148.556 98.6709 147.424 98.6709Z" fill="#096BB3"/>
<path d="M146.824 110.746L141.992 113.548C141.157 114.032 140.48 113.517 140.48 112.398V105.929C140.48 104.81 141.157 103.511 141.992 103.027L146.824 100.225C147.659 99.7421 148.335 100.256 148.335 101.373V107.844C148.335 108.962 147.659 110.261 146.824 110.746Z" fill="white"/>
<ellipse cx="52.3938" cy="105.5" rx="24.3938" ry="24.5" fill="#ED5100"/>
<path opacity="0.12" d="M52.3937 130C65.866 130 76.7875 119.031 76.7875 105.5C76.7875 91.969 65.866 81 52.3937 81C65.866 81 72.9998 94 72.9998 105.5C72.9998 117 65.866 130 52.3937 130Z" fill="black"/>
<path d="M52.2727 90L57.0441 98.9041L66.9502 100.71L59.993 108.019L61.3439 118.04L52.2727 113.653L43.2015 118.04L44.5523 108.019L37.5952 100.71L47.5012 98.9041L52.2727 90Z" fill="white"/>
</g>
<defs>
<clipPath id="clip0_5497_41892">
<rect width="192" height="131" fill="white"/>
</clipPath>
</defs>
</svg>
