<svg width="440" height="424" viewBox="0 0 440 424" fill="none" xmlns="http://www.w3.org/2000/svg">
<g clip-path="url(#clip0_5497_40258)">
<path d="M16.9185 250.316C16.9185 250.316 25.5554 247.443 29.7011 267.382C33.8468 287.321 34.4993 298.286 34.4993 298.286C34.4993 298.286 35.862 302.586 39.0289 300.881C42.1957 299.177 47.5122 293.335 51.5043 295.719C55.4965 298.104 55.6596 303.582 52.7807 310.582C49.9017 317.583 44.307 333.27 43.8079 334.687C43.3089 336.104 43.5488 338.393 45.9 337.56C48.2511 336.727 63.0873 327.208 67.1754 334.515C71.2636 341.822 60.1988 360.085 59.0184 362.144C57.838 364.203 58.0588 365.218 58.9033 366.041C59.7477 366.865 64.4788 363.168 68.8164 360.65C73.1541 358.131 78.6145 355.919 80.6393 360.324C82.6642 364.729 79.5453 379.899 58.7017 400.24L48.4239 409.031L35.507 404.731C8.49279 393.871 -0.182459 381.038 -0.00012493 376.193C0.182209 371.347 6.08406 371.289 11.0551 371.988C16.026 372.688 21.7744 374.306 22.283 373.205C22.7916 372.103 22.5517 371.069 20.6804 369.642C18.809 368.215 1.53532 355.526 2.55255 347.213C3.56978 338.901 20.9395 342.071 23.4154 341.937C25.8913 341.803 25.2387 339.562 24.2503 338.47C23.2618 337.378 12.0435 325.034 6.71743 319.604C1.39137 314.174 -0.527933 309.194 2.30304 305.344C5.03804 301.638 12.1874 305.018 15.7382 305.392C19.2889 305.765 18.9338 301.264 18.9338 301.264C18.9338 301.264 15.3543 290.864 11.5733 270.887C7.79224 250.91 17.1009 250.268 17.1009 250.268" fill="#F5F5F5"/>
<path d="M48.5006 406.187C45.6696 391.534 41.5911 371.308 36.9848 348.995C32.3785 326.681 28.2903 306.455 25.3826 291.831C23.9431 284.524 22.7627 278.606 21.9566 274.488C21.544 272.457 21.2369 270.877 20.997 269.776C20.8818 269.249 20.8051 268.818 20.7379 268.55C20.7112 268.411 20.676 268.273 20.6323 268.138L20.6899 268.56C20.7475 268.856 20.8147 269.268 20.901 269.795C21.1026 270.896 21.3904 272.486 21.7551 274.526C22.5036 278.634 23.6264 284.562 25.0467 291.898C27.8681 306.55 31.9562 326.767 36.5625 349.081C41.1689 371.394 45.2762 391.611 48.1839 406.254" fill="#E0E0E0"/>
<path d="M44.3264 304.195C44.1085 304.44 43.9156 304.706 43.7506 304.99C43.4051 305.507 42.9253 306.283 42.3399 307.24C41.1691 309.156 39.6337 311.856 37.9927 314.902C36.3517 317.947 34.941 320.533 33.8278 322.611C33.3288 323.521 32.8682 324.296 32.5515 324.938C32.3727 325.213 32.2277 325.509 32.1196 325.819C32.3453 325.581 32.5419 325.318 32.705 325.034C33.0505 324.507 33.5399 323.731 34.1061 322.774C35.2577 320.858 36.7547 318.119 38.3957 315.112L42.6182 307.451C43.1268 306.541 43.5779 305.765 43.9041 305.124C44.0868 304.835 44.2289 304.522 44.3264 304.195Z" fill="#E0E0E0"/>
<path d="M30.8623 325.685C30.9295 325.57 25.4979 322.161 18.7515 318.023C12.0052 313.886 6.45842 310.678 6.39124 310.793C6.32407 310.908 11.7461 314.317 18.502 318.454C25.258 322.592 30.7952 325.79 30.8623 325.685Z" fill="#E0E0E0"/>
<path d="M39.4415 359.635C39.1361 359.49 38.8137 359.383 38.4818 359.319L35.862 358.61C33.6548 358.007 30.6031 357.164 27.2251 356.12C23.8472 355.076 20.901 354.032 18.7418 353.247L16.1891 352.337C15.8813 352.205 15.5593 352.109 15.2295 352.05C15.5055 352.241 15.8056 352.396 16.122 352.509C16.7074 352.768 17.5614 353.132 18.6267 353.553C20.7667 354.406 23.7416 355.469 27.0908 356.551C30.44 357.633 33.5108 358.399 35.7276 358.916C36.8504 359.175 37.7525 359.366 38.3859 359.491C38.7307 359.581 39.0851 359.629 39.4415 359.635Z" fill="#E0E0E0"/>
<path d="M55.9185 342.846C55.6554 343.011 55.4136 343.207 55.1988 343.43C54.7573 343.833 54.1336 344.388 53.3658 345.145C51.8304 346.61 49.7384 348.65 47.4448 350.891C45.1512 353.132 43.088 355.296 41.6101 356.828C40.8808 357.594 40.2858 358.207 39.8828 358.648C39.6558 358.856 39.4588 359.094 39.2974 359.356C39.2974 359.356 39.5757 359.175 40.0075 358.772C40.4393 358.37 41.0823 357.815 41.8404 357.058C43.3759 355.602 45.4775 353.563 47.7711 351.312C50.0646 349.061 52.1183 346.955 53.5962 345.441C54.3351 344.675 54.9205 344.053 55.3235 343.622C55.556 343.391 55.7561 343.13 55.9185 342.846Z" fill="#E0E0E0"/>
<path d="M67.3096 371.893C66.9664 372.114 66.6451 372.367 66.35 372.649L63.9988 374.842C62.0219 376.7 59.3157 379.295 56.3216 382.188C53.3275 385.08 50.6788 387.704 48.7691 389.629L46.514 391.927C46.2245 392.195 45.961 392.49 45.7271 392.808C46.0756 392.594 46.3977 392.341 46.6867 392.052L49.0378 389.868C51.0147 387.953 53.7209 385.405 56.7151 382.513C59.7092 379.621 62.377 376.997 64.2963 375.072L66.5419 372.783C66.8238 372.51 67.0807 372.212 67.3096 371.893Z" fill="#E0E0E0"/>
<path d="M46.1783 392.166C45.7961 391.986 45.3977 391.841 44.9883 391.736L41.6967 390.73C38.9233 389.868 35.0847 388.661 30.891 387.215C26.6974 385.769 22.9355 384.342 20.2101 383.385L16.9857 382.111C16.5985 381.944 16.197 381.813 15.7861 381.718C16.1454 381.941 16.5245 382.13 16.9185 382.283C17.6575 382.618 18.7419 383.088 20.095 383.634C22.782 384.745 26.5342 386.2 30.7471 387.637C34.96 389.073 38.7986 390.242 41.6007 391.027C43.0114 391.41 44.1438 391.716 44.9403 391.908C45.3436 392.034 45.7582 392.12 46.1783 392.166Z" fill="#E0E0E0"/>
<path d="M233.963 49.7124C236.296 45.5239 237.518 40.8099 237.514 36.0176C237.536 32.3689 236.838 28.7514 235.46 25.372C234.081 21.9925 232.048 18.9173 229.478 16.3221C226.908 13.7269 223.85 11.6626 220.48 10.2472C217.11 8.83169 213.494 8.09281 209.837 8.07275C207.353 8.0734 204.88 8.41169 202.486 9.07831C208.341 10.7623 213.488 14.3003 217.151 19.1587C220.815 24.0172 222.796 29.9326 222.796 36.0129C222.796 42.0931 220.815 48.0085 217.151 52.867C213.488 57.7254 208.341 61.2634 202.486 62.9474C206.18 63.9754 210.049 64.2185 213.842 63.6609C217.636 63.1033 221.27 61.7575 224.51 59.7105L237.514 64.7382L233.963 49.7124Z" fill="#EBEBEB"/>
<path d="M413.917 409.031C413.917 409.165 322.663 409.28 210.125 409.28C97.5869 409.28 6.31445 409.165 6.31445 409.031C6.31445 408.897 97.5485 408.782 210.125 408.782C322.702 408.782 413.917 408.926 413.917 409.031Z" fill="#263238"/>
<path d="M116.118 378.281L116.895 402.108L122.96 420.782C123.065 421.1 123.103 421.436 123.072 421.77C123.041 422.103 122.941 422.426 122.779 422.719C122.617 423.012 122.396 423.269 122.13 423.473C121.864 423.677 121.558 423.824 121.233 423.904C120.854 424.001 120.458 424.005 120.077 423.917C119.696 423.829 119.342 423.65 119.045 423.397C115.206 420.112 101.166 407.969 101.205 406.226C101.205 404.205 98.7002 381.144 98.7002 381.144L116.118 378.281Z" fill="#ED5100"/>
<path d="M121.271 423.904L101.118 404.617L101.176 405.622C101.221 406.496 101.578 407.325 102.183 407.959C103.796 409.654 108.354 414.232 118.987 423.406C119.293 423.667 119.659 423.849 120.052 423.936C120.445 424.023 120.854 424.012 121.242 423.904H121.271Z" fill="#E0E0E0"/>
<path d="M105.619 396.668C105.929 396.866 106.153 397.172 106.247 397.527C106.341 397.882 106.299 398.259 106.128 398.583C105.941 398.905 105.635 399.14 105.275 399.237C104.916 399.334 104.532 399.285 104.209 399.1C103.883 398.891 103.647 398.568 103.548 398.194C103.448 397.82 103.492 397.423 103.671 397.08C103.902 396.777 104.241 396.574 104.618 396.513C104.995 396.452 105.381 396.539 105.696 396.754" fill="white"/>
<path d="M115.235 413.81C115.369 413.868 115.839 412.594 117.221 411.838C118.076 411.444 118.997 411.216 119.937 411.167C119.937 411.1 119.649 410.937 119.083 410.889C118.346 410.852 117.612 411.023 116.969 411.384C116.325 411.745 115.797 412.281 115.446 412.929C115.158 413.437 115.158 413.791 115.235 413.81Z" fill="#263238"/>
<path d="M111.838 409.884C112.813 409.159 113.836 408.5 114.899 407.911C116.036 407.484 117.204 407.145 118.392 406.896C117.13 406.626 115.812 406.816 114.678 407.432C113.474 407.894 112.469 408.761 111.838 409.884Z" fill="#263238"/>
<path d="M110.993 402.673C111.07 402.816 112.356 402.194 114.064 402.031C115.772 401.868 117.164 402.213 117.202 402.031C116.239 401.477 115.109 401.284 114.016 401.485C112.901 401.518 111.832 401.938 110.993 402.673Z" fill="#263238"/>
<path d="M110.59 395.681C111.608 395.285 112.678 395.033 113.766 394.934C114.859 394.985 115.938 395.191 116.972 395.547C116.972 395.547 116.732 395.212 116.166 394.925C115.413 394.566 114.587 394.389 113.754 394.408C112.921 394.426 112.103 394.639 111.367 395.03C110.82 395.337 110.552 395.633 110.59 395.681Z" fill="#263238"/>
<path d="M113.652 393.603C113.718 393.307 113.718 393 113.652 392.703C113.527 391.882 113.24 391.094 112.807 390.386C112.534 389.838 112.089 389.394 111.54 389.121C111.352 389.046 111.145 389.033 110.948 389.083C110.752 389.133 110.576 389.243 110.446 389.399C110.204 389.712 110.091 390.106 110.13 390.5C110.225 391.298 110.598 392.038 111.184 392.589C111.77 393.14 112.531 393.469 113.335 393.517C114.132 393.557 114.923 393.359 115.607 392.948C116.291 392.537 116.836 391.931 117.173 391.209C117.256 391.027 117.299 390.83 117.299 390.63C117.299 390.43 117.256 390.232 117.173 390.05C117.071 389.876 116.915 389.738 116.729 389.657C116.542 389.576 116.335 389.556 116.137 389.6C115.557 389.76 115.031 390.071 114.611 390.5C113.993 391.044 113.476 391.692 113.085 392.416C112.92 392.671 112.812 392.958 112.769 393.259C113.336 392.325 114.037 391.479 114.851 390.749C115.235 390.396 115.7 390.139 116.204 390.002C116.312 389.978 116.424 389.988 116.526 390.031C116.627 390.074 116.713 390.148 116.77 390.242C116.823 390.363 116.851 390.493 116.851 390.625C116.851 390.757 116.823 390.887 116.77 391.008C116.459 391.618 115.979 392.127 115.387 392.475C114.796 392.823 114.117 392.995 113.431 392.971C112.753 392.923 112.111 392.647 111.611 392.187C111.111 391.728 110.781 391.113 110.677 390.443C110.643 390.17 110.711 389.894 110.869 389.667C110.937 389.58 111.032 389.517 111.139 389.488C111.246 389.459 111.36 389.464 111.464 389.504C111.927 389.732 112.309 390.096 112.558 390.548C113.099 391.495 113.469 392.529 113.652 393.603Z" fill="#263238"/>
<path d="M162.642 381.824L161.404 399.637C161.404 399.637 179.148 406.877 179.234 410.171L144.523 409.012L145.31 381.173L162.642 381.824Z" fill="#ED5100"/>
<path d="M150.723 397.779C150.393 397.876 150.109 398.088 149.923 398.376C149.736 398.664 149.659 399.009 149.705 399.349C149.786 399.688 149.992 399.983 150.283 400.175C150.573 400.367 150.926 400.442 151.27 400.384C151.628 400.287 151.937 400.06 152.137 399.749C152.337 399.438 152.415 399.063 152.354 398.698C152.24 398.352 151.993 398.064 151.668 397.898C151.343 397.731 150.966 397.699 150.617 397.807" fill="#E0E0E0"/>
<path d="M144.523 409.041L144.715 406.235L177.929 408.39C177.929 408.39 179.445 409.118 179.234 410.2L144.523 409.041Z" fill="#E0E0E0"/>
<path d="M161.98 399.483C161.98 399.656 161.116 399.704 160.262 400.221C159.408 400.738 158.947 401.427 158.794 401.36C158.64 401.293 158.918 400.317 159.964 399.713C161.01 399.11 162.018 399.349 161.98 399.483Z" fill="#263238"/>
<path d="M165.568 401.102C165.568 401.274 164.858 401.533 164.254 402.232C163.649 402.931 163.467 403.678 163.294 403.669C163.121 403.659 163.054 402.711 163.812 401.839C164.57 400.968 165.568 400.949 165.568 401.102Z" fill="#263238"/>
<path d="M167.488 405.527C167.334 405.527 167.123 404.703 167.593 403.793C168.064 402.883 168.86 402.539 168.927 402.682C168.995 402.826 168.496 403.305 168.121 404.052C167.747 404.799 167.661 405.517 167.488 405.527Z" fill="#263238"/>
<path d="M161.807 395.394C161.73 395.538 160.962 395.279 160.002 395.317C159.043 395.356 158.285 395.624 158.198 395.48C158.112 395.337 158.851 394.752 159.983 394.724C161.116 394.695 161.893 395.26 161.807 395.394Z" fill="#263238"/>
<path d="M161.989 391.793C161.414 391.914 160.817 391.877 160.262 391.688C159.638 391.552 159.032 391.343 158.457 391.065C158.127 390.9 157.806 390.714 157.498 390.51C157.307 390.393 157.136 390.248 156.989 390.079C156.881 389.956 156.817 389.801 156.809 389.637C156.8 389.474 156.847 389.312 156.941 389.179C157.031 389.065 157.147 388.973 157.278 388.91C157.409 388.847 157.553 388.814 157.699 388.815C157.918 388.819 158.135 388.858 158.342 388.93C158.713 389.029 159.073 389.164 159.417 389.332C159.994 389.614 160.522 389.986 160.981 390.433C161.759 391.209 162.018 391.851 161.941 391.88C161.864 391.908 161.48 391.391 160.684 390.749C160.219 390.37 159.71 390.048 159.168 389.792C158.856 389.658 158.535 389.546 158.208 389.457C157.843 389.351 157.527 389.332 157.431 389.457C157.335 389.581 157.431 389.543 157.431 389.648C157.538 389.772 157.665 389.878 157.805 389.964C158.096 390.164 158.397 390.35 158.707 390.52C159.24 390.799 159.795 391.032 160.367 391.219C160.923 391.365 161.465 391.558 161.989 391.793Z" fill="#263238"/>
<path d="M161.759 392.023C161.449 391.518 161.308 390.928 161.356 390.338C161.347 389.309 161.616 388.297 162.133 387.407C162.236 387.181 162.395 386.985 162.594 386.838C162.794 386.69 163.029 386.596 163.275 386.564C163.43 386.573 163.578 386.626 163.704 386.715C163.83 386.805 163.927 386.929 163.985 387.072C164.068 387.277 164.12 387.493 164.139 387.714C164.202 388.101 164.202 388.495 164.139 388.882C164.023 389.529 163.75 390.138 163.342 390.654C162.632 391.525 161.922 391.707 161.903 391.611C161.884 391.516 162.45 391.219 163.006 390.366C163.32 389.879 163.526 389.331 163.611 388.758C163.654 388.424 163.654 388.086 163.611 387.752C163.611 387.388 163.438 387.082 163.294 387.12C163.15 387.158 162.824 387.378 162.671 387.666C162.483 387.967 162.328 388.289 162.21 388.623C161.995 389.172 161.862 389.75 161.816 390.338C161.692 391.362 161.855 392.004 161.759 392.023Z" fill="#263238"/>
<path d="M91.2817 205.947L96.4063 397.53L123.795 396.706L130.32 199.416L91.2817 205.947Z" fill="#263238"/>
<path d="M148.199 199.09C148.199 199.09 168.524 280.311 169.148 294.159C169.772 308.006 164.801 394.561 164.801 394.561H137.988L140.234 295.988L119.87 212.603L124.755 199.521L148.199 199.09Z" fill="#263238"/>
<path d="M131.654 209.069C131.665 209.155 131.665 209.242 131.654 209.328V210.084C131.654 210.793 131.597 211.77 131.549 212.957C131.434 215.534 131.261 219.182 131.05 223.683C130.589 232.772 129.946 245.269 129.236 259.069C128.526 272.869 127.777 285.367 127.317 294.455C127.038 298.947 126.818 302.605 126.664 305.172C126.578 306.407 126.511 307.384 126.463 308.093C126.463 308.399 126.463 308.648 126.395 308.849C126.404 308.935 126.404 309.022 126.395 309.108C126.386 309.019 126.386 308.929 126.395 308.84C126.395 308.648 126.395 308.399 126.395 308.083C126.395 307.384 126.463 306.407 126.511 305.21C126.626 302.634 126.798 298.976 127 294.484C127.47 285.386 128.113 272.889 128.814 259.05C129.514 245.212 130.272 232.753 130.781 223.616C131.05 219.125 131.27 215.467 131.434 212.9C131.52 211.665 131.587 210.688 131.635 210.027C131.635 209.711 131.635 209.462 131.702 209.27C131.676 209.206 131.66 209.138 131.654 209.069Z" fill="#455A64"/>
<path d="M128.641 94.953C128.641 94.953 138.593 144.216 138.737 158.092C138.881 171.969 143.765 199.09 143.765 199.09H100.677L99.7174 124.037L96.6465 101.657L103.115 92.4438L128.641 94.953Z" fill="#F5F5F5"/>
<path d="M129.169 96.4087C129.169 96.4087 139.447 99.4158 142.163 103.208C144.303 106.206 147.201 162.871 147.201 162.871L151.625 212.775L147.316 212.373L141.232 193.689L129.169 96.4087Z" fill="#0D99FF"/>
<path d="M142.163 103.208L171.182 129.784L206.891 118.244L214.002 133.203L175.894 150.441C170.453 152.758 167.037 151.485 163.256 148.468L143.276 132.504L142.163 103.208Z" fill="#0D99FF"/>
<path d="M200.25 123.013C200.347 123.196 200.367 123.41 200.306 123.607C200.245 123.805 200.107 123.97 199.924 124.067C199.741 124.163 199.527 124.183 199.329 124.122C199.131 124.061 198.965 123.924 198.868 123.741C198.818 123.651 198.787 123.553 198.776 123.451C198.764 123.349 198.774 123.246 198.803 123.147C198.833 123.049 198.882 122.958 198.947 122.879C199.013 122.8 199.094 122.735 199.185 122.687C199.37 122.592 199.585 122.573 199.784 122.633C199.983 122.694 200.151 122.831 200.25 123.013Z" fill="#263238"/>
<path d="M199.607 124.181C199.528 124.196 199.447 124.196 199.368 124.181C199.164 124.12 198.992 123.983 198.888 123.798C198.793 123.608 198.772 123.39 198.83 123.185C198.86 123.083 198.91 122.988 198.978 122.906C199.045 122.823 199.129 122.756 199.224 122.707C199.316 122.655 199.419 122.623 199.525 122.613C199.63 122.603 199.737 122.615 199.838 122.649C200.035 122.707 200.202 122.84 200.302 123.019C200.402 123.198 200.429 123.409 200.375 123.607C200.347 123.71 200.298 123.806 200.23 123.888C200.162 123.971 200.077 124.038 199.982 124.086C199.868 124.15 199.738 124.183 199.607 124.181ZM199.607 122.62C199.484 122.622 199.363 122.651 199.252 122.707C199.077 122.804 198.947 122.965 198.888 123.157C198.859 123.251 198.849 123.351 198.859 123.45C198.869 123.548 198.898 123.644 198.945 123.731C198.991 123.821 199.054 123.901 199.132 123.965C199.209 124.03 199.299 124.077 199.396 124.105C199.588 124.162 199.795 124.142 199.972 124.047C200.147 123.95 200.278 123.789 200.337 123.597C200.368 123.485 200.372 123.367 200.35 123.253C200.328 123.139 200.28 123.031 200.21 122.938C200.139 122.846 200.048 122.77 199.944 122.719C199.839 122.667 199.724 122.64 199.607 122.64V122.62Z" fill="#263238"/>
<path d="M203.235 122.295C203.333 122.476 203.354 122.689 203.295 122.887C203.236 123.084 203.1 123.25 202.918 123.348C202.736 123.446 202.523 123.467 202.325 123.408C202.127 123.349 201.961 123.214 201.863 123.032C201.812 122.942 201.781 122.844 201.77 122.742C201.759 122.64 201.768 122.537 201.798 122.438C201.827 122.34 201.876 122.249 201.942 122.17C202.007 122.091 202.088 122.026 202.179 121.978C202.362 121.883 202.574 121.862 202.772 121.921C202.969 121.98 203.135 122.114 203.235 122.295Z" fill="#263238"/>
<path d="M202.553 123.473C202.474 123.487 202.393 123.487 202.314 123.473C202.11 123.411 201.938 123.274 201.834 123.09C201.735 122.9 201.715 122.679 201.778 122.475C201.84 122.271 201.981 122.099 202.17 121.998C202.263 121.947 202.365 121.915 202.47 121.903C202.575 121.892 202.682 121.901 202.784 121.931C202.988 121.996 203.159 122.136 203.264 122.323C203.363 122.512 203.384 122.732 203.321 122.936C203.258 123.141 203.117 123.313 202.928 123.415C202.81 123.466 202.681 123.486 202.553 123.473ZM202.553 121.912C202.43 121.913 202.309 121.942 202.198 121.998C202.068 122.071 201.962 122.181 201.893 122.313C201.824 122.446 201.795 122.595 201.811 122.744C201.826 122.893 201.885 123.033 201.979 123.149C202.073 123.265 202.2 123.351 202.342 123.396C202.535 123.45 202.74 123.429 202.918 123.339C203.095 123.243 203.227 123.082 203.284 122.89C203.342 122.697 203.321 122.49 203.225 122.314C203.18 122.224 203.117 122.144 203.039 122.08C202.961 122.016 202.871 121.968 202.774 121.94C202.699 121.92 202.622 121.91 202.544 121.912H202.553Z" fill="#263238"/>
<path d="M206.085 121.73C206.135 121.819 206.167 121.918 206.178 122.02C206.189 122.122 206.18 122.225 206.15 122.323C206.12 122.422 206.071 122.513 206.006 122.592C205.94 122.671 205.86 122.736 205.768 122.783C205.583 122.879 205.368 122.898 205.169 122.837C204.97 122.776 204.803 122.64 204.703 122.458C204.606 122.275 204.586 122.061 204.648 121.863C204.709 121.666 204.846 121.501 205.029 121.404C205.213 121.308 205.427 121.288 205.625 121.349C205.823 121.41 205.988 121.547 206.085 121.73Z" fill="#263238"/>
<path d="M205.365 122.898C205.286 122.913 205.205 122.913 205.126 122.898C204.928 122.84 204.762 122.707 204.661 122.528C204.561 122.349 204.535 122.138 204.588 121.94C204.616 121.837 204.666 121.741 204.734 121.659C204.801 121.576 204.886 121.509 204.982 121.461C205.075 121.411 205.177 121.379 205.283 121.368C205.388 121.358 205.495 121.367 205.596 121.398C205.698 121.428 205.793 121.478 205.875 121.545C205.957 121.612 206.025 121.694 206.076 121.787C206.174 121.977 206.195 122.197 206.132 122.402C206.069 122.606 205.928 122.777 205.74 122.879C205.619 122.917 205.49 122.923 205.365 122.898ZM205.365 121.337C205.242 121.338 205.121 121.368 205.01 121.423C204.835 121.521 204.705 121.682 204.646 121.873C204.617 121.968 204.607 122.068 204.617 122.166C204.627 122.265 204.656 122.361 204.703 122.448C204.749 122.537 204.812 122.616 204.888 122.68C204.965 122.745 205.054 122.793 205.15 122.823C205.245 122.852 205.346 122.862 205.446 122.852C205.546 122.842 205.642 122.812 205.73 122.764C205.907 122.669 206.039 122.507 206.096 122.315C206.154 122.123 206.133 121.916 206.037 121.739C205.973 121.617 205.877 121.514 205.758 121.443C205.64 121.372 205.504 121.336 205.365 121.337Z" fill="#263238"/>
<path d="M207.246 118.991L210.01 117.976L216.353 131.306L213.657 132.456L207.246 118.991Z" fill="#E0E0E0"/>
<path d="M143.094 113.714C143.191 114.203 143.245 114.7 143.257 115.198C143.362 116.252 143.506 117.612 143.679 119.259C144.072 122.773 144.639 127.466 145.195 132.666C145.752 137.866 146.241 142.645 146.452 146.074C146.567 147.797 146.615 149.196 146.625 150.163C146.676 150.663 146.676 151.167 146.625 151.666C146.536 151.173 146.488 150.674 146.481 150.172C146.414 149.215 146.308 147.817 146.145 146.102C145.838 142.674 145.33 137.943 144.744 132.695C144.159 127.447 143.65 122.726 143.372 119.288C143.228 117.564 143.151 116.175 143.113 115.208C143.058 114.712 143.051 114.211 143.094 113.714Z" fill="#263238"/>
<path d="M149.437 120.36C148.988 122.779 148.379 125.166 147.613 127.505C147.005 129.886 146.239 132.225 145.32 134.505C145.762 132.086 146.368 129.699 147.134 127.361C147.737 124.977 148.507 122.638 149.437 120.36Z" fill="#263238"/>
<path d="M170.876 138.767C170.568 138.396 170.348 137.96 170.233 137.493C169.516 135.286 169.667 132.889 170.655 130.789C171.048 129.994 171.403 129.573 171.451 129.611C170.868 131.064 170.481 132.587 170.3 134.141C170.291 135.701 170.484 137.256 170.876 138.767Z" fill="#263238"/>
<path d="M167.555 169.546L171.269 169.834L169.801 185.3L166.211 184.888L167.555 169.546Z" fill="#E0E0E0"/>
<path d="M103.153 93.5166L83.1249 106.302C80.8371 107.908 79.1298 110.208 78.2567 112.86C77.3835 115.511 77.3913 118.374 78.2787 121.021L93.6331 169.182L88.0959 212.948L131.99 211.09L130.916 191.937L127.192 157.614C126.501 151.25 124.915 145.014 122.48 139.092L103.153 93.5166Z" fill="#0D99FF"/>
<path d="M82.2324 123.626L102.26 165.447C103.06 167.114 104.223 168.581 105.664 169.74C107.106 170.9 108.789 171.724 110.59 172.151L166.173 185.29L167.593 169.134L125.167 153.227L103.825 112.344C103.054 110.873 101.99 109.575 100.697 108.529C99.4051 107.483 97.9122 106.713 96.3104 106.264C94.7086 105.816 93.0318 105.699 91.3832 105.921C89.7345 106.143 88.1488 106.7 86.7236 107.556C84.065 109.16 82.1199 111.716 81.2853 114.702C80.4507 117.689 80.7894 120.88 82.2324 123.626Z" fill="#0D99FF"/>
<path d="M167.593 169.144C167.514 169.137 167.436 169.118 167.363 169.087L166.71 168.866L164.196 167.966L154.888 164.547L123.517 152.844H123.43L123.382 152.758C122.202 150.412 120.954 147.97 119.688 145.451C116.214 138.69 112.749 132.321 109.506 126.585C107.884 123.712 106.32 121.002 104.842 118.464L102.683 114.777C102.337 114.193 101.992 113.628 101.627 113.091C101.284 112.562 100.905 112.057 100.495 111.578C99.064 109.877 97.2298 108.56 95.1589 107.748C93.5977 107.113 91.9206 106.813 90.2359 106.867C88.791 106.893 87.3744 107.271 86.1094 107.968L86.3397 107.805C86.57 107.644 86.8179 107.509 87.0786 107.403C88.072 106.963 89.1403 106.716 90.2263 106.675C91.9414 106.586 93.6559 106.863 95.2548 107.489C98.0028 108.562 100.35 110.459 101.972 112.919C102.356 113.455 102.711 114.03 103.047 114.614L105.226 118.253C106.723 120.782 108.297 123.492 109.938 126.355C113.2 132.101 116.655 138.451 120.167 145.221C121.444 147.721 122.691 150.182 123.852 152.538L123.718 152.413L155.032 164.269L164.283 167.832L166.768 168.79L167.411 169.058L167.593 169.144Z" fill="#263238"/>
<path d="M158.15 179.219C158.15 179.427 158.068 179.627 157.92 179.774C157.772 179.921 157.572 180.004 157.364 180.004C157.155 180.004 156.955 179.921 156.807 179.774C156.66 179.627 156.577 179.427 156.577 179.219C156.577 179.011 156.66 178.811 156.807 178.664C156.955 178.516 157.155 178.434 157.364 178.434C157.572 178.434 157.772 178.516 157.92 178.664C158.068 178.811 158.15 179.011 158.15 179.219Z" fill="#263238"/>
<path d="M157.383 180.043C157.221 180.044 157.062 179.998 156.926 179.909C156.791 179.821 156.684 179.694 156.622 179.544C156.559 179.395 156.542 179.231 156.573 179.072C156.604 178.913 156.682 178.767 156.797 178.653C156.911 178.539 157.057 178.461 157.217 178.43C157.376 178.399 157.54 178.416 157.69 178.478C157.839 178.541 157.967 178.647 158.056 178.782C158.144 178.918 158.191 179.076 158.189 179.238C158.186 179.451 158.101 179.654 157.95 179.804C157.799 179.955 157.596 180.04 157.383 180.043ZM157.383 178.472C157.231 178.47 157.081 178.513 156.954 178.596C156.826 178.679 156.726 178.798 156.667 178.938C156.607 179.078 156.591 179.232 156.619 179.382C156.648 179.531 156.72 179.668 156.827 179.776C156.934 179.884 157.071 179.958 157.22 179.989C157.369 180.019 157.524 180.004 157.665 179.947C157.806 179.889 157.926 179.791 158.011 179.665C158.096 179.539 158.141 179.39 158.141 179.238C158.145 179.136 158.128 179.035 158.092 178.94C158.055 178.845 158 178.758 157.929 178.684C157.859 178.611 157.774 178.553 157.68 178.513C157.586 178.473 157.485 178.453 157.383 178.453V178.472Z" fill="#263238"/>
<path d="M161.126 180.042C161.126 180.25 161.043 180.45 160.895 180.597C160.748 180.745 160.547 180.827 160.339 180.827C160.13 180.827 159.93 180.745 159.782 180.597C159.635 180.45 159.552 180.25 159.552 180.042C159.552 179.834 159.635 179.634 159.782 179.487C159.93 179.34 160.13 179.257 160.339 179.257C160.547 179.257 160.748 179.34 160.895 179.487C161.043 179.634 161.126 179.834 161.126 180.042Z" fill="#263238"/>
<path d="M160.338 180.799C160.179 180.799 160.023 180.752 159.89 180.663C159.758 180.575 159.655 180.449 159.594 180.302C159.533 180.155 159.517 179.993 159.548 179.837C159.579 179.681 159.656 179.538 159.768 179.426C159.881 179.313 160.025 179.236 160.181 179.205C160.337 179.174 160.5 179.19 160.647 179.251C160.794 179.312 160.92 179.415 161.009 179.547C161.097 179.68 161.144 179.835 161.144 179.994C161.144 180.1 161.124 180.205 161.083 180.302C161.043 180.4 160.983 180.489 160.908 180.563C160.833 180.638 160.745 180.697 160.647 180.738C160.549 180.778 160.444 180.799 160.338 180.799ZM160.338 179.238C160.188 179.238 160.042 179.282 159.917 179.365C159.792 179.448 159.695 179.567 159.638 179.705C159.581 179.843 159.566 179.995 159.595 180.142C159.624 180.289 159.696 180.424 159.802 180.529C159.908 180.635 160.043 180.707 160.19 180.736C160.337 180.766 160.49 180.751 160.628 180.693C160.767 180.636 160.885 180.539 160.969 180.415C161.052 180.29 161.096 180.144 161.096 179.994C161.096 179.794 161.017 179.601 160.874 179.459C160.732 179.318 160.539 179.238 160.338 179.238Z" fill="#263238"/>
<path d="M163.121 181.613C163.556 181.613 163.908 181.261 163.908 180.828C163.908 180.394 163.556 180.042 163.121 180.042C162.687 180.042 162.334 180.394 162.334 180.828C162.334 181.261 162.687 181.613 163.121 181.613Z" fill="#263238"/>
<path d="M163.141 181.632C162.981 181.632 162.825 181.585 162.693 181.497C162.56 181.408 162.457 181.283 162.396 181.136C162.335 180.989 162.319 180.827 162.35 180.671C162.381 180.515 162.458 180.372 162.571 180.259C162.683 180.147 162.827 180.07 162.983 180.039C163.14 180.008 163.302 180.024 163.449 180.085C163.596 180.146 163.722 180.249 163.811 180.381C163.899 180.513 163.947 180.669 163.947 180.828C163.947 181.041 163.862 181.246 163.711 181.397C163.559 181.548 163.354 181.632 163.141 181.632ZM163.141 180.071C162.94 180.071 162.747 180.151 162.605 180.293C162.462 180.435 162.382 180.627 162.382 180.828C162.382 181.029 162.462 181.221 162.605 181.363C162.747 181.505 162.94 181.584 163.141 181.584C163.342 181.584 163.534 181.505 163.677 181.363C163.819 181.221 163.899 181.029 163.899 180.828C163.899 180.627 163.819 180.435 163.677 180.293C163.534 180.151 163.342 180.071 163.141 180.071Z" fill="#263238"/>
<path d="M166.173 185.3L165.904 185.252L165.127 185.08L162.133 184.361L151.135 181.661C141.855 179.391 129.063 176.173 114.841 172.889C113.066 172.467 111.31 172.132 109.573 171.663C107.809 171.261 106.166 170.451 104.774 169.297C103.558 168.085 102.582 166.656 101.895 165.083L99.8034 160.717L92.6253 145.566L87.827 135.338L86.5507 132.551L86.2244 131.824C86.1848 131.74 86.1527 131.654 86.1284 131.565C86.1284 131.565 86.186 131.642 86.2724 131.795L86.637 132.513L88.0093 135.262C89.1897 137.694 90.8883 141.151 92.9611 145.422L100.245 160.515C100.926 161.933 101.636 163.388 102.347 164.873C103.026 166.387 103.979 167.763 105.158 168.933C106.482 170.027 108.043 170.797 109.717 171.184C111.415 171.644 113.191 171.979 114.966 172.41C129.178 175.694 141.971 178.96 151.231 181.326L162.19 184.199L165.156 185.003L165.923 185.223C166.009 185.238 166.093 185.264 166.173 185.3Z" fill="#263238"/>
<path d="M121.281 182.676C121.281 182.676 121.069 182.906 120.618 183.231C120.167 183.557 119.524 184.036 118.699 184.582C116.557 186.062 114.235 187.266 111.79 188.163C109.318 189.066 106.657 189.333 104.055 188.939C103.271 188.808 102.505 188.59 101.771 188.288C101.499 188.189 101.243 188.05 101.013 187.876C102.029 188.169 103.061 188.409 104.103 188.594C106.647 188.87 109.22 188.562 111.626 187.694C114.033 186.799 116.339 185.657 118.507 184.285C119.396 183.69 120.323 183.152 121.281 182.676Z" fill="#263238"/>
<path d="M123.718 188.23C123.779 188.345 123.825 188.467 123.852 188.594C123.962 188.946 124.049 189.304 124.111 189.667C124.343 191.011 124.343 192.384 124.111 193.727C123.741 195.73 122.884 197.61 121.616 199.205C120.021 201.15 117.867 202.56 115.444 203.245C113.021 203.93 110.446 203.857 108.066 203.036C106.152 202.327 104.442 201.159 103.085 199.636C102.173 198.617 101.446 197.447 100.936 196.179C100.806 195.837 100.694 195.489 100.6 195.135C100.542 194.886 100.514 194.752 100.533 194.752C101.168 196.464 102.122 198.04 103.345 199.397C104.692 200.836 106.363 201.936 108.22 202.605C110.507 203.374 112.973 203.438 115.297 202.789C117.622 202.14 119.696 200.808 121.252 198.966C122.496 197.439 123.355 195.636 123.756 193.708C124.09 191.896 124.077 190.038 123.718 188.23Z" fill="#263238"/>
<path d="M105.312 55.3916L105.437 91.0745C105.445 92.5104 105.746 93.9296 106.32 95.2462C106.894 96.5629 107.73 97.7496 108.777 98.7345C109.824 99.7194 111.06 100.482 112.411 100.976C113.762 101.47 115.199 101.685 116.636 101.609C119.354 101.452 121.908 100.264 123.774 98.2868C125.641 96.3099 126.679 93.695 126.674 90.9788C126.674 88.2877 126.674 86.0467 126.674 85.7786C126.674 85.7786 135.772 84.888 136.395 75.8954C136.702 71.5476 136.587 62.5455 136.395 54.4052C136.298 50.1863 134.612 46.1589 131.672 43.1256C128.732 40.0923 124.754 38.276 120.532 38.0386H119.659C110.283 38.0195 105.034 45.9681 105.312 55.3916Z" fill="#F3B08D"/>
<path d="M126.732 85.654C122.58 85.4893 118.571 84.0958 115.216 81.6509C115.216 81.6509 117.625 88.2875 126.664 87.9907L126.732 85.654Z" fill="#AA6550"/>
<path d="M134.207 59.7014C134.192 60.0384 134.045 60.356 133.797 60.5854C133.549 60.8148 133.221 60.9376 132.883 60.9272C132.718 60.9311 132.555 60.9019 132.402 60.8414C132.249 60.7809 132.109 60.6904 131.992 60.5752C131.875 60.4599 131.782 60.3223 131.719 60.1706C131.656 60.0189 131.624 59.856 131.626 59.6918C131.643 59.3573 131.79 59.0426 132.035 58.814C132.28 58.5853 132.605 58.4606 132.94 58.466C133.105 58.4635 133.268 58.4935 133.421 58.5543C133.574 58.6151 133.714 58.7056 133.831 58.8204C133.949 58.9353 134.043 59.0722 134.107 59.2234C134.172 59.3746 134.206 59.5371 134.207 59.7014Z" fill="#263238"/>
<path d="M134.457 58.188C134.293 58.3413 133.353 57.5656 131.971 57.4889C130.589 57.4123 129.524 58.054 129.39 57.872C129.255 57.6901 129.495 57.4985 129.956 57.2016C130.58 56.8206 131.308 56.6432 132.038 56.6941C132.742 56.739 133.413 57.0037 133.958 57.4506C134.418 57.805 134.543 58.1114 134.457 58.188Z" fill="#263238"/>
<path d="M120.734 59.5961C120.719 59.9314 120.573 60.2475 120.327 60.4767C120.081 60.7058 119.755 60.8298 119.419 60.8219C119.254 60.8258 119.091 60.7966 118.938 60.7361C118.785 60.6756 118.645 60.5851 118.528 60.4699C118.411 60.3546 118.318 60.2171 118.255 60.0653C118.192 59.9136 118.16 59.7508 118.162 59.5865C118.177 59.2512 118.323 58.9351 118.568 58.7059C118.814 58.4768 119.14 58.3529 119.476 58.3607C119.641 58.3568 119.805 58.386 119.958 58.4465C120.111 58.507 120.25 58.5975 120.367 58.7128C120.484 58.828 120.577 58.9656 120.64 59.1173C120.703 59.2691 120.735 59.4319 120.734 59.5961Z" fill="#263238"/>
<path d="M120.667 57.8722C120.494 58.035 119.563 57.2497 118.172 57.1827C116.78 57.1157 115.734 57.7382 115.59 57.5562C115.446 57.3742 115.705 57.1923 116.166 56.8954C116.787 56.5142 117.511 56.3335 118.239 56.3783C118.96 56.4197 119.651 56.6841 120.216 57.1348C120.619 57.4604 120.743 57.8052 120.667 57.8722Z" fill="#263238"/>
<path d="M125.052 68.7418C125.797 68.561 126.56 68.4678 127.327 68.4641C127.682 68.4641 128.027 68.397 128.094 68.1576C128.144 67.7971 128.083 67.4302 127.922 67.1042C127.634 66.2327 127.336 65.3133 127.029 64.3556C125.791 60.4388 124.918 57.2306 125.11 57.1827C125.302 57.1348 126.367 60.2664 127.634 64.1641C127.922 65.1218 128.21 66.0794 128.478 66.9222C128.679 67.361 128.716 67.8566 128.584 68.3204C128.524 68.4414 128.438 68.5473 128.332 68.6303C128.225 68.7132 128.102 68.771 127.97 68.7992C127.771 68.8396 127.568 68.8589 127.365 68.8567C126.592 68.9222 125.815 68.8835 125.052 68.7418Z" fill="#263238"/>
<path d="M121.223 54.999C121.06 55.3725 119.688 55.1139 118.056 55.2192C116.425 55.3246 115.072 55.6885 114.88 55.3342C114.794 55.1714 115.043 54.8266 115.59 54.501C116.318 54.0983 117.128 53.8658 117.959 53.821C118.791 53.7762 119.621 53.9203 120.388 54.2424C121.012 54.5106 121.29 54.8266 121.223 54.999Z" fill="#263238"/>
<path d="M134.351 54.8843C134.092 55.1812 133.152 54.8077 132.01 54.7215C130.868 54.6353 129.879 54.8173 129.668 54.4725C129.582 54.3097 129.754 54.0033 130.196 53.7255C130.78 53.4005 131.449 53.2603 132.115 53.3233C132.788 53.3722 133.429 53.6301 133.948 54.0607C134.351 54.4055 134.457 54.7407 134.351 54.8843Z" fill="#263238"/>
<path d="M105.667 62.0955C105.514 62.0189 99.5733 59.9216 99.4198 66.0794C99.2662 72.2372 105.494 71.1263 105.514 70.954C105.533 70.7816 105.667 62.0955 105.667 62.0955Z" fill="#F3B08D"/>
<path d="M103.642 68.5691C103.642 68.5691 103.536 68.6457 103.354 68.7223C103.096 68.8287 102.806 68.8287 102.548 68.7223C102.156 68.4601 101.84 68.0983 101.635 67.6741C101.429 67.25 101.34 66.7788 101.377 66.309C101.374 65.7828 101.489 65.2625 101.713 64.7863C101.775 64.5939 101.884 64.4198 102.029 64.2795C102.175 64.1391 102.353 64.0369 102.548 63.9818C102.671 63.9528 102.801 63.9675 102.915 64.0234C103.029 64.0793 103.12 64.173 103.172 64.2883C103.249 64.4607 103.172 64.5852 103.239 64.5947C103.306 64.6043 103.373 64.499 103.335 64.2404C103.3 64.0871 103.215 63.9493 103.095 63.8478C103.014 63.782 102.92 63.733 102.82 63.7034C102.719 63.6738 102.614 63.6643 102.51 63.6754C102.251 63.7217 102.009 63.8344 101.807 64.0023C101.605 64.1702 101.45 64.3875 101.358 64.6331C101.084 65.1593 100.942 65.7445 100.945 66.3377C100.9 66.8862 101.019 67.4357 101.287 67.9165C101.556 68.3974 101.961 68.7878 102.452 69.0383C102.612 69.0889 102.781 69.1031 102.947 69.0799C103.113 69.0567 103.272 68.9967 103.412 68.9043C103.642 68.7223 103.709 68.5787 103.642 68.5691Z" fill="#AA6550"/>
<path d="M102.251 61.6932C102.838 61.6884 103.416 61.8426 103.923 62.1394C104.43 62.4362 104.847 62.8644 105.13 63.3787C105.475 64.2789 105.513 65.294 105.859 66.1847C105.991 66.6504 106.275 67.0587 106.666 67.3449C107.058 67.6311 107.533 67.7789 108.018 67.7648C108.345 67.6836 108.645 67.5178 108.888 67.2842C109.13 67.0505 109.307 66.7571 109.4 66.4337C109.566 65.7866 109.609 65.114 109.525 64.4513C109.333 61.5783 108.882 58.7053 108.939 55.7748C108.871 52.8545 109.669 49.9791 111.233 47.5101C112.033 46.2931 113.147 45.3132 114.457 44.673C115.767 44.0328 117.226 43.7557 118.68 43.8709C120.599 44.139 122.288 45.2308 124.169 45.6043C125.294 45.8208 126.454 45.7781 127.56 45.4794C128.666 45.1806 129.689 44.6338 130.551 43.8805C130.649 43.8014 130.751 43.7279 130.858 43.6602C131.172 43.4646 131.411 43.1699 131.538 42.8228C131.665 42.4758 131.672 42.0964 131.558 41.7449C131.497 41.5215 131.386 41.3151 131.232 41.1415C127.653 37.4353 120.897 36.0754 115.878 37.0523C113.306 37.53 110.869 38.5603 108.737 40.0718C106.604 41.5833 104.826 43.5397 103.527 45.8054C101.118 50.3543 101.377 56.8761 102.299 61.6645" fill="#263238"/>
<path d="M121.78 69.8332C122.01 69.8332 122.01 71.3176 123.296 72.3806C124.582 73.4436 126.175 73.2808 126.175 73.4819C126.175 73.683 125.82 73.7788 125.139 73.798C124.258 73.808 123.403 73.5098 122.72 72.9552C122.086 72.4295 121.674 71.6836 121.569 70.8675C121.511 70.1875 121.684 69.8236 121.78 69.8332Z" fill="#263238"/>
<path d="M208.014 120.504C208.014 120.504 214.779 114.576 216.056 114.145C217.332 113.714 227.571 113.513 228.205 114.03C228.838 114.547 239.202 120.178 237.494 121.04C235.786 121.902 228.637 117.861 228.637 117.861L227.437 118.023C227.437 118.023 233.675 121.346 234.778 122.62C235.882 123.894 234.778 125.215 233.665 124.67C232.552 124.124 227.149 121.05 226.727 121.165C226.305 121.279 232.427 124.861 232.993 125.522C233.752 126.413 233.262 128.136 232.082 127.638C231.391 127.342 225.748 123.607 225.748 123.607C227.346 124.914 228.871 126.308 230.316 127.782C230.815 128.74 229.855 129.602 228.867 128.998C228.195 128.586 225.287 125.742 224.385 125.168C224.385 125.168 223.426 125.101 221.919 126.662C220.412 128.223 214.645 130.368 214.645 130.368L208.014 120.504Z" fill="#F3B08D"/>
<path d="M237.465 121.059C236.735 121.169 235.989 121.124 235.277 120.925C234.493 120.768 233.725 120.537 232.984 120.236C232.187 119.862 231.314 119.412 230.393 118.952L228.474 117.995H228.608C226.86 118.092 225.108 118.044 223.368 117.851C225.097 117.576 226.847 117.451 228.598 117.478H228.656H228.723L230.642 118.435L233.195 119.747C233.9 120.061 234.629 120.32 235.373 120.523C236.64 120.896 237.475 120.973 237.465 121.059Z" fill="#AA6550"/>
<path d="M210.528 122.218C210.807 122.611 211.202 122.908 211.658 123.066C212.114 123.224 212.608 123.235 213.071 123.099C214.031 122.898 214.866 122.381 215.787 122.141C218.561 121.346 221.641 122.821 224.366 121.892C224.75 121.768 225.173 121.48 225.134 121.088C225.096 120.695 224.674 120.532 224.318 120.417L215.221 117.544" fill="#F3B08D"/>
<path d="M215.221 117.497C215.567 117.529 215.908 117.6 216.238 117.707C216.881 117.88 217.802 118.148 218.944 118.483L222.936 119.69L224.088 120.044C224.453 120.188 224.98 120.216 225.326 120.781C225.393 120.927 225.414 121.09 225.389 121.248C225.363 121.407 225.291 121.554 225.182 121.672C225.002 121.863 224.778 122.008 224.529 122.093C224.082 122.248 223.618 122.351 223.147 122.4C221.432 122.431 219.716 122.338 218.013 122.122C217.294 122.083 216.573 122.151 215.873 122.323C215.23 122.505 214.635 122.783 214.069 122.984C213.619 123.197 213.128 123.307 212.63 123.307C212.132 123.307 211.64 123.197 211.19 122.984C210.576 122.62 210.48 122.189 210.499 122.189C210.721 122.438 210.988 122.642 211.286 122.793C211.711 122.944 212.162 123.005 212.612 122.972C213.061 122.939 213.499 122.813 213.896 122.601C214.491 122.324 215.1 122.078 215.72 121.864C216.462 121.655 217.233 121.565 218.004 121.595C219.683 121.774 221.372 121.854 223.061 121.835C223.483 121.789 223.898 121.696 224.299 121.557C224.673 121.423 224.932 121.155 224.817 120.983C224.702 120.81 224.299 120.638 223.858 120.513L222.706 120.14L218.8 118.847C217.677 118.464 216.766 118.148 216.142 117.889C215.819 117.799 215.509 117.667 215.221 117.497Z" fill="#AA6550"/>
<path d="M169.599 169.92L180.817 168.818C180.817 168.818 195.653 178.951 194.252 181.182C192.851 183.413 190.414 181.182 190.414 181.182C190.414 181.182 193.062 184.428 188.792 185.444C188.792 185.444 187.775 187.675 186.153 187.474H185.136C185.136 187.474 184.176 190.299 182.842 189.696C181.508 189.092 177.334 185.434 177.334 185.434L165.818 184.419L169.599 169.92Z" fill="#F3B08D"/>
<path d="M176.576 181.469C176.576 181.469 173.697 182.571 173.111 183.72C172.526 184.869 172.152 187.551 174.014 188.077C175.105 188.152 176.201 188.117 177.286 187.972L176.576 184.965C177.11 184.341 177.68 183.75 178.284 183.193C178.898 182.686 178.226 180.703 176.576 181.469Z" fill="#FFBE9D"/>
<path d="M179.81 183.002C179.81 183.002 176.931 184.103 176.345 185.252C176.176 185.59 176.085 185.962 176.079 186.339C176.073 186.717 176.152 187.091 176.311 187.434C176.469 187.777 176.703 188.08 176.995 188.321C177.286 188.562 177.629 188.734 177.996 188.824C178.985 188.903 179.98 188.871 180.961 188.729L180.654 188.144C180.079 187.014 179.829 186.095 180.846 185.339C180.904 185.339 181.48 184.764 181.518 184.726C181.668 184.488 181.732 184.206 181.702 183.927C181.671 183.648 181.547 183.388 181.349 183.188C181.151 182.988 180.891 182.861 180.612 182.827C180.332 182.794 180.05 182.855 179.81 183.002Z" fill="#FFBE9D"/>
<path d="M180.501 188.662C180.258 188.399 180.105 188.067 180.064 187.713C180.022 187.358 180.095 187 180.271 186.689C180.649 186.073 181.256 185.633 181.96 185.463C182.175 185.374 182.412 185.346 182.642 185.383C182.873 185.42 183.088 185.521 183.265 185.674C183.354 185.796 183.418 185.936 183.451 186.085C183.484 186.233 183.486 186.386 183.457 186.536C183.27 187.322 182.88 188.045 182.324 188.633C182.055 188.968 181.729 189.332 181.297 189.322C180.866 189.313 180.549 188.911 180.338 188.556" fill="#FFBE9D"/>
<path d="M119.87 98.3625L122.384 97.4048L124.572 101.303L123.353 105.468L120.782 106.1L118.219 102.873L119.87 98.3625Z" fill="#ED5100"/>
<path d="M120.782 106.101C120.782 106.101 124.054 124.019 126.77 136.622C126.77 136.622 129.006 147.156 129.908 149.541C131.027 151.921 132.408 154.169 134.025 156.244L137.182 157.461L135.263 139.753L123.363 105.43L120.782 106.101Z" fill="#ED5100"/>
<g opacity="0.4">
<path d="M119.87 98.3625L122.384 97.4048L124.572 101.303L123.353 105.468L120.782 106.1L118.219 102.873L119.87 98.3625Z" fill="#ED5100"/>
</g>
<g opacity="0.4">
<path d="M120.782 106.101C120.782 106.101 124.054 124.019 126.77 136.622C126.77 136.622 129.332 147.022 129.908 149.541C130.244 151.015 134.025 156.244 134.025 156.244L137.182 157.461L135.263 139.753L123.363 105.43L120.782 106.101Z" fill="#ED5100"/>
</g>
<path d="M104.727 87.4736L119.87 98.3624L116.597 107.345L102.817 93.1909L104.727 87.4736Z" fill="#F5F5F5"/>
<path d="M122.384 97.4046L126.616 87.9907L129.015 95.7574L125.685 103.926L122.384 97.4046Z" fill="#F5F5F5"/>
<path d="M119.87 98.3625C119.84 98.5984 119.782 98.8299 119.697 99.052C119.524 99.5691 119.323 100.192 119.083 100.967C118.545 102.567 117.759 104.798 116.808 107.46L116.684 107.824L116.415 107.537L112.893 103.649C110.149 100.613 107.682 97.8453 105.926 95.8246L103.853 93.4113C103.582 93.1188 103.344 92.7977 103.143 92.4536C103.454 92.692 103.741 92.9616 103.997 93.2581L106.185 95.5565C108.018 97.4718 110.523 100.249 113.258 103.285C114.496 104.664 115.676 105.986 116.77 107.192L116.377 107.269C117.336 104.645 118.2 102.413 118.814 100.843L119.553 99.0041C119.625 98.7751 119.731 98.5586 119.87 98.3625Z" fill="#263238"/>
<path d="M129.015 95.7671C128.856 96.524 128.618 97.2622 128.305 97.9697C127.806 99.3105 127.096 101.14 126.271 103.16L125.916 104.022L125.666 104.635L125.455 104.013C124.615 101.873 123.604 99.8041 122.432 97.8261C122.937 98.2777 123.365 98.8081 123.699 99.3967C124.617 100.787 125.364 102.282 125.925 103.85H125.455C125.57 103.572 125.695 103.275 125.81 102.978C126.635 100.967 127.403 99.1477 127.979 97.8452C128.242 97.1147 128.59 96.4173 129.015 95.7671Z" fill="#263238"/>
<path d="M321.483 379.334L327.318 402.452L337.212 419.46C337.381 419.75 337.489 420.072 337.528 420.405C337.568 420.738 337.539 421.075 337.443 421.397C337.347 421.718 337.185 422.016 336.969 422.273C336.752 422.53 336.486 422.739 336.185 422.889C335.839 423.066 335.456 423.159 335.067 423.159C334.678 423.159 334.295 423.066 333.949 422.889C329.496 420.495 313.182 411.608 312.836 409.893C312.453 407.901 305.054 385.904 305.054 385.904L321.483 379.334Z" fill="#0D99FF"/>
<g opacity="0.6">
<path d="M336.185 422.841L312.424 408.256L312.693 409.214C312.923 410.056 313.447 410.79 314.17 411.282C316.09 412.594 321.541 416.07 333.872 422.774C334.228 422.963 334.625 423.062 335.028 423.062C335.432 423.062 335.829 422.963 336.185 422.774V422.841Z" fill="white"/>
</g>
<g opacity="0.6">
<path d="M315.092 399.531C315.442 399.652 315.734 399.898 315.911 400.222C316.089 400.546 316.139 400.925 316.051 401.284C315.944 401.638 315.703 401.937 315.378 402.116C315.054 402.294 314.672 402.34 314.314 402.241C313.951 402.107 313.652 401.842 313.474 401.498C313.297 401.154 313.254 400.757 313.355 400.384C313.514 400.034 313.804 399.761 314.163 399.621C314.521 399.482 314.92 399.487 315.274 399.637" fill="white"/>
</g>
<path d="M328.143 414.251C328.489 413.377 329.004 412.58 329.659 411.904C330.409 411.333 331.263 410.914 332.173 410.669C332.173 410.602 331.838 410.506 331.281 410.573C330.564 410.708 329.9 411.039 329.362 411.531C328.805 412.019 328.402 412.658 328.2 413.369C328.018 413.896 328.076 414.241 328.143 414.251Z" fill="#263238"/>
<path d="M323.997 411.148C324.781 410.222 325.638 409.36 326.559 408.572C327.58 407.912 328.648 407.329 329.755 406.829C328.464 406.836 327.218 407.305 326.243 408.15C325.156 408.846 324.358 409.911 323.997 411.148Z" fill="#263238"/>
<path d="M321.627 404.262C321.733 404.386 322.855 403.505 324.506 402.988C326.157 402.471 327.567 402.509 327.577 402.347C326.515 402.019 325.372 402.07 324.343 402.49C323.257 402.744 322.295 403.371 321.627 404.262Z" fill="#263238"/>
<path d="M319.746 397.52C320.658 396.918 321.65 396.444 322.692 396.113C323.771 395.935 324.869 395.91 325.955 396.036C325.955 395.979 325.648 395.758 324.995 395.595C324.184 395.407 323.34 395.41 322.53 395.604C321.721 395.799 320.968 396.179 320.331 396.716C319.89 397.137 319.698 397.482 319.746 397.52Z" fill="#263238"/>
<path d="M322.289 394.839C322.289 394.534 322.22 394.233 322.088 393.958C321.784 393.184 321.334 392.475 320.763 391.87C320.378 391.396 319.85 391.06 319.257 390.912C319.057 390.88 318.851 390.912 318.67 391.003C318.489 391.094 318.342 391.24 318.249 391.42C318.081 391.777 318.054 392.184 318.172 392.56C318.438 393.317 318.96 393.958 319.649 394.372C320.337 394.786 321.149 394.948 321.944 394.829C322.727 394.695 323.453 394.332 324.03 393.786C324.607 393.241 325.01 392.538 325.187 391.765C325.23 391.57 325.229 391.368 325.186 391.173C325.143 390.978 325.058 390.794 324.938 390.635C324.802 390.485 324.622 390.382 324.423 390.341C324.225 390.3 324.019 390.322 323.834 390.405C323.302 390.688 322.852 391.104 322.529 391.612C322.042 392.283 321.678 393.035 321.454 393.833C321.348 394.118 321.302 394.421 321.32 394.724C321.678 393.698 322.186 392.729 322.827 391.851C323.125 391.423 323.524 391.075 323.988 390.836C324.087 390.785 324.2 390.768 324.31 390.789C324.42 390.81 324.519 390.867 324.592 390.951C324.663 391.062 324.709 391.187 324.729 391.317C324.749 391.447 324.741 391.58 324.707 391.707C324.532 392.375 324.167 392.978 323.656 393.443C323.145 393.909 322.511 394.217 321.829 394.331C321.152 394.427 320.462 394.289 319.874 393.941C319.286 393.593 318.835 393.055 318.595 392.416C318.502 392.159 318.502 391.878 318.595 391.621C318.646 391.521 318.727 391.44 318.827 391.388C318.926 391.337 319.04 391.318 319.151 391.334C319.652 391.46 320.101 391.737 320.437 392.129C321.214 392.913 321.841 393.831 322.289 394.839Z" fill="#263238"/>
<path d="M249.106 383.653L250.344 401.475C250.344 401.475 232.61 408.715 232.514 412.01L267.224 410.841L266.447 383.069L249.106 383.653Z" fill="#0D99FF"/>
<path d="M261.025 399.617C261.363 399.706 261.657 399.916 261.848 400.208C262.04 400.5 262.116 400.853 262.062 401.197C261.983 401.537 261.777 401.834 261.486 402.026C261.195 402.219 260.841 402.292 260.497 402.232C260.14 402.137 259.831 401.913 259.631 401.603C259.43 401.293 259.353 400.92 259.413 400.556C259.529 400.209 259.777 399.92 260.103 399.752C260.429 399.584 260.808 399.549 261.159 399.656" fill="#E0E0E0"/>
<path d="M267.224 410.841L267.042 408.045L233.828 410.2C233.828 410.2 232.303 410.918 232.514 412L267.224 410.841Z" fill="#E0E0E0"/>
<path d="M249.778 401.312C249.778 401.485 250.642 401.533 251.486 402.05C252.331 402.567 252.81 403.256 252.964 403.189C253.118 403.122 252.83 402.146 251.793 401.542C250.757 400.939 249.74 401.159 249.778 401.312Z" fill="#263238"/>
<path d="M246.188 402.941C246.188 403.104 246.899 403.362 247.494 404.061C248.089 404.76 248.29 405.507 248.453 405.498C248.616 405.488 248.703 404.54 247.935 403.669C247.167 402.797 246.188 402.778 246.188 402.941Z" fill="#263238"/>
<path d="M244.26 407.355C244.423 407.355 244.625 406.532 244.164 405.622C243.703 404.712 242.888 404.367 242.82 404.511C242.753 404.655 243.262 405.133 243.636 405.89C244.01 406.647 244.097 407.346 244.26 407.355Z" fill="#263238"/>
<path d="M249.95 397.223C250.027 397.377 250.795 397.118 251.755 397.147C252.714 397.175 253.472 397.453 253.549 397.309C253.626 397.166 252.897 396.582 251.764 396.563C250.632 396.543 249.854 397.089 249.95 397.223Z" fill="#263238"/>
<path d="M249.768 393.603C250.343 393.737 250.943 393.714 251.505 393.536C252.126 393.402 252.729 393.193 253.3 392.914C253.633 392.753 253.954 392.568 254.259 392.358C254.453 392.241 254.627 392.096 254.777 391.927C254.884 391.804 254.947 391.648 254.955 391.485C254.964 391.322 254.918 391.161 254.825 391.027C254.735 390.913 254.62 390.821 254.488 390.758C254.357 390.695 254.213 390.662 254.067 390.663C253.845 390.668 253.625 390.706 253.415 390.778C253.049 390.881 252.692 391.016 252.35 391.18C251.775 391.466 251.247 391.837 250.785 392.282C249.998 393.057 249.749 393.699 249.826 393.728C249.902 393.756 250.277 393.239 251.073 392.598C251.539 392.214 252.051 391.893 252.599 391.64C252.909 391.498 253.23 391.383 253.559 391.295C253.923 391.19 254.23 391.171 254.336 391.295C254.442 391.42 254.336 391.381 254.336 391.496C254.221 391.614 254.092 391.717 253.952 391.803C253.662 392.005 253.361 392.191 253.05 392.358C252.522 392.641 251.97 392.875 251.399 393.057C250.842 393.194 250.296 393.377 249.768 393.603Z" fill="#263238"/>
<path d="M249.989 393.852C250.056 393.852 250.373 393.259 250.392 392.167C250.402 391.516 250.301 390.869 250.094 390.252C249.97 389.891 249.81 389.545 249.614 389.217C249.513 388.992 249.356 388.796 249.158 388.649C248.96 388.501 248.727 388.407 248.482 388.375C248.328 388.383 248.179 388.436 248.053 388.525C247.927 388.615 247.83 388.739 247.772 388.882C247.686 389.087 247.631 389.303 247.609 389.524C247.55 389.911 247.55 390.305 247.609 390.692C247.727 391.34 248.004 391.948 248.415 392.464C249.125 393.335 249.835 393.517 249.845 393.421C249.854 393.326 249.298 393.029 248.751 392.186C248.435 391.696 248.229 391.144 248.146 390.568C248.098 390.234 248.098 389.895 248.146 389.562C248.146 389.198 248.319 388.892 248.453 388.93C248.588 388.968 248.933 389.189 249.087 389.476C249.264 389.783 249.418 390.103 249.547 390.434C249.761 390.983 249.894 391.56 249.941 392.148C250.056 393.192 249.902 393.833 249.989 393.852Z" fill="#263238"/>
<path d="M239.634 189.792L245.219 397.176L272.598 396.362L270.497 218.359L305.39 401.303L330.12 394.868L298.192 190.184L239.634 189.792Z" fill="#263238"/>
<path d="M254.643 397.434C254.499 397.434 254.394 354.444 254.394 301.427C254.394 248.411 254.499 205.411 254.643 205.411C254.787 205.411 254.893 248.391 254.893 301.427C254.893 354.463 254.777 397.434 254.643 397.434Z" fill="#455A64"/>
<path d="M313.201 401.265C313.067 401.265 306.676 360.085 298.922 309.213C291.168 258.341 285.016 217.075 285.122 217.056C285.228 217.037 291.657 258.236 299.411 309.117C307.165 359.998 313.345 401.265 313.201 401.265Z" fill="#455A64"/>
<path d="M278.874 60.1033C279.827 57.9683 280.601 55.7581 281.187 53.4954C281.514 51.7812 282.032 49.1954 281.341 47.5865C280.65 45.9777 278.97 44.4358 276.859 44.8668C276.638 43.175 275.99 41.5672 274.974 40.195C273.958 38.8227 272.609 37.7312 271.053 37.0234C268.046 35.5819 264.787 34.7363 261.457 34.5335C260.235 34.4158 259.003 34.5696 257.848 34.9836C256.869 35.4893 256.103 36.3284 255.689 37.349C254.684 36.6229 253.522 36.1424 252.297 35.9461C251.072 35.7498 249.818 35.8433 248.636 36.219C245.987 36.9372 242.974 38.3546 241.813 40.835C240.981 42.6806 240.908 44.7784 241.611 46.6768C242.12 48.2857 243.828 50.8139 245.45 50.2201" fill="#263238"/>
<path d="M265.526 104.827C263.937 104.794 262.372 104.443 260.922 103.795C259.472 103.147 258.168 102.214 257.086 101.053C256.005 99.8913 255.168 98.5248 254.627 97.0344C254.085 95.544 253.849 93.9601 253.933 92.3769C254.096 89.0633 254.25 86.3914 254.25 86.3914C254.25 86.3914 245.21 85.223 244.874 76.2496C244.538 67.2763 245.584 46.6097 245.584 46.6097C250.648 44.2923 256.239 43.3661 261.781 43.9268C267.323 44.4874 272.614 46.5145 277.109 49.7987L278.462 50.7564L277.627 93.2004C277.601 94.7578 277.267 96.2947 276.644 97.7228C276.021 99.1509 275.121 100.442 273.997 101.522C272.872 102.603 271.545 103.451 270.092 104.018C268.638 104.585 267.086 104.86 265.526 104.827Z" fill="#FFBE9D"/>
<path d="M254.231 86.3051C258.388 86.277 262.443 85.017 265.881 82.6851C265.881 82.6851 263.107 89.6473 254.106 89.0632L254.231 86.3051Z" fill="#EB996E"/>
<path d="M277.589 60.1224C277.742 60.0554 283.73 58.14 283.682 64.2883C283.634 70.4366 277.473 69.1245 277.464 68.9426C277.454 68.7606 277.589 60.1224 277.589 60.1224Z" fill="#FFBE9D"/>
<path d="M279.354 66.6348C279.354 66.6348 279.469 66.7114 279.642 66.788C279.901 66.8924 280.19 66.8924 280.448 66.788C280.848 66.5377 281.174 66.186 281.393 65.7687C281.613 65.3515 281.717 64.8837 281.696 64.413C281.715 63.8863 281.613 63.3621 281.398 62.8807C281.343 62.6888 281.242 62.5132 281.103 62.3696C280.964 62.226 280.792 62.1187 280.602 62.0571C280.479 62.0243 280.349 62.0349 280.233 62.0874C280.118 62.1398 280.024 62.2307 279.968 62.3444C279.882 62.5168 279.92 62.6413 279.892 62.6509C279.863 62.6605 279.757 62.5456 279.805 62.287C279.847 62.1369 279.934 62.0033 280.055 61.9039C280.226 61.7798 280.44 61.7282 280.65 61.7603C280.902 61.8109 281.137 61.9256 281.332 62.0934C281.527 62.2612 281.675 62.4763 281.763 62.7179C282.023 63.2509 282.145 63.8402 282.118 64.4322C282.145 64.9795 282.009 65.5225 281.727 65.9928C281.445 66.4632 281.03 66.8398 280.534 67.0754C280.371 67.1165 280.201 67.1224 280.036 67.0927C279.87 67.0629 279.713 66.9983 279.575 66.903C279.364 66.7785 279.335 66.6444 279.354 66.6348Z" fill="#EB996E"/>
<path d="M247.916 60.6681C247.923 61.0027 248.061 61.3214 248.299 61.5572C248.537 61.7929 248.857 61.9274 249.192 61.9322C249.354 61.9386 249.516 61.9129 249.668 61.8566C249.82 61.8002 249.96 61.7144 250.079 61.604C250.197 61.4936 250.293 61.3608 250.36 61.2133C250.427 61.0658 250.464 60.9066 250.469 60.7447C250.464 60.4094 250.327 60.0893 250.089 59.853C249.85 59.6167 249.528 59.4831 249.192 59.4806C248.866 59.4702 248.548 59.5893 248.309 59.8118C248.07 60.0343 247.929 60.3421 247.916 60.6681Z" fill="#263238"/>
<path d="M247.59 59.2412C247.753 59.404 248.712 58.6571 250.094 58.6283C251.476 58.5996 252.513 59.2604 252.657 59.088C252.801 58.9156 252.561 58.7145 252.11 58.3985C251.498 58.0059 250.783 57.8057 250.056 57.8239C249.336 57.8397 248.64 58.0846 248.07 58.523C247.657 58.8582 247.523 59.1646 247.59 59.2412Z" fill="#263238"/>
<path d="M261.466 60.6587C261.474 60.9933 261.611 61.312 261.849 61.5477C262.087 61.7835 262.407 61.918 262.743 61.9228C262.906 61.9305 263.069 61.9059 263.223 61.8502C263.377 61.7946 263.518 61.7091 263.639 61.5986C263.759 61.4882 263.856 61.3551 263.925 61.2069C263.994 61.0587 264.032 60.8984 264.038 60.7353C264.033 60.4016 263.898 60.0829 263.662 59.8469C263.425 59.6109 263.106 59.4761 262.771 59.4712C262.607 59.4608 262.442 59.4836 262.287 59.5382C262.131 59.5927 261.988 59.6779 261.867 59.7887C261.745 59.8995 261.647 60.0337 261.578 60.1831C261.509 60.3326 261.471 60.4943 261.466 60.6587Z" fill="#263238"/>
<path d="M261.198 59.1551C261.37 59.3179 262.321 58.5709 263.702 58.5422C265.084 58.5134 266.121 59.1742 266.265 59.0018C266.409 58.8295 266.169 58.6283 265.718 58.3219C265.109 57.9226 264.392 57.7218 263.664 57.7473C262.944 57.7555 262.247 57.9976 261.678 58.4368C261.255 58.772 261.121 59.0784 261.198 59.1551Z" fill="#263238"/>
<path d="M256.438 69.5172C255.704 69.3038 254.946 69.1848 254.183 69.1629C253.827 69.1629 253.492 69.0767 253.424 68.8372C253.393 68.4732 253.466 68.1077 253.636 67.7838C253.952 66.9315 254.279 66.0217 254.595 65.0832C255.948 61.2525 256.918 58.0539 256.764 57.9964C256.61 57.9389 255.382 61.0322 254.029 64.8916L253.069 67.6114C252.856 68.0418 252.802 68.5336 252.916 69.0001C252.971 69.1224 253.053 69.2308 253.156 69.317C253.259 69.4032 253.38 69.4651 253.511 69.498C253.708 69.5504 253.912 69.5729 254.115 69.5651C254.888 69.651 255.669 69.6349 256.438 69.5172Z" fill="#263238"/>
<path d="M260.536 70.3698C260.305 70.3698 260.344 71.8542 259.086 72.9555C257.829 74.0569 256.208 73.9132 256.208 74.1335C256.208 74.3537 256.572 74.4208 257.254 74.4208C258.131 74.4088 258.977 74.0902 259.643 73.5206C260.284 72.9671 260.686 72.1885 260.766 71.3466C260.814 70.7241 260.641 70.3602 260.536 70.3698Z" fill="#263238"/>
<path d="M260.708 53.7539C260.852 54.1274 262.234 53.9167 263.856 54.0699C265.478 54.2231 266.812 54.6349 267.013 54.2902C267.109 54.1274 266.869 53.7826 266.332 53.4283C265.616 53.001 264.811 52.7427 263.979 52.673C263.148 52.6033 262.311 52.724 261.534 53.026C260.939 53.275 260.651 53.6294 260.708 53.7539Z" fill="#263238"/>
<path d="M248.012 55.2288C248.262 55.5353 249.202 55.2288 250.354 55.1426C251.505 55.0564 252.475 55.3054 252.686 54.9702C252.782 54.8074 252.618 54.501 252.187 54.2137C251.61 53.8707 250.944 53.7075 250.273 53.745C249.603 53.7826 248.959 54.0191 248.425 54.4244C248.022 54.75 247.897 55.0851 248.012 55.2288Z" fill="#263238"/>
<path d="M278.941 51.5037C278.884 54.1181 279.546 57.0198 279.143 59.6056C279.085 59.9886 278.107 61.0517 278.02 61.4443C277.55 63.7331 276.629 64.7291 275.218 62.402C274.671 61.5113 274.258 59.0118 274.047 58.0063L272.205 49.799C270.12 50.9485 267.782 51.5638 265.401 51.5898C264.213 51.5872 263.046 51.2836 262.009 50.7073C260.972 50.131 260.098 49.3011 259.47 48.2955C258.929 49.2412 258.181 50.0531 257.282 50.6712C256.383 51.2893 255.357 51.6976 254.278 51.8659C253.2 52.0342 252.098 51.9582 251.053 51.6435C250.008 51.3288 249.047 50.7835 248.242 50.048C247.819 50.6756 247.175 51.1221 246.437 51.2994C245.7 51.4766 244.923 51.3718 244.26 51.0057C243.618 50.5991 243.121 50.0006 242.84 49.2955C242.559 48.5903 242.508 47.8147 242.695 47.0792C243.262 44.867 245.574 43.622 247.753 42.9229C256.246 40.1935 265.765 41.9652 273.567 46.246C274.73 46.8337 275.797 47.5924 276.734 48.4966C277.636 49.4542 278.884 50.5364 278.951 51.8293" fill="#263238"/>
<path d="M272.473 50.7566C272.946 50.7549 273.416 50.8293 273.865 50.9769C274.336 51.1799 274.77 51.4581 275.151 51.8005C275.592 52.1835 276.024 52.6815 276.552 53.17C277.04 53.6747 277.638 54.0612 278.298 54.3C278.857 54.4581 279.448 54.4581 280.007 54.3C280.966 54.0414 281.331 53.5147 281.293 53.486C280.847 53.6615 280.392 53.8118 279.93 53.9361C279.435 54.0188 278.928 53.9793 278.452 53.8212C277.872 53.5899 277.345 53.241 276.907 52.7965C276.408 52.3368 275.947 51.8388 275.468 51.4366C275.028 51.0805 274.527 50.8078 273.99 50.6321C273.02 50.3735 272.425 50.7566 272.473 50.7566Z" fill="#455A64"/>
<path d="M273.5 53.4669C273.5 53.5435 273.961 53.4669 274.46 53.8978C274.754 54.1654 275.018 54.464 275.247 54.7885C275.561 55.2238 275.959 55.5918 276.418 55.8706C277.258 56.4154 278.266 56.6398 279.258 56.5027C279.997 56.3974 280.381 56.1196 280.352 56.0622C280.324 56.0047 279.901 56.1292 279.22 56.1388C278.345 56.152 277.484 55.9197 276.735 55.4684C275.852 54.9704 275.41 54.0415 274.71 53.6297C274.009 53.2179 273.5 53.3998 273.5 53.4669Z" fill="#455A64"/>
<path d="M249.787 35.9987C249.52 35.9502 249.244 35.9767 248.991 36.0754C248.29 36.313 247.684 36.7697 247.263 37.3778C246.16 38.9196 245.901 41.6586 246.755 44.3018C247.506 46.5875 249.079 48.5149 251.169 49.7126C251.772 50.0677 252.417 50.3476 253.089 50.5458C253.335 50.6463 253.6 50.692 253.866 50.6799C252.992 50.3001 252.139 49.8717 251.313 49.3966C249.383 48.1653 247.936 46.3089 247.215 44.139C246.4 41.6299 246.592 39.0154 247.523 37.5885C247.887 37.0161 248.406 36.558 249.02 36.2669C249.509 36.0754 249.787 36.0466 249.787 35.9987Z" fill="#455A64"/>
<path d="M242.331 39.7338C242.228 40.3102 242.254 40.9021 242.407 41.4672C242.965 44.2568 244.603 46.7142 246.966 48.305C247.428 48.6662 247.966 48.9183 248.54 49.0424C246.962 47.9307 245.578 46.5687 244.442 45.0106C242.647 42.3961 242.503 39.6955 242.331 39.7338Z" fill="#455A64"/>
<path d="M192.707 164.882L179.541 165.553C178.733 165.59 177.972 165.94 177.418 166.528C176.864 167.116 176.562 167.897 176.576 168.703C176.643 171.711 177.151 175.819 179.455 175.407L180.952 168.866L191.93 178.51C193.035 179.504 194.399 180.168 195.865 180.425L198.436 180.157L192.707 164.882Z" fill="#FFBE9D"/>
<path d="M255.67 94.5029L248.789 96.7726L245.373 153.812V204.396L287.626 209.069L288.116 136.114L285.391 99.7988L278.932 92.0991L255.67 94.5029Z" fill="#E0E0E0"/>
<path d="M253.549 97.2324V91.7066L278.663 88.2207L277.656 100.948L271.888 110.937L262.455 111.463L255.641 107.259L253.549 97.2324Z" fill="#E0E0E0"/>
<path d="M255.804 96.5906C255.59 95.7655 255.542 94.9063 255.661 94.0623C255.618 93.211 255.738 92.3595 256.016 91.5532C256.23 92.3783 256.279 93.2375 256.16 94.0815C256.202 94.9328 256.082 95.7843 255.804 96.5906Z" fill="#263238"/>
<path d="M262.08 96.131C261.892 95.201 261.862 94.2457 261.994 93.3059C261.967 92.3592 262.11 91.4154 262.416 90.519C262.611 91.4648 262.637 92.4373 262.493 93.3921C262.519 94.3222 262.379 95.2496 262.08 96.131Z" fill="#263238"/>
<path d="M268.155 95.4991C267.991 94.5099 267.991 93.5004 268.155 92.5112C268.141 91.5083 268.3 90.5104 268.625 89.5615C268.784 90.5512 268.784 91.5598 268.625 92.5495C268.629 93.5515 268.47 94.5476 268.155 95.4991Z" fill="#263238"/>
<path d="M273.99 94.541C273.711 93.6101 273.636 92.6304 273.769 91.668C273.729 90.7125 273.892 89.7593 274.249 88.8716C274.375 89.8059 274.375 90.7528 274.249 91.6871C274.292 92.6457 274.205 93.6057 273.99 94.541Z" fill="#263238"/>
<path d="M271.197 118.655C271.128 118.988 271.015 119.31 270.861 119.613C270.621 120.207 270.247 121.049 269.758 122.084C268.798 124.143 267.33 126.949 265.545 129.946C263.76 132.944 261.984 135.549 260.631 137.387C259.959 138.345 259.403 139.044 259 139.542C258.811 139.818 258.585 140.066 258.328 140.28C258.271 140.28 259.077 139.082 260.343 137.186C261.61 135.29 263.337 132.666 265.142 129.688C266.946 126.709 268.414 123.942 269.47 121.921C269.983 120.801 270.56 119.711 271.197 118.655Z" fill="#263238"/>
<path d="M278.807 91.2183L285.621 94.4935L298.787 97.6826C301.568 98.1674 304.055 99.7026 305.731 101.969C307.407 104.236 308.144 107.06 307.789 109.855L300.889 163.484L309.123 215.486L276.494 214.528L274.575 195.183V141.554L278.807 91.2183Z" fill="#455A64"/>
<path d="M274.575 153.936C274.591 153.711 274.623 153.487 274.671 153.266L275.045 151.351C275.4 149.655 275.89 147.309 276.494 144.436L281.475 121.663L283.059 114.566L283.126 114.787L280.861 112.421L280.736 112.297L280.832 112.143L284.623 105.842V106.024L280.439 95.9109L279.306 93.0379C279.158 92.7065 279.036 92.3638 278.942 92.0132C279.131 92.3166 279.292 92.6372 279.421 92.9709C279.729 93.67 280.151 94.5989 280.669 95.7673L285.016 105.899V106.005L284.959 106.091C283.797 108.006 282.54 110.161 281.206 112.421V112.134L283.471 114.49L283.567 114.576V114.71C283.059 116.989 282.531 119.364 281.993 121.816L276.869 144.551C276.207 147.424 275.66 149.742 275.266 151.427C275.074 152.193 274.921 152.816 274.806 153.295C274.751 153.516 274.674 153.731 274.575 153.936Z" fill="#263238"/>
<path d="M193.264 162.718L222.13 146.658L236.074 109.021C237.043 106.42 238.538 104.045 240.464 102.044C242.39 100.042 244.708 98.4569 247.273 97.3856L250.987 95.8438V194.963L251.726 218.435L236.084 213.762L244.068 166.568L241.304 143.344L238.569 154.578C238.088 156.571 237.208 158.446 235.983 160.092C234.758 161.738 233.212 163.119 231.439 164.155L201.392 179.736L193.264 162.718Z" fill="#455A64"/>
<path d="M193.61 163.456L191.182 164.174L198.014 180.435L201.2 179.2L193.61 163.456Z" fill="#E0E0E0"/>
<path d="M227.351 153.342C226.758 152.059 226.034 150.839 225.192 149.703C224.22 148.67 223.15 147.733 221.996 146.907C223.393 147.388 224.631 148.243 225.575 149.377C226.519 150.512 227.134 151.883 227.351 153.342Z" fill="#263238"/>
<path d="M196.728 162.929C196.728 162.996 196.584 163.13 196.565 163.407C196.552 163.48 196.558 163.554 196.582 163.624C196.606 163.693 196.647 163.756 196.702 163.805C196.758 163.854 196.824 163.888 196.896 163.904C196.968 163.92 197.043 163.917 197.114 163.896C197.184 163.875 197.248 163.836 197.3 163.784C197.351 163.731 197.388 163.666 197.407 163.595C197.426 163.524 197.427 163.449 197.409 163.377C197.391 163.306 197.355 163.241 197.304 163.187C197.141 162.957 196.93 162.948 196.92 162.871C196.91 162.795 197.189 162.66 197.553 162.929C197.658 163.012 197.743 163.118 197.799 163.24C197.856 163.361 197.883 163.494 197.88 163.628C197.876 163.75 197.846 163.871 197.791 163.981C197.736 164.091 197.658 164.188 197.562 164.265C197.466 164.342 197.355 164.398 197.236 164.428C197.116 164.458 196.992 164.462 196.871 164.44C196.75 164.418 196.635 164.369 196.534 164.299C196.433 164.228 196.349 164.136 196.287 164.03C196.226 163.924 196.187 163.805 196.176 163.683C196.164 163.561 196.179 163.437 196.219 163.321C196.383 162.9 196.728 162.871 196.728 162.929Z" fill="#263238"/>
<path d="M199.051 161.952C199.051 162.019 198.907 162.143 198.897 162.421C198.888 162.699 199.06 163.024 199.444 162.909C199.517 162.893 199.583 162.857 199.637 162.805C199.691 162.754 199.73 162.689 199.749 162.617C199.769 162.545 199.769 162.47 199.749 162.398C199.729 162.327 199.69 162.262 199.636 162.21C199.473 161.981 199.262 161.961 199.243 161.894C199.223 161.827 199.511 161.684 199.886 161.952C200.009 162.048 200.104 162.177 200.159 162.324C200.214 162.47 200.227 162.629 200.198 162.783C200.168 162.937 200.097 163.079 199.992 163.195C199.886 163.311 199.751 163.396 199.601 163.44C199.45 163.485 199.29 163.487 199.139 163.446C198.987 163.406 198.85 163.325 198.741 163.212C198.633 163.098 198.558 162.957 198.525 162.805C198.491 162.652 198.5 162.492 198.552 162.344C198.715 161.913 199.051 161.846 199.051 161.952Z" fill="#263238"/>
<path d="M251.025 155.468C250.963 155.269 250.921 155.064 250.9 154.856C250.833 154.396 250.737 153.812 250.632 153.084C250.411 151.494 250.114 149.253 249.749 146.581C249.039 141.027 248.079 133.461 247.014 125.091C246.873 123.904 246.729 122.735 246.582 121.586V121.519V121.462C247.311 119.613 248.021 117.822 248.693 116.108V116.29L246.611 111.502V111.425V111.358C247.897 106.742 248.972 102.864 249.739 100.067C250.123 98.7551 250.43 97.6921 250.651 96.9068C250.748 96.5277 250.873 96.1564 251.025 95.7959C250.975 96.1846 250.895 96.5688 250.785 96.9451C250.593 97.74 250.325 98.803 249.989 100.134C249.259 102.94 248.242 106.838 247.043 111.463V111.32L249.163 116.051V116.146V116.233C248.501 117.956 247.801 119.747 247.081 121.596V121.471C247.225 122.62 247.369 123.798 247.522 124.986C248.53 133.356 249.442 140.931 250.104 146.495C250.411 149.196 250.661 151.418 250.833 153.017L251.006 154.798C251.042 155.02 251.048 155.245 251.025 155.468Z" fill="#263238"/>
<path d="M244.077 166.845C244.029 166.693 243.997 166.536 243.981 166.376C243.933 166.012 243.866 165.562 243.789 165.026C243.636 163.771 243.434 162.086 243.175 160.036C242.667 155.823 241.947 150.01 241.083 143.593C240.22 137.177 239.375 131.373 238.761 127.179C238.463 125.139 238.214 123.453 238.032 122.208C237.964 121.662 237.907 121.251 237.859 120.848C237.834 120.69 237.834 120.528 237.859 120.37C237.915 120.522 237.957 120.679 237.984 120.839C238.051 121.203 238.147 121.643 238.252 122.18C238.473 123.338 238.78 125.053 239.135 127.121C239.845 131.306 240.747 137.11 241.611 143.526C242.475 149.943 243.137 155.775 243.53 159.998C243.741 162.115 243.895 163.829 243.991 165.007C243.991 165.553 244.058 165.964 244.077 166.367C244.103 166.525 244.103 166.687 244.077 166.845Z" fill="#263238"/>
<path d="M240.095 202.069C240.277 202.367 240.5 202.638 240.757 202.873C241.121 203.169 241.549 203.376 242.007 203.479C242.465 203.582 242.94 203.578 243.396 203.467C244.063 203.258 244.671 202.895 245.172 202.407C245.672 201.92 246.05 201.322 246.275 200.661C246.802 198.994 247.074 197.257 247.081 195.509C247.289 193.78 247.109 192.026 246.554 190.376C245.943 189.09 245.047 187.96 243.934 187.072C243.186 186.431 242.516 185.704 241.938 184.907C241.717 184.623 241.557 184.298 241.467 183.95C241.467 183.95 241.669 184.275 242.091 184.812C242.721 185.548 243.419 186.224 244.174 186.832C245.363 187.721 246.324 188.88 246.976 190.213C247.59 191.923 247.797 193.753 247.58 195.557C247.573 197.357 247.278 199.145 246.707 200.853C246.448 201.567 246.022 202.21 245.465 202.728C244.907 203.246 244.235 203.624 243.502 203.831C242.993 203.945 242.465 203.932 241.963 203.794C241.46 203.655 241 203.395 240.623 203.036C240.424 202.846 240.264 202.618 240.153 202.366C240.095 202.184 240.076 202.069 240.095 202.069Z" fill="#263238"/>
<path d="M229.356 164.882C229.356 164.882 230.316 153.898 239.03 152.883C239.039 152.883 239.202 161.847 229.356 164.882Z" fill="#263238"/>
<path d="M276.082 206.014L301.465 222.582L304.344 220.293L305.697 183.164L281.523 164.882L278.203 166.022L276.082 206.014Z" fill="#ED5100"/>
<path d="M281.235 165.409L282.233 205.603H276.897L278.682 166.204L281.235 165.409Z" fill="#E0E0E0"/>
<path d="M289.229 214.825C289.467 215.391 289.867 215.875 290.379 216.216C290.891 216.557 291.492 216.739 292.108 216.74C292.175 216.74 292.252 216.798 292.319 216.913C292.557 217.348 292.904 217.714 293.326 217.976C293.748 218.238 294.231 218.386 294.728 218.407C295.69 218.403 296.633 218.135 297.453 217.631C298.777 216.817 301.138 211.531 301.138 211.531L306.733 199.081L297.328 196.543L285.361 200.259C285.361 200.479 282.569 211.751 282.569 211.751C283.25 211.912 283.967 211.82 284.585 211.493C285.203 211.165 285.681 210.623 285.928 209.97C286.533 208.607 287.239 207.292 288.039 206.034L288.931 211.109L285.525 212.278C285.415 212.81 285.502 213.365 285.77 213.838C286.038 214.312 286.469 214.673 286.983 214.854L289.229 214.825Z" fill="#FFBE9D"/>
<path d="M293.452 127.466L309.123 156.244L296.369 194.034L310.543 202.002L328.565 159.931C329.228 158.392 329.558 156.731 329.533 155.056C329.508 153.381 329.129 151.73 328.421 150.211L306.301 102.806L293.452 127.466Z" fill="#455A64"/>
<path d="M296.359 194.034L295.044 196.955L308.422 204.156L309.823 201.59L296.359 194.034Z" fill="#E0E0E0"/>
<path d="M296.369 194.034C296.369 194.034 296.369 193.967 296.369 193.833C296.369 193.699 296.465 193.507 296.532 193.277L297.213 191.142C297.837 189.226 298.72 186.554 299.814 183.203C302.079 176.422 305.236 166.98 308.844 156.167V156.369C307.021 153.275 305.14 150.01 303.249 146.639C299.795 140.481 296.628 134.543 293.912 129.065C292.569 126.307 291.321 123.683 290.265 121.174C289.228 118.83 288.78 116.27 288.96 113.714C289.045 111.609 289.517 109.538 290.352 107.604C291.014 106.157 291.957 104.855 293.125 103.773C293.865 103.097 294.707 102.542 295.62 102.126C295.927 101.979 296.249 101.863 296.58 101.781C295.342 102.283 294.207 103.007 293.231 103.917C292.106 105.007 291.208 106.309 290.592 107.748C289.795 109.657 289.353 111.695 289.287 113.762C289.14 116.259 289.598 118.756 290.62 121.04C291.695 123.53 292.952 126.144 294.305 128.883C297.031 134.352 300.217 140.27 303.672 146.428C305.591 149.789 307.424 153.065 309.238 156.148L309.295 156.254V156.349C305.61 167.142 302.405 176.566 300.092 183.337C298.941 186.669 298.01 189.341 297.357 191.228C297.031 192.119 296.781 192.827 296.599 193.335L296.388 193.881C296.398 193.976 296.369 194.034 296.369 194.034Z" fill="#263238"/>
<path d="M319.717 155.976C319.189 155.838 318.672 155.659 318.172 155.44C316.936 155.026 315.637 154.835 314.334 154.875C313.037 154.92 311.757 155.189 310.553 155.669C310.066 155.919 309.563 156.134 309.046 156.311C309.418 155.889 309.885 155.561 310.409 155.353C311.628 154.753 312.964 154.426 314.324 154.396C315.682 154.353 317.033 154.602 318.287 155.124C318.821 155.3 319.309 155.591 319.717 155.976Z" fill="#263238"/>
<path d="M290.313 120.609L301.57 158.217L303.163 145.853L290.313 120.609Z" fill="#263238"/>
<path d="M308.912 194.484C308.912 194.551 308.768 194.675 308.758 194.963C308.745 195.035 308.751 195.11 308.775 195.179C308.799 195.249 308.841 195.311 308.896 195.36C308.951 195.409 309.017 195.443 309.089 195.459C309.161 195.475 309.236 195.472 309.307 195.451C309.377 195.43 309.442 195.391 309.493 195.339C309.544 195.286 309.581 195.221 309.6 195.15C309.619 195.079 309.62 195.004 309.602 194.933C309.584 194.861 309.548 194.796 309.497 194.742C309.334 194.512 309.123 194.503 309.113 194.426C309.104 194.35 309.372 194.216 309.747 194.484C309.852 194.567 309.936 194.674 309.992 194.795C310.049 194.916 310.077 195.049 310.073 195.183C310.05 195.354 309.978 195.514 309.866 195.645C309.754 195.775 309.606 195.871 309.44 195.92C309.275 195.968 309.099 195.968 308.933 195.919C308.768 195.87 308.62 195.774 308.509 195.643C308.435 195.531 308.388 195.404 308.371 195.271C308.354 195.138 308.369 195.003 308.413 194.876C308.576 194.407 308.912 194.407 308.912 194.484Z" fill="#263238"/>
<path d="M310.044 191.774C310.044 191.841 309.9 191.975 309.89 192.253C309.873 192.325 309.877 192.401 309.899 192.472C309.922 192.543 309.964 192.606 310.02 192.656C310.076 192.705 310.145 192.738 310.218 192.751C310.292 192.764 310.367 192.758 310.437 192.731C310.51 192.715 310.577 192.679 310.63 192.627C310.684 192.576 310.723 192.511 310.742 192.439C310.762 192.367 310.762 192.292 310.742 192.22C310.722 192.149 310.683 192.084 310.629 192.032C310.466 191.812 310.245 191.793 310.236 191.716C310.226 191.64 310.505 191.506 310.879 191.774C310.984 191.857 311.068 191.964 311.125 192.085C311.181 192.206 311.209 192.339 311.205 192.473C311.19 192.646 311.121 192.811 311.007 192.943C310.894 193.076 310.741 193.169 310.572 193.21C310.426 193.267 310.267 193.28 310.114 193.248C309.962 193.215 309.822 193.138 309.712 193.027C309.603 192.916 309.529 192.775 309.499 192.622C309.469 192.469 309.485 192.311 309.545 192.166C309.708 191.745 310.044 191.716 310.044 191.774Z" fill="#263238"/>
<path d="M325.446 143.88C323.767 144.761 323.182 147.232 323.374 149.119C323.566 151.005 324.266 152.835 324.218 154.731C324.093 156.077 323.852 157.41 323.498 158.715C323.137 160.028 323.177 161.418 323.614 162.708C323.846 163.346 324.284 163.888 324.859 164.25C325.434 164.612 326.113 164.774 326.79 164.71L328.124 162.028C329.163 159.929 329.688 157.614 329.654 155.273C329.621 152.932 329.031 150.632 327.932 148.563L325.446 143.88Z" fill="#263238"/>
<path d="M407.612 346.045C408.475 343.057 410.328 340.175 413.178 338.939C416.028 337.704 419.598 338.393 422.64 339.495C425.682 340.596 428.676 342.071 431.91 342.272C435.144 342.473 438.781 340.941 439.75 337.857C440.662 334.984 438.916 331.872 436.718 329.765C434.397 327.55 431.557 325.952 428.456 325.117C425.356 324.281 422.096 324.236 418.973 324.984C415.851 325.732 412.966 327.25 410.584 329.398C408.202 331.547 406.398 334.258 405.337 337.283" fill="#ED5100"/>
<g opacity="0.5">
<path d="M407.612 346.045C408.475 343.057 410.328 340.175 413.178 338.939C416.028 337.704 419.598 338.393 422.64 339.495C425.682 340.596 428.676 342.071 431.91 342.272C435.144 342.473 438.781 340.941 439.75 337.857C440.662 334.984 438.916 331.872 436.718 329.765C434.397 327.55 431.557 325.952 428.456 325.117C425.356 324.281 422.096 324.236 418.973 324.984C415.851 325.732 412.966 327.25 410.584 329.398C408.202 331.547 406.398 334.258 405.337 337.283" fill="black"/>
</g>
<path d="M382.008 358.993C377.267 354.501 377.507 346.677 379.868 340.596C382.229 334.515 387.392 329.832 393.159 326.758C398.792 323.813 405.02 322.181 411.376 321.982C417.731 321.783 424.05 323.023 429.856 325.608C427.012 325.729 424.24 326.544 421.784 327.981C419.328 329.419 417.263 331.435 415.769 333.854C413.178 338.163 412.592 343.431 410.452 347.941C408.028 353.066 403.73 357.071 398.441 359.133C393.151 361.196 387.272 361.159 382.008 359.031" fill="#ED5100"/>
<path d="M379.724 331.986C374.475 325.809 373.784 315.878 374.552 307.815C375.319 299.751 377.2 291.621 375.924 283.624C375.166 278.836 373.323 274.354 372.699 269.594C372.076 264.834 372.959 259.443 376.663 256.369C380.905 252.844 387.603 253.678 392.017 256.991C396.432 260.305 399.004 265.514 400.875 270.715C404.982 282.12 406.489 294.771 403.111 306.417C399.733 318.062 391.816 328.443 380.185 331.986" fill="#ED5100"/>
<path d="M377.21 382.724C377.189 382.488 377.189 382.251 377.21 382.015C377.21 381.546 377.21 380.857 377.21 379.975C377.277 378.194 377.45 375.628 377.843 372.477C378.314 368.788 378.987 365.127 379.858 361.512C380.953 357.073 382.641 352.802 384.877 348.813C387.124 344.832 389.879 341.159 393.073 337.886C395.671 335.207 398.551 332.815 401.662 330.751C402.976 329.851 404.243 329.161 405.337 328.529C406.431 327.897 407.429 327.457 408.216 327.074L410.135 326.279C410.352 326.184 410.573 326.101 410.797 326.03C410.595 326.154 410.383 326.263 410.164 326.355L408.312 327.227C407.525 327.629 406.565 328.137 405.433 328.74C404.301 329.343 403.111 330.09 401.815 331.01C398.749 333.094 395.91 335.492 393.341 338.163C390.191 341.429 387.467 345.078 385.232 349.024C380.434 357.451 379.091 366.309 378.131 372.525C377.699 375.656 377.478 378.213 377.354 379.975C377.302 380.837 377.264 381.517 377.238 382.015C377.245 382.252 377.236 382.489 377.21 382.724Z" fill="#263238"/>
<path d="M331.933 307.595C322.222 313.446 322.251 318.771 323.872 323.789C325.494 328.807 331.454 332.303 336.396 330.426C339.188 329.363 341.194 326.94 342.941 324.507C344.687 322.075 346.29 319.46 348.699 317.717C351.107 315.974 354.629 315.294 357.067 317.028" fill="#ED5100"/>
<g opacity="0.5">
<path d="M331.933 307.595C322.222 313.446 322.251 318.771 323.872 323.789C325.494 328.807 331.454 332.303 336.396 330.426C339.188 329.363 341.194 326.94 342.941 324.507C344.687 322.075 346.29 319.46 348.699 317.717C351.107 315.974 354.629 315.294 357.067 317.028" fill="black"/>
</g>
<path d="M324.659 314.011C327.202 310.506 333.469 309.491 337.432 311.243C341.395 312.996 344.294 316.453 346.894 319.91C349.495 323.367 352.019 327.026 355.618 329.429C359.216 331.833 364.254 332.705 367.824 330.282C368.969 329.432 369.927 328.359 370.642 327.127C371.356 325.896 371.811 324.531 371.98 323.118C372.292 320.288 372.097 317.424 371.404 314.662C370.55 310.602 369.149 306.359 365.886 303.773C362.258 300.9 357.249 300.757 352.575 300.9C347.259 301.073 341.856 301.475 336.866 303.314C331.876 305.152 326.78 309.127 324.659 314.001" fill="#ED5100"/>
<path d="M369.139 374.967C369.128 374.897 369.128 374.826 369.139 374.756V374.124C369.139 373.54 369.091 372.735 369.053 371.72C368.986 369.594 368.899 366.577 368.794 362.871C368.688 359.165 368.525 354.693 368.256 349.761C367.988 344.829 367.614 339.408 366.865 333.767C366.548 331.021 366.009 328.306 365.253 325.646C364.483 323.191 363.487 320.813 362.278 318.54C361.197 316.478 359.941 314.511 358.526 312.66C357.281 311.054 355.908 309.552 354.418 308.169C352.253 306.172 349.806 304.503 347.154 303.218C346.684 303.007 346.261 302.787 345.897 302.643L344.937 302.27L344.352 302.04L344.16 301.944C344.23 301.933 344.301 301.933 344.371 301.944L344.966 302.145L345.925 302.471C346.3 302.614 346.722 302.815 347.202 303.017C349.906 304.254 352.405 305.898 354.61 307.891C356.122 309.276 357.518 310.781 358.785 312.392C360.236 314.245 361.52 316.223 362.623 318.301C363.853 320.594 364.868 322.995 365.656 325.474C366.419 328.155 366.965 330.893 367.287 333.662C368.036 339.332 368.391 344.762 368.65 349.694C368.909 354.626 369.015 359.079 369.091 362.814C369.168 366.549 369.197 369.584 369.207 371.672C369.207 372.687 369.207 373.492 369.207 374.076C369.207 374.334 369.207 374.536 369.207 374.708C369.207 374.88 369.139 374.967 369.139 374.967Z" fill="#263238"/>
<path d="M372.632 379.343C372.167 377.985 371.811 376.592 371.567 375.178C370.893 371.317 370.745 367.384 371.125 363.484C371.718 357.711 372.958 352.022 374.82 346.524C376.816 340.29 379.522 333.615 381.835 326.413C382.972 322.93 383.905 319.384 384.628 315.792C385.267 312.442 385.725 309.06 386 305.66C386.445 299.893 386.548 294.105 386.307 288.326C386.144 283.394 385.875 279.401 385.712 276.643C385.635 275.283 385.568 274.22 385.53 273.463C385.53 273.118 385.53 272.85 385.53 272.64C385.517 272.547 385.517 272.454 385.53 272.362C385.541 272.454 385.541 272.547 385.53 272.64C385.53 272.85 385.578 273.118 385.616 273.463C385.683 274.21 385.77 275.273 385.885 276.633C386.096 279.391 386.413 283.337 386.614 288.317C386.896 294.106 386.825 299.908 386.403 305.689C386.132 309.104 385.677 312.502 385.04 315.869C384.329 319.488 383.396 323.06 382.248 326.566C379.925 333.749 377.21 340.414 375.204 346.677C373.331 352.144 372.066 357.799 371.433 363.542C371.028 367.417 371.128 371.328 371.73 375.178C371.97 376.537 372.191 377.591 372.383 378.29C372.459 378.625 372.527 378.893 372.574 379.094C372.604 379.175 372.623 379.258 372.632 379.343Z" fill="#263238"/>
<path d="M396.71 383.729H351.108L350.062 374.967H396.71V383.729Z" fill="#455A64"/>
<path d="M356.001 382.724L361.702 409.003H386.48L391.816 382.724H356.001Z" fill="#455A64"/>
<path d="M396.71 383.72C396.71 383.845 386.681 383.912 374.321 383.883C361.961 383.854 351.923 383.72 351.923 383.596C351.923 383.471 361.951 383.414 374.321 383.442C386.691 383.471 396.71 383.605 396.71 383.72Z" fill="#455A64"/>
<path d="M388.879 396.696C387.642 395.768 386.295 394.996 384.868 394.398C383.309 393.792 381.655 393.468 379.983 393.44C377.929 393.446 375.893 393.826 373.976 394.561C371.903 395.26 369.955 396.074 368.064 396.524C366.387 396.89 364.655 396.942 362.959 396.677C361.815 396.516 360.706 396.166 359.677 395.643C359.398 395.495 359.132 395.326 358.88 395.135C358.717 395.011 358.631 394.934 358.64 394.925C358.65 394.915 359.024 395.155 359.754 395.49C360.79 395.939 361.885 396.236 363.007 396.371C364.665 396.584 366.348 396.503 367.978 396.131C369.801 395.681 371.749 394.858 373.841 394.149C375.807 393.41 377.892 393.039 379.993 393.057C381.709 393.112 383.401 393.483 384.983 394.149C386.047 394.592 387.048 395.175 387.958 395.882C388.205 396.07 388.439 396.275 388.658 396.495C388.821 396.601 388.889 396.687 388.879 396.696Z" fill="#263238"/>
<path d="M388.534 398.449C387.346 397.548 386.058 396.786 384.695 396.179C383.199 395.578 381.606 395.253 379.993 395.221C378.008 395.23 376.04 395.583 374.177 396.265C372.172 396.936 370.291 397.711 368.487 398.181C366.892 398.64 365.23 398.824 363.573 398.726C362.456 398.658 361.363 398.368 360.358 397.874C360.091 397.729 359.835 397.566 359.591 397.386C359.428 397.261 359.341 397.194 359.351 397.175C359.36 397.156 359.735 397.395 360.435 397.721C361.436 398.145 362.506 398.382 363.592 398.42C365.215 398.475 366.836 398.264 368.391 397.797C370.147 397.299 372.018 396.514 374.053 395.834C375.96 395.135 377.98 394.788 380.012 394.81C381.666 394.859 383.295 395.227 384.81 395.892C385.84 396.338 386.807 396.914 387.689 397.606C387.926 397.792 388.15 397.994 388.361 398.209C388.476 398.391 388.543 398.439 388.534 398.449Z" fill="white"/>
<path d="M389.33 394.953C388.052 393.997 386.671 393.184 385.213 392.53C383.624 391.847 381.93 391.439 380.204 391.324C378.086 391.283 375.98 391.653 374.005 392.416C372.008 393.198 369.966 393.863 367.892 394.407C366.145 394.71 364.36 394.71 362.613 394.407C361.437 394.222 360.294 393.861 359.226 393.335C358.937 393.188 358.661 393.019 358.401 392.827C358.228 392.693 358.142 392.626 358.151 392.607C358.161 392.588 358.545 392.847 359.303 393.191C360.375 393.656 361.505 393.978 362.661 394.149C364.374 394.393 366.114 394.357 367.815 394.044C369.867 393.48 371.889 392.809 373.87 392.032C375.897 391.251 378.061 390.887 380.233 390.96C382 391.088 383.729 391.533 385.338 392.272C386.419 392.763 387.44 393.377 388.38 394.101C388.706 394.36 388.946 394.58 389.109 394.733C389.273 394.886 389.349 394.944 389.33 394.953Z" fill="white"/>
<path d="M397.113 383.758C397.113 383.883 386.854 383.978 374.206 383.978C361.558 383.978 351.29 383.883 351.29 383.758C351.29 383.634 361.548 383.547 374.206 383.547C386.864 383.547 397.113 383.643 397.113 383.758Z" fill="#263238"/>
<path d="M48.6157 373.76C50.2567 376.106 53.4139 375.331 54.9302 373.904C56.4464 372.477 57.0318 370.408 57.598 368.435C58.8936 363.925 60.2083 359.203 59.239 354.616C59.0091 353.223 58.3981 351.921 57.4733 350.853C57.001 350.324 56.3976 349.929 55.7238 349.707C55.0499 349.485 54.3294 349.444 53.6347 349.588C52.0224 350.01 51.0244 351.58 50.3047 353.074C48.1802 357.49 47.0657 362.321 47.0419 367.219C46.8864 369.505 47.4248 371.784 48.5869 373.76" fill="#0D99FF"/>
<g opacity="0.2">
<path d="M48.6157 373.76C50.2567 376.106 53.4139 375.331 54.9302 373.904C56.4464 372.477 57.0318 370.408 57.598 368.435C58.8936 363.925 60.2083 359.203 59.239 354.616C59.0091 353.223 58.3981 351.921 57.4733 350.853C57.001 350.324 56.3976 349.929 55.7238 349.707C55.0499 349.485 54.3294 349.444 53.6347 349.588C52.0224 350.01 51.0244 351.58 50.3047 353.074C48.1802 357.49 47.0657 362.321 47.0419 367.219C46.8864 369.505 47.4248 371.784 48.5869 373.76" fill="black"/>
</g>
<path d="M54.7672 385.606C57.5158 384.315 60.6074 383.939 63.5864 384.534C65.2116 384.672 66.7445 385.345 67.9432 386.449C69.0276 387.646 69.2387 389.753 67.9432 390.787C67.1391 391.334 66.1664 391.579 65.1986 391.477C62.8667 391.477 60.2852 391.046 58.4235 392.435C57.3583 393.229 56.6481 394.561 55.3814 394.953C54.7449 395.1 54.0779 395.037 53.4808 394.772C52.8836 394.508 52.3887 394.057 52.0706 393.488C51.4666 392.321 51.3361 390.966 51.7059 389.705C51.8646 388.833 52.2235 388.008 52.7546 387.297C53.2857 386.586 53.9746 386.007 54.7672 385.606Z" fill="#0D99FF"/>
<path d="M44.1437 377.122C44.9875 376.022 45.5493 374.734 45.7801 373.369C46.0109 372.003 45.9038 370.602 45.4681 369.288C44.5674 366.669 42.9601 364.35 40.8233 362.584C38.3958 360.428 35.5695 358.765 32.5032 357.69C31.3172 357.208 30.04 356.989 28.7605 357.049C28.1211 357.09 27.5014 357.286 26.9547 357.62C26.408 357.954 25.9508 358.415 25.6225 358.964C24.7492 360.631 25.6225 362.651 26.4957 364.308C28.0926 367.185 29.9085 369.935 31.9274 372.534C33.5684 374.641 35.4493 376.719 37.9444 377.668C40.4395 378.616 43.0305 378.51 44.3549 376.786" fill="#0D99FF"/>
<path d="M48.51 409.031C48.5919 408.682 48.6401 408.326 48.6539 407.968L48.9418 405.095C49.083 403.667 49.3008 402.248 49.5944 400.843C49.9721 399.131 50.4888 397.453 51.1394 395.825C51.7852 394.187 52.6608 392.649 53.7401 391.257C54.6079 390.131 55.7159 389.212 56.9837 388.566C57.8443 388.139 58.7675 387.851 59.7187 387.713C60.0782 387.7 60.4353 387.649 60.7839 387.56C60.4235 387.521 60.0599 387.521 59.6995 387.56C58.7034 387.632 57.7283 387.882 56.8206 388.298C55.4851 388.931 54.3131 389.861 53.3946 391.017C52.2817 392.421 51.3857 393.984 50.7364 395.653C50.0736 397.305 49.5597 399.013 49.2009 400.757C48.9229 402.177 48.7338 403.613 48.6347 405.057C48.5388 406.292 48.5004 407.288 48.4908 407.978C48.4593 408.329 48.4658 408.682 48.51 409.031Z" fill="#263238"/>
<path d="M48.7114 406.8C48.7237 406.634 48.7237 406.468 48.7114 406.302C48.7114 405.938 48.7114 405.469 48.7114 404.894C48.7114 403.668 48.7114 401.906 48.7786 399.713C48.8842 395.346 49.2584 389.313 49.9878 382.676C50.7171 376.04 51.6959 370.073 52.5884 365.793C52.7899 364.72 53.0011 363.753 53.2026 362.919C53.4041 362.086 53.5577 361.339 53.7112 360.746L54.0375 359.376C54.0925 359.219 54.1217 359.054 54.1239 358.888C54.0565 359.036 54.0019 359.19 53.9607 359.347C53.8456 359.702 53.7112 360.152 53.5481 360.698C53.3849 361.244 53.1738 362.01 52.9627 362.862C52.7516 363.714 52.5116 364.662 52.2813 365.735C51.0676 371.316 50.1578 376.959 49.5559 382.638C48.8266 389.284 48.5003 395.337 48.4619 399.723C48.4619 401.916 48.4619 403.688 48.5387 404.913C48.5771 405.475 48.6059 405.945 48.6251 406.321C48.6333 406.484 48.6624 406.645 48.7114 406.8Z" fill="#263238"/>
<path d="M48.7405 395.126C48.774 394.635 48.774 394.142 48.7405 393.651C48.6829 392.693 48.5485 391.343 48.2894 389.667C47.9766 387.707 47.5537 385.767 47.0227 383.854C46.3787 381.506 45.5641 379.208 44.5852 376.978C42.9002 372.858 40.4739 369.08 37.4262 365.831C36.8991 365.276 36.3382 364.755 35.7468 364.27C35.4877 364.049 35.2574 363.839 35.0271 363.666L34.3745 363.216C33.9819 362.917 33.5645 362.651 33.127 362.421C34.5619 363.541 35.9242 364.75 37.2055 366.041C40.1364 369.322 42.4831 373.079 44.1437 377.15C45.1109 379.364 45.9316 381.639 46.6005 383.959C47.2338 386.095 47.6561 388.058 47.9823 389.705C48.3086 391.353 48.4622 392.722 48.5677 393.661C48.5864 394.153 48.6442 394.643 48.7405 395.126Z" fill="#263238"/>
<path d="M190.241 8.08255C190.404 8.06556 190.568 8.06556 190.73 8.08255H192.17C192.949 8.09631 193.726 8.17318 194.492 8.31239C194.953 8.37943 195.452 8.42731 195.97 8.53266L197.63 8.94446C201.731 10.0663 205.518 12.1157 208.697 14.9337C211.876 17.7517 214.362 21.2626 215.962 25.1941C217.562 29.1256 218.233 33.372 217.923 37.6041C217.613 41.8362 216.33 45.9401 214.175 49.5977C211.107 54.8013 206.425 58.8659 200.835 61.1759C197.894 62.385 194.763 63.0721 191.584 63.2062C188.313 63.4052 185.033 62.996 181.911 61.9995L181.623 61.9133H181.844L165.674 67.5061L165.021 67.736L165.223 67.0752C166.675 62.4337 168.076 57.9645 169.426 53.6678L169.493 53.9934C166.616 50.7836 164.532 46.947 163.405 42.79C162.279 38.633 162.142 34.2707 163.006 30.0516C163.718 26.4928 165.137 23.1126 167.181 20.1109C168.922 17.5336 171.086 15.2674 173.581 13.4072C174.648 12.6091 175.767 11.8829 176.931 11.2333C177.979 10.6908 179.055 10.2049 180.155 9.77763C181.092 9.39523 182.054 9.0753 183.034 8.81996C183.854 8.594 184.687 8.42126 185.529 8.30282C186.287 8.20705 186.959 8.09213 187.535 8.03467H189.013H189.905H190.212C190.112 8.06452 190.009 8.08063 189.905 8.08255L189.013 8.14959L187.554 8.25493C186.978 8.32197 186.316 8.45604 185.567 8.57096C184.736 8.70188 183.915 8.89068 183.111 9.13599C182.13 9.38978 181.169 9.70975 180.232 10.0937C179.153 10.5302 178.099 11.0257 177.075 11.5781C175.934 12.2298 174.837 12.956 173.793 13.752C171.364 15.6021 169.257 17.8377 167.555 20.3695C165.572 23.3281 164.201 26.6525 163.524 30.1473C162.706 34.2685 162.861 38.5234 163.977 42.5745C165.093 46.6255 167.139 50.3614 169.954 53.4858L170.088 53.6295L170.031 53.8114C168.7 58.121 167.308 62.5901 165.856 67.2188L165.405 66.7879L181.614 61.2909H181.729H181.844L182.122 61.377C185.164 62.3445 188.359 62.7438 191.546 62.555C194.645 62.4263 197.698 61.7586 200.567 60.5822C206.02 58.3298 210.596 54.3752 213.608 49.3104C216.144 45.0217 217.453 40.1217 217.394 35.1427C217.335 30.1636 215.909 25.296 213.273 21.0686C211.255 17.803 208.558 15.0075 205.365 12.8709C202.965 11.2525 200.322 10.0272 197.534 9.24133L195.903 8.80081C195.385 8.68588 194.943 8.62843 194.444 8.55181C193.685 8.39533 192.915 8.29609 192.141 8.25493L190.711 8.14959C190.553 8.14263 190.395 8.12018 190.241 8.08255Z" fill="#ED5100"/>
<path d="M173.984 37.5214L178.236 33.2789L186.441 40.5572L202.544 25.0908L206.497 29.3333L185.836 48.7453L173.984 37.5214Z" fill="#ED5100"/>
</g>
<defs>
<clipPath id="clip0_5497_40258">
<rect width="440" height="424" fill="white"/>
</clipPath>
</defs>
</svg>
