<svg width="440" height="408" viewBox="0 0 440 408" fill="none" xmlns="http://www.w3.org/2000/svg">
<rect width="440" height="408" fill="#E5E5E5"/>
<g clip-path="url(#clip0_3974_23303)">
<rect width="1350" height="9480" transform="translate(-690 -5194)" fill="white"/>
<g clip-path="url(#clip1_3974_23303)">
<path d="M398.34 20.7158H308.875V150.389H398.34V20.7158Z" fill="#E0E0E0"/>
<path d="M393.859 20.7158H304.394V150.389H393.859V20.7158Z" fill="#F5F5F5"/>
<path d="M382.747 34.7617H315.517V136.343H382.747V34.7617Z" fill="white"/>
<path d="M382.784 136.342C382.784 136.342 382.784 136.17 382.784 135.846C382.784 135.521 382.784 135.033 382.784 134.403C382.784 133.132 382.784 131.259 382.784 128.832C382.784 123.969 382.784 116.869 382.727 107.906C382.727 90 382.66 64.6311 382.612 34.7617L382.842 34.9814H315.612L315.851 34.7426C315.851 73.0587 315.851 108.394 315.803 136.323L315.612 136.132L364.544 136.228L378.064 136.285H381.609H382.842C382.842 136.285 382.44 136.285 381.657 136.285H378.141H364.668L315.612 136.381H315.411V136.19C315.411 108.26 315.411 72.9249 315.363 34.6088V34.3604H315.612H382.842H383.062V34.5801C383.014 64.5068 382.976 89.9235 382.956 107.878C382.956 116.812 382.909 123.892 382.89 128.746C382.89 131.154 382.89 133.008 382.89 134.279C382.89 134.89 382.89 135.358 382.89 135.693C382.89 136.027 382.784 136.342 382.784 136.342Z" fill="#E0E0E0"/>
<path d="M394.108 20.7158C393.649 21.5375 393.115 22.3149 392.512 23.0377C391.48 24.4232 389.999 26.3151 388.317 28.3599C386.635 30.4047 385.059 32.182 383.893 33.5006C383.301 34.2296 382.642 34.9015 381.925 35.5072C382.433 34.7164 383.005 33.9686 383.635 33.2713L387.945 28.0446C389.569 26.0667 391.05 24.2799 392.244 22.818C392.811 22.0708 393.434 21.3681 394.108 20.7158Z" fill="#E0E0E0"/>
<path d="M383.09 136.018C386.431 141.334 390.364 146.255 394.814 150.685Z" fill="white"/>
<path d="M394.814 150.685C394.072 150.134 393.387 149.51 392.77 148.821C391.209 147.237 389.732 145.572 388.346 143.834C386.954 142.096 385.652 140.288 384.447 138.416C383.909 137.668 383.455 136.864 383.09 136.018C383.692 136.712 384.241 137.45 384.734 138.225C385.689 139.61 387.113 141.502 388.728 143.528C390.343 145.554 391.891 147.35 393.018 148.583C393.67 149.236 394.271 149.939 394.814 150.685Z" fill="#E0E0E0"/>
<path d="M304.432 150.283L316.147 135.826Z" fill="white"/>
<path d="M316.099 135.826C314.343 138.387 312.452 140.853 310.433 143.212C308.542 145.674 306.524 148.034 304.385 150.283C306.143 147.727 308.035 145.265 310.051 142.907C311.943 140.443 313.962 138.08 316.099 135.826Z" fill="#E0E0E0"/>
<path d="M304.432 20.7158C306.468 22.8758 308.382 25.147 310.165 27.5191C312.062 29.7867 313.832 32.1567 315.468 34.6186C313.431 32.4601 311.517 30.1887 309.735 27.8153C307.837 25.5489 306.067 23.1788 304.432 20.7158Z" fill="#E0E0E0"/>
<path d="M361.801 55.3818H339.29V119.296H361.801V55.3818Z" fill="#E0E0E0"/>
<path d="M117.505 0V71.4534H14.8826L11.1943 0.496868L117.505 0Z" fill="#E0E0E0"/>
<path d="M11.1851 0.496918L11.1851 71.291H113.807V0.496918H11.1851Z" fill="white"/>
<path d="M114.285 71.7878H10.707V0H114.285V71.7878ZM11.6625 70.8323H113.329V0.955515H11.6721L11.6625 70.8323Z" fill="#E0E0E0"/>
<path d="M102.695 9.29736H22.3071V62.5004H102.695V9.29736Z" fill="white"/>
<path d="M102.694 9.29698H102.303H101.156H96.7416L80.173 9.41165L22.307 9.55497L22.5554 9.29698C22.5554 25.5407 22.5554 43.5618 22.5554 62.5001L22.307 62.2516H102.694L102.494 62.4523C102.494 46.2659 102.57 32.9842 102.599 23.7444C102.599 19.1197 102.599 15.5078 102.599 13.033C102.599 11.81 102.599 10.8736 102.599 10.2238C102.599 9.58364 102.599 9.26832 102.599 9.26832C102.599 9.26832 102.599 9.57408 102.599 10.2238C102.599 10.8736 102.599 11.7909 102.599 12.9948C102.599 15.4601 102.599 19.0528 102.599 23.6584C102.599 32.9269 102.656 46.2467 102.704 62.4905V62.6912H102.503L22.1159 62.7485H21.8579V62.4905C21.8579 43.5522 21.8579 25.5407 21.8579 9.28743V9.05811H22.0968L80.1157 9.17277L96.627 9.2301H100.994H102.112L102.694 9.29698Z" fill="#E0E0E0"/>
<path d="M11.1851 0.305664C11.8366 0.604989 12.4468 0.987168 13.0005 1.44273C14.0516 2.19758 15.4849 3.27732 17.0233 4.50993C18.5616 5.74254 19.8898 6.91783 20.8453 7.78735C21.3963 8.22789 21.8905 8.73499 22.3168 9.29706C22.2213 9.40217 19.7465 7.38603 16.6697 4.91125C14.7487 3.49004 12.917 1.95194 11.1851 0.305664Z" fill="#E0E0E0"/>
<path d="M113.807 0.49707C112.12 2.15704 110.316 3.69305 108.408 5.0931C106.6 6.62962 104.684 8.03463 102.675 9.29736C104.362 7.63739 106.166 6.10139 108.074 4.70134C109.885 3.16856 111.801 1.76375 113.807 0.49707Z" fill="#E0E0E0"/>
<path d="M113.731 71.3098L102.265 62.0317Z" fill="white"/>
<path d="M102.284 62.0317C104.343 63.3793 106.309 64.8637 108.17 66.4749C110.132 67.9577 111.99 69.5731 113.731 71.3098C111.67 69.9711 109.704 68.493 107.845 66.8858C105.882 65.3968 104.024 63.775 102.284 62.0317Z" fill="#E0E0E0"/>
<path d="M11.1851 71.3004C12.8557 69.6563 14.6441 68.1361 16.5359 66.7522C18.3203 65.234 20.2106 63.845 22.1926 62.5957C20.5175 64.2425 18.7226 65.7627 16.8226 67.1439C15.0473 68.6651 13.1631 70.0543 11.1851 71.3004Z" fill="#E0E0E0"/>
<path d="M38.6274 25.8757V43.6865H89.2124V25.8757L38.6274 25.8757Z" fill="#E0E0E0"/>
<path d="M357.616 237.235C352.452 242.157 345.944 245.436 338.916 246.658C331.887 247.879 324.654 246.988 318.133 244.097C311.611 241.206 306.093 236.445 302.279 230.416C298.464 224.388 296.523 217.364 296.703 210.232C296.882 203.1 299.173 196.182 303.286 190.354C307.399 184.525 313.149 180.047 319.808 177.487C326.467 174.928 333.735 174.401 340.693 175.975C347.652 177.548 353.987 181.15 358.897 186.325C365.475 193.248 369.035 202.499 368.795 212.045C368.555 221.592 364.534 230.652 357.616 237.235Z" fill="#EBEBEB"/>
<path d="M351.721 231.005C347.787 234.76 342.827 237.262 337.47 238.197C332.113 239.131 326.599 238.455 321.626 236.254C316.653 234.053 312.445 230.426 309.535 225.832C306.625 221.238 305.143 215.885 305.276 210.448C305.41 205.012 307.154 199.737 310.287 195.292C313.42 190.848 317.801 187.432 322.876 185.479C327.951 183.525 333.492 183.121 338.797 184.318C344.101 185.515 348.932 188.258 352.676 192.202C357.694 197.475 360.412 204.525 360.233 211.801C360.054 219.078 356.992 225.986 351.721 231.005Z" fill="#F5F5F5"/>
<path d="M352.342 230.413C352.218 230.289 353.011 229.381 354.253 227.604C355.98 225.128 357.308 222.397 358.19 219.511C358.782 217.535 359.157 215.5 359.308 213.443C359.479 211.085 359.341 208.714 358.897 206.391C358.671 205.14 358.352 203.907 357.941 202.703C357.51 201.449 356.986 200.229 356.374 199.053C355.742 197.831 355.014 196.662 354.196 195.556C353.355 194.417 352.432 193.34 351.434 192.336C350.421 191.349 349.338 190.436 348.195 189.603C347.083 188.796 345.907 188.08 344.679 187.463C343.497 186.856 342.27 186.342 341.01 185.924C339.803 185.513 338.567 185.194 337.312 184.969C334.987 184.545 332.617 184.423 330.26 184.606C328.201 184.774 326.166 185.168 324.193 185.781C321.316 186.695 318.599 188.048 316.138 189.794C314.379 191.036 313.481 191.839 313.357 191.705C313.233 191.571 313.978 190.616 315.631 189.144C318.005 187.063 320.746 185.442 323.715 184.367C328.16 182.732 332.954 182.277 337.627 183.048C338.981 183.263 340.316 183.583 341.621 184.004C344.404 184.887 347.031 186.199 349.409 187.893C351.908 189.66 354.097 191.83 355.887 194.314C356.762 195.524 357.538 196.802 358.209 198.136C358.856 199.413 359.402 200.739 359.843 202.101C360.266 203.399 360.586 204.728 360.798 206.076C361.607 210.748 361.199 215.549 359.614 220.017C358.562 222.992 356.968 225.745 354.912 228.139C353.422 229.773 352.428 230.499 352.342 230.413Z" fill="#E0E0E0"/>
<path d="M323.055 224.594L319.635 227.938L316.654 224.881L319.979 221.622C317.208 218.412 315.325 214.59 315 211.618L320.37 209.659C320.856 212.614 322.104 215.39 323.992 217.714L329.094 212.727C326.61 208.532 324.04 203.63 328.416 199.349C331.665 196.187 336.738 195.823 342.003 200.114L345.405 196.808L348.386 199.865L345.051 203.114C347.068 205.429 348.506 208.19 349.246 211.169L343.991 213.309C343.418 211.055 342.409 208.935 341.019 207.07L335.812 212.125C338.334 216.291 340.838 221.125 336.528 225.339C333.346 228.464 328.32 228.827 323.055 224.594ZM333.566 208.35L337.914 204.117C336.003 202.856 334.445 203.076 333.432 204.06C332.42 205.044 332.706 206.583 333.595 208.302L333.566 208.35ZM331.33 220.772C332.4 219.721 332.114 218.268 331.33 216.51L327.107 220.629C328.922 221.852 330.375 221.756 331.359 220.801L331.33 220.772Z" fill="#E0E0E0"/>
<path d="M282.164 41.3925C284.633 48.4654 284.948 56.112 283.07 63.3642C281.191 70.6164 277.203 77.1482 271.61 82.1326C266.017 87.1171 259.071 90.3302 251.652 91.3651C244.232 92.4 236.672 91.2102 229.929 87.9463C223.185 84.6825 217.562 79.4913 213.771 73.03C209.979 66.5686 208.19 59.1277 208.63 51.649C209.069 44.1703 211.718 36.9902 216.24 31.0175C220.763 25.0449 226.955 20.5483 234.035 18.097C243.506 14.8039 253.898 15.4082 262.924 19.7769C271.95 24.1457 278.871 31.921 282.164 41.3925Z" fill="#EBEBEB"/>
<path d="M273.66 44.3645C275.54 49.7539 275.78 55.58 274.347 61.1054C272.915 66.6309 269.876 71.6072 265.615 75.4047C261.353 79.2021 256.061 81.6499 250.408 82.4383C244.754 83.2267 238.994 82.3203 233.856 79.8336C228.718 77.347 224.434 73.392 221.544 68.4692C218.655 63.5464 217.291 57.8771 217.626 52.1789C217.96 46.4807 219.977 41.0097 223.422 36.4584C226.867 31.9071 231.584 28.4801 236.978 26.6111C244.196 24.1041 252.115 24.5659 258.994 27.895C265.872 31.224 271.147 37.1478 273.66 44.3645Z" fill="#F5F5F5"/>
<path d="M273.354 43.5044C273.192 43.5713 272.656 42.4151 271.5 40.4755C269.869 37.7612 267.833 35.3122 265.461 33.2135C263.825 31.7868 262.037 30.5436 260.13 29.5061C257.945 28.3365 255.62 27.4503 253.212 26.8689C251.912 26.5495 250.589 26.3291 249.256 26.2096C247.866 26.0685 246.466 26.0333 245.071 26.1045C243.632 26.1854 242.201 26.3738 240.79 26.6683C239.337 26.9831 237.91 27.4047 236.519 27.9295C235.132 28.4657 233.788 29.1045 232.496 29.8406C231.242 30.556 230.047 31.3707 228.923 32.2771C227.829 33.1499 226.806 34.1085 225.865 35.1437C224.955 36.1222 224.118 37.1665 223.361 38.2682C221.947 40.3063 220.804 42.5193 219.96 44.8517C219.232 46.8964 218.729 49.0142 218.46 51.1677C218.084 54.3101 218.2 57.4919 218.804 60.5986C219.234 62.8154 219.606 64.0385 219.444 64.0958C219.281 64.1531 218.67 63.0352 217.972 60.8088C217.012 57.6385 216.65 54.3176 216.902 51.0148C217.271 46.0524 218.917 41.2697 221.68 37.1312C222.47 35.9283 223.352 34.7879 224.317 33.72C225.317 32.6014 226.403 31.5631 227.566 30.6145C228.768 29.6306 230.046 28.7425 231.388 27.9582C232.776 27.1585 234.223 26.4653 235.716 25.8847C237.219 25.3223 238.762 24.8719 240.331 24.5374C241.856 24.2255 243.402 24.0338 244.956 23.9642C246.458 23.8946 247.963 23.9457 249.457 24.117C250.886 24.2668 252.301 24.5287 253.689 24.9005C256.257 25.5717 258.723 26.5874 261.018 27.92C263.004 29.0808 264.845 30.4728 266.503 32.0669C268.893 34.3582 270.837 37.0733 272.236 40.0741C273.22 42.1954 273.478 43.4662 273.354 43.5044Z" fill="#E0E0E0"/>
<path d="M255.113 68.9977L256.823 73.7179L252.61 75.2467L250.937 70.6507C246.676 71.912 242.194 72.0553 239.213 71.0902L239.672 65.0992C242.71 65.8989 245.903 65.8989 248.94 65.0992L246.38 58.057C241.287 58.6112 235.487 58.9456 233.299 52.9163C231.684 48.4445 233.537 43.4281 239.93 40.2558L238.229 35.5738L242.443 34.0449L244.115 38.6409C247.191 37.7134 250.443 37.5301 253.603 38.1059L253.384 44.0587C250.98 43.6267 248.514 43.6787 246.131 44.2116L248.73 51.378C253.814 50.776 259.527 50.4225 261.677 56.4135C263.273 60.8376 261.448 65.7967 255.113 68.9977ZM244.115 51.9035L241.936 45.9124C239.892 47.231 239.452 48.779 239.949 50.1645C240.446 51.55 242.061 51.9704 244.115 51.9035ZM255.056 59.433C254.521 57.9615 253.011 57.5984 250.966 57.627L253.078 63.4461C255.037 62.1944 255.581 60.7611 255.075 59.4138L255.056 59.433Z" fill="#E0E0E0"/>
<path d="M72.5383 186.498C72.6305 192.784 70.8557 198.956 67.4385 204.232C64.0214 209.509 59.1155 213.654 53.3419 216.141C47.5682 218.629 41.1864 219.347 35.0041 218.206C28.8219 217.065 23.1171 214.116 18.6119 209.731C14.1067 205.346 11.0037 199.724 9.69548 193.574C8.38729 187.425 8.93278 181.026 11.2629 175.187C13.5931 169.349 17.6031 164.332 22.7854 160.773C27.9678 157.214 34.0895 155.273 40.3757 155.195C44.543 155.138 48.6807 155.903 52.5524 157.445C56.4242 158.987 59.9542 161.277 62.9409 164.184C65.9275 167.091 68.3123 170.558 69.9591 174.386C71.6058 178.215 72.4823 182.33 72.5383 186.498Z" fill="#EBEBEB"/>
<path d="M64.98 186.593C65.0439 191.382 63.6858 196.083 61.0776 200.101C58.4693 204.118 54.7281 207.272 50.3272 209.162C45.9263 211.053 41.0634 211.596 36.3539 210.723C31.6443 209.849 27.2996 207.598 23.8695 204.255C20.4394 200.912 18.0779 196.626 17.0838 191.941C16.0898 187.255 16.5078 182.38 18.285 177.932C20.0622 173.484 23.1187 169.663 27.0679 166.953C31.0171 164.242 35.6815 162.764 40.471 162.705C43.6497 162.661 46.8059 163.244 49.7589 164.421C52.712 165.598 55.4038 167.346 57.6803 169.565C59.9569 171.784 61.7735 174.43 63.026 177.352C64.2786 180.274 64.9426 183.414 64.98 186.593Z" fill="#F5F5F5"/>
<path d="M64.9709 185.828C64.818 185.828 64.7033 184.777 64.2925 182.962C63.7253 180.366 62.7583 177.875 61.4259 175.576C60.4995 174.011 59.4071 172.55 58.1676 171.219C56.7454 169.712 55.1405 168.39 53.39 167.282C52.4388 166.682 51.442 166.158 50.4088 165.715C49.3417 165.239 48.2396 164.846 47.1123 164.54C45.9434 164.221 44.7519 163.991 43.5482 163.852C42.2898 163.7 41.0218 163.643 39.7548 163.68C38.5097 163.744 37.2707 163.897 36.0474 164.138C34.8626 164.369 33.6967 164.688 32.5598 165.094C30.4061 165.895 28.3788 167.002 26.5401 168.381C24.877 169.631 23.3834 171.093 22.0969 172.728C20.9711 174.158 20.0095 175.709 19.2304 177.353C18.0972 179.771 17.3461 182.349 17.004 184.997C16.7556 186.908 16.7365 187.94 16.5836 187.94C16.4307 187.94 16.2492 186.889 16.2874 184.94C16.3581 182.16 16.9479 179.419 18.0264 176.856C18.7778 175.072 19.7401 173.385 20.893 171.83C22.2209 170.041 23.7791 168.434 25.5272 167.053C26.4773 166.312 27.4801 165.641 28.5275 165.046C29.6233 164.418 30.7671 163.878 31.9483 163.431C33.1692 162.965 34.4248 162.594 35.7034 162.323C37.024 162.059 38.3621 161.893 39.7071 161.826C41.0499 161.771 42.395 161.822 43.7298 161.979C45.0224 162.129 46.3007 162.385 47.5518 162.743C48.7664 163.085 49.9519 163.522 51.0968 164.052C52.1944 164.549 53.2518 165.131 54.2596 165.791C57.765 168.061 60.6251 171.198 62.563 174.897C63.865 177.355 64.6947 180.036 65.0091 182.8C65.2098 184.749 65.076 185.828 64.9709 185.828Z" fill="#E0E0E0"/>
<path d="M43.6913 201.298L43.806 205.512L40.0413 205.617L39.9266 201.518C36.2001 201.384 32.5883 200.314 30.4766 198.757L32.3876 194.103C34.5874 195.553 37.126 196.405 39.7546 196.578L39.5922 190.291C35.3784 189.393 30.6772 188.122 30.5339 182.742C30.4288 178.748 33.2284 175.251 39.1335 174.41L39.0189 170.235L42.7836 170.129L42.8983 174.229C45.5946 174.309 48.2336 175.026 50.5997 176.321L48.8416 181.003C47.0403 180.023 45.0625 179.409 43.0225 179.197L43.204 185.599C47.4083 186.469 52.033 187.74 52.1763 193.043C52.3483 196.96 49.5773 200.429 43.6913 201.298ZM39.4775 184.758L39.3342 179.417C37.3467 179.923 36.5919 181.032 36.6205 182.284C36.6492 183.535 37.8436 184.281 39.4775 184.758ZM46.1661 193.664C46.1661 192.345 45.0195 191.657 43.3856 191.132L43.5289 196.33C45.4304 195.881 46.233 194.868 46.1948 193.664H46.1661Z" fill="#E0E0E0"/>
<path d="M0.695069 406.618C0.695069 406.807 15.9705 406.97 166.467 406.97C316.963 406.97 439.004 406.807 439.004 406.618C439.004 406.428 317.004 406.238 166.467 406.238C15.9296 406.238 0.695069 406.414 0.695069 406.618Z" fill="#263238"/>
<path d="M344.682 261.974H356.312V406.604H344.682V261.974Z" fill="#263238"/>
<path d="M39.8337 261.974H51.4639V406.617H39.8337V261.974Z" fill="#263238"/>
<path d="M29.8399 245.146H360.566C365.039 245.146 368.665 248.749 368.665 253.194V255.403C368.665 259.848 365.039 263.451 360.566 263.451H29.8399C25.3671 263.451 21.7411 259.848 21.7411 255.403V253.194C21.7411 248.749 25.3671 245.146 29.8399 245.146Z" fill="#455A64"/>
<path d="M203.552 138.753L200.171 202.436L114.874 204.374L121.187 154.89L114.67 104.255C118.951 80.5702 152.355 78.9307 152.355 78.9307L178.588 78.5106C187.561 77.8653 196.528 79.8435 204.384 84.2015C204.384 84.2015 231.012 98.6591 230.766 135.243" fill="#0D99FF"/>
<path d="M152.137 78.3345C152.721 80.1263 153.493 81.8521 154.441 83.4834C155.718 85.3437 157.435 86.864 159.442 87.9106C161.448 88.9572 163.682 89.4981 165.948 89.4859C168.212 89.5274 170.451 89.0077 172.463 87.974C174.474 86.9402 176.195 85.4248 177.469 83.5647C178.198 82.3938 178.753 81.1253 179.119 79.7978C179.218 79.2975 179.364 78.8076 179.555 78.3345C179.615 78.8524 179.573 79.3768 179.433 79.8791C179.171 81.2756 178.673 82.6179 177.96 83.8492C176.868 85.6902 175.313 87.2172 173.447 88.28C171.177 89.6129 168.585 90.3105 165.948 90.2989C163.308 90.3097 160.717 89.592 158.463 88.2258C156.628 87.1282 155.085 85.6086 153.964 83.795C153.233 82.5725 152.691 81.2479 152.355 79.8656C152.206 79.3689 152.132 78.8528 152.137 78.3345Z" fill="#263238"/>
<path d="M132.054 99.5808C136.121 102.8 139.444 106.851 141.796 111.459C144.149 116.067 145.476 121.124 145.688 126.287C146.342 142.466 147.365 164.931 147.965 166.056C149.833 169.524 199.176 166.571 204.37 166.205L210.628 164.281C210.628 164.281 222.163 154.362 224.263 157.343C226.362 160.324 218.209 162.235 216.628 168.088C215.046 173.942 231.434 169.362 232.498 168.644L236.725 167.451C236.725 167.451 234.216 175.446 232.075 177.979C225.258 186.109 209.592 190.174 209.592 190.174C209.592 190.174 145.688 210.81 119.864 193.778C111.438 188.21 109.993 133.618 113.197 112.48C113.804 108.445 115.863 104.766 118.992 102.124C122.121 99.4832 126.108 98.0595 130.213 98.1174L132.054 99.5808Z" fill="#FFBE9D"/>
<path d="M226.854 176.462C228.105 175.701 229.408 175.027 230.753 174.443C232.015 173.71 233.327 173.068 234.68 172.519C233.569 173.485 232.319 174.28 230.971 174.877C229.688 175.612 228.3 176.146 226.854 176.462Z" fill="#EB996E"/>
<path d="M121.528 91.9522C113.661 99.4317 106.039 114.431 108.861 144.485L150.773 142.764L149.683 101.654C149.623 99.5941 149.102 97.5735 148.159 95.7384C147.215 93.9034 145.873 92.3 144.229 91.0444C140.952 88.4932 136.869 87.1837 132.71 87.35C128.551 87.5164 124.587 89.1477 121.528 91.9522Z" fill="#0D99FF"/>
<path d="M205.025 398.352L206.156 382.594L176.461 380.304L174.566 403.338L176.406 403.596C184.587 404.68 217.95 408.541 223.554 407.308C229.853 405.94 205.025 398.352 205.025 398.352Z" fill="#0D99FF"/>
<g opacity="0.3">
<path d="M185.35 403.935C185.104 401.411 183.929 399.066 182.051 397.35C180.207 395.618 177.77 394.649 175.233 394.64L174.579 402.878L185.35 403.935Z" fill="white"/>
</g>
<g opacity="0.3">
<path d="M217.105 402.498C217.105 402.498 225.749 405.71 224.536 407.078C223.322 408.447 189.413 405.805 174.566 403.339L174.675 402.688L214.214 406.089C214.214 406.089 215.373 402.431 217.105 402.498Z" fill="white"/>
</g>
<path d="M174.211 402.634C174.376 402.68 174.545 402.712 174.715 402.728L176.174 402.932L181.546 403.582C186.086 404.097 192.454 404.72 199.339 405.276C206.224 405.831 212.605 406.17 217.173 406.373L222.627 406.563H224.099C224.271 406.587 224.445 406.587 224.617 406.563H224.113L222.64 406.468L217.186 406.157C212.633 405.899 206.279 405.506 199.366 404.951C192.454 404.395 186.127 403.812 181.642 403.365L176.188 402.823L174.715 402.688C174.55 402.649 174.381 402.631 174.211 402.634Z" fill="#263238"/>
<path d="M214.131 406.55C214.444 405.682 214.851 404.85 215.345 404.07C215.938 403.36 216.611 402.719 217.35 402.16C216.401 402.421 215.583 403.025 215.059 403.853C214.432 404.612 214.103 405.569 214.131 406.55Z" fill="#263238"/>
<path d="M205.72 401.455C205.801 401.455 206.265 401.035 206.743 400.398C207.22 399.761 207.561 399.179 207.479 399.124C207.397 399.07 206.947 399.531 206.456 400.181C205.965 400.832 205.638 401.387 205.72 401.455Z" fill="#263238"/>
<path d="M203.415 400.005C203.415 400.086 203.974 399.802 204.52 399.395C205.066 398.989 205.461 398.569 205.407 398.488C205.352 398.406 204.847 398.691 204.302 399.111C203.756 399.531 203.361 399.924 203.415 400.005Z" fill="#263238"/>
<path d="M202.119 397.106C202.6 397.316 203.121 397.422 203.647 397.417C204.163 397.536 204.699 397.536 205.215 397.417C204.737 397.199 204.214 397.092 203.688 397.106C203.172 396.98 202.634 396.98 202.119 397.106Z" fill="#263238"/>
<path d="M201.752 395.1C202.239 395.473 202.829 395.69 203.443 395.723C204.038 395.879 204.667 395.845 205.243 395.629C204.669 395.494 204.086 395.408 203.497 395.371C202.925 395.23 202.341 395.139 201.752 395.1Z" fill="#263238"/>
<path d="M206.933 398.962C207.558 399.111 208.203 399.157 208.842 399.097C209.541 399.065 210.235 398.965 210.915 398.799C211.329 398.723 211.732 398.596 212.115 398.42C212.348 398.302 212.532 398.105 212.633 397.864C212.673 397.727 212.672 397.581 212.631 397.444C212.59 397.308 212.51 397.185 212.401 397.092C211.702 396.68 210.88 396.522 210.077 396.645C209.273 396.769 208.538 397.166 207.997 397.77C207.663 398.114 207.415 398.532 207.274 398.989C207.165 399.301 207.152 399.49 207.179 399.49C207.422 398.924 207.758 398.402 208.174 397.946C208.641 397.474 209.239 397.153 209.892 397.024C210.272 396.926 210.668 396.904 211.057 396.96C211.446 397.016 211.819 397.148 212.155 397.35C212.428 397.593 212.292 397.946 211.937 398.108C211.582 398.269 211.212 398.396 210.833 398.488C210.175 398.656 209.505 398.774 208.829 398.84C207.67 398.948 206.933 398.894 206.933 398.962Z" fill="#263238"/>
<path d="M207.424 399.084C207.704 398.691 207.817 398.204 207.738 397.729C207.72 397.229 207.579 396.74 207.329 396.306C207.192 396.011 206.981 395.756 206.715 395.566C206.45 395.376 206.14 395.258 205.815 395.222C205.619 395.249 205.442 395.35 205.32 395.504C205.198 395.659 205.141 395.854 205.16 396.049C205.18 396.353 205.269 396.65 205.419 396.916C205.633 397.356 205.903 397.766 206.224 398.135C206.783 398.772 207.233 399.03 207.261 398.989C207.288 398.948 206.906 398.623 206.429 397.986C206.155 397.607 205.917 397.203 205.719 396.78C205.487 396.36 205.365 395.629 205.856 395.574C206.347 395.52 206.783 396.076 207.042 396.482C207.288 396.867 207.442 397.303 207.493 397.756C207.507 398.2 207.485 398.644 207.424 399.084Z" fill="#263238"/>
<path d="M175.452 394.599C175.452 394.599 176.297 394.599 177.633 394.856C179.371 395.181 180.98 395.99 182.271 397.19C183.563 398.39 184.484 399.93 184.928 401.631C185.282 402.986 185.255 403.785 185.323 403.785C185.368 403.589 185.368 403.385 185.323 403.189C185.318 402.642 185.254 402.097 185.132 401.563C184.74 399.785 183.812 398.168 182.472 396.927C181.133 395.685 179.445 394.878 177.633 394.612C177.092 394.531 176.544 394.503 175.997 394.531C175.813 394.532 175.63 394.554 175.452 394.599Z" fill="#263238"/>
<path d="M179.487 382.566C179.128 384.566 178.882 386.583 178.751 388.61C178.512 390.624 178.389 392.651 178.382 394.68C178.742 392.681 178.987 390.663 179.119 388.637C179.358 386.622 179.481 384.595 179.487 382.566Z" fill="#263238"/>
<path d="M189.318 401.347C190.708 401.796 192.152 402.056 193.613 402.119C195.065 402.311 196.537 402.311 197.989 402.119C197.989 402.011 196.04 401.984 193.654 401.767C191.267 401.55 189.331 401.252 189.318 401.347Z" fill="#263238"/>
<path d="M183.496 400.886C183.414 400.954 183.618 401.306 183.782 401.767C183.946 402.227 184.028 402.634 184.137 402.634C184.246 402.634 184.314 402.173 184.137 401.645C183.959 401.116 183.496 400.818 183.496 400.886Z" fill="#263238"/>
<path d="M181.518 398.013C181.437 398.013 181.614 398.393 181.887 398.731C182.16 399.07 182.46 399.273 182.541 399.219C182.623 399.165 182.446 398.826 182.173 398.501C181.9 398.176 181.6 397.946 181.518 398.013Z" fill="#263238"/>
<path d="M178.478 396.523C178.478 396.631 178.887 396.658 179.31 396.848C179.733 397.038 180.033 397.282 180.115 397.227C180.196 397.173 179.978 396.74 179.446 396.509C178.914 396.279 178.451 396.428 178.478 396.523Z" fill="#263238"/>
<path d="M176.297 395.764C176.297 395.859 176.406 396.021 176.651 396.13C176.897 396.238 177.115 396.265 177.156 396.13C177.197 395.994 177.047 395.872 176.801 395.764C176.556 395.655 176.338 395.683 176.297 395.764Z" fill="#263238"/>
<path d="M296.28 399.097L295.871 383.312L266.107 383.868L266.448 406.97L268.288 407.065C276.469 407.363 310.132 408 315.586 406.252C321.681 404.287 296.28 399.097 296.28 399.097Z" fill="#0D99FF"/>
<g opacity="0.3">
<path d="M277.232 406.536C276.746 404.05 275.352 401.831 273.319 400.303C271.32 398.782 268.819 398.061 266.311 398.285L266.461 406.55L277.232 406.536Z" fill="white"/>
</g>
<g opacity="0.3">
<path d="M308.701 402.078C308.701 402.078 317.617 404.449 316.527 405.926C315.436 407.403 281.459 408.013 266.448 406.97V406.319L306.11 405.926C306.11 405.926 306.969 402.173 308.701 402.078Z" fill="white"/>
</g>
<path d="M266.011 406.306H266.529L268.002 406.374L273.456 406.509C278.023 406.59 284.363 406.617 291.33 406.509C298.297 406.401 304.624 406.143 309.191 405.899L314.645 405.574L316.118 405.466C316.288 405.466 316.458 405.443 316.622 405.398H316.118H314.645L309.191 405.601C304.624 405.777 298.284 405.981 291.33 406.103C284.377 406.224 278.037 406.238 273.469 406.224H266.652C266.436 406.22 266.22 406.247 266.011 406.306Z" fill="#263238"/>
<path d="M306.136 406.387C306.352 405.493 306.678 404.629 307.104 403.813C307.634 403.048 308.247 402.343 308.932 401.712C308.019 402.076 307.269 402.754 306.818 403.623C306.252 404.428 306.009 405.413 306.136 406.387Z" fill="#263238"/>
<path d="M297.274 402.173C297.356 402.173 297.765 401.712 298.188 401.021C298.611 400.33 298.884 399.734 298.802 399.666C298.72 399.599 298.297 400.141 297.874 400.818C297.452 401.496 297.179 402.065 297.274 402.173Z" fill="#263238"/>
<path d="M294.834 400.899C294.834 400.967 295.366 400.655 295.87 400.181C296.375 399.707 296.73 399.273 296.662 399.206C296.593 399.138 296.13 399.449 295.625 399.924C295.12 400.398 294.766 400.818 294.834 400.899Z" fill="#263238"/>
<path d="M293.265 398.108C293.764 398.278 294.296 398.334 294.82 398.271C295.346 398.333 295.88 398.268 296.375 398.081C295.352 397.846 294.288 397.846 293.265 398.081V398.108Z" fill="#263238"/>
<path d="M292.707 396.171C293.219 396.508 293.826 396.674 294.439 396.645C295.048 396.736 295.671 396.642 296.225 396.374C295.643 396.288 295.054 396.257 294.466 396.279C293.884 396.197 293.296 396.161 292.707 396.171Z" fill="#263238"/>
<path d="M298.23 399.463C298.865 399.576 299.516 399.576 300.152 399.463C300.839 399.367 301.515 399.204 302.17 398.975C302.575 398.855 302.964 398.687 303.329 398.474C303.442 398.411 303.542 398.325 303.622 398.223C303.701 398.12 303.759 398.003 303.792 397.878C303.823 397.738 303.81 397.592 303.757 397.46C303.703 397.327 303.611 397.213 303.492 397.132C302.757 396.783 301.921 396.701 301.131 396.902C300.341 397.102 299.647 397.572 299.17 398.23C298.877 398.605 298.672 399.04 298.57 399.504C298.502 399.829 298.502 400.019 298.57 400.019C298.753 399.427 299.04 398.872 299.416 398.379C299.837 397.873 300.395 397.497 301.025 397.295C301.773 397.033 302.595 397.072 303.315 397.403C303.615 397.634 303.506 397.986 303.165 398.189C302.829 398.385 302.472 398.544 302.102 398.664C301.462 398.894 300.806 399.075 300.138 399.206C298.966 399.463 298.23 399.463 298.23 399.463Z" fill="#263238"/>
<path d="M298.734 399.612C298.965 399.2 299.033 398.717 298.925 398.257C298.853 397.769 298.666 397.305 298.379 396.902C298.215 396.622 297.98 396.388 297.698 396.225C297.416 396.061 297.096 395.972 296.77 395.967C296.673 395.987 296.582 396.025 296.5 396.08C296.419 396.135 296.35 396.205 296.296 396.288C296.243 396.37 296.207 396.462 296.189 396.558C296.172 396.654 296.175 396.753 296.197 396.848C296.243 397.155 296.36 397.447 296.538 397.702C296.794 398.117 297.106 398.495 297.465 398.826C297.769 399.162 298.147 399.422 298.57 399.585C298.57 399.585 298.175 399.246 297.643 398.65C297.327 398.308 297.053 397.93 296.824 397.525C296.552 397.133 296.361 396.414 296.824 396.32C297.288 396.225 297.793 396.726 298.093 397.105C298.372 397.465 298.567 397.882 298.666 398.325C298.719 398.752 298.742 399.182 298.734 399.612Z" fill="#263238"/>
<path d="M266.475 398.203C266.475 398.271 267.32 398.108 268.67 398.203C270.429 398.361 272.107 399.013 273.507 400.083C274.907 401.153 275.972 402.597 276.578 404.246C277.055 405.506 277.123 406.36 277.192 406.346C277.221 406.149 277.221 405.948 277.192 405.75C277.13 405.211 277.012 404.679 276.837 404.165C276.272 402.425 275.186 400.899 273.724 399.79C272.262 398.681 270.494 398.042 268.656 397.959C268.113 397.898 267.564 397.898 267.02 397.959C266.666 398.108 266.461 398.176 266.475 398.203Z" fill="#263238"/>
<path d="M269.325 385.832C269.16 387.856 269.114 389.887 269.188 391.916C269.139 393.941 269.207 395.968 269.393 397.986C269.575 395.964 269.625 393.931 269.543 391.902C269.6 389.876 269.527 387.849 269.325 385.832Z" fill="#263238"/>
<path d="M280.927 403.528C283.808 404.021 286.754 403.998 289.626 403.461C289.626 403.352 287.676 403.461 285.277 403.528C282.877 403.596 280.941 403.528 280.927 403.528Z" fill="#263238"/>
<path d="M275.092 403.691C275.023 403.758 275.255 404.097 275.46 404.531C275.664 404.964 275.787 405.357 275.896 405.357C276.005 405.357 276.033 404.883 275.787 404.382C275.542 403.88 275.16 403.609 275.092 403.691Z" fill="#263238"/>
<path d="M272.841 401.008C272.841 401.076 272.978 401.387 273.292 401.686C273.605 401.984 273.905 402.187 273.974 402.106C274.042 402.024 273.851 401.74 273.537 401.428C273.223 401.116 272.91 400.94 272.841 401.008Z" fill="#263238"/>
<path d="M269.678 399.815C269.678 399.924 270.087 399.91 270.537 400.059C270.988 400.208 271.288 400.425 271.369 400.357C271.451 400.29 271.192 399.883 270.647 399.707C270.101 399.531 269.637 399.734 269.678 399.815Z" fill="#263238"/>
<path d="M267.429 399.274C267.429 399.368 267.565 399.517 267.811 399.612C268.056 399.707 268.288 399.694 268.329 399.612C268.37 399.531 268.179 399.368 267.933 399.287C267.688 399.206 267.456 399.179 267.429 399.274Z" fill="#263238"/>
<path d="M270.074 200.621L167.966 199.347L189.318 247.056L254.626 247.313L260.925 393.474H300.751L296.947 230.444C296.77 223.099 293.958 216.059 289.018 210.593C284.078 205.127 277.335 201.595 270.006 200.634L270.074 200.621Z" fill="#263238"/>
<path d="M259.603 382.214C259.603 381.997 268.861 381.821 280.273 381.821C291.685 381.821 300.956 381.997 300.956 382.214C300.956 382.431 291.698 382.621 280.273 382.621C268.847 382.621 259.603 382.431 259.603 382.214Z" fill="#455A64"/>
<path d="M173.052 250.944L170.162 391.333L216.328 393.582C216.328 393.582 223.663 256.066 220.009 217.043C217.5 190.337 114.942 201.813 114.942 201.813C113.456 254.996 173.052 250.972 173.052 250.972" fill="#263238"/>
<path d="M170.162 380.236C170.752 380.143 171.352 380.12 171.948 380.168L176.788 380.277C180.878 380.412 186.509 380.656 192.726 380.968C198.944 381.28 204.575 381.605 208.651 381.876L213.478 382.255C214.072 382.262 214.663 382.344 215.237 382.499C214.648 382.562 214.053 382.562 213.464 382.499L208.624 382.377C204.534 382.255 198.903 382.011 192.672 381.7C186.441 381.388 180.824 381.063 176.747 380.778L171.92 380.412C171.329 380.419 170.739 380.36 170.162 380.236Z" fill="#455A64"/>
<path d="M172.466 239.156C172.988 241.377 173.254 243.65 173.257 245.931C173.521 248.182 173.521 250.455 173.257 252.706C173.025 252.706 172.67 249.684 172.466 245.931C172.261 242.178 172.234 239.17 172.466 239.156Z" fill="#455A64"/>
<path d="M170.68 199.618C170.97 199.583 171.263 199.583 171.552 199.618H174.048C176.215 199.618 179.351 199.794 183.223 200.011C187.096 200.228 191.718 200.567 196.858 201.366C202.443 202.116 207.805 204.032 212.592 206.989C213.834 207.82 214.97 208.798 215.973 209.903C216.942 211.008 217.692 212.286 218.182 213.669C218.997 216.239 219.541 218.887 219.805 221.569C220.225 226.073 220.411 230.595 220.363 235.119C220.363 238.885 220.363 241.975 220.363 244.251C220.363 245.254 220.363 246.067 220.363 246.731C220.399 247.019 220.399 247.31 220.363 247.598C220.289 247.315 220.247 247.024 220.241 246.731C220.241 246.175 220.118 245.376 220.077 244.251C219.954 242.097 219.886 238.98 219.805 235.132C219.723 231.284 219.655 226.691 219.068 221.65C218.802 219.022 218.258 216.429 217.446 213.913C216.413 211.311 214.556 209.114 212.156 207.653C207.462 204.761 202.216 202.87 196.749 202.098C191.704 201.312 187.109 200.919 183.251 200.621L174.088 199.984L171.593 199.781C171.283 199.767 170.976 199.712 170.68 199.618Z" fill="#455A64"/>
<path d="M166.289 90.1771C168.124 90.1773 169.941 89.8155 171.634 89.1128C173.327 88.4102 174.863 87.3806 176.153 86.0837C177.442 84.7868 178.46 83.2485 179.147 81.5578C179.835 79.8671 180.177 78.0577 180.156 76.2344C180.156 71.4514 180.019 67.3052 180.019 67.3052C180.019 67.3052 191.172 66.2754 191.99 55.3137C192.808 44.3519 192.454 19.0546 192.454 19.0546C186.345 15.993 179.525 14.6063 172.696 15.0374C165.868 15.4685 159.28 17.7018 153.61 21.5071L151.905 22.6588L152.423 76.5325C152.463 80.1626 153.941 83.6309 156.536 86.1851C159.132 88.7394 162.637 90.1738 166.289 90.1771Z" fill="#FFBE9D"/>
<path d="M180.305 48.525C181.121 48.75 181.971 48.8281 182.814 48.7554C183.04 48.7938 183.27 48.7938 183.496 48.7554C183.651 48.7191 183.796 48.6476 183.919 48.5466C184.042 48.4455 184.14 48.3176 184.205 48.1727C184.359 47.6255 184.321 47.0422 184.096 46.5197L183.155 43.349C181.792 38.8776 180.428 35.3141 180.224 35.3818C180.019 35.4496 180.946 39.1351 182.337 43.6065C182.678 44.6905 183.019 45.7202 183.346 46.75C183.524 47.1065 183.6 47.5052 183.564 47.9018C183.564 48.1185 183.196 48.1863 182.787 48.1998C181.947 48.1678 181.108 48.2777 180.305 48.525Z" fill="#263238"/>
<path d="M180.046 67.1425C174.949 66.9346 170.03 65.217 165.921 62.2104C165.921 62.2104 168.825 70.3403 179.896 69.988L180.046 67.1425Z" fill="#EB996E"/>
<path d="M154.644 34.7861C154.44 34.7048 147.65 33.824 148.29 41.7777C148.931 49.7314 156.812 46.4659 156.798 46.2356C156.785 46.0052 154.644 34.7861 154.644 34.7861Z" fill="#FFBE9D"/>
<path d="M154.126 43.634C154.126 43.634 153.989 43.7424 153.771 43.8643C153.612 43.9508 153.438 44.005 153.257 44.0236C153.077 44.0422 152.895 44.0249 152.721 43.9727C152.183 43.6847 151.73 43.2619 151.407 42.7461C151.084 42.2303 150.903 41.6395 150.881 41.0324C150.807 40.3507 150.886 39.6613 151.113 39.0135C151.168 38.7579 151.285 38.5195 151.454 38.3189C151.622 38.1183 151.837 37.9614 152.081 37.8618C152.236 37.8055 152.406 37.8059 152.561 37.863C152.716 37.9201 152.845 38.0301 152.926 38.1734C153.062 38.3902 153.021 38.5528 153.062 38.5664C153.103 38.5799 153.226 38.4173 153.13 38.0921C153.073 37.8972 152.947 37.729 152.776 37.6179C152.539 37.4745 152.257 37.426 151.985 37.4824C151.66 37.5738 151.365 37.7463 151.126 37.9835C150.887 38.2207 150.714 38.5146 150.622 38.8374C150.334 39.5553 150.227 40.3318 150.308 41.1002C150.327 41.811 150.558 42.5003 150.97 43.0814C151.382 43.6624 151.959 44.1093 152.626 44.3656C152.845 44.4141 153.072 44.4111 153.29 44.357C153.508 44.3029 153.71 44.1992 153.88 44.054C154.126 43.8237 154.153 43.6475 154.126 43.634Z" fill="#EB996E"/>
<path d="M152.096 201.271H261.103L279.073 132.1H188.131L173.734 196.759L152.096 197.274V201.271Z" fill="#ED5100"/>
<path d="M202.774 10.0404C202.857 9.31424 202.758 8.57882 202.484 7.90066C202.21 7.22251 201.771 6.62302 201.206 6.15639C200.601 5.69143 199.845 5.46568 199.083 5.52259C198.322 5.5795 197.608 5.91505 197.079 6.46465C197.2 5.97114 197.214 5.45785 197.12 4.95858C197.027 4.45931 196.829 3.98537 196.538 3.56797C196.248 3.15057 195.872 2.79916 195.435 2.53688C194.999 2.2746 194.511 2.1074 194.005 2.04628C192.066 1.92297 190.415 3.38206 188.537 3.87528C186.674 4.28065 184.729 4.0565 183.008 3.23821C181.254 2.53949 179.603 1.57361 177.829 0.91599C174.071 -0.449441 169.924 -0.282926 166.289 1.37935C162.653 3.04162 159.823 6.06539 158.413 9.79384C157.084 9.47264 155.689 9.55991 154.411 10.0441C153.133 10.5284 152.032 11.3869 151.253 12.5065C149.749 14.7926 149.146 17.5521 149.561 20.2541C149.808 22.068 150.265 23.8472 150.923 25.5561C150.923 25.7205 150.923 25.8644 150.923 26.0083C151.047 32.5228 151.392 37.1905 154.177 37.2522C159.026 37.2522 158.269 31.1664 158.269 31.1664C164.232 28.8648 162.003 19.9869 163.509 18.6306C165.016 17.2743 168.09 14.1711 180.573 20.5418C185.22 22.6118 190.405 23.1657 195.388 22.1242H195.697C196.823 21.827 197.9 21.3703 198.895 20.7679C200.064 20.0988 200.989 19.0768 201.536 17.8497C201.791 17.2331 201.863 16.5563 201.742 15.9004C201.621 15.2444 201.313 14.637 200.855 14.1506C201.903 13.0089 202.573 11.574 202.774 10.0404Z" fill="#263238"/>
<path d="M184.859 35.7073C184.737 35.8563 185.746 36.6422 187.259 36.6693C188.773 36.6964 189.809 35.9783 189.7 35.8157C189.591 35.6531 188.568 36.0054 187.273 35.9647C185.977 35.9241 184.859 35.5311 184.859 35.7073Z" fill="#263238"/>
<path d="M188.745 36.439C188.745 36.8091 188.597 37.1641 188.334 37.4258C188.07 37.6875 187.713 37.8346 187.34 37.8346C186.968 37.8346 186.61 37.6875 186.347 37.4258C186.083 37.1641 185.935 36.8091 185.935 36.439" fill="#263238"/>
<path d="M169.48 35.802C169.371 35.9511 170.38 36.7369 171.879 36.764C173.379 36.7911 174.429 36.073 174.32 35.924C174.211 35.7749 173.202 36.1001 171.907 36.0595C170.611 36.0188 169.589 35.6259 169.48 35.802Z" fill="#263238"/>
<path d="M173.407 36.5337C173.407 36.9038 173.259 37.2588 172.995 37.5205C172.732 37.7823 172.374 37.9293 172.002 37.9293C171.629 37.9293 171.272 37.7823 171.008 37.5205C170.745 37.2588 170.597 36.9038 170.597 36.5337" fill="#263238"/>
<path d="M168.498 32.2654C168.594 32.848 170.175 33.0648 172.057 33.0919C173.938 33.119 175.52 32.9293 175.629 32.3467C175.738 31.764 174.156 30.9917 172.084 30.9917C170.012 30.9917 168.403 31.6692 168.498 32.2654Z" fill="#263238"/>
<path d="M184.314 33.1194C184.41 33.702 185.991 33.9324 187.873 33.9595C189.754 33.9866 191.336 33.7833 191.445 33.2007C191.554 32.618 189.986 31.8457 187.9 31.8457C185.814 31.8457 184.219 32.5503 184.314 33.1194Z" fill="#263238"/>
<path d="M175.525 50.2607C175.403 50.4233 179.642 52.59 180.078 52.712C180.515 52.8339 182.062 52.2922 182.048 52.0348C182.035 51.7773 180.569 52.1158 180.269 52.0345C179.969 51.9532 175.634 50.0846 175.525 50.2607Z" fill="#263238"/>
<path d="M108.861 144.484C109.106 144.505 109.353 144.505 109.598 144.484H111.697L119.414 144.186C125.904 143.915 134.889 143.495 144.802 142.98L149.887 142.723H150.214V142.398C150.214 133.78 150.133 126.138 150.092 120.556C150.092 117.846 150.023 115.691 149.996 114.079C149.996 113.374 149.996 112.805 149.996 112.331C150.01 112.125 149.987 111.919 149.928 111.721C149.905 111.924 149.905 112.128 149.928 112.331C149.928 112.805 149.928 113.374 149.86 114.079C149.86 115.691 149.86 117.873 149.751 120.556C149.751 126.152 149.683 133.78 149.642 142.398L149.969 142.045L144.883 142.303C134.971 142.818 126 143.319 119.51 143.658L111.82 144.173L109.734 144.349C109.437 144.343 109.142 144.389 108.861 144.484Z" fill="#263238"/>
<path d="M128.331 85.3672C129.95 85.1649 131.584 85.115 133.212 85.2182C137.134 85.6425 140.794 87.3821 143.588 90.1503C146.315 92.9875 148.165 96.5427 148.919 100.394C149.519 103.348 149.396 105.258 149.533 105.245C149.649 104.803 149.695 104.346 149.669 103.89C149.697 102.678 149.61 101.467 149.41 100.272C148.783 96.2624 146.926 92.543 144.093 89.6219C141.197 86.7297 137.348 84.9735 133.253 84.6762C132.03 84.5961 130.801 84.6781 129.599 84.9201C129.154 84.9958 128.725 85.1471 128.331 85.3672Z" fill="#263238"/>
<path d="M203.579 106.383C203.383 107.688 203.301 109.007 203.334 110.326C203.334 112.765 203.266 116.193 203.334 119.946C203.416 123.496 203.484 126.721 203.538 129.35C203.538 130.854 203.538 131.938 203.538 133.008C203.538 131.789 203.538 130.569 203.538 128.862C203.538 126.22 203.661 123.008 203.743 119.445C203.825 115.881 203.743 112.67 203.743 110.244C203.814 108.955 203.759 107.662 203.579 106.383Z" fill="#263238"/>
<path d="M224.604 166.679C224.601 167.894 224.961 169.082 225.639 170.094C226.317 171.105 227.281 171.894 228.41 172.36C229.539 172.827 230.782 172.949 231.982 172.713C233.181 172.477 234.283 171.892 235.148 171.032C236.012 170.173 236.601 169.078 236.839 167.886C237.076 166.694 236.953 165.459 236.484 164.337C236.015 163.215 235.221 162.256 234.203 161.583C233.185 160.91 231.989 160.552 230.767 160.554C229.132 160.554 227.565 161.199 226.409 162.348C225.253 163.497 224.604 165.054 224.604 166.679Z" fill="#F5F5F5"/>
</g>
</g>
<defs>
<clipPath id="clip0_3974_23303">
<rect width="1350" height="9480" fill="white" transform="translate(-690 -5194)"/>
</clipPath>
<clipPath id="clip1_3974_23303">
<rect width="440" height="408" fill="white" transform="matrix(-1 0 0 1 440 0)"/>
</clipPath>
</defs>
</svg>
