<svg width="421" height="286" viewBox="0 0 421 286" fill="none" xmlns="http://www.w3.org/2000/svg">
<g clip-path="url(#clip0_5497_41801)">
<path d="M342.844 120.231L325.72 109.467L309.103 68.8876C303.05 54.1124 292.235 41.7821 278.373 33.8578L233.484 8.20074C218.616 -0.297152 200.902 -2.29025 184.518 2.69249L150.674 12.988L131.246 1.87218C129.119 0.65774 126.802 0.542384 124.751 1.19607L124.735 1.18645L124.62 1.25054C123.54 1.61584 122.547 2.19262 121.701 2.95845L4.11116 71.7427C1.71432 73.1141 0 75.6744 0 78.8274V107.279L6.84766 121.205C11.5036 130.674 19.1203 138.367 28.5442 143.116L173.114 215.97L280.049 277.502C293.443 285.209 309.35 287.276 324.262 283.245C357.187 274.343 386.83 256.38 409.895 231.536C416.429 224.5 419.998 215.21 419.998 205.607V196.526C400.173 165.751 373.837 139.71 342.844 120.231Z" fill="#ED5100"/>
<path d="M342.844 120.231L325.72 109.467L318.744 113.562L386.798 203.047L328.252 235.446L211.999 176.217L206.689 179.335L224.069 190.258C245.375 203.649 273.961 234.782 289.588 252.736C296.798 261.023 307.891 264.801 318.668 262.692C359.76 254.643 396.107 230.911 420.001 196.523C400.173 165.751 373.837 139.71 342.844 120.231Z" fill="#E33400"/>
<path d="M95.8581 148.81L62.738 125.511C57.8674 113.335 49.7508 102.514 40.5575 97.2043C25.6541 88.6006 13.5737 97.733 13.5737 117.606C13.5737 137.476 25.6541 160.557 40.5575 169.161C47.6231 173.24 54.0478 173.327 58.8575 170.18L95.8581 148.81Z" fill="#23292E"/>
<path d="M285.596 257.424L252.476 234.126C247.605 221.949 239.489 211.128 230.295 205.822C215.392 197.218 203.312 206.35 203.312 226.22C203.312 246.091 215.392 269.171 230.295 277.778C237.361 281.854 243.786 281.944 248.595 278.797L285.596 257.424Z" fill="#23292E"/>
<path d="M318.668 262.692C307.888 264.8 296.795 261.023 289.585 252.736C273.958 234.782 245.372 203.649 224.069 190.258L206.686 179.335L190.068 138.755C184.018 123.98 173.204 111.649 159.339 103.725L114.452 78.068C99.5843 69.5701 81.8707 67.577 65.4837 72.5597L31.6396 82.8553L12.2149 71.7426C6.77396 68.628 0 72.5565 0 78.8274V107.279L6.84766 121.205C11.5036 130.674 19.1203 138.367 28.5442 143.116L173.114 215.97L280.049 277.502C293.443 285.209 309.35 287.276 324.262 283.245C357.187 274.343 386.83 256.38 409.895 231.536C416.429 224.5 419.998 215.21 419.998 205.607V196.526C396.104 230.911 359.76 254.643 318.668 262.692Z" fill="#872E02"/>
<path d="M31.6428 82.8553L150.674 12.988L131.246 1.87216C129.119 0.657714 126.802 0.542358 124.751 1.19604L124.735 1.18643L124.62 1.25052C123.54 1.61581 122.547 2.19259 121.701 2.95843L4.11116 71.7426C1.71432 73.1141 0 75.6744 0 78.8274V107.279L6.84766 121.205C11.5036 130.674 19.1203 138.367 28.5442 143.116L173.114 215.97L228.161 247.644V223.125L31.6428 82.8553Z" fill="#E33400"/>
<path d="M411.386 213.993V224.727C389.49 246.904 362.571 264.355 332.905 273.911L321.187 277.682V266.166L339.749 260.241C364.349 252.39 386.706 238.749 404.939 220.462L411.386 213.993Z" fill="#23292E"/>
<path d="M257.279 257.376C257.279 277.246 245.199 286.379 230.295 277.775C215.392 269.171 203.312 246.091 203.312 226.22C203.312 206.35 215.392 197.218 230.295 205.822C245.199 214.425 257.279 237.506 257.279 257.376Z" fill="#2E373D"/>
<path d="M243.561 249.458C243.561 259.228 237.624 263.718 230.295 259.488C222.967 255.258 217.029 243.908 217.029 234.138C217.029 224.368 222.967 219.879 230.295 224.109C237.624 228.338 243.561 239.688 243.561 249.458Z" fill="#CECECE"/>
<path d="M237.493 245.953C237.493 251.253 234.269 253.685 230.296 251.394C226.322 249.099 223.099 242.944 223.099 237.644C223.099 232.347 226.322 229.909 230.296 232.206C234.269 234.497 237.493 240.653 237.493 245.953Z" fill="#627681"/>
<path d="M67.5413 148.762C67.5413 168.636 55.4609 177.768 40.5575 169.164C25.6541 160.557 13.5737 137.476 13.5737 117.606C13.5737 97.7362 25.6541 88.6038 40.5575 97.2075C55.4609 105.811 67.5413 128.892 67.5413 148.762Z" fill="#2E373D"/>
<path d="M53.8235 140.844C53.8235 150.614 47.8858 155.104 40.5575 150.874C33.2324 146.644 27.2915 135.294 27.2915 125.524C27.2915 115.754 33.2324 111.265 40.5575 115.495C47.8858 119.724 53.8235 131.074 53.8235 140.844Z" fill="#CECECE"/>
<path d="M47.7543 137.339C47.7543 142.639 44.5307 145.071 40.5573 142.776C36.5839 140.482 33.3604 134.327 33.3604 129.03C33.3604 123.73 36.5839 121.294 40.5573 123.589C44.5307 125.883 47.7543 132.039 47.7543 137.339Z" fill="#627681"/>
<path d="M211.999 176.217L318.745 113.559L302.473 74.9246C300.262 69.6726 293.943 67.5482 289.005 70.4L202.209 120.51C196.525 123.791 194.099 130.738 196.502 136.845L211.999 176.217Z" fill="#3B2F25"/>
<path d="M195.042 176.361L180.481 137.701C177.735 130.411 172.582 124.278 165.876 120.317L107.48 85.8353C101.27 82.1695 93.6914 81.6664 87.052 84.4799L78.0157 88.3091C69.6011 91.8755 68.8866 103.526 76.8013 108.096L195.042 176.361Z" fill="#24170C"/>
<path d="M310.09 110.217L295.532 71.5536C295.228 70.7493 294.885 69.9642 294.523 69.1888C292.674 69.0318 290.755 69.3907 289.005 70.4L265.065 84.2204L310.09 110.217Z" fill="#625951"/>
<path d="M403.387 168.616C402.439 168.616 401.49 168.885 400.574 169.414L389.98 175.531L371.953 183.571L386.798 203.047C387.728 203.995 388.948 204.485 390.16 204.485C391.108 204.485 392.057 204.216 392.973 203.684L403.57 197.567C406.313 195.984 408.383 192.146 408.383 188.64V174.515C408.383 170.641 405.867 168.616 403.387 168.616Z" fill="#872E02"/>
<path d="M403.387 168.616C402.438 168.616 401.49 168.885 400.573 169.414L389.98 175.531C387.234 177.114 385.167 180.953 385.167 184.458V198.586C385.167 202.46 387.679 204.485 390.159 204.485C391.108 204.485 392.056 204.216 392.973 203.688L403.57 197.57C406.312 195.984 408.382 192.149 408.382 188.643V174.515C408.382 170.641 405.867 168.616 403.387 168.616Z" fill="#E33400"/>
<path d="M402.07 194.975L391.477 201.092C389.644 202.15 388.16 201.025 388.16 198.586V184.458C388.16 182.017 389.644 179.181 391.477 178.123L402.07 172.006C403.903 170.952 405.387 172.074 405.387 174.515V188.64C405.387 191.082 403.903 193.918 402.07 194.975Z" fill="white"/>
<path d="M170.997 189.092L82.3804 131.18V163.201L170.997 210.811V189.092Z" fill="#872E02"/>
<path d="M82.3804 131.18L120.224 155.911L94.8613 143.642V165.876L120.224 183.532L82.3804 163.201V131.18Z" fill="#23292E"/>
<path d="M323.256 215.419C322.308 215.419 321.363 215.688 320.443 216.22L309.849 222.337L285.141 233.353L306.655 249.843C307.587 250.798 308.811 251.291 310.029 251.291C310.977 251.291 311.926 251.022 312.842 250.49L323.439 244.373C326.182 242.79 328.252 238.951 328.252 235.446V221.321C328.252 217.447 325.74 215.419 323.256 215.419Z" fill="#872E02"/>
<path d="M323.257 215.419C322.308 215.419 321.363 215.688 320.443 216.22L309.85 222.337C307.107 223.92 305.037 227.758 305.037 231.264V245.389C305.037 249.263 307.549 251.291 310.032 251.291C310.981 251.291 311.926 251.022 312.846 250.49L323.439 244.373C326.185 242.79 328.252 238.951 328.252 235.446V221.321C328.252 217.447 325.74 215.419 323.257 215.419Z" fill="#E33400"/>
<path d="M321.943 241.781L311.346 247.898C309.516 248.955 308.033 247.83 308.033 245.389V231.264C308.033 228.822 309.516 225.986 311.346 224.929L321.943 218.812C323.772 217.758 325.256 218.879 325.256 221.318V235.446C325.256 237.887 323.772 240.723 321.943 241.781Z" fill="white"/>
</g>
<defs>
<clipPath id="clip0_5497_41801">
<rect width="421" height="286" fill="white"/>
</clipPath>
</defs>
</svg>
