<svg width="3288" height="1336" viewBox="0 0 3288 1336" fill="none" xmlns="http://www.w3.org/2000/svg">
  <rect width="1920" height="1020" fill="#F5F6FF"/>
  <path d="M1927.52 911L596 0H2200V911H1927.52Z" fill="#D9D9D9"/>
  <g clip-path="url(#clip0_5952_43051)">
    <path d="M1341.84 144.231L1324.72 133.467L1308.1 92.8876C1302.05 78.1124 1291.24 65.7822 1277.37 57.8578L1232.48 32.2007C1217.62 23.7028 1199.9 21.7098 1183.52 26.6925L1149.67 36.988L1130.25 25.8722C1128.12 24.6577 1125.8 24.5424 1123.75 25.1961L1123.74 25.1865L1123.62 25.2505C1122.54 25.6158 1121.55 26.1926 1120.7 26.9585L1003.11 95.7427C1000.71 97.1141 999 99.6744 999 102.827V131.279L1005.85 145.205C1010.5 154.674 1018.12 162.367 1027.54 167.116L1172.11 239.97L1279.05 301.503C1292.44 309.209 1308.35 311.276 1323.26 307.245C1356.19 298.343 1385.83 280.38 1408.9 255.536C1415.43 248.5 1419 239.21 1419 229.607V220.526C1399.17 189.751 1372.84 163.71 1341.84 144.231V144.231Z" fill="#ED5100"/>
    <path d="M1341.84 144.231L1324.72 133.467L1317.74 137.562L1385.8 227.047L1327.25 259.446L1211 200.217L1205.69 203.335L1223.07 214.258C1244.37 227.649 1272.96 258.782 1288.59 276.736C1295.8 285.023 1306.89 288.801 1317.67 286.692C1358.76 278.643 1395.11 254.911 1419 220.523C1399.17 189.751 1372.84 163.71 1341.84 144.231V144.231Z" fill="#E33400"/>
    <path d="M1094.86 172.81L1061.74 149.511C1056.87 137.335 1048.75 126.514 1039.56 121.204C1024.65 112.601 1012.57 121.733 1012.57 141.606C1012.57 161.476 1024.65 184.557 1039.56 193.161C1046.62 197.24 1053.05 197.327 1057.86 194.18L1094.86 172.81Z" fill="#23292E"/>
    <path d="M1284.6 281.424L1251.48 258.126C1246.61 245.949 1238.49 235.128 1229.3 229.822C1214.39 221.218 1202.31 230.35 1202.31 250.22C1202.31 270.091 1214.39 293.171 1229.3 301.778C1236.36 305.854 1242.79 305.944 1247.6 302.797L1284.6 281.424Z" fill="#23292E"/>
    <path d="M1317.67 286.692C1306.89 288.8 1295.79 285.023 1288.59 276.736C1272.96 258.782 1244.37 227.649 1223.07 214.258L1205.69 203.335L1189.07 162.755C1183.02 147.98 1172.2 135.649 1158.34 127.725L1113.45 102.068C1098.58 93.5701 1080.87 91.577 1064.48 96.5597L1030.64 106.855L1011.21 95.7426C1005.77 92.628 999 96.5565 999 102.827V131.279L1005.85 145.205C1010.5 154.674 1018.12 162.367 1027.54 167.116L1172.11 239.97L1279.05 301.502C1292.44 309.209 1308.35 311.276 1323.26 307.245C1356.19 298.343 1385.83 280.379 1408.9 255.536C1415.43 248.5 1419 239.21 1419 229.607V220.526C1395.1 254.911 1358.76 278.643 1317.67 286.692V286.692Z" fill="#872E02"/>
    <path d="M1030.64 106.855L1149.67 36.988L1130.25 25.8721C1128.12 24.6577 1125.8 24.5423 1123.75 25.196L1123.74 25.1864L1123.62 25.2505C1122.54 25.6158 1121.55 26.1926 1120.7 26.9584L1003.11 95.7426C1000.71 97.1141 999 99.6743 999 102.827V131.279L1005.85 145.205C1010.5 154.674 1018.12 162.367 1027.54 167.116L1172.11 239.97L1227.16 271.644V247.125L1030.64 106.855Z" fill="#E33400"/>
    <path d="M1410.39 237.993V248.727C1388.49 270.904 1361.57 288.355 1331.9 297.911L1320.19 301.682V290.166L1338.75 284.241C1363.35 276.39 1385.71 262.749 1403.94 244.462L1410.39 237.993Z" fill="#23292E"/>
    <path d="M1256.28 281.376C1256.28 301.246 1244.2 310.379 1229.3 301.775C1214.39 293.171 1202.31 270.091 1202.31 250.22C1202.31 230.35 1214.39 221.218 1229.3 229.822C1244.2 238.425 1256.28 261.506 1256.28 281.376V281.376Z" fill="#2E373D"/>
    <path d="M1242.56 273.458C1242.56 283.228 1236.62 287.718 1229.3 283.488C1221.97 279.258 1216.03 267.908 1216.03 258.138C1216.03 248.368 1221.97 243.879 1229.3 248.109C1236.62 252.338 1242.56 263.688 1242.56 273.458Z" fill="#CECECE"/>
    <path d="M1236.49 269.953C1236.49 275.253 1233.27 277.685 1229.3 275.394C1225.32 273.099 1222.1 266.944 1222.1 261.644C1222.1 256.347 1225.32 253.909 1229.3 256.206C1233.27 258.497 1236.49 264.653 1236.49 269.953V269.953Z" fill="#627681"/>
    <path d="M1066.54 172.762C1066.54 192.636 1054.46 201.768 1039.56 193.164C1024.65 184.557 1012.57 161.476 1012.57 141.606C1012.57 121.736 1024.65 112.604 1039.56 121.207C1054.46 129.811 1066.54 152.892 1066.54 172.762Z" fill="#2E373D"/>
    <path d="M1052.82 164.844C1052.82 174.614 1046.89 179.104 1039.56 174.874C1032.23 170.644 1026.29 159.294 1026.29 149.524C1026.29 139.754 1032.23 135.265 1039.56 139.495C1046.89 143.724 1052.82 155.074 1052.82 164.844Z" fill="#CECECE"/>
    <path d="M1046.75 161.339C1046.75 166.639 1043.53 169.071 1039.56 166.776C1035.58 164.482 1032.36 158.327 1032.36 153.03C1032.36 147.73 1035.58 145.294 1039.56 147.589C1043.53 149.883 1046.75 156.039 1046.75 161.339Z" fill="#627681"/>
    <path d="M1211 200.217L1317.75 137.559L1301.47 98.9246C1299.26 93.6726 1292.94 91.5482 1288.01 94.4L1201.21 144.51C1195.52 147.791 1193.1 154.738 1195.5 160.845L1211 200.217Z" fill="#3B2F25"/>
    <path d="M1194.04 200.361L1179.48 161.701C1176.74 154.411 1171.58 148.278 1164.88 144.317L1106.48 109.835C1100.27 106.17 1092.69 105.666 1086.05 108.48L1077.02 112.309C1068.6 115.875 1067.89 127.526 1075.8 132.096L1194.04 200.361Z" fill="#24170C"/>
    <path d="M1309.09 134.217L1294.53 95.5536C1294.23 94.7493 1293.89 93.9642 1293.52 93.1888C1291.67 93.0318 1289.75 93.3907 1288.01 94.4L1264.07 108.22L1309.09 134.217Z" fill="#625951"/>
    <path d="M1402.39 192.616C1401.44 192.616 1400.49 192.885 1399.57 193.414L1388.98 199.531L1370.95 207.571L1385.8 227.047C1386.73 227.995 1387.95 228.485 1389.16 228.485C1390.11 228.485 1391.06 228.216 1391.97 227.684L1402.57 221.567C1405.31 219.984 1407.38 216.146 1407.38 212.64V198.515C1407.38 194.641 1404.87 192.616 1402.39 192.616V192.616Z" fill="#872E02"/>
    <path d="M1402.39 192.616C1401.44 192.616 1400.49 192.885 1399.57 193.414L1388.98 199.531C1386.23 201.114 1384.17 204.953 1384.17 208.458V222.586C1384.17 226.46 1386.68 228.485 1389.16 228.485C1390.11 228.485 1391.06 228.216 1391.97 227.688L1402.57 221.57C1405.31 219.984 1407.38 216.149 1407.38 212.643V198.515C1407.38 194.641 1404.87 192.616 1402.39 192.616V192.616Z" fill="#E33400"/>
    <path d="M1401.07 218.975L1390.48 225.092C1388.64 226.15 1387.16 225.025 1387.16 222.586V208.458C1387.16 206.017 1388.64 203.181 1390.48 202.123L1401.07 196.006C1402.9 194.952 1404.39 196.074 1404.39 198.515V212.64C1404.39 215.082 1402.9 217.918 1401.07 218.975Z" fill="white"/>
    <path d="M1170 213.092L1081.38 155.18V187.201L1170 234.811V213.092Z" fill="#872E02"/>
    <path d="M1081.38 155.18L1119.22 179.911L1093.86 167.642V189.876L1119.22 207.532L1081.38 187.201V155.18Z" fill="#23292E"/>
    <path d="M1322.26 239.419C1321.31 239.419 1320.36 239.688 1319.44 240.22L1308.85 246.337L1284.14 257.353L1305.65 273.843C1306.59 274.798 1307.81 275.291 1309.03 275.291C1309.98 275.291 1310.93 275.022 1311.84 274.49L1322.44 268.373C1325.18 266.79 1327.25 262.951 1327.25 259.446V245.321C1327.25 241.447 1324.74 239.419 1322.26 239.419V239.419Z" fill="#872E02"/>
    <path d="M1322.26 239.419C1321.31 239.419 1320.36 239.688 1319.44 240.22L1308.85 246.337C1306.11 247.92 1304.04 251.758 1304.04 255.264V269.389C1304.04 273.263 1306.55 275.291 1309.03 275.291C1309.98 275.291 1310.93 275.022 1311.85 274.49L1322.44 268.373C1325.19 266.79 1327.25 262.951 1327.25 259.446V245.321C1327.25 241.447 1324.74 239.419 1322.26 239.419V239.419Z" fill="#E33400"/>
    <path d="M1320.94 265.781L1310.35 271.898C1308.52 272.955 1307.03 271.83 1307.03 269.389V255.264C1307.03 252.822 1308.52 249.986 1310.35 248.929L1320.94 242.812C1322.77 241.758 1324.26 242.879 1324.26 245.318V259.446C1324.26 261.887 1322.77 264.723 1320.94 265.781V265.781Z" fill="white"/>
  </g>
  <path d="M1413.5 104.5L1306 34L1326.5 24L1432.5 94L1413.5 104.5Z" fill="white"/>
  <path d="M1615.5 240.5L1508 170L1528.5 160L1634.5 230L1615.5 240.5Z" fill="white"/>
  <path d="M1812.5 360.5L1705 290L1725.5 280L1831.5 350L1812.5 360.5Z" fill="white"/>
  <path d="M2014.5 496.5L1907 426L1927.5 416L2033.5 486L2014.5 496.5Z" fill="white"/>
  <path d="M2225.5 628.5L2118 558L2138.5 548L2244.5 618L2225.5 628.5Z" fill="white"/>
  <path d="M2427.5 764.5L2320 694L2340.5 684L2446.5 754L2427.5 764.5Z" fill="white"/>
  <path d="M2624.5 884.5L2517 814L2537.5 804L2643.5 874L2624.5 884.5Z" fill="white"/>
  <path d="M2826.5 1020.5L2719 950L2739.5 940L2845.5 1010L2826.5 1020.5Z" fill="white"/>
  <path d="M3066.5 1199.5L2959 1129L2979.5 1119L3085.5 1189L3066.5 1199.5Z" fill="white"/>
  <path d="M3268.5 1335.5L3161 1265L3181.5 1255L3287.5 1325L3268.5 1335.5Z" fill="white"/>
  <defs>
    <clipPath id="clip0_5952_43051">
      <rect width="421" height="286" fill="white" transform="translate(999 24)"/>
    </clipPath>
  </defs>
</svg>
