<svg width="183" height="172" viewBox="0 0 183 172" fill="none" xmlns="http://www.w3.org/2000/svg">
  <g clip-path="url(#clip0_5497_41748)">
    <path d="M94.5697 3.43272L9.17083 35.3998C4.10708 37.2953 1.54478 42.9452 3.44901 48.0165L46.5556 162.816C48.4598 167.887 54.1107 170.463 59.1745 168.567L144.573 136.6C149.637 134.705 152.199 129.055 150.295 123.984L107.189 9.18397C105.284 4.1127 99.6334 1.53722 94.5697 3.43272Z" fill="#585966"/>
    <path d="M110.186 59.8205L112.855 66.9266C113.636 69.0073 112.586 71.3217 110.509 72.0994L100.547 75.8282C98.4698 76.6059 96.155 75.551 95.3737 73.4702L92.7054 66.3641C91.9241 64.2834 92.9737 61.969 95.0513 61.1913L105.013 57.4625C107.09 56.6848 109.405 57.7398 110.186 59.8205Z" fill="#FF6D7A"/>
    <path d="M80.9559 70.7622L83.6242 77.8683C84.4055 79.9491 83.3559 82.2634 81.2783 83.0412L71.317 86.7699C69.2393 87.5477 66.9245 86.4927 66.1432 84.4119L63.4749 77.3058C62.6936 75.2251 63.7432 72.9107 65.8209 72.133L75.7822 68.4042C77.8598 67.6265 80.1746 68.6815 80.9559 70.7622Z" fill="#CBE3FA"/>
    <path d="M91.3016 98.314L93.9699 105.42C94.7512 107.501 93.7016 109.815 91.624 110.593L81.6627 114.322C79.585 115.099 77.2702 114.044 76.4889 111.964L73.8206 104.858C73.0393 102.777 74.0889 100.463 76.1666 99.6848L86.1279 95.956C88.2055 95.1783 90.5203 96.2333 91.3016 98.314Z" fill="#CBE3FA"/>
    <path d="M101.647 125.866L104.316 132.972C105.097 135.053 104.047 137.367 101.97 138.145L92.0084 141.874C89.9307 142.651 87.6159 141.596 86.8346 139.516L84.1663 132.41C83.385 130.329 84.4346 128.015 86.5123 127.237L96.4736 123.508C98.5512 122.73 100.866 123.785 101.647 125.866Z" fill="#CBE3FA"/>
    <path d="M72.7035 136.701L75.3718 143.807C76.1531 145.887 75.1035 148.202 73.0258 148.979L63.0645 152.708C60.9869 153.486 58.6721 152.431 57.8908 150.35L55.2225 143.244C54.4412 141.163 55.4908 138.849 57.5684 138.071L67.5297 134.343C69.6074 133.565 71.9222 134.62 72.7035 136.701Z" fill="#CBE3FA"/>
    <path d="M62.3578 109.149L65.0261 116.255C65.8074 118.335 64.7578 120.65 62.6801 121.428L52.7188 125.156C50.6412 125.934 48.3264 124.879 47.5451 122.798L44.8768 115.692C44.0955 113.612 45.1451 111.297 47.2227 110.519L57.184 106.791C59.2617 106.013 61.5764 107.068 62.3578 109.149Z" fill="#CBE3FA"/>
    <path d="M52.0121 81.5967L54.6803 88.7028C55.4617 90.7835 54.4121 93.0979 52.3344 93.8756L42.3731 97.6044C40.2955 98.3821 37.9807 97.3271 37.1994 95.2464L34.5311 88.1403C33.7498 86.0596 34.7994 83.7452 36.877 82.9675L46.8383 79.2387C48.916 78.461 51.2307 79.516 52.0121 81.5967Z" fill="#CBE3FA"/>
    <path d="M96.2717 22.7632L102.307 38.8352C103.259 41.3722 101.979 44.1952 99.4457 45.1435L32.9607 70.0306C30.4274 70.9789 27.6039 69.6921 26.6513 67.155L20.6164 51.0831C19.6637 48.546 20.944 45.723 23.4773 44.7747L89.9623 19.8876C92.4956 18.9393 95.3191 20.2262 96.2717 22.7632Z" fill="#CBE3FA"/>
    <path d="M90.0185 41.7983C88.7524 42.2723 87.3399 41.6285 86.8638 40.3605L84.4929 34.0465C83.2268 34.5205 81.8143 33.8767 81.3382 32.6087C80.8621 31.3408 81.5026 29.9285 82.7687 29.4546L85.0612 28.5964C86.3273 28.1225 87.7399 28.7662 88.216 30.0342L91.449 38.6442C91.9251 39.9121 91.2846 41.3244 90.0185 41.7983Z" fill="white"/>
    <path d="M110.834 114.695C117.142 131.494 135.853 140.022 152.628 133.743C169.402 127.464 177.886 108.756 171.578 91.957C165.27 75.158 146.559 66.6299 129.785 72.9089C113.01 79.1879 104.526 97.8963 110.834 114.695Z" fill="#FFE773"/>
    <path d="M154.605 106.03C152.072 99.2843 145.613 100.299 140.898 101.04C135.387 101.906 133.515 101.762 132.545 99.1772C131.664 96.8327 133.783 93.7808 137.171 92.5125C139.485 91.6463 141.95 91.7571 143.604 92.8015C144.749 93.5246 146.261 93.1832 146.981 92.0387C147.702 90.8943 147.357 89.3804 146.212 88.6574C143.861 87.172 140.844 86.6953 137.815 87.2633L136.732 84.3792C136.256 83.1113 134.843 82.4675 133.577 82.9414C132.311 83.4153 131.67 84.8276 132.147 86.0956L133.23 88.9819C128.679 91.6757 126.357 96.6245 127.96 100.894C130.493 107.639 136.951 106.624 141.667 105.883C147.178 105.018 149.049 105.161 150.019 107.746C150.9 110.091 148.781 113.143 145.393 114.411C143.079 115.277 140.614 115.166 138.961 114.122C137.816 113.399 136.303 113.74 135.583 114.885C134.862 116.029 135.207 117.543 136.352 118.266C138.704 119.751 141.72 120.228 144.75 119.66L145.833 122.544C146.309 123.812 147.721 124.456 148.987 123.982C150.253 123.508 150.894 122.096 150.418 120.828L149.334 117.942C153.885 115.248 156.208 110.299 154.605 106.03Z" fill="#FAD167"/>
    <path d="M123.671 121.673C125.709 125.324 120.878 128.927 117.965 125.929C101.365 108.845 108.493 80.5143 130.262 72.7292C134.21 71.3171 136.996 76.6725 133.553 79.064C120.163 88.362 115.203 106.502 123.671 121.673Z" fill="#FFF0A6"/>
    <path d="M76.0427 68.3166C77.5275 67.8724 78.2379 70.1037 76.7864 70.6471L70.695 72.9272C68.6174 73.705 67.5543 76.0244 68.3491 78.1001C69.1948 80.3089 69.7802 81.86 70.1911 82.9917C71.1251 85.5652 67.2202 87.2802 66.1432 84.412L63.4749 77.3059C62.6941 75.2263 63.7444 72.9104 65.8209 72.1331C65.8209 72.1331 75.9555 68.3427 76.0427 68.3166Z" fill="#EEF7FF"/>
    <path d="M105.273 57.3748C106.758 56.9306 107.468 59.162 106.017 59.7053L99.9255 61.9855C97.8478 62.7632 96.7848 65.0826 97.5796 67.1583C98.4253 69.3671 99.0107 70.9183 99.4216 72.0499C100.356 74.6234 96.4507 76.3385 95.3737 73.4702L92.7054 66.3641C91.9245 64.2845 92.9748 61.9686 95.0513 61.1913C95.0513 61.1913 105.186 57.4009 105.273 57.3748Z" fill="#FF8C95"/>
    <path d="M47.0989 79.151C48.5837 78.7068 49.2941 80.9382 47.8426 81.4815L41.7512 83.7617C39.6735 84.5394 38.6105 86.8588 39.4052 88.9345C40.251 91.1434 40.8364 92.6945 41.2472 93.8262C42.1812 96.3997 38.2764 98.1147 37.1994 95.2465L34.5311 88.1404C33.7502 86.0608 34.8005 83.7448 36.877 82.9675C36.877 82.9675 47.0116 79.1771 47.0989 79.151Z" fill="#EEF7FF"/>
    <path d="M86.3884 95.8683C87.8732 95.4241 88.5836 97.6555 87.1321 98.1988L81.0407 100.479C78.9631 101.257 77.9 103.576 78.6948 105.652C79.5405 107.861 80.1259 109.412 80.5368 110.543C81.4708 113.117 77.5659 114.832 76.4889 111.964L73.8206 104.858C73.0398 102.778 74.0901 100.462 76.1666 99.6848C76.1666 99.6848 86.3012 95.8944 86.3884 95.8683Z" fill="#EEF7FF"/>
    <path d="M57.4446 106.703C58.9294 106.259 59.6398 108.49 58.1883 109.033L52.0969 111.314C50.0192 112.091 48.9562 114.411 49.7509 116.486C50.5967 118.695 51.1821 120.246 51.5929 121.378C52.5269 123.952 48.6221 125.667 47.5451 122.798L44.8768 115.692C44.0959 113.613 45.1462 111.297 47.2227 110.519C47.2227 110.519 57.3573 106.729 57.4446 106.703Z" fill="#EEF7FF"/>
    <path d="M96.7341 123.42C98.219 122.976 98.9293 125.207 97.4778 125.751L91.3864 128.031C89.3088 128.809 88.2457 131.128 89.0405 133.204C89.8862 135.413 90.4716 136.964 90.8825 138.095C91.8165 140.669 87.9117 142.384 86.8346 139.516L84.1663 132.41C83.3855 130.33 84.4358 128.014 86.5123 127.237C86.5123 127.237 96.6469 123.446 96.7341 123.42Z" fill="#EEF7FF"/>
    <path d="M67.7903 134.255C69.2751 133.811 69.9855 136.042 68.534 136.585L62.4426 138.865C60.3649 139.643 59.3019 141.963 60.0966 144.038C60.9424 146.247 61.5278 147.798 61.9386 148.93C62.8726 151.503 58.9678 153.218 57.8908 150.35L55.2225 143.244C54.4416 141.165 55.4919 138.849 57.5684 138.071C57.5684 138.071 67.703 134.281 67.7903 134.255Z" fill="#EEF7FF"/>
    <path d="M91.6725 24.1575L32.2581 46.3979C29.7248 47.3462 28.4445 50.1692 29.3975 52.7061L34.5701 66.4818C35.1066 67.9088 34.3858 69.4972 32.9607 70.0306C30.4283 70.9786 27.6036 69.6912 26.6513 67.155L20.6164 51.0831C19.664 48.5469 20.9448 45.7227 23.4773 44.7747L89.9623 19.8876C93.0779 18.7213 94.4293 23.1255 91.6725 24.1575Z" fill="#EEF7FF"/>
    <path d="M45.6905 160.512L3.44908 48.0164C1.54452 42.9442 4.10629 37.2955 9.1709 35.3997C98.3232 2.0292 94.5884 3.41613 94.9834 3.28789C98.7362 2.06874 100.642 7.7065 96.9466 9.08966L19.9234 37.9215C14.8588 39.8173 12.2971 45.4661 14.2016 50.5382L54.2877 157.294C56.4075 162.939 47.8021 166.135 45.6905 160.512Z" fill="#6E6F80"/>
  </g>
  <defs>
    <clipPath id="clip0_5497_41748">
      <rect width="183" height="172" fill="white"/>
    </clipPath>
  </defs>
</svg>
