<svg width="166" height="166" viewBox="0 0 166 166" fill="none" xmlns="http://www.w3.org/2000/svg">
  <g clip-path="url(#clip0_5497_41693)">
    <path d="M96.4688 56.3302H69.1284C68.3843 56.3302 67.7291 56.8204 67.5187 57.534L62.111 75.8871C61.7942 76.9622 62.5999 78.0396 63.7208 78.0396H101.876C102.997 78.0396 103.803 76.9622 103.486 75.8871L98.0785 57.534C97.8681 56.8204 97.2129 56.3302 96.4688 56.3302Z" fill="#FFD15B"/>
    <path d="M75.7115 78.0398H48.3711C47.627 78.0398 46.9717 78.53 46.7613 79.2436L41.3537 97.5967C41.0369 98.6718 41.8426 99.7492 42.9634 99.7492H81.1191C82.2399 99.7492 83.0456 98.6718 82.7289 97.5967L77.3212 79.2436C77.1108 78.5297 76.4556 78.0398 75.7115 78.0398Z" fill="#FFD15B"/>
    <path d="M117.226 78.0398H89.8857C89.1416 78.0398 88.4864 78.53 88.276 79.2436L82.8683 97.5967C82.5516 98.6718 83.3573 99.7492 84.4781 99.7492H122.634C123.755 99.7492 124.56 98.6718 124.244 97.5967L118.836 79.2436C118.626 78.5297 117.97 78.0398 117.226 78.0398Z" fill="#FFD15B"/>
    <path d="M54.9541 99.7491H27.6138C26.8697 99.7491 26.2144 100.239 26.004 100.953L20.5964 119.306C20.2796 120.381 21.0853 121.459 22.2061 121.459H60.3618C61.4826 121.459 62.2883 120.381 61.9715 119.306L56.5639 100.953C56.3538 100.239 55.6986 99.7491 54.9541 99.7491Z" fill="#FFD15B"/>
    <path d="M96.4688 99.7491H69.1284C68.3843 99.7491 67.7291 100.239 67.5187 100.953L62.111 119.306C61.7942 120.381 62.5999 121.459 63.7208 121.459H101.876C102.997 121.459 103.803 120.381 103.486 119.306L98.0785 100.953C97.8681 100.239 97.2129 99.7491 96.4688 99.7491Z" fill="#FFD15B"/>
    <path d="M137.983 99.7491H110.643C109.898 99.7491 109.243 100.239 109.033 100.953L103.625 119.306C103.308 120.381 104.114 121.459 105.235 121.459H143.391C144.511 121.459 145.317 120.381 145 119.306L139.593 100.953C139.383 100.239 138.727 99.7491 137.983 99.7491Z" fill="#FFD15B"/>
    <path d="M34.4276 121.459H7.08722C6.34314 121.459 5.68789 121.949 5.47747 122.663L0.0695048 141.016C-0.247257 142.091 0.558427 143.169 1.67925 143.169H39.8349C40.9558 143.169 41.7614 142.091 41.4447 141.016L36.037 122.663C35.8269 121.949 35.1717 121.459 34.4276 121.459Z" fill="#FFD15B"/>
    <path d="M75.9419 121.459H48.6015C47.8575 121.459 47.2022 121.949 46.9918 122.663L41.5842 141.016C41.2674 142.091 42.0731 143.168 43.1939 143.168H81.3496C82.4704 143.168 83.2761 142.091 82.9593 141.016L77.5517 122.663C77.3416 121.949 76.6863 121.459 75.9419 121.459Z" fill="#FFD15B"/>
    <path d="M117.457 121.459H90.1162C89.3721 121.459 88.7169 121.949 88.5065 122.663L83.0988 141.016C82.782 142.091 83.5877 143.168 84.7086 143.168H122.864C123.985 143.168 124.791 142.091 124.474 141.016L119.066 122.663C118.856 121.949 118.201 121.459 117.457 121.459Z" fill="#FFD15B"/>
    <path d="M158.913 121.459H131.573C130.829 121.459 130.173 121.949 129.963 122.663L124.555 141.016C124.239 142.091 125.044 143.168 126.165 143.168H164.32C165.441 143.168 166.247 142.091 165.93 141.016L160.523 122.663C160.312 121.949 159.657 121.459 158.913 121.459Z" fill="#FFD15B"/>
    <path d="M39.8357 143.167H33.1432C34.2643 143.167 35.0706 142.09 34.7526 141.016L29.3453 122.661C29.1345 121.948 28.4786 121.46 27.7358 121.46H34.4284C35.1712 121.46 35.827 121.948 36.0378 122.661L41.4454 141.015C41.7632 142.09 40.9568 143.167 39.8357 143.167Z" fill="#FFC344"/>
    <path d="M81.3497 143.167H74.6572C75.7783 143.167 76.5846 142.09 76.2666 141.016L70.8589 122.661C70.6482 121.949 69.9923 121.46 69.2495 121.46H75.942C76.6848 121.46 77.3407 121.949 77.5515 122.661L82.9591 141.016C83.2772 142.09 82.4708 143.167 81.3497 143.167Z" fill="#FFC344"/>
    <path d="M122.863 143.167H116.171C117.292 143.167 118.098 142.09 117.78 141.016L112.373 122.661C112.162 121.949 111.509 121.46 110.763 121.46H117.456C118.202 121.46 118.854 121.949 119.065 122.661L124.473 141.016C124.791 142.09 123.984 143.167 122.863 143.167Z" fill="#FFC344"/>
    <path d="M164.32 143.167H157.628C158.749 143.167 159.555 142.09 159.237 141.016L153.83 122.661C153.619 121.949 152.966 121.46 152.22 121.46H158.913C159.659 121.46 160.311 121.949 160.522 122.661L165.93 141.016C166.248 142.09 165.442 143.167 164.32 143.167Z" fill="#FFC344"/>
    <path d="M143.391 121.459H136.698C137.819 121.459 138.626 120.382 138.308 119.307L132.9 100.953C132.689 100.24 132.037 99.7518 131.291 99.7518H137.983C138.729 99.7518 139.382 100.24 139.592 100.953L145 119.307C145.318 120.382 144.512 121.459 143.391 121.459Z" fill="#FFC344"/>
    <path d="M122.633 99.7492H115.941C117.062 99.7492 117.868 98.6718 117.55 97.5977L112.143 79.2433C111.932 78.5307 111.279 78.0421 110.533 78.0421H117.226C117.972 78.0421 118.624 78.5307 118.835 79.2433L124.243 97.5977C124.561 98.6718 123.755 99.7492 122.633 99.7492Z" fill="#FFC344"/>
    <path d="M81.1192 99.7492H74.4267C75.5478 99.7492 76.3542 98.6718 76.0361 97.5977L70.6285 79.2433C70.4177 78.5307 69.7651 78.0421 69.019 78.0421H75.7116C76.4579 78.0421 77.1102 78.5307 77.321 79.2433L82.7286 97.5977C83.0467 98.6718 82.2404 99.7492 81.1192 99.7492Z" fill="#FFC344"/>
    <path d="M101.876 78.0399H95.1835C96.3047 78.0399 97.111 76.9625 96.7929 75.8883L91.3853 57.534C91.1746 56.8214 90.5219 56.3328 89.7759 56.3328H96.4684C97.2148 56.3328 97.8671 56.8214 98.0778 57.534L103.485 75.8883C103.804 76.9622 102.997 78.0399 101.876 78.0399Z" fill="#FFC344"/>
    <path d="M101.876 121.459H95.1835C96.3047 121.459 97.111 120.382 96.7929 119.307L91.3853 100.953C91.1746 100.24 90.5219 99.7518 89.7759 99.7518H96.4684C97.2148 99.7518 97.8671 100.24 98.0778 100.953L103.485 119.307C103.804 120.382 102.997 121.459 101.876 121.459Z" fill="#FFC344"/>
    <path d="M60.3619 121.459H53.6694C54.7905 121.459 55.5968 120.382 55.2788 119.307L49.8711 100.953C49.6604 100.24 49.0077 99.7518 48.2617 99.7518H54.9542C55.7006 99.7518 56.3529 100.24 56.5637 100.953L61.9713 119.307C62.2894 120.382 61.483 121.459 60.3619 121.459Z" fill="#FFC344"/>
    <path d="M82.7983 34.2852C81.4554 34.2852 80.3667 33.1965 80.3667 31.8536V25.2632C80.3667 23.9203 81.4554 22.8315 82.7983 22.8315C84.1416 22.8315 85.23 23.9203 85.23 25.2632V31.8536C85.23 33.1965 84.1416 34.2852 82.7983 34.2852Z" fill="#FFD15B"/>
    <path d="M57.744 38.704C56.7506 38.704 55.8185 38.0909 55.4589 37.1034L53.205 30.9102C52.7456 29.6483 53.3963 28.2529 54.6584 27.7934C55.92 27.334 57.3157 27.985 57.7752 29.2469L60.0291 35.4401C60.4885 36.702 59.8378 38.0974 58.5757 38.5568C58.301 38.6567 58.0203 38.704 57.744 38.704Z" fill="#FFD15B"/>
    <path d="M35.7122 51.4237C35.0181 51.4237 34.3291 51.1284 33.8483 50.5551L29.612 45.5067C28.7486 44.478 28.8829 42.9444 29.9116 42.081C30.94 41.2176 32.4742 41.3519 33.3373 42.3806L37.5736 47.429C38.4369 48.4578 38.3027 49.9913 37.274 50.8547C36.8188 51.237 36.264 51.4237 35.7122 51.4237Z" fill="#FFD15B"/>
    <path d="M19.3555 70.9135C18.9431 70.9135 18.5249 70.8084 18.142 70.5873L12.4344 67.2919C11.2714 66.6205 10.873 65.1333 11.5444 63.9703C12.2159 62.8074 13.7028 62.4086 14.8661 63.0803L20.5736 66.3757C21.7366 67.0472 22.135 68.5344 21.4636 69.6973C21.0132 70.4771 20.1959 70.9135 19.3555 70.9135Z" fill="#FFD15B"/>
    <path d="M10.6593 94.8204C10.519 94.8204 10.3769 94.8081 10.2343 94.7831L3.74375 93.6387C2.42127 93.4055 1.53809 92.1443 1.77121 90.8218C2.00432 89.499 3.26683 88.6168 4.58802 88.8493L11.0786 89.9938C12.401 90.2269 13.2842 91.4881 13.0511 92.8106C12.8433 93.9901 11.8171 94.8204 10.6593 94.8204Z" fill="#FFD15B"/>
    <path d="M154.938 94.8204C153.78 94.8204 152.754 93.9904 152.546 92.8106C152.313 91.4881 153.196 90.2269 154.518 89.9938L161.009 88.8493C162.331 88.6168 163.593 89.499 163.825 90.8218C164.059 92.1443 163.176 93.4055 161.853 93.6387L155.363 94.7831C155.22 94.8081 155.078 94.8204 154.938 94.8204Z" fill="#FFD15B"/>
    <path d="M146.241 70.9135C145.401 70.9135 144.584 70.4774 144.133 69.6973C143.462 68.5344 143.86 67.0472 145.023 66.3757L150.731 63.0803C151.893 62.4086 153.381 62.8074 154.052 63.9703C154.724 65.1333 154.325 66.6205 153.162 67.2919L147.455 70.5873C147.072 70.8084 146.654 70.9135 146.241 70.9135Z" fill="#FFD15B"/>
    <path d="M129.885 51.4237C129.333 51.4237 128.778 51.2369 128.323 50.855C127.294 49.9916 127.16 48.4581 128.023 47.4293L132.259 42.3809C133.122 41.3522 134.656 41.2179 135.685 42.081C136.714 42.9444 136.848 44.478 135.984 45.5067L131.748 50.5551C131.268 51.1283 130.579 51.4237 129.885 51.4237Z" fill="#FFD15B"/>
    <path d="M107.853 38.704C107.576 38.704 107.296 38.6566 107.021 38.5568C105.76 38.0973 105.109 36.7019 105.568 35.44L107.822 29.2468C108.281 27.9846 109.677 27.3339 110.939 27.7933C112.201 28.2528 112.852 29.6482 112.392 30.9101L110.138 37.1033C109.779 38.0909 108.846 38.704 107.853 38.704Z" fill="#FFD15B"/>
  </g>
  <defs>
    <clipPath id="clip0_5497_41693">
      <rect width="166" height="166" fill="white"/>
    </clipPath>
  </defs>
</svg>
