<svg width="221" height="181" viewBox="0 0 221 181" fill="none" xmlns="http://www.w3.org/2000/svg">
  <g clip-path="url(#clip0_5497_41663)">
    <path d="M97.249 92.3516L122.909 85.4598L139.147 146.205L113.487 153.097L97.249 92.3516Z" fill="#457393"/>
    <path d="M34.6124 102.29L18.5827 106.595C16.8122 107.071 14.9943 106.027 14.5225 104.262L12.8139 97.8708C12.3421 96.1062 13.3953 94.2896 15.1658 93.8141L10.8946 77.8374C10.4229 76.0727 11.476 74.2562 13.2466 73.7807L22.8638 71.1979L37.1292 42.2971C37.9866 40.5846 39.5387 39.3206 41.3901 38.8234L100.349 22.9891C101.805 22.595 103.353 22.7115 104.731 23.3187L141.487 39.34L184.334 30.8458C187.758 30.1613 191.121 32.236 192.029 35.5959L194.703 45.5971C196.474 45.1216 198.292 46.1669 198.764 47.9316L200.472 54.3229C200.944 56.0875 199.891 57.9027 198.12 58.3782L34.6124 102.29Z" fill="#ED5100"/>
    <path d="M141.481 39.331L70.9475 58.2745L64.1133 32.7095L100.343 22.9792C101.799 22.5851 103.346 22.7015 104.725 23.3088L141.481 39.331Z" fill="#66D4F1"/>
    <path d="M64.1222 32.694L70.9567 58.2624L22.8629 71.1801L37.1292 42.274C37.9867 40.5612 39.5389 39.2969 41.3905 38.7996L64.1222 32.694Z" fill="#66D4F1"/>
    <path d="M15.1815 93.8205L194.704 45.6261C196.474 45.1509 198.293 46.1958 198.764 47.9596L200.473 54.3478C200.944 56.1117 199.891 57.926 198.121 58.4012L18.5981 106.596C16.8278 107.071 15.01 106.027 14.5383 104.264L12.8298 97.8753C12.3581 96.1115 13.4112 94.2958 15.1815 93.8205Z" fill="#CAD0D7"/>
    <path d="M66.6929 93.6855C69.0526 102.513 63.7868 111.598 54.9311 113.976C46.0768 116.355 36.9856 111.127 34.626 102.299C32.2667 93.4725 37.5325 84.3883 46.3868 82.01C55.2425 79.6313 64.3337 84.8591 66.6929 93.6855Z" fill="#424852"/>
    <path d="M182.097 62.7123C184.457 71.5402 179.191 80.6244 170.335 83.0031C161.481 85.3814 152.39 80.1537 150.03 71.3258C147.671 62.4993 152.937 53.4151 161.791 51.0368C170.647 48.6581 179.738 53.8858 182.097 62.7123Z" fill="#424852"/>
    <path d="M137.218 74.7622L139.781 84.348C140.252 86.1125 139.199 87.9288 137.429 88.4042L86.1335 102.179C84.3631 102.654 82.5449 101.609 82.0731 99.8447L79.5103 90.259L137.218 74.7622Z" fill="#5E8FAA"/>
    <path d="M76.5288 156.177L172.704 130.355C174.474 129.879 176.292 130.924 176.764 132.688L178.472 139.076C178.944 140.84 177.891 142.656 176.121 143.132L79.9454 168.954C78.175 169.43 76.3569 168.385 75.8851 166.621L74.177 160.233C73.7053 158.469 74.7584 156.653 76.5288 156.177Z" fill="#5E8FAA"/>
    <path d="M118.195 93.5787L124.613 91.8553L137.436 139.816L131.018 141.539L118.195 93.5787Z" fill="#365972"/>
    <path d="M137.216 74.7623L139.78 84.3532C140.252 86.1186 139.198 87.9359 137.427 88.4116L131.013 90.1345C132.784 89.6588 133.838 87.8415 133.366 86.076L130.802 76.4851L137.216 74.7623Z" fill="#457393"/>
    <path d="M176.763 132.691L178.472 139.083C178.944 140.849 177.89 142.666 176.12 143.142L169.705 144.865C171.476 144.389 172.53 142.572 172.058 140.806L170.349 134.414C169.877 132.648 168.059 131.602 166.288 132.078L172.702 130.355C174.473 129.88 176.291 130.925 176.763 132.691Z" fill="#457393"/>
    <path d="M184.327 30.8644C187.752 30.1795 191.116 32.2551 192.025 35.6163L194.699 45.6214L188.285 47.3442L185.611 37.3391C184.714 33.9823 179.166 31.8747 175.744 32.568L184.327 30.8644Z" fill="#D94452"/>
    <path d="M198.763 47.9625L200.472 54.3564C200.944 56.1218 199.89 57.9377 198.12 58.4134L191.705 60.1363C193.476 59.6606 194.53 57.8447 194.058 56.0793L192.349 49.6853C191.877 47.9199 190.059 46.8741 188.288 47.3498L194.702 45.6269C196.473 45.1512 198.291 46.1971 198.763 47.9625Z" fill="#A9B0BB"/>
    <path d="M132.345 41.7903L125.933 43.5125L97.8133 31.2654C97.1281 30.9659 96.3624 30.9063 95.6377 31.0964L102.051 29.3738C102.774 29.1841 103.541 29.2434 104.226 29.5428L132.345 41.7903Z" fill="#4FC0E8"/>
    <path d="M56.208 41.6727L62.6224 39.95L67.7505 59.1327L61.3362 60.8554L56.208 41.6727Z" fill="#4FC0E8"/>
    <path d="M114.995 94.4362L124.399 129.606C124.871 131.372 123.817 133.19 122.045 133.665C120.273 134.141 118.454 133.095 117.981 131.329L108.578 96.1594L114.995 94.4362Z" fill="#365972"/>
    <path d="M94.4667 69.0972L88.0553 70.8193C86.2832 71.2952 84.4663 70.2493 83.9945 68.4844C83.5227 66.7194 84.5745 64.9029 86.3466 64.427L92.758 62.7049C94.5286 62.2294 96.3469 63.2749 96.8187 65.0399C97.2905 66.8048 96.2373 68.6217 94.4667 69.0972Z" fill="#D94452"/>
    <path d="M143.192 45.7248L72.6571 64.6692C70.8865 65.1448 69.0682 64.0993 68.5964 62.3345L61.7621 36.7682C61.2903 35.0034 62.3435 33.1866 64.114 32.7111L100.344 22.9804C102.534 22.3938 104.857 22.5701 106.931 23.4788L143.674 39.4949C144.964 40.0562 145.755 41.3715 145.648 42.7735C145.539 44.1759 144.554 45.359 143.192 45.7248ZM74.1547 57.4162L132.343 41.788L104.246 29.5427C103.558 29.2334 102.781 29.1722 102.053 29.3723L69.0291 38.2419L74.1547 57.4162Z" fill="#ED5100"/>
    <path d="M72.6668 64.6566L24.5722 77.5747C23.3147 77.9109 21.9768 77.4851 21.1524 76.4832C20.3266 75.4818 20.1658 74.0895 20.7423 72.9236L35.0077 44.0123C36.2908 41.4455 38.6151 39.5479 41.3913 38.8007L64.1234 32.6949C65.894 32.2193 67.7124 33.2649 68.1842 35.0299L75.0189 60.599C75.2454 61.4462 75.1251 62.3501 74.6838 63.1114C74.2421 63.8712 73.5167 64.4283 72.6668 64.6566ZM29.9177 69.2873L67.7515 59.1252L62.6256 39.9488L43.1 45.1933C42.1665 45.4441 41.386 46.0797 40.9516 46.9406L29.9177 69.2873Z" fill="#ED5100"/>
    <path d="M60.2792 95.4083C61.6951 100.706 58.5361 106.155 53.2221 107.583C47.9095 109.01 42.4555 105.874 41.0396 100.576C39.6241 95.2803 42.7831 89.8305 48.0957 88.4035C53.4096 86.9762 58.8636 90.1124 60.2792 95.4083Z" fill="#E4E8EB"/>
    <path d="M175.683 64.4351C177.099 69.7324 173.94 75.1822 168.626 76.6096C163.314 78.0366 157.86 74.9003 156.444 69.603C155.028 64.3071 158.187 58.8573 163.5 57.4303C168.814 56.003 174.268 59.1392 175.683 64.4351Z" fill="#E4E8EB"/>
  </g>
  <defs>
    <clipPath id="clip0_5497_41663">
     <rect width="221" height="181" fill="white"/>
    </clipPath>
  </defs>
</svg>
