<svg width="167" height="162" viewBox="0 0 167 162" fill="none" xmlns="http://www.w3.org/2000/svg">
<g clip-path="url(#clip0_5497_41627)" id="pc">
  <path d="M68.9755 135.816L94.8498 142.779C87.3631 130.657 90.8285 118.594 90.8285 118.594L74.657 114.243L58.4855 109.891C58.4855 109.891 55.5593 122.099 43.1012 128.854L68.9755 135.816Z" fill="#2B4D66"/>
  <path d="M135.56 130.812L13.8075 98.0347C10.8321 97.2337 9.05522 94.1718 9.83847 91.1962L32.5309 4.98592C33.3143 2.01006 36.3611 0.247095 39.3365 1.04811L161.089 33.8257C164.064 34.6268 165.841 37.6883 165.058 40.6642L142.365 126.875C141.582 129.85 138.535 131.613 135.56 130.812Z" fill="#90D8F9"/>
  <path d="M161.216 33.8954L156.12 32.5269C159.082 33.3225 160.849 36.374 160.065 39.3429L137.366 125.351C136.583 128.32 133.546 130.081 130.583 129.286L135.679 130.654C138.642 131.45 141.679 129.688 142.462 126.719L165.162 40.7114C165.945 37.7425 164.179 34.691 161.216 33.8954V33.8954Z" fill="#75CEF9"/>
  <path d="M22.1266 79.5537L39.5922 13.2076C39.98 11.7342 41.4884 10.8613 42.9615 11.2578L152.937 40.862C154.41 41.2586 155.29 42.7743 154.902 44.2477L137.437 110.594C137.049 112.067 135.54 112.94 134.067 112.543L24.0915 82.9391C22.6184 82.5426 21.7388 81.0269 22.1266 79.5537V79.5537Z" fill="#ECF4FF"/>
  <path d="M32.057 133.357L33.4833 127.952C33.7195 127.057 34.6356 126.525 35.5296 126.765L102.427 144.732C103.321 144.973 103.854 145.893 103.618 146.789L102.191 152.194C101.955 153.089 101.039 153.621 100.145 153.381L33.2476 135.414C32.3539 135.174 31.8207 134.253 32.057 133.357V133.357Z" fill="#4A80AA"/>
  <path d="M102.433 144.734L94.3535 142.559C95.2458 142.799 95.7789 143.717 95.544 144.61L94.1262 149.996C93.8913 150.889 92.9776 151.417 92.0851 151.177L100.164 153.352C101.056 153.593 101.97 153.064 102.205 152.171L103.623 146.785C103.858 145.892 103.325 144.974 102.433 144.734V144.734Z" fill="#407093"/>
  <path d="M99.2286 51.9686L65.7761 42.9879C64.6696 42.6909 64.0102 41.5523 64.3026 40.4447C64.5951 39.3368 65.7288 38.6799 66.8349 38.9768L100.287 47.9575C101.394 48.2546 102.053 49.3931 101.761 50.5008C101.468 51.6087 100.335 52.2656 99.2286 51.9686Z" fill="#4A80AA"/>
  <path d="M111.788 43.8266L84.2729 36.4376C83.1665 36.1405 82.5071 35.002 82.7994 33.8944C83.0917 32.7866 84.2253 32.1298 85.3313 32.4269L112.846 39.8159C113.953 40.113 114.612 41.2515 114.32 42.3591C114.028 43.4666 112.894 44.1237 111.788 43.8266Z" fill="#4A80AA"/>
  <path d="M74.8157 33.9127L68.6171 32.2442C67.5118 31.9467 66.8523 30.8089 67.1436 29.7026C67.4349 28.5961 68.5667 27.9406 69.6717 28.2381L75.8703 29.9066C76.9756 30.2041 77.6351 31.342 77.3438 32.4482C77.0529 33.5546 75.921 34.2102 74.8157 33.9127Z" fill="#4A80AA"/>
  <path d="M94.1128 71.3103L60.6603 62.3296C59.5539 62.0326 58.8945 60.894 59.1869 59.7864C59.4793 58.6787 60.613 58.0216 61.7192 58.3185L95.1717 67.2992C96.2781 67.5962 96.9376 68.7348 96.6452 69.8425C96.3528 70.9501 95.219 71.6073 94.1128 71.3103Z" fill="#4A80AA"/>
  <path d="M106.672 63.168L79.1572 55.779C78.0508 55.4819 77.3914 54.3434 77.6837 53.2358C77.976 52.1282 79.1095 51.4712 80.2156 51.7682L107.731 59.1572C108.837 59.4543 109.496 60.5929 109.204 61.7004C108.912 62.808 107.778 63.465 106.672 63.168Z" fill="#4A80AA"/>
  <path d="M69.6999 53.2542L63.5013 51.5857C62.396 51.2881 61.7366 50.1503 62.0278 49.044C62.3191 47.9377 63.451 47.2821 64.556 47.5795L70.7546 49.248C71.8599 49.5455 72.5194 50.6834 72.2281 51.7897C71.9369 52.8959 70.8052 53.5517 69.6999 53.2542Z" fill="#4A80AA"/>
  <path d="M58.8515 25.3407L46.4658 22.0051C45.3615 21.7077 44.2312 22.3621 43.9406 23.4666L41.1056 34.2412C40.8149 35.3459 41.4743 36.482 42.5784 36.7793L54.9641 40.115C56.0683 40.4124 57.1986 39.758 57.4892 38.6535L60.3243 27.8789C60.6149 26.7744 59.9555 25.6381 58.8515 25.3407V25.3407Z" fill="#ED5100"/>
  <path d="M53.7358 44.6821L41.3501 41.3465C40.2458 41.0491 39.1155 41.7034 38.8249 42.8079L35.9898 53.5825C35.6992 54.6873 36.3586 55.8234 37.4626 56.1207L49.8483 59.4564C50.9526 59.7538 52.0829 59.0994 52.3735 57.9949L55.2086 47.2203C55.4992 46.1158 54.8398 44.9794 53.7358 44.6821V44.6821Z" fill="#ED5100"/>
  <path d="M48.62 64.0238L36.2343 60.6881C35.1301 60.3907 33.9998 61.0451 33.7092 62.1496L30.874 72.9245C30.5834 74.0292 31.2428 75.1653 32.3468 75.4626L44.7325 78.7983C45.8368 79.0957 46.9671 78.4413 47.2577 77.3368L50.0928 66.562C50.3835 65.4575 49.7241 64.3211 48.62 64.0238V64.0238Z" fill="#ED5100"/>
  <path d="M88.9971 90.652L55.5446 81.6713C54.4382 81.3742 53.7788 80.2357 54.0712 79.128C54.3636 78.0204 55.4973 77.3632 56.6035 77.6602L90.056 86.6409C91.1624 86.9379 91.8218 88.0765 91.5294 89.1841C91.237 90.2918 90.1033 90.9489 88.9971 90.652Z" fill="#4A80AA"/>
  <path d="M101.557 82.5097L74.0414 75.1207C72.9351 74.8236 72.2757 73.685 72.5679 72.5775C72.8602 71.4699 73.9938 70.8129 75.0999 71.1099L102.615 78.4989C103.721 78.796 104.381 79.9346 104.088 81.0421C103.796 82.1497 102.663 82.8067 101.557 82.5097Z" fill="#4A80AA"/>
  <path d="M64.5842 72.5958L58.3856 70.9273C57.2803 70.6298 56.6209 69.492 56.9121 68.3857C57.2034 67.2794 58.3353 66.6238 59.4403 66.9212L65.6389 68.5897C66.7442 68.8872 67.4036 70.0251 67.1124 71.1313C66.8212 72.2376 65.6895 72.8934 64.5842 72.5958Z" fill="#4A80AA"/>
  <animateTransform
    href="#pc"
    attributeName="transform"
    type="rotate"
    from="0 77.5 0"
    to="-5 77.5 0"
    dur="0.5s"
    begin="click"
    />
    <!-- repeatCount="indefinite" -->
</g>
<path id="mouse" d="M136.425 81.8415L115.097 68.6598C114.448 68.2584 113.634 68.246 112.977 68.6257C112.321 69.0059 111.927 69.7179 111.953 70.4791L112.804 95.5078C112.834 96.3879 113.416 97.1557 114.255 97.422C114.285 97.4316 114.315 97.4401 114.344 97.4482C115.158 97.6673 116.026 97.3705 116.531 96.691L123.682 87.0684L135.6 85.6581C136.472 85.5548 137.181 84.91 137.366 84.0505C137.552 83.1909 137.175 82.3047 136.425 81.8415V81.8415Z" fill="#E490B7"/>
 <animateTransform
    href="#mouse"
    attributeName="transform"
    type="translate"
    from="0 0"
    to="10 -14"
    dur="0.5s"
    />
    <!-- repeatCount="indefinite" -->
<defs>
<clipPath id="clip0_5497_41627">
<rect width="167" height="162" fill="white"/>
</clipPath>
</defs>
</svg>
