<svg width="173" height="187" viewBox="0 0 173 187" fill="none" xmlns="http://www.w3.org/2000/svg">
  <g clip-path="url(#clip0_5497_41779)">
    <path d="M17.5298 146.236L111.496 178.162C113.248 178.758 115.161 177.805 115.766 176.034L162.445 39.5857C163.051 37.8144 162.121 35.8961 160.369 35.3005L66.4028 3.37377C64.6501 2.7781 62.7383 3.73148 62.1323 5.50246L15.4533 141.95C14.8476 143.722 15.777 145.64 17.5298 146.236Z" fill="#FAE19E"/>
    <path d="M3.23959 160.62L76.4995 180.109L109.431 160.955L140.85 44.5227C141.338 42.7157 140.283 40.865 138.494 40.3891L42.5697 14.8711C40.7804 14.3952 38.9348 15.4741 38.4472 17.2812L0.882903 156.487C0.395282 158.294 1.45037 160.144 3.23959 160.62Z" fill="#FFF9E9"/>
    <path d="M138.494 40.3892L125.536 36.942C127.325 37.4179 128.38 39.2686 127.892 41.0756L96.4735 157.507L92.8514 170.598L109.432 160.955L140.851 44.5228C141.338 42.7158 140.283 40.8651 138.494 40.3892Z" fill="#FFF4D6"/>
    <path d="M107.92 94.7926L41.6533 77.1642C40.3115 76.8073 38.9272 77.6166 38.5615 78.9718C38.1958 80.327 38.9871 81.715 40.329 82.072L106.596 99.7004C107.938 100.057 109.322 99.2481 109.687 97.8929C110.053 96.5377 109.262 95.1497 107.92 94.7926Z" fill="#FAE19E"/>
    <path d="M103.304 111.899L37.0371 94.271C35.6953 93.914 34.3109 94.7233 33.9452 96.0785C33.5796 97.4337 34.3709 98.8218 35.7128 99.1787L101.979 116.807C103.322 117.164 104.706 116.355 105.071 115C105.437 113.644 104.646 112.256 103.304 111.899Z" fill="#FAE19E"/>
    <path d="M44.9452 64.9652L111.212 82.5936C112.554 82.9506 113.938 82.1412 114.304 80.7861C114.669 79.4309 113.878 78.0429 112.536 77.6858L46.2695 60.0574C44.9277 59.7005 43.5434 60.5098 43.1777 61.8649C42.812 63.2201 43.6033 64.6082 44.9452 64.9652Z" fill="#FAE19E"/>
    <path d="M61.2347 50.9638L104.155 62.3815C105.497 62.7385 106.881 61.9292 107.247 60.574C107.613 59.2188 106.821 57.8307 105.479 57.4738L62.5591 46.056C61.2172 45.6991 59.8329 46.5084 59.4672 47.8635C59.1015 49.2187 59.8929 50.6068 61.2347 50.9638Z" fill="#FAE19E"/>
    <path d="M66.4363 154.501C62.0633 153.35 50.3803 150.266 48.9115 149.875C46.6642 149.277 44.6248 148.026 44.8038 145.038C44.9743 142.404 41.3823 141.809 40.1181 143.791C37.0721 148.567 34.767 145.776 34.1913 141.845C33.6052 137.845 34.29 133.724 34.6414 129.727C34.8994 126.789 30.4868 126.458 29.6928 129.109C28.6471 132.601 27.3877 135.976 25.583 139.153C23.7213 142.43 21.4416 145.449 19.1774 148.451C17.2034 151.069 21.5663 153.581 23.511 151.003C25.5174 148.343 27.5297 145.666 29.26 142.814C30.0527 149.011 34.4424 154.121 40.7475 150.024C42.5177 153.727 46.3533 154.457 49.916 155.4C54.9803 156.74 60.0458 158.076 65.1119 159.409C68.2407 160.232 69.5709 155.326 66.4363 154.501Z" fill="#0D99FF"/>
    <path d="M76.4994 180.109L82.7021 157.123C83.1897 155.316 85.0353 154.237 86.8245 154.713L109.489 160.743L76.4994 180.109Z" fill="#FFEEC2"/>
    <path d="M153.33 116.174L147.71 106.464L162.55 97.8184C165.231 96.2563 168.661 97.1619 170.212 99.8417L170.213 99.8438C171.765 102.526 170.848 105.969 168.164 107.532L153.33 116.175L153.33 116.174Z" fill="#FED23A"/>
    <path d="M75.9176 154.786C77.1882 150.014 80.2977 145.932 84.5568 143.446L106.145 130.845C106.333 130.736 106.574 130.799 106.683 130.988L111.741 139.728C111.85 139.916 111.786 140.157 111.598 140.267L89.9789 152.886C85.7382 155.361 80.706 156.052 75.9893 154.805L75.9176 154.786Z" fill="#0D99FF"/>
    <path d="M86.0912 148.858L86.0896 148.855C83.6587 144.656 85.0953 139.264 89.2977 136.816L151.642 100.494C153.621 99.3412 156.143 100.003 157.284 101.975L161.937 110.014C163.086 112 162.4 114.56 160.407 115.721L98.0892 152.027C93.8906 154.473 88.5198 153.055 86.0912 148.858Z" fill="#FDF385"/>
    <path d="M161.937 110.014L157.934 103.098C158.711 104.994 157.987 107.233 156.16 108.297L93.842 144.604C90.9739 146.274 87.5598 146.141 84.9095 144.552C84.9247 146.018 85.304 147.499 86.0894 148.855L86.091 148.858C88.5199 153.054 93.8904 154.473 98.089 152.027L160.407 115.721C162.4 114.56 163.086 112 161.937 110.014Z" fill="#FAEE6E"/>
    <path d="M157.301 122.669L145.241 101.831C144.011 99.7054 141.29 98.9866 139.164 100.225C137.039 101.463 136.313 104.19 137.543 106.316L147.376 123.305L124.751 136.486C122.625 137.725 121.899 140.452 123.129 142.577C124.359 144.703 127.08 145.421 129.206 144.183L155.68 128.76C157.805 127.521 158.531 124.794 157.301 122.669Z" fill="#0D99FF"/>
    <path d="M157.301 122.669L150.828 111.483L143.118 115.91L147.375 123.305L124.75 136.486C122.624 137.725 121.898 140.452 123.128 142.577C124.359 144.703 127.079 145.421 129.205 144.183L155.679 128.76C157.805 127.521 158.531 124.794 157.301 122.669Z" fill="#2786F5"/>
  </g>
  <defs>
    <clipPath id="clip0_5497_41779">
      <rect width="173" height="187" fill="white"/>
    </clipPath>
  </defs>
</svg>
