<svg width="690" height="347" viewBox="0 0 690 347" fill="none" xmlns="http://www.w3.org/2000/svg">
<g clip-path="url(#clip0_5497_40774)">
<path d="M601.86 0L559.59 85.27L572.21 85.75L536.39 153.5H555.21L525.86 213.7H689.9L653.78 153.5L671.09 152.75L636.47 85.03L649.26 84.28L601.86 0Z" fill="#F5F5F5"/>
<path d="M608.938 99C609.128 99 608.867 137.476 608.343 184.933C607.82 232.39 607.011 276.164 607.011 276C606.948 265.852 607.146 232.368 607.662 184.911C608.177 137.453 608.748 99 608.938 99Z" fill="#E0E0E0"/>
<path d="M629.11 120.83C629.3 120.98 625.11 126.77 619.7 133.76C614.29 140.75 609.79 146.29 609.59 146.15C609.39 146.01 613.59 140.21 619.01 133.22C624.43 126.23 628.92 120.69 629.11 120.83Z" fill="#E0E0E0"/>
<path d="M608.61 144.33C608.46 144.52 604.29 141.53 599.31 137.64C594.33 133.75 590.4 130.45 590.55 130.26C590.7 130.07 594.86 133.06 599.85 136.95C604.84 140.84 608.76 144.14 608.61 144.33Z" fill="#E0E0E0"/>
<path d="M607.49 186.16C606.366 185.463 605.32 184.648 604.37 183.73C602.51 182.16 599.95 180 597.08 177.66C594.21 175.32 591.57 173.24 589.66 171.74C588.577 170.989 587.572 170.131 586.66 169.18C587.862 169.728 588.994 170.42 590.03 171.24C592.03 172.62 594.76 174.63 597.64 176.98C600.52 179.33 603.04 181.58 604.8 183.27C605.81 184.121 606.713 185.092 607.49 186.16Z" fill="#E0E0E0"/>
<path d="M629.14 160.31C629.32 160.46 624.71 166.52 618.82 173.84C612.93 181.16 608.01 186.98 607.82 186.84C607.63 186.7 612.24 180.63 618.13 173.31C624.02 165.99 629 160.15 629.14 160.31Z" fill="#E0E0E0"/>
<path d="M121.73 0L83.2197 77.69L94.7197 78.13L62.0897 139.86H79.2197L52.4897 194.7H201.94L169.04 139.86L184.8 139.17L153.27 77.47L164.92 76.78L121.73 0Z" fill="#F5F5F5"/>
<path d="M128.24 90.1201C128.46 90.1201 128.16 137.03 127.57 194.87C126.98 252.71 126.31 318.31 126.09 318.31C125.87 318.31 126.17 252.73 126.77 194.86C127.37 136.99 128 90.1201 128.24 90.1201Z" fill="#E0E0E0"/>
<path d="M146.56 110.09C146.73 110.23 142.9 115.5 137.99 121.87C133.08 128.24 128.99 133.29 128.78 133.15C128.57 133.01 132.44 127.75 137.35 121.38C142.26 115.01 146.39 110 146.56 110.09Z" fill="#E0E0E0"/>
<path d="M127.88 131.5C127.74 131.68 123.95 128.95 119.41 125.4C114.87 121.85 111.29 118.85 111.41 118.68C111.53 118.51 115.34 121.23 119.89 124.77C124.44 128.31 128 131.33 127.88 131.5Z" fill="#E0E0E0"/>
<path d="M126.86 169.61C125.835 168.97 124.877 168.23 124 167.4C122.31 165.97 120 164 117.36 161.86C114.72 159.72 112.36 157.86 110.59 156.47C109.6 155.787 108.682 155.007 107.85 154.14C108.971 154.63 110.029 155.255 111 156C112.83 157.26 115.3 159.09 117.93 161.23C120.56 163.37 122.85 165.43 124.45 166.97C125.355 167.751 126.164 168.637 126.86 169.61Z" fill="#E0E0E0"/>
<path d="M146.58 146.05C146.76 146.19 142.58 151.71 137.19 158.38C131.8 165.05 127.34 170.38 127.19 170.22C127.04 170.06 131.19 164.56 136.58 157.88C141.97 151.2 146.41 145.92 146.58 146.05Z" fill="#E0E0E0"/>
<path d="M55.4198 103.95L25.7598 163.79L34.6198 164.13L9.47984 211.67H22.6798L2.08984 253.92H110.59L91.8598 211.67L104 211.15L79.7098 163.62L88.6898 163.09L55.4198 103.95Z" fill="#EBEBEB"/>
<path d="M59.9682 173C60.0648 173 59.9341 200.315 59.6725 234.004C59.411 267.692 59.104 295 59.0244 295C58.9448 295 59.0642 267.692 59.3201 233.996C59.5759 200.3 59.8715 173 59.9682 173Z" fill="#E0E0E0"/>
<path d="M74.5496 188.75C72.5072 191.887 70.3008 194.915 67.9396 197.82C64.1596 202.72 60.9896 206.61 60.8496 206.51C62.888 203.37 65.0945 200.342 67.4596 197.44C71.2396 192.54 74.4096 188.64 74.5496 188.75Z" fill="#E0E0E0"/>
<path d="M60.16 205.24C60.05 205.37 57.16 203.24 53.63 200.54C51.4545 198.968 49.3988 197.237 47.48 195.36C47.59 195.23 50.48 197.36 54.01 200.06C57.54 202.76 60.26 205.1 60.16 205.24Z" fill="#E0E0E0"/>
<path d="M59.37 234.59C58.5877 234.095 57.8573 233.522 57.19 232.88C55.88 231.78 54.08 230.26 52.07 228.62C50.06 226.98 48.2 225.52 46.86 224.47C46.0973 223.943 45.3903 223.34 44.75 222.67C45.5931 223.061 46.3883 223.547 47.12 224.12C48.53 225.12 50.43 226.49 52.46 228.12C54.49 229.75 56.24 231.36 57.46 232.54C58.1769 233.144 58.8182 233.832 59.37 234.59Z" fill="#E0E0E0"/>
<path d="M74.5597 216.45C74.6997 216.55 71.4597 220.8 67.3297 225.94C64.911 229.108 62.3344 232.151 59.6097 235.06C59.4797 234.95 62.7197 230.7 66.8497 225.56C70.9797 220.42 74.4297 216.34 74.5597 216.45Z" fill="#E0E0E0"/>
<path d="M202.47 55.9399H334.47C334.47 55.9399 322.79 34.6899 288.8 37.7799C256.34 40.7799 254.69 27.3299 238.19 25.6799C221.69 24.0299 208 36.6799 202.47 55.9399Z" fill="#EBEBEB"/>
<path d="M320.06 92.2799H392.06C392.06 92.2799 385.69 80.6999 367.16 82.3799C349.46 83.9899 348.56 76.6799 339.56 75.7799C330.56 74.8799 323.06 81.7799 320.06 92.2799Z" fill="#F5F5F5"/>
<path d="M395 24.87H467C467 24.87 460.63 13.28 442.1 14.97C424.4 16.58 423.5 9.26997 414.5 8.36997C405.5 7.46997 398 14.37 395 24.87Z" fill="#FAFAFA"/>
<path d="M685.05 335.46C685.05 335.6 531.68 335.72 342.54 335.72C153.4 335.72 0 335.6 0 335.46C0 335.32 153.33 335.2 342.54 335.2C531.75 335.2 685.05 335.31 685.05 335.46Z" fill="#263238"/>
<path d="M640.46 236.86C645.199 241.958 647.931 248.6 648.149 255.557C648.368 262.514 646.059 269.314 641.65 274.7C637.624 279.539 632.554 283.402 626.82 286L577.68 308.14L543 313.46L88.71 310.57L60.24 305C53.5895 303.701 47.6072 300.106 43.3388 294.844C39.0705 289.581 36.7879 282.985 36.89 276.21L37.17 256.44C37.1898 254.957 37.6798 253.519 38.5694 252.333C39.459 251.147 40.7023 250.274 42.12 249.84L44.12 249.22C44.12 249.22 45.81 229.83 57.51 225.44C100.14 207.07 128.36 201.17 199.73 198.19L260 162.19C260 162.19 284.33 146.64 307 144.61C329.67 142.58 381 142.54 404.51 143.89C432.12 145.48 467.15 158.05 486.69 167.73C502 175.29 538.84 194 538.84 194L559.68 197.49C562.81 197.64 620.34 201.15 626.96 202.16C629.363 202.552 631.611 203.6 633.456 205.188C635.302 206.776 636.673 208.843 637.42 211.16C639.07 216.62 640.42 236.68 640.42 236.68" fill="#0D99FF"/>
<path d="M464.57 168.75C454.75 163.84 428.41 157.07 413.68 154.31C398.95 151.55 369.02 151.17 357.05 151.47C345.08 151.77 311.85 152.35 294.33 157.33C285.33 159.89 270.84 167.33 262.33 173.67C259.33 175.85 246.5 185.94 243.62 188.23L221.29 209L495.29 200.35C495.29 200.35 496.86 190.8 491.94 185.35C487.02 179.9 464.57 168.75 464.57 168.75Z" fill="#263238"/>
<path d="M58.15 248.05L44.29 247.85C44.83 244.11 46.67 234.17 52.59 228.6L70.94 228.87C71.7019 228.88 72.4473 229.093 73.1004 229.485C73.7534 229.878 74.2908 230.436 74.6577 231.104C75.0246 231.772 75.2079 232.525 75.189 233.286C75.1701 234.048 74.9496 234.791 74.55 235.44L71.21 240.87C69.8416 243.095 67.9185 244.927 65.629 246.186C63.3396 247.445 60.7624 248.087 58.15 248.05Z" fill="#FAFAFA"/>
<path d="M59.8299 247.22C61.2699 241.11 63.0899 233.09 68.2399 228.83H70.9399C71.7017 228.84 72.4472 229.053 73.1002 229.445C73.7533 229.838 74.2906 230.396 74.6575 231.064C75.0245 231.732 75.2078 232.485 75.1889 233.246C75.17 234.008 74.9495 234.751 74.5499 235.4L71.2099 240.83C69.9843 242.851 68.2983 244.555 66.2894 245.801C64.2805 247.047 62.0054 247.8 59.6499 248L59.8299 247.22Z" fill="#E0E0E0"/>
<g opacity="0.7">
<path d="M194.32 311.41C195.789 304.28 196.107 296.96 195.26 289.73C191.68 258.96 171.53 236.82 141.09 236.38C114.6 236 92.72 252.55 88.25 283.2C86.9418 292.35 87.2532 301.658 89.17 310.7L194.32 311.41Z" fill="black"/>
</g>
<g opacity="0.7">
<path d="M577.66 308.21C577.66 307.08 577.52 305.93 577.5 304.72C576.96 265.89 550.91 238.99 519.93 238.54C506.318 238.358 493.19 243.584 483.426 253.07C473.662 262.556 468.061 275.528 467.85 289.14C467.72 297.78 467.31 305.92 468.33 313.08L542.94 313.59L577.66 308.21Z" fill="black"/>
</g>
<path d="M474.46 289.24C474.334 298.085 476.834 306.769 481.644 314.194C486.454 321.619 493.357 327.451 501.481 330.952C509.605 334.454 518.584 335.468 527.285 333.866C535.985 332.264 544.015 328.119 550.359 321.953C556.703 315.788 561.077 307.88 562.927 299.229C564.777 290.579 564.02 281.574 560.752 273.353C557.485 265.132 551.853 258.065 544.569 253.045C537.285 248.025 528.676 245.277 519.83 245.15C513.956 245.064 508.122 246.136 502.662 248.306C497.202 250.475 492.223 253.7 488.01 257.794C483.796 261.889 480.431 266.773 478.106 272.169C475.781 277.564 474.542 283.365 474.46 289.24Z" fill="#263238"/>
<path d="M474.46 289.12V289.24C474.289 301.103 478.837 312.548 487.105 321.058C495.372 329.567 506.682 334.444 518.545 334.615C530.408 334.786 541.853 330.237 550.363 321.97C558.872 313.702 563.749 302.393 563.92 290.53V290.41L474.46 289.12Z" fill="#263238"/>
<path d="M487.78 289.43C487.69 295.642 489.444 301.741 492.82 306.956C496.196 312.171 501.042 316.268 506.747 318.728C512.451 321.189 518.757 321.902 524.867 320.779C530.977 319.655 536.617 316.745 541.073 312.416C545.529 308.087 548.601 302.534 549.901 296.46C551.201 290.385 550.671 284.061 548.377 278.287C546.083 272.514 542.128 267.551 537.013 264.025C531.898 260.499 525.852 258.569 519.64 258.48C511.311 258.36 503.276 261.553 497.301 267.357C491.326 273.161 487.901 281.101 487.78 289.43Z" fill="#FAFAFA"/>
<path d="M519.64 258.48C511.311 258.36 503.275 261.553 497.3 267.357C491.326 273.161 487.901 281.101 487.78 289.43L550.59 290.33C550.649 286.206 549.896 282.111 548.373 278.279C546.849 274.446 544.586 270.952 541.712 267.994C538.838 265.036 535.409 262.674 531.622 261.041C527.835 259.409 523.763 258.539 519.64 258.48Z" fill="#E0E0E0"/>
<path d="M500.06 289.6C500.005 293.383 501.073 297.098 503.13 300.274C505.186 303.451 508.138 305.946 511.613 307.444C515.087 308.943 518.928 309.377 522.649 308.692C526.371 308.008 529.805 306.235 532.519 303.598C535.233 300.961 537.104 297.579 537.895 293.879C538.686 290.179 538.363 286.327 536.965 282.811C535.567 279.295 533.158 276.272 530.042 274.125C526.926 271.978 523.244 270.804 519.46 270.75C514.388 270.678 509.495 272.623 505.857 276.158C502.219 279.693 500.134 284.528 500.06 289.6Z" fill="#263238"/>
<path d="M143.973 335.745C168.658 334.637 187.77 313.729 186.662 289.044C185.554 264.36 164.645 245.247 139.961 246.355C115.277 247.463 96.1643 268.372 97.2723 293.057C98.3802 317.741 119.289 336.853 143.973 335.745Z" fill="#263238"/>
<path d="M97.2698 290.27C97.2698 290.27 97.2698 290.35 97.2698 290.39C97.1851 296.264 98.2582 302.097 100.428 307.557C102.597 313.016 105.821 317.994 109.915 322.208C114.008 326.421 118.892 329.787 124.286 332.113C129.681 334.439 135.481 335.68 141.355 335.765C147.229 335.85 153.062 334.777 158.521 332.607C163.981 330.437 168.959 327.214 173.173 323.12C177.386 319.026 180.752 314.143 183.078 308.748C185.404 303.354 186.645 297.554 186.73 291.68V291.56L97.2698 290.27Z" fill="#263238"/>
<path d="M110.59 290.58C110.5 296.792 112.254 302.892 115.63 308.107C119.007 313.322 123.854 317.419 129.559 319.879C135.264 322.34 141.571 323.053 147.681 321.928C153.791 320.804 159.431 317.893 163.887 313.563C168.342 309.233 171.414 303.679 172.713 297.604C174.012 291.528 173.48 285.204 171.184 279.431C168.888 273.657 164.932 268.695 159.816 265.17C154.699 261.646 148.653 259.718 142.44 259.63C138.317 259.57 134.222 260.324 130.389 261.847C126.557 263.37 123.062 265.634 120.104 268.508C117.147 271.382 114.784 274.81 113.152 278.597C111.519 282.385 110.649 286.456 110.59 290.58Z" fill="#FAFAFA"/>
<path d="M142.44 259.63C134.113 259.512 126.079 262.707 120.107 268.51C114.134 274.314 110.711 282.253 110.59 290.58L173.4 291.49C173.459 287.365 172.706 283.269 171.182 279.435C169.658 275.601 167.394 272.105 164.519 269.147C161.644 266.188 158.215 263.825 154.426 262.192C150.638 260.559 146.565 259.689 142.44 259.63Z" fill="#E0E0E0"/>
<path d="M122.86 290.76C122.807 294.543 123.877 298.256 125.934 301.431C127.991 304.605 130.943 307.099 134.417 308.596C137.891 310.093 141.731 310.527 145.452 309.842C149.172 309.157 152.606 307.384 155.319 304.748C158.032 302.112 159.903 298.73 160.694 295.031C161.486 291.332 161.163 287.481 159.766 283.965C158.37 280.449 155.962 277.427 152.848 275.279C149.733 273.132 146.052 271.956 142.27 271.9C137.196 271.831 132.302 273.778 128.663 277.314C125.023 280.85 122.936 285.686 122.86 290.76Z" fill="#263238"/>
<g opacity="0.4">
<path d="M55.4501 280.78C55.3801 285.78 52.8401 289.78 49.7901 289.78C46.7401 289.78 44.3101 285.63 44.3901 280.62C44.4701 275.61 46.9901 271.62 50.0501 271.62C53.1101 271.62 55.5301 275.77 55.4501 280.78Z" fill="black"/>
</g>
<path d="M640.46 236.86C640.176 236.913 639.888 236.936 639.6 236.93L637.12 237.02C634.97 237.08 631.87 237.14 628.03 237.3C624.19 237.46 619.62 237.66 614.56 238.07C609.079 238.478 603.635 239.28 598.27 240.47C595.516 241.118 592.835 242.046 590.27 243.24C587.913 244.424 585.702 245.877 583.68 247.57C579.68 250.68 576.68 254.14 573.91 256.84C571.803 259.041 569.455 260.996 566.91 262.67C566.211 263.112 565.482 263.506 564.73 263.85C564.473 263.989 564.201 264.1 563.92 264.18C563.92 264.12 564.99 263.64 566.77 262.46C569.248 260.725 571.537 258.734 573.6 256.52C576.29 253.8 579.29 250.28 583.32 247.11C585.367 245.374 587.613 243.887 590.01 242.68C592.618 241.457 595.346 240.509 598.15 239.85C603.546 238.651 609.025 237.862 614.54 237.49C619.62 237.11 624.2 236.92 628.04 236.85C631.88 236.78 635.04 236.75 637.15 236.77H639.63C639.909 236.774 640.187 236.804 640.46 236.86Z" fill="#263238"/>
<g opacity="0.5">
<path d="M576.22 309C576.394 308.874 576.574 308.757 576.76 308.65C577.283 308.308 577.788 307.938 578.27 307.54C580.084 305.944 581.501 303.948 582.41 301.71C583.785 298.144 584.279 294.298 583.85 290.5C583.33 285.465 582.326 280.492 580.85 275.65C579.123 269.769 576.706 264.113 573.65 258.8C570.126 252.708 565.63 247.232 560.34 242.59C554.511 237.444 547.657 233.593 540.23 231.29C532.215 228.951 523.815 228.234 515.52 229.18C507.216 230.061 499.091 232.174 491.41 235.45C484.507 238.17 478.262 242.328 473.09 247.647C467.918 252.966 463.936 259.324 461.41 266.3C459.244 272.035 457.682 277.981 456.75 284.04C456.32 286.82 455.98 289.48 455.75 292.04C455.481 294.407 455.381 296.789 455.45 299.17C455.59 303.61 457.04 307.41 459.31 309.58C460.368 310.828 461.752 311.759 463.307 312.269C464.862 312.78 466.528 312.849 468.12 312.47L467.5 312.65C466.879 312.786 466.245 312.847 465.61 312.83C463.148 312.641 460.844 311.547 459.14 309.76C456.79 307.57 455.26 303.68 455.14 299.19C455.058 296.794 455.141 294.395 455.39 292.01C455.597 289.47 455.913 286.803 456.34 284.01C457.255 277.899 458.817 271.902 461 266.12C462.229 262.908 463.717 259.801 465.45 256.83C467.301 253.68 469.487 250.74 471.97 248.06C477.389 242.366 483.949 237.878 491.22 234.89C498.959 231.579 507.149 229.446 515.52 228.56C523.913 227.598 532.413 228.326 540.52 230.7C548.031 233.032 554.958 236.939 560.84 242.16C566.164 246.853 570.684 252.386 574.22 258.54C579.76 268.37 583.186 279.249 584.28 290.48C584.685 294.332 584.143 298.225 582.7 301.82C581.757 304.076 580.29 306.075 578.42 307.65C577.748 308.194 577.009 308.648 576.22 309Z" fill="white"/>
</g>
<path d="M89.1898 283.19C89.1898 283.19 88.6698 282.58 87.7398 281.49C86.4297 279.946 84.9765 278.53 83.3998 277.26C78.1337 273.134 71.9654 270.314 65.3998 269.03C58.809 267.8 52.0937 267.37 45.3998 267.75C42.8298 267.85 40.7498 267.97 39.3098 268.04C38.5659 268.119 37.8169 268.14 37.0698 268.1C37.254 268.038 37.4457 268.001 37.6398 267.99L39.2898 267.8C40.7298 267.64 42.7998 267.45 45.3798 267.3C52.1057 266.786 58.8701 267.156 65.4998 268.4C72.1665 269.692 78.4092 272.616 83.6698 276.91C85.2388 278.226 86.6604 279.708 87.9098 281.33C88.3698 281.89 88.6598 282.38 88.9098 282.69C89.0176 282.848 89.1113 283.016 89.1898 283.19Z" fill="#263238"/>
<path d="M88.9202 249.89C88.9202 250.07 78.2302 250.06 65.0602 249.89C51.8902 249.72 41.2202 249.4 41.2202 249.22C41.2202 249.04 51.9002 249.06 65.0702 249.22C78.2402 249.38 88.9202 249.72 88.9202 249.89Z" fill="#263238"/>
<g opacity="0.5">
<path d="M210 306.8C210 306.8 210 306.59 210 306.18C210 305.77 210 305.18 210 304.39C210 303.6 210 302.63 209.88 301.47C209.76 300.31 209.74 298.99 209.59 297.47C208.757 289.05 206.879 280.766 204 272.81C202.07 267.292 199.692 261.94 196.89 256.81C193.772 250.889 189.969 245.354 185.56 240.32C180.617 234.808 174.495 230.481 167.65 227.66C160.306 224.639 152.46 223.024 144.52 222.9C140.503 222.863 136.49 223.151 132.52 223.76C128.669 224.418 124.875 225.371 121.17 226.61C117.601 227.837 114.14 229.355 110.82 231.15L109.6 231.79L108.43 232.5L106.1 233.92L103.88 235.45L102.78 236.21L101.78 237.04C96.4777 241.123 91.8598 246.024 88.0999 251.56C84.8192 256.384 82.1583 261.602 80.1799 267.09C78.5599 271.629 77.3974 276.319 76.7099 281.09C76.4799 283.2 76.2199 285.16 76.1799 286.98C76.1399 288.8 76.0899 290.46 76.0999 291.98C76.1099 293.5 76.2599 294.8 76.3099 295.98C76.3599 297.16 76.5199 298.1 76.6199 298.88C76.7199 299.66 76.7899 300.24 76.8399 300.66C76.8679 300.862 76.8846 301.066 76.8899 301.27C76.8899 301.27 76.8399 301.07 76.7699 300.67C76.6999 300.27 76.6099 299.67 76.4899 298.9C76.3699 298.13 76.1999 297.15 76.1199 296C76.0399 294.85 75.8399 293.52 75.8499 292C75.8599 290.48 75.7499 288.83 75.8499 287C75.9499 285.17 76.1199 283.2 76.3399 281.07C76.9888 276.276 78.1281 271.561 79.7399 267C81.6939 261.461 84.3488 256.195 87.6399 251.33C91.4122 245.727 96.0577 240.764 101.4 236.63L102.4 235.8L103.51 235.03L105.74 233.47L108.09 232.04L109.27 231.32L110.5 230.67C113.863 228.822 117.375 227.26 121 226C124.735 224.74 128.563 223.777 132.45 223.12C136.462 222.493 140.519 222.199 144.58 222.24C152.603 222.37 160.53 224.005 167.95 227.06C174.859 229.941 181.029 234.344 186 239.94C190.436 245.016 194.253 250.602 197.37 256.58C200.164 261.735 202.525 267.114 204.43 272.66C207.23 280.676 208.997 289.017 209.69 297.48C209.986 300.577 210.089 303.69 210 306.8Z" fill="white"/>
</g>
<path d="M559.75 198.15C559.779 198.366 559.779 198.584 559.75 198.8C559.68 199.3 559.6 199.91 559.5 200.66C559.29 202.27 558.95 204.6 558.74 207.5C558.441 210.872 558.596 214.269 559.2 217.6C559.987 221.668 561.943 225.418 564.83 228.39C567.757 231.322 571.256 233.62 575.11 235.14C578.264 236.386 581.528 237.33 584.86 237.96C587.71 238.54 590.04 238.88 591.64 239.15L593.49 239.46C593.71 239.474 593.926 239.525 594.13 239.61C593.914 239.636 593.696 239.636 593.48 239.61L591.61 239.42C589.99 239.23 587.61 238.96 584.78 238.42C581.4 237.843 578.087 236.928 574.89 235.69C570.94 234.174 567.354 231.84 564.37 228.84C561.403 225.782 559.403 221.918 558.62 217.73C558.029 214.342 557.918 210.888 558.29 207.47C558.56 204.56 558.96 202.23 559.29 200.63C559.44 199.83 559.57 199.21 559.66 198.79C559.661 198.574 559.692 198.358 559.75 198.15Z" fill="#263238"/>
<path d="M332.48 222.63C332.662 222.602 332.848 222.602 333.03 222.63C333.561 222.604 334.094 222.631 334.62 222.71C335.054 222.764 335.472 222.91 335.846 223.138C336.221 223.365 336.542 223.669 336.79 224.03C337.128 224.513 337.33 225.077 337.375 225.665C337.421 226.252 337.309 226.841 337.05 227.37C336.719 227.992 336.26 228.538 335.704 228.97C335.147 229.403 334.505 229.713 333.82 229.88C332.293 230.209 330.722 230.287 329.17 230.11L318.65 229.51C317.691 229.496 316.741 229.32 315.84 228.99C315.386 228.814 314.973 228.545 314.629 228.201C314.285 227.857 314.016 227.444 313.84 226.99C313.7 226.527 313.674 226.037 313.765 225.561C313.855 225.086 314.06 224.639 314.36 224.26C314.891 223.538 315.631 222.997 316.48 222.71C317.996 222.311 319.565 222.153 321.13 222.24C322.57 222.24 323.92 222.29 325.13 222.34L330.93 222.59C331.638 222.587 332.346 222.624 333.05 222.7C332.872 222.753 332.686 222.776 332.5 222.77C332.14 222.77 331.61 222.82 330.92 222.84C329.55 222.84 327.57 222.84 325.12 222.84C323.9 222.84 322.56 222.84 321.12 222.84C319.62 222.775 318.119 222.944 316.67 223.34C315.934 223.582 315.296 224.056 314.85 224.69C314.61 224.991 314.446 225.345 314.371 225.723C314.297 226.1 314.313 226.49 314.42 226.86C314.57 227.236 314.797 227.576 315.086 227.858C315.375 228.141 315.721 228.359 316.1 228.5C316.938 228.803 317.82 228.965 318.71 228.98L329.22 229.62C330.715 229.81 332.231 229.759 333.71 229.47C334.335 229.335 334.925 229.07 335.442 228.693C335.959 228.316 336.391 227.834 336.71 227.28C336.94 226.816 337.046 226.301 337.018 225.784C336.99 225.267 336.829 224.766 336.55 224.33C336.336 223.996 336.055 223.711 335.725 223.492C335.394 223.273 335.021 223.126 334.63 223.06C333.25 222.66 332.47 222.7 332.48 222.63Z" fill="#263238"/>
<path d="M474 221.46C474.18 221.416 474.365 221.399 474.55 221.41C475.081 221.389 475.614 221.415 476.14 221.49C476.575 221.544 476.992 221.69 477.366 221.917C477.741 222.145 478.062 222.449 478.31 222.81C478.647 223.295 478.85 223.86 478.897 224.448C478.945 225.037 478.835 225.627 478.58 226.16C478.248 226.78 477.789 227.324 477.232 227.755C476.675 228.186 476.034 228.494 475.35 228.66C473.82 228.989 472.246 229.067 470.69 228.89L460.17 228.3C459.21 228.283 458.26 228.103 457.36 227.77C456.907 227.592 456.495 227.323 456.151 226.979C455.807 226.635 455.538 226.223 455.36 225.77C455.22 225.307 455.194 224.816 455.285 224.341C455.375 223.866 455.58 223.419 455.88 223.04C456.412 222.321 457.152 221.783 458 221.5C459.514 221.092 461.085 220.933 462.65 221.03C464.09 221.03 465.44 221.03 466.65 221.12L472.45 221.37C473.158 221.367 473.866 221.404 474.57 221.48C474.57 221.48 474.38 221.53 474.02 221.56C473.66 221.59 473.13 221.61 472.44 221.62C471.07 221.62 469.09 221.62 466.64 221.57C465.42 221.57 464.08 221.57 462.64 221.57C461.14 221.497 459.638 221.663 458.19 222.06C457.457 222.308 456.821 222.781 456.37 223.41C456.13 223.711 455.966 224.065 455.891 224.443C455.817 224.82 455.833 225.21 455.94 225.58C456.09 225.956 456.317 226.296 456.606 226.578C456.895 226.861 457.241 227.079 457.62 227.22C458.458 227.521 459.34 227.683 460.23 227.7L470.74 228.35C472.236 228.532 473.751 228.478 475.23 228.19C475.856 228.056 476.447 227.792 476.964 227.415C477.481 227.038 477.912 226.555 478.23 226C478.477 225.532 478.592 225.006 478.564 224.478C478.536 223.95 478.365 223.439 478.07 223C477.857 222.665 477.576 222.379 477.246 222.16C476.915 221.941 476.541 221.795 476.15 221.73C474.72 221.49 473.94 221.53 474 221.46Z" fill="#263238"/>
<path d="M495.28 200.39C495.28 200.39 495.28 200.58 495.14 200.96C495 201.34 494.88 201.89 494.68 202.62C494.28 204.09 493.68 206.26 492.89 209.08C491.3 214.75 488.98 223.08 486.02 233.58V233.64H485.96C480.936 235.984 476.297 239.076 472.2 242.81C469.884 244.907 467.74 247.188 465.79 249.63C463.72 252.257 461.848 255.035 460.19 257.94C456.632 264.335 453.942 271.175 452.19 278.28C450.181 286.1 449.14 294.136 449.09 302.21V302.44H448.86H348.54L219.14 302.39H218.95V302.21C215.7 275.68 213.65 253.83 212.42 238.63C211.79 231.03 211.37 225.09 211.09 221.05C210.96 219.05 210.86 217.5 210.79 216.44C210.72 215.38 210.71 214.87 210.71 214.87C210.71 214.87 210.77 215.4 210.86 216.44C210.95 217.48 211.06 219.03 211.21 221.04C211.55 225.09 212.03 231.04 212.65 238.61C213.96 253.81 216.07 275.61 219.36 302.16L219.16 301.97H348.56H448.88L448.65 302.21C448.707 294.111 449.765 286.05 451.8 278.21C453.577 271.068 456.305 264.197 459.91 257.78C461.579 254.86 463.467 252.072 465.56 249.44C467.525 246.983 469.689 244.692 472.03 242.59C476.161 238.849 480.834 235.754 485.89 233.41L485.81 233.5L492.81 209.04C493.62 206.23 494.25 204.04 494.67 202.6C494.88 201.88 495.05 201.33 495.16 200.95C495.27 200.57 495.28 200.39 495.28 200.39Z" fill="#263238"/>
<path d="M351.06 205.46C351.075 205.543 351.075 205.627 351.06 205.71C351.06 205.91 351.01 206.15 350.98 206.44C350.9 207.13 350.78 208.06 350.63 209.25C350.48 210.44 350.28 211.95 350.1 213.68C349.92 215.41 349.67 217.38 349.5 219.57C349.33 221.76 349.08 224.14 348.93 226.72C348.78 229.3 348.63 232.04 348.49 234.93C348.3 240.73 348.25 247.1 348.49 253.78C348.73 260.46 349.22 266.78 349.8 272.59C350.13 275.47 350.41 278.21 350.8 280.76C351.19 283.31 351.5 285.69 351.8 287.86C352.1 290.03 352.51 291.97 352.8 293.69C353.09 295.41 353.38 296.88 353.63 298.08C353.88 299.28 354.03 300.18 354.17 300.85L354.29 301.58C354.303 301.663 354.303 301.747 354.29 301.83C354.25 301.755 354.223 301.674 354.21 301.59L354.03 300.88C353.884 300.213 353.674 299.293 353.4 298.12C353.12 296.93 352.8 295.46 352.48 293.74C352.16 292.02 351.75 290.09 351.4 287.92C351.05 285.75 350.63 283.38 350.29 280.82C349.95 278.26 349.59 275.53 349.29 272.65C348.68 266.87 348.18 260.5 347.94 253.8C347.7 247.1 347.8 240.72 348.02 234.92C348.16 232.02 348.28 229.26 348.5 226.69C348.72 224.12 348.9 221.69 349.13 219.53C349.36 217.37 349.6 215.38 349.81 213.65C350.02 211.92 350.24 210.43 350.43 209.22L350.88 206.43L351.01 205.7C351.015 205.618 351.031 205.537 351.06 205.46Z" fill="#263238"/>
<path d="M211.84 202.61C208.63 205.01 203.84 205.61 199.93 204.8C196.02 203.99 192.93 202.18 190.93 198.71L199.73 198.32L211.84 202.61Z" fill="#263238"/>
<path d="M199.71 198.32C199.71 198.32 208.59 203.73 211.17 202.99C213.75 202.25 255.17 169.53 280.17 156.9C277.727 155.994 275.175 155.416 272.58 155.18C272.58 155.18 260.96 161.06 246.46 169.78C235.46 176.42 224.21 183.38 218.97 186.59L199.71 198.32Z" fill="#455A64"/>
<path d="M228.11 205.26C228.018 205.33 227.921 205.393 227.82 205.45L226.95 205.95L223.56 207.88L210.73 215.07C202.73 214.78 192.37 214.57 180.54 215.07C174.64 215.33 168.35 215.75 161.81 216.42C155.27 217.09 148.46 218.02 141.49 219.13C129.29 221.04 117.77 223.44 107.23 225.37C97.8904 227.071 88.4564 228.203 78.9798 228.76C70.8898 229.22 64.3198 229.1 59.7998 228.97C57.5398 228.9 55.7998 228.81 54.5898 228.74L53.2398 228.65C53.0856 228.642 52.932 228.626 52.7798 228.6H53.2398H54.5898C55.7798 228.6 57.5898 228.7 59.7998 228.74C64.3298 228.81 70.8798 228.87 78.9598 228.36C88.4139 227.755 97.8238 226.59 107.14 224.87C117.66 222.87 129.19 220.49 141.41 218.58C148.41 217.47 155.2 216.58 161.76 215.88C168.32 215.18 174.61 214.81 180.53 214.58C192.37 214.13 202.7 214.39 210.74 214.74H210.65L223.55 207.68L226.99 205.82L227.88 205.36C227.953 205.319 228.03 205.285 228.11 205.26Z" fill="#263238"/>
<path d="M237.54 206.29C300.42 203.48 427.26 201.15 490.14 198.34C490.14 198.34 492.22 191.43 486.3 187.12C484.14 185.54 471.08 175.67 455.83 169.85C437.128 162.869 417.609 158.309 397.75 156.28C386.55 155.37 366.06 154.54 366.06 154.54C366.06 154.54 328.55 156.04 318.06 156.99C304.868 158.078 291.988 161.579 280.06 167.32C266.95 173.81 244.14 192.91 244.14 192.91L228.14 206.29H237.54Z" fill="#455A64"/>
<path d="M353.26 152.68L341.12 204.57L363.13 203.87L367.51 152.68H353.26Z" fill="#263238"/>
<path d="M448.4 165.24L446.26 200.4H449.32L451.39 166.34L448.4 165.24Z" fill="#263238"/>
<path d="M239.92 194.39C240.92 195.68 246.47 208.24 246.47 208.24L225.23 206.85L239.92 194.39Z" fill="#263238"/>
<path d="M259.85 207L243.66 207.45C241.52 207.45 239.84 203.63 239.91 198.98C239.97 194.82 241.41 191.31 243.31 190.71L258.68 185.83L259.85 207Z" fill="#0D99FF"/>
<path d="M360.15 152.09C360.29 152.09 358.58 163.94 356.32 178.5C354.06 193.06 352.12 204.86 351.97 204.84C351.82 204.82 353.55 192.99 355.8 178.42C358.05 163.85 360 152.07 360.15 152.09Z" fill="#455A64"/>
<path d="M240.55 193.62C240.007 195.519 239.17 197.32 238.07 198.96C237.12 200.691 235.902 202.261 234.46 203.61C234.34 203.51 235.96 201.45 237.63 198.69C239.3 195.93 240.41 193.56 240.55 193.62Z" fill="#455A64"/>
<path d="M330.3 162.12C330.239 162.271 330.162 162.415 330.07 162.55C329.86 162.86 329.61 163.25 329.31 163.72L326.48 168C324.07 171.59 320.76 176.56 317.16 182.07C313.56 187.58 310.33 192.61 308.01 196.25L305.24 200.56C304.94 201.02 304.68 201.4 304.48 201.72C304.394 201.857 304.293 201.984 304.18 202.1C304.18 202.1 304.23 201.94 304.39 201.66L305.07 200.45C305.68 199.45 306.57 197.9 307.7 196.06C309.94 192.37 313.11 187.31 316.7 181.78C320.29 176.25 323.7 171.33 326.15 167.78C327.39 166.01 328.41 164.58 329.15 163.61L329.99 162.5C330.17 162.23 330.28 162.11 330.3 162.12Z" fill="#EBEBEB"/>
<path d="M321.07 170C319.563 172.556 317.91 175.024 316.12 177.39C314.468 179.852 312.675 182.216 310.75 184.47C312.252 181.911 313.905 179.443 315.7 177.08C317.352 174.618 319.145 172.254 321.07 170Z" fill="#EBEBEB"/>
<path d="M640.27 234.1C640.27 234.1 635.05 234.43 631.12 232.73C629.624 232.102 628.269 231.179 627.138 230.016C626.007 228.852 625.122 227.473 624.536 225.959C623.951 224.446 623.677 222.829 623.731 221.208C623.785 219.586 624.165 217.991 624.85 216.52C624.846 216.48 624.846 216.44 624.85 216.4C625.754 214.526 627.157 212.937 628.906 211.81C630.654 210.682 632.68 210.06 634.76 210.01H637C637.809 211.63 638.292 213.394 638.42 215.2C639 220 639.89 227.21 640.27 234.1Z" fill="#F5F5F5"/>
<path d="M409.28 163.8C409.4 163.88 404.6 171.65 398.56 181.16C392.52 190.67 387.56 198.31 387.4 198.24C387.24 198.17 392.07 190.39 398.12 180.88C404.17 171.37 409.16 163.73 409.28 163.8Z" fill="#EBEBEB"/>
<path d="M407.65 173.61C406.612 175.699 405.415 177.705 404.07 179.61C402.88 181.622 401.543 183.544 400.07 185.36C401.113 183.274 402.309 181.268 403.65 179.36C404.842 177.349 406.178 175.427 407.65 173.61Z" fill="#EBEBEB"/>
<path d="M256.13 188.83C254.199 189.841 252.154 190.62 250.04 191.15C247.969 191.842 245.825 192.288 243.65 192.48C243.65 192.33 246.45 191.66 249.89 190.65C253.33 189.64 256.08 188.69 256.13 188.83Z" fill="#EBEBEB"/>
<path d="M343.18 210.81C343.18 210.95 316.79 211.07 284.25 211.07C251.71 211.07 225.31 210.95 225.31 210.81C225.31 210.67 251.69 210.55 284.25 210.55C316.81 210.55 343.18 210.66 343.18 210.81Z" fill="#EBEBEB"/>
<path d="M334.52 221.28C331.675 221.543 328.816 221.63 325.96 221.54C323.101 221.63 320.239 221.543 317.39 221.28C320.252 221.014 323.127 220.921 326 221C328.843 220.924 331.688 221.017 334.52 221.28Z" fill="#EBEBEB"/>
<path d="M142.9 233.16C142.681 233.188 142.459 233.188 142.24 233.16C141.81 233.16 141.19 233.16 140.37 233.16C138.084 233.166 135.8 233.306 133.53 233.58C126.02 234.477 118.791 236.982 112.336 240.923C105.88 244.864 100.35 250.15 96.12 256.42C94.834 258.31 93.6651 260.277 92.62 262.31C92.23 263.03 91.98 263.61 91.78 263.98C91.6961 264.185 91.5887 264.38 91.46 264.56C91.5161 264.346 91.5932 264.139 91.69 263.94C91.86 263.55 92.08 262.94 92.44 262.22C93.4205 260.141 94.5501 258.136 95.82 256.22C99.9962 249.829 105.544 244.448 112.06 240.47C118.576 236.491 125.897 234.015 133.49 233.22C135.778 232.969 138.08 232.883 140.38 232.96C141.19 232.96 141.82 233.05 142.25 233.08C142.469 233.08 142.687 233.107 142.9 233.16Z" fill="#EBEBEB"/>
<path d="M444.32 208C444.32 208.14 426.85 208.26 405.32 208.26C383.79 208.26 366.32 208.14 366.32 208C366.32 207.86 383.79 207.74 405.32 207.74C426.85 207.74 444.32 207.89 444.32 208Z" fill="#EBEBEB"/>
<path d="M478.54 219.75C477.601 219.827 476.658 219.827 475.72 219.75C473.98 219.75 471.58 219.65 468.93 219.63C466.28 219.61 463.88 219.63 462.14 219.63C461.201 219.708 460.258 219.708 459.32 219.63C460.243 219.425 461.185 219.317 462.13 219.31C463.87 219.19 466.28 219.1 468.94 219.11C471.6 219.12 474 219.24 475.74 219.38C476.684 219.404 477.622 219.528 478.54 219.75Z" fill="#EBEBEB"/>
<path d="M541.86 129.11C540.943 129.112 540.035 128.931 539.189 128.579C538.342 128.227 537.574 127.71 536.928 127.059C536.283 126.408 535.773 125.636 535.428 124.786C535.083 123.936 534.911 123.027 534.92 122.11V114.11C534.92 114.11 529.16 113.22 529.09 107.46C529.02 101.7 530.02 88.4602 530.02 88.4602C533.291 87.056 536.877 86.5501 540.409 86.9949C543.94 87.4396 547.289 88.8188 550.11 90.9902L548.75 122.61C548.638 124.365 547.865 126.012 546.586 127.218C545.307 128.425 543.618 129.101 541.86 129.11Z" fill="#FFBE9D"/>
<path d="M534.94 114.06C537.595 114.106 540.205 113.365 542.44 111.93C542.44 111.93 540.67 116.07 534.92 115.55L534.94 114.06Z" fill="#AA6550"/>
<path d="M549.5 97.67C549.6 97.67 553.5 96.5 553.33 100.43C553.16 104.36 549.28 103.43 549.28 103.31C549.28 103.19 549.5 97.67 549.5 97.67Z" fill="#FFBE9D"/>
<path d="M550.53 101.86C550.53 101.86 550.59 101.86 550.71 101.97C550.874 102.034 551.056 102.034 551.22 101.97C551.479 101.816 551.692 101.596 551.838 101.332C551.984 101.069 552.057 100.771 552.05 100.47C552.078 100.129 552.023 99.7856 551.89 99.47C551.858 99.3458 551.795 99.2315 551.708 99.1373C551.621 99.0431 551.512 98.9719 551.39 98.93C551.312 98.9093 551.228 98.9158 551.154 98.9485C551.079 98.9812 551.018 99.0381 550.98 99.11C550.93 99.21 550.98 99.29 550.93 99.3C550.88 99.31 550.85 99.23 550.93 99.07C550.956 98.9721 551.016 98.8869 551.1 98.83C551.154 98.7892 551.215 98.7601 551.281 98.7446C551.346 98.7291 551.414 98.7275 551.48 98.74C551.64 98.7794 551.787 98.8576 551.909 98.9674C552.031 99.0773 552.124 99.2156 552.18 99.37C552.332 99.7196 552.4 100.1 552.38 100.48C552.389 100.831 552.293 101.176 552.104 101.472C551.915 101.768 551.642 102.001 551.32 102.14C551.215 102.17 551.104 102.175 550.996 102.154C550.888 102.133 550.787 102.087 550.7 102.02C550.53 102 550.51 101.87 550.53 101.86Z" fill="#AA6550"/>
<path d="M532.13 97.4402C532.127 97.656 532.21 97.8641 532.36 98.0195C532.509 98.1749 532.714 98.2649 532.93 98.2702C533.034 98.2783 533.139 98.2655 533.238 98.2325C533.337 98.1994 533.428 98.1469 533.506 98.0779C533.585 98.0088 533.648 97.9248 533.694 97.8307C533.739 97.7367 533.765 97.6345 533.77 97.5302C533.773 97.3161 533.692 97.1094 533.544 96.9543C533.396 96.7992 533.194 96.708 532.98 96.7002C532.769 96.6864 532.562 96.7565 532.403 96.8951C532.243 97.0337 532.145 97.2297 532.13 97.4402Z" fill="#263238"/>
<path d="M531.14 96.62C531.24 96.73 531.86 96.27 532.74 96.27C533.62 96.27 534.28 96.71 534.37 96.6C534.46 96.49 534.37 96.36 534.03 96.16C533.65 95.891 533.196 95.7477 532.73 95.75C532.27 95.7534 531.823 95.9002 531.45 96.17C531.18 96.38 531.08 96.57 531.14 96.62Z" fill="#263238"/>
<path d="M540.79 97.4402C540.787 97.656 540.87 97.8641 541.02 98.0195C541.169 98.1749 541.374 98.2649 541.59 98.2702C541.694 98.2783 541.799 98.2655 541.898 98.2325C541.997 98.1994 542.088 98.1469 542.167 98.0779C542.245 98.0088 542.309 97.9248 542.354 97.8307C542.399 97.7367 542.425 97.6345 542.43 97.5302C542.433 97.3161 542.352 97.1094 542.204 96.9543C542.057 96.7992 541.854 96.708 541.64 96.7002C541.429 96.6864 541.222 96.7565 541.063 96.8951C540.903 97.0337 540.805 97.2297 540.79 97.4402Z" fill="#263238"/>
<path d="M539.83 96.7802C539.93 96.8902 540.55 96.4302 541.44 96.4302C542.33 96.4302 542.97 96.8802 543.06 96.7702C543.15 96.6602 543.06 96.5302 542.73 96.3202C542.343 96.0592 541.887 95.9199 541.42 95.9202C540.961 95.9206 540.514 96.0639 540.14 96.3302C539.87 96.5402 539.78 96.7402 539.83 96.7802Z" fill="#263238"/>
<path d="M536.62 103.34C536.152 103.198 535.669 103.111 535.18 103.08C534.96 103.08 534.74 103.01 534.7 102.86C534.686 102.626 534.742 102.393 534.86 102.19L535.52 100.47C536.134 99.0226 536.629 97.5277 537 96C536.266 97.4055 535.644 98.8667 535.14 100.37C534.92 100.97 534.71 101.55 534.5 102.1C534.361 102.375 534.322 102.69 534.39 102.99C534.424 103.069 534.474 103.139 534.538 103.197C534.602 103.254 534.678 103.296 534.76 103.32C534.887 103.333 535.014 103.333 535.14 103.32C535.631 103.392 536.128 103.398 536.62 103.34Z" fill="#263238"/>
<path d="M539.22 104C539.08 104 539.07 105 538.22 105.64C537.37 106.28 536.38 106.21 536.37 106.35C536.36 106.49 536.6 106.53 537.03 106.54C537.593 106.551 538.141 106.363 538.58 106.01C538.994 105.664 539.261 105.175 539.33 104.64C539.39 104.19 539.29 104 539.22 104Z" fill="#263238"/>
<path d="M539.6 93.3201C539.69 93.5601 540.6 93.4401 541.6 93.5701C542.6 93.7001 543.47 93.9801 543.6 93.7601C543.73 93.5401 543.52 93.4301 543.18 93.2001C542.727 92.9165 542.215 92.7387 541.684 92.6798C541.152 92.621 540.614 92.6826 540.11 92.8601C539.75 93.0001 539.56 93.2001 539.6 93.3201Z" fill="#263238"/>
<path d="M531.46 94.0601C531.62 94.2601 532.22 94.0601 532.96 94.0601C533.7 94.0601 534.31 94.2001 534.45 93.9901C534.59 93.7801 534.45 93.6801 534.15 93.4901C533.786 93.2593 533.361 93.1442 532.93 93.1602C532.5 93.1687 532.084 93.3121 531.74 93.5701C531.48 93.7501 531.39 94.0001 531.46 94.0601Z" fill="#263238"/>
<path d="M527.24 84.8901C527.2 84.5367 527.248 84.1789 527.381 83.8489C527.514 83.5189 527.727 83.2272 528 83.0001C528.293 82.7739 528.66 82.664 529.029 82.6917C529.398 82.7194 529.744 82.8827 530 83.1501C529.942 82.91 529.935 82.6602 529.981 82.4173C530.026 82.1743 530.122 81.9437 530.263 81.7406C530.403 81.5375 530.586 81.3665 530.797 81.2389C531.009 81.1112 531.245 81.0299 531.49 81.0001C532.43 80.9401 533.23 81.6501 534.14 81.8901C535.043 82.0874 535.986 81.9783 536.82 81.5801C537.67 81.2401 538.47 80.7701 539.33 80.4501C541.152 79.7857 543.162 79.8667 544.923 80.6756C546.685 81.4845 548.057 82.9558 548.74 84.7701C549.384 84.6138 550.061 84.6563 550.68 84.8919C551.3 85.1276 551.833 85.5453 552.21 86.0901C552.94 87.2026 553.232 88.5453 553.03 89.8601C552.911 90.7428 552.689 91.6086 552.37 92.4401C552.37 92.5201 552.37 92.5901 552.37 92.6601C552.31 95.8301 551.95 99.5401 550.6 99.5701C548.25 99.5701 548.81 95.1701 548.81 95.1701C545.92 94.0501 547 89.7301 546.27 89.0701C545.54 88.4101 544.05 86.9001 538 90.0001C535.748 91.0074 533.235 91.2769 530.82 90.7701H530.67C530.125 90.6255 529.603 90.4033 529.12 90.1101C528.554 89.7845 528.106 89.2872 527.84 88.6901C527.717 88.3901 527.682 88.0608 527.741 87.7416C527.799 87.4224 527.948 87.1268 528.17 86.8901C527.663 86.3346 527.338 85.6364 527.24 84.8901Z" fill="#263238"/>
<path d="M598.37 123.8C598.23 124.04 596.59 127.12 596.59 127.12C596.59 127.12 597.89 122.07 597.94 121.89C598.36 120.24 597.34 120.41 597.04 121C596.74 121.59 594.89 126.58 594.89 126.58C596.62 120.09 596.08 119.52 595.59 119.41C595.1 119.3 593.59 125.24 593.59 125.24C593.193 124.566 592.658 123.983 592.02 123.53C590.46 122.45 587.84 123.53 587.72 124.27C587.6 125.01 588.53 125.21 588.53 125.21C588.898 124.932 589.339 124.767 589.799 124.737C590.259 124.707 590.718 124.812 591.119 125.04C591.52 125.267 591.846 125.607 592.056 126.018C592.265 126.429 592.35 126.892 592.3 127.35C592.272 127.694 592.124 128.017 591.882 128.262C591.641 128.508 591.32 128.661 590.977 128.694C590.634 128.728 590.29 128.639 590.005 128.445C589.721 128.25 589.514 127.962 589.42 127.63C588.77 124.71 587.77 125.63 587.77 125.63L588.77 132.08L587.7 135.33L581.86 151.15L570.7 139.57C570.7 139.57 564.7 152.75 564.6 153.2C564.5 153.49 570.19 159.41 573.93 163.26C575.252 164.615 576.914 165.589 578.741 166.082C580.568 166.575 582.495 166.568 584.318 166.063C586.142 165.557 587.797 164.571 589.109 163.207C590.422 161.843 591.344 160.152 591.78 158.31L596.19 135.57L598.26 128.12C598.26 128.12 599 125.12 599.18 124.39C599.42 123.45 598.76 123.16 598.37 123.8Z" fill="#FFBE9D"/>
<path d="M499.23 168.2C502.56 168.79 506.39 166.4 508.43 163.7L516.74 152.75L507 144L498.22 155L465.36 153.26L457.6 148.91C457.065 148.612 456.446 148.499 455.84 148.59L445.16 151.59L455.16 154.67L472.65 161.25L499.23 168.2Z" fill="#FFBE9D"/>
<path d="M573.71 329.25L575.09 335.04C575.09 335.04 584.55 347.32 587.47 346.72C589.38 346.33 587.03 343.12 583.47 333.79L582.72 329.94L573.71 329.25Z" fill="#ED5100"/>
<path d="M587.85 344.91C587.837 344.971 587.814 345.028 587.78 345.08C587.684 345.238 587.545 345.366 587.38 345.45C587.124 345.593 586.833 345.659 586.54 345.64C586.156 345.605 585.787 345.471 585.47 345.25C583.777 343.882 582.183 342.395 580.7 340.8C579.202 339.228 577.79 337.575 576.47 335.85C575.97 335.18 575.57 334.64 575.31 334.26L575.01 333.81C574.973 333.759 574.94 333.706 574.91 333.65C574.91 333.65 574.96 333.65 575.04 333.79L575.37 334.21L576.58 335.77C577.58 337.07 579.08 338.84 580.84 340.67C582.314 342.255 583.884 343.748 585.54 345.14C585.79 345.344 586.091 345.474 586.41 345.518C586.729 345.563 587.054 345.518 587.35 345.39C587.56 345.282 587.733 345.115 587.85 344.91Z" fill="#263238"/>
<path d="M586.51 341C586.51 341 586.21 341 585.75 341C585.146 341.098 584.568 341.315 584.05 341.64C583.519 341.948 583.078 342.39 582.77 342.92C582.55 343.33 582.48 343.63 582.45 343.62C582.455 343.355 582.524 343.094 582.65 342.86C582.939 342.286 583.392 341.809 583.95 341.49C584.486 341.145 585.096 340.932 585.73 340.87C585.997 340.837 586.268 340.882 586.51 341Z" fill="#263238"/>
<path d="M577.56 338.08C577.56 338.08 577.66 337.66 577.73 336.99C577.828 336.119 577.664 335.238 577.26 334.46C576.864 333.675 576.231 333.035 575.45 332.63C575.128 332.478 574.793 332.355 574.45 332.26C574.55 332.245 574.651 332.245 574.75 332.26C575.023 332.306 575.288 332.386 575.54 332.5C576.368 332.888 577.04 333.543 577.45 334.36C577.876 335.17 578.03 336.096 577.89 337C577.85 337.269 577.787 337.533 577.7 337.79C577.666 337.892 577.619 337.99 577.56 338.08Z" fill="#263238"/>
<path d="M574.32 330.24C574.588 330.812 574.763 331.423 574.84 332.05C575.01 333.05 575.2 333.88 575.16 333.9C574.894 333.325 574.725 332.71 574.66 332.08C574.48 331.06 574.27 330.25 574.32 330.24Z" fill="#263238"/>
<path d="M583.6 334.61C583.6 334.66 583.06 334.61 582.43 334.8C581.8 334.99 581.32 335.19 581.29 335.14C581.597 334.861 581.98 334.68 582.39 334.62C582.783 334.492 583.205 334.488 583.6 334.61Z" fill="#263238"/>
<path d="M583.79 335.6C583.79 335.6 583.34 335.6 582.79 335.74C582.24 335.88 581.89 336.1 581.86 336.05C582.087 335.781 582.403 335.603 582.75 335.55C583.091 335.434 583.463 335.452 583.79 335.6Z" fill="#263238"/>
<path d="M584.55 336.84C584.218 336.812 583.883 336.812 583.55 336.84C583.224 336.945 582.909 337.083 582.61 337.25C582.706 337.09 582.837 336.954 582.993 336.852C583.149 336.75 583.326 336.684 583.51 336.66C583.686 336.613 583.871 336.605 584.05 336.636C584.23 336.667 584.4 336.737 584.55 336.84Z" fill="#263238"/>
<path d="M583 334.19C582.894 334.21 582.786 334.21 582.68 334.19C582.395 334.132 582.115 334.055 581.84 333.96C581.437 333.818 581.045 333.644 580.67 333.44C580.437 333.309 580.213 333.162 580 333C579.871 332.924 579.761 332.819 579.678 332.695C579.595 332.57 579.541 332.428 579.52 332.28C579.532 332.199 579.561 332.122 579.606 332.054C579.651 331.986 579.711 331.928 579.78 331.885C579.85 331.842 579.928 331.815 580.009 331.806C580.09 331.796 580.172 331.804 580.25 331.83C580.504 331.911 580.73 332.064 580.9 332.27C581.207 332.567 581.498 332.881 581.77 333.21C581.957 333.433 582.13 333.667 582.29 333.91C582.357 333.991 582.411 334.082 582.45 334.18C582.45 334.18 582.16 333.84 581.67 333.3C581.43 333.03 581.13 332.72 580.79 332.39C580.627 332.216 580.425 332.082 580.2 332C579.99 331.95 579.71 332.06 579.71 332.29C579.71 332.52 579.91 332.72 580.1 332.86C580.303 333.004 580.513 333.138 580.73 333.26C581.094 333.474 581.476 333.658 581.87 333.81C582.51 334.07 583 334.16 583 334.19Z" fill="#263238"/>
<path d="M582.45 334.07C582.439 333.974 582.439 333.876 582.45 333.78C582.45 333.6 582.45 333.33 582.51 333C582.553 332.607 582.654 332.223 582.81 331.86C582.899 331.638 583.024 331.432 583.18 331.25C583.262 331.131 583.381 331.043 583.519 331C583.657 330.956 583.805 330.96 583.94 331.01C584.05 331.097 584.133 331.214 584.179 331.347C584.225 331.48 584.232 331.623 584.2 331.76C584.165 331.996 584.094 332.225 583.99 332.44C583.827 332.81 583.601 333.149 583.32 333.44C583.133 333.629 582.929 333.799 582.71 333.95C582.56 334.06 582.47 334.1 582.46 334.09C582.45 334.08 582.78 333.83 583.22 333.35C583.477 333.051 583.687 332.714 583.84 332.35C583.927 332.149 583.987 331.937 584.02 331.72C584.047 331.619 584.045 331.512 584.015 331.411C583.985 331.311 583.928 331.22 583.85 331.15C583.68 331.05 583.46 331.15 583.32 331.35C583.175 331.519 583.054 331.708 582.96 331.91C582.807 332.258 582.699 332.624 582.64 333C582.598 333.36 582.535 333.718 582.45 334.07Z" fill="#263238"/>
<g opacity="0.4">
<path d="M575.09 335L574.42 332.22C574.42 332.22 576.74 332.65 577.34 334.38C577.704 335.336 577.861 336.359 577.8 337.38L582.8 342.81C582.8 342.81 584.07 340.34 586.36 340.93C586.36 340.93 588.16 344.93 588.1 345.93C588.04 346.93 586.89 346.8 586.48 346.61C584.823 345.625 583.315 344.41 582 343C579.33 340.25 576.38 336.74 575.09 335Z" fill="black"/>
</g>
<path d="M526.69 332.18L526.64 324.46L541.09 324.29L541.28 335.57L540.38 335.64C536.38 335.91 520.1 336.73 517.38 335.96C514.45 335.09 526.69 332.18 526.69 332.18Z" fill="#ED5100"/>
<g opacity="0.4">
<path d="M536 335.52C536.196 334.3 536.837 333.195 537.8 332.42C538.749 331.651 539.95 331.262 541.17 331.33V335.33L536 335.52Z" fill="black"/>
</g>
<g opacity="0.4">
<path d="M520.71 333.81C520.71 333.81 516.42 335.11 516.97 335.81C517.52 336.51 533.97 336.3 541.28 335.57V335.25L522.04 335.66C522.04 335.66 521.55 333.84 520.71 333.81Z" fill="black"/>
</g>
<path d="M541.48 335.24H541.23L540.52 335.29L537.89 335.44C535.67 335.55 532.61 335.65 529.22 335.7C525.83 335.75 522.77 335.7 520.55 335.7L517.92 335.63H517.21H516.96H517.96H520.59C522.81 335.63 525.88 335.63 529.26 335.63C532.64 335.63 535.71 335.5 537.93 335.42L540.55 335.33H541.27L541.48 335.24Z" fill="#263238"/>
<path d="M522 335.88C521.872 335.451 521.701 335.036 521.49 334.64C521.225 334.274 520.92 333.938 520.58 333.64C521.03 333.804 521.406 334.123 521.64 334.54C521.916 334.93 522.044 335.405 522 335.88Z" fill="#263238"/>
<path d="M526.25 333.67C526.25 333.67 526.01 333.45 525.79 333.12C525.57 332.79 525.43 332.5 525.47 332.47C525.51 332.44 525.72 332.69 525.94 333.02C526.16 333.35 526.29 333.64 526.25 333.67Z" fill="#263238"/>
<path d="M527.41 333C527.41 333 527.15 332.89 526.9 332.67C526.65 332.45 526.47 332.24 526.5 332.2C526.53 332.16 526.76 332.32 527.02 332.54C527.28 332.76 527.45 333 527.41 333Z" fill="#263238"/>
<path d="M528.14 331.66C527.899 331.755 527.639 331.793 527.38 331.77C527.128 331.799 526.873 331.775 526.63 331.7C526.868 331.605 527.125 331.567 527.38 331.59C527.636 331.555 527.896 331.579 528.14 331.66Z" fill="#263238"/>
<path d="M528.38 330.7C528.131 330.866 527.839 330.953 527.54 330.95C527.246 330.999 526.945 330.965 526.67 330.85C526.954 330.799 527.242 330.775 527.53 330.78C527.81 330.725 528.095 330.698 528.38 330.7Z" fill="#263238"/>
<path d="M525.75 332.41C525.442 332.464 525.128 332.464 524.82 332.41C524.481 332.372 524.146 332.302 523.82 332.2C523.622 332.15 523.43 332.076 523.25 331.98C523.138 331.915 523.053 331.812 523.01 331.69C522.996 331.621 523.002 331.55 523.026 331.485C523.051 331.419 523.094 331.362 523.15 331.32C523.502 331.143 523.904 331.094 524.289 331.179C524.673 331.265 525.016 331.481 525.26 331.79C525.409 331.971 525.515 332.183 525.57 332.41C525.59 332.492 525.59 332.578 525.57 332.66C525.474 332.374 525.328 332.106 525.14 331.87C524.929 331.626 524.651 331.449 524.34 331.36C523.972 331.244 523.574 331.277 523.23 331.45C523.09 331.56 523.15 331.74 523.31 331.83C523.477 331.924 523.655 331.998 523.84 332.05C524.166 332.157 524.501 332.237 524.84 332.29C525.39 332.39 525.75 332.38 525.75 332.41Z" fill="#263238"/>
<path d="M525.51 332.46C525.51 332.46 525.35 332.24 525.39 331.82C525.413 331.576 525.499 331.341 525.64 331.14C525.714 331 525.823 330.881 525.956 330.795C526.089 330.71 526.242 330.659 526.4 330.65C526.448 330.658 526.493 330.676 526.534 330.703C526.575 330.729 526.61 330.763 526.637 330.803C526.664 330.844 526.682 330.889 526.692 330.936C526.701 330.984 526.7 331.033 526.69 331.08C526.672 331.23 526.621 331.373 526.54 331.5C526.422 331.705 526.278 331.893 526.11 332.06C525.964 332.227 525.783 332.36 525.58 332.45C525.58 332.45 525.77 332.28 526.02 331.98C526.163 331.805 526.29 331.618 526.4 331.42C526.53 331.22 526.61 330.87 526.4 330.83C526.19 330.79 525.93 331.04 525.79 331.23C525.664 331.414 525.576 331.622 525.53 331.84C525.505 332.046 525.498 332.253 525.51 332.46Z" fill="#263238"/>
<path d="M541.13 331.29C541.13 331.29 540.72 331.29 540.07 331.29C539.22 331.393 538.416 331.736 537.752 332.277C537.088 332.819 536.592 333.538 536.32 334.35C536.11 334.98 536.09 335.35 536.06 335.35C536.043 335.254 536.043 335.156 536.06 335.06C536.088 334.796 536.138 334.535 536.21 334.28C536.457 333.427 536.957 332.668 537.644 332.106C538.332 331.543 539.174 331.203 540.06 331.13C540.326 331.099 540.594 331.099 540.86 331.13C540.96 331.164 541.052 331.219 541.13 331.29Z" fill="#263238"/>
<path d="M539.56 325.3C539.675 326.296 539.728 327.298 539.72 328.3C539.779 329.299 539.779 330.301 539.72 331.3C539.606 330.304 539.552 329.302 539.56 328.3C539.495 327.301 539.495 326.299 539.56 325.3Z" fill="#263238"/>
<path d="M534.2 334.14C533.509 334.306 532.8 334.383 532.09 334.37C531.384 334.419 530.674 334.372 529.98 334.23C529.98 334.18 530.93 334.23 532.09 334.23C533.25 334.23 534.19 334.09 534.2 334.14Z" fill="#263238"/>
<path d="M537 334.1C537 334.1 536.93 334.3 536.83 334.52C536.73 334.74 536.69 334.93 536.64 334.92C536.59 334.91 536.56 334.7 536.64 334.45C536.72 334.2 537 334.06 537 334.1Z" fill="#263238"/>
<path d="M538.08 332.76C538.08 332.76 538.03 332.94 537.88 333.09C537.73 333.24 537.58 333.34 537.55 333.31C537.52 333.28 537.61 333.13 537.75 332.97C537.89 332.81 538.05 332.72 538.08 332.76Z" fill="#263238"/>
<path d="M539.6 332.13C539.6 332.18 539.4 332.18 539.19 332.26C538.98 332.34 538.83 332.45 538.79 332.42C538.75 332.39 538.87 332.18 539.13 332.09C539.39 332 539.62 332.08 539.6 332.13Z" fill="#263238"/>
<path d="M540.69 331.83C540.69 331.83 540.62 331.95 540.5 332C540.38 332.05 540.27 332.05 540.25 332C540.23 331.95 540.32 331.88 540.44 331.83C540.56 331.78 540.67 331.78 540.69 331.83Z" fill="#263238"/>
<path d="M589.06 330.29L560.49 178.98L520.78 185.03L523.6 328.85L546.1 329.33L542.36 203.86L567.67 330.29H589.06Z" fill="#455A64"/>
<path d="M564.88 193.45L519.49 191.76L520.78 150.33L514.83 157.12L502.69 146.61L516 128.42C517.719 126.104 519.884 124.154 522.367 122.686C524.85 121.218 527.602 120.261 530.46 119.87C532.15 119.64 533.46 119.53 534.28 119.42C539.099 120.945 544.271 120.945 549.09 119.42C551.182 119.491 553.251 119.889 555.22 120.6C558.932 121.919 562.284 124.087 565.01 126.93L579.9 147.06L567.17 158.06L560 151.69L564.88 193.45Z" fill="#263238"/>
<path d="M521.46 134.69C521.6 134.69 521.46 141.59 521.14 150.08C520.82 158.57 520.45 165.46 520.31 165.46C520.17 165.46 520.31 158.56 520.62 150.07C520.93 141.58 521.31 134.69 521.46 134.69Z" fill="#455A64"/>
<path d="M558.34 137.41C558.893 140.352 559.27 143.324 559.47 146.31C559.838 149.28 560.039 152.268 560.07 155.26C559.523 152.318 559.149 149.346 558.95 146.36C558.576 143.391 558.372 140.403 558.34 137.41Z" fill="#455A64"/>
<path d="M536.12 119.88C536.21 119.99 535.86 120.41 535.35 120.81C534.84 121.21 534.35 121.44 534.26 121.33C534.17 121.22 534.52 120.8 535.03 120.4C535.54 120 536 119.76 536.12 119.88Z" fill="#455A64"/>
<path d="M538.18 120.32C538.31 120.39 538.18 120.81 538.08 121.32C537.98 121.83 537.81 122.2 537.66 122.19C537.51 122.18 537.43 121.72 537.58 121.19C537.73 120.66 538.06 120.25 538.18 120.32Z" fill="#455A64"/>
<path d="M540.54 120.62C540.68 120.62 540.81 121 540.84 121.49C540.87 121.98 540.77 122.37 540.62 122.38C540.47 122.39 540.34 122 540.32 121.51C540.3 121.02 540.39 120.62 540.54 120.62Z" fill="#455A64"/>
<path d="M543.55 120.4C543.7 120.4 543.82 120.81 543.96 121.31C544.1 121.81 544.2 122.24 544.07 122.31C543.94 122.38 543.61 122.02 543.46 121.45C543.31 120.88 543.41 120.4 543.55 120.4Z" fill="#455A64"/>
<path d="M546.92 120C547.06 120 547.3 120.26 547.56 120.61C547.82 120.96 548.06 121.27 547.97 121.39C547.88 121.51 547.47 121.39 547.15 120.92C546.83 120.45 546.79 120.08 546.92 120Z" fill="#455A64"/>
<path d="M548.7 119.52C548.77 119.4 549.12 119.52 549.46 119.71C549.8 119.9 550.02 120.22 549.94 120.34C549.86 120.46 549.52 120.34 549.18 120.15C548.84 119.96 548.62 119.64 548.7 119.52Z" fill="#455A64"/>
<path d="M559.29 147.25C559.29 147.4 550.78 147.52 540.29 147.53C529.8 147.54 521.29 147.42 521.29 147.28C521.29 147.14 529.8 147.01 540.29 147.01C550.78 147.01 559.29 147.11 559.29 147.25Z" fill="#FAFAFA"/>
<path d="M559.62 150.06C559.62 150.21 551.11 150.33 540.62 150.34C530.13 150.35 521.62 150.23 521.62 150.09C521.62 149.95 530.13 149.82 540.62 149.82C551.11 149.82 559.62 149.92 559.62 150.06Z" fill="#FAFAFA"/>
<path d="M560 152.88C560 153.02 551.25 153.21 540.47 153.31C529.69 153.41 520.93 153.37 520.93 153.22C520.93 153.07 529.67 152.88 540.46 152.79C551.25 152.7 560 152.73 560 152.88Z" fill="#FAFAFA"/>
<path d="M572.29 136.43C571.815 137.083 571.268 137.68 570.66 138.21C569.6 139.21 568.08 140.66 566.34 142.13C564.6 143.6 562.97 144.86 561.76 145.73C561.148 146.245 560.477 146.685 559.76 147.04C560.308 146.447 560.915 145.911 561.57 145.44L566.05 141.74L570.45 137.94C571.007 137.372 571.624 136.865 572.29 136.43Z" fill="#FAFAFA"/>
<path d="M574.59 138.94C574.012 139.636 573.365 140.273 572.66 140.84C571.42 141.95 569.66 143.44 567.66 144.99C565.66 146.54 563.76 147.87 562.36 148.78C561.633 149.319 560.852 149.781 560.03 150.16C560.685 149.537 561.394 148.975 562.15 148.48C563.49 147.48 565.33 146.12 567.35 144.58C569.37 143.04 571.15 141.58 572.45 140.58C573.114 139.972 573.83 139.423 574.59 138.94Z" fill="#FAFAFA"/>
<path d="M575.76 141.32C573.61 143.496 571.34 145.549 568.96 147.47C566.694 149.524 564.31 151.444 561.82 153.22C563.97 151.044 566.24 148.991 568.62 147.07C570.886 145.016 573.27 143.096 575.76 141.32Z" fill="#FAFAFA"/>
<path d="M520.92 148.13C520.22 147.867 519.57 147.485 519 147C517.567 145.879 516.229 144.642 515 143.3C513.54 141.76 512.25 140.3 511.33 139.3C510.793 138.77 510.32 138.179 509.92 137.54C510.536 137.977 511.1 138.483 511.6 139.05C512.6 140.05 513.92 141.4 515.38 142.94C516.84 144.48 518.18 145.82 519.23 146.72C519.821 147.155 520.386 147.626 520.92 148.13Z" fill="#FAFAFA"/>
<path d="M519.64 151.56C518.919 151.152 518.248 150.662 517.64 150.1C516.49 149.1 514.94 147.75 513.3 146.15C511.66 144.55 510.25 143.01 509.3 141.87C508.73 141.287 508.23 140.639 507.81 139.94C508.448 140.444 509.037 141.006 509.57 141.62C510.62 142.69 512.07 144.17 513.7 145.77C515.33 147.37 516.84 148.77 517.93 149.83C518.557 150.348 519.13 150.928 519.64 151.56Z" fill="#FAFAFA"/>
<path d="M518.24 154C517.582 153.498 516.976 152.932 516.43 152.31C515.34 151.24 513.84 149.77 512.14 148.19C510.44 146.61 508.86 145.19 507.71 144.19C507.06 143.679 506.455 143.114 505.9 142.5C506.639 142.88 507.328 143.35 507.95 143.9C509.16 144.83 510.79 146.19 512.5 147.77C514.21 149.35 515.67 150.89 516.69 152.03C517.284 152.622 517.804 153.284 518.24 154Z" fill="#FAFAFA"/>
<path d="M564.79 191.54C564.79 191.68 554.7 191.54 542.26 191.23C529.82 190.92 519.74 190.55 519.74 190.41C519.74 190.27 529.83 190.41 542.27 190.71C554.71 191.01 564.79 191.39 564.79 191.54Z" fill="#455A64"/>
<path d="M666.12 278C667.416 278.65 668.568 279.555 669.508 280.659C670.447 281.764 671.156 283.046 671.59 284.43C672.438 287.211 672.636 290.15 672.17 293.02C671.43 298.56 668.17 304.12 664.68 308.5C660.08 304.32 659.14 297.17 658.88 293.5C658.49 287.72 661.28 277.03 666.12 277.98" fill="#ED5100"/>
<path d="M670 317.73C669.71 316.135 669.848 314.491 670.4 312.967C670.951 311.442 671.897 310.091 673.14 309.05C674.392 308.038 675.831 307.284 677.376 306.831C678.921 306.378 680.54 306.235 682.14 306.41C682.889 306.412 683.628 306.579 684.306 306.899C684.983 307.219 685.582 307.683 686.06 308.26C686.42 308.865 686.61 309.556 686.61 310.26C686.61 310.964 686.42 311.655 686.06 312.26C685.33 313.459 684.294 314.442 683.06 315.11C678.96 317.58 674.53 319.22 669.97 317.75" fill="#ED5100"/>
<path d="M663.63 334.67C663.655 334.285 663.719 333.903 663.82 333.53L664.44 330.45C665.03 327.024 666.168 323.715 667.81 320.65C669.521 317.592 672.012 315.042 675.03 313.26C675.947 312.737 676.924 312.327 677.94 312.04C678.3 311.93 678.59 311.89 678.78 311.84C678.97 311.79 679.07 311.84 679.08 311.84C677.726 312.273 676.419 312.843 675.18 313.54C672.264 315.356 669.855 317.881 668.18 320.88C666.563 323.916 665.404 327.175 664.74 330.55C664.43 331.83 664.18 332.88 663.99 333.6C663.898 333.966 663.777 334.323 663.63 334.67Z" fill="#263238"/>
<path d="M664.71 286.29C664.731 286.456 664.731 286.624 664.71 286.79C664.71 287.16 664.71 287.63 664.77 288.22C664.77 289.47 664.85 291.22 664.88 293.5C664.94 297.96 664.94 304.12 664.78 310.92C664.62 317.72 664.34 323.92 664.08 328.33C663.94 330.55 663.82 332.33 663.72 333.59C663.72 334.18 663.63 334.65 663.6 335.02C663.595 335.189 663.568 335.357 663.52 335.52C663.509 335.354 663.509 335.187 663.52 335.02C663.52 334.65 663.52 334.17 663.57 333.58C663.63 332.29 663.71 330.5 663.8 328.31C663.99 323.86 664.23 317.71 664.39 310.91C664.55 304.11 664.59 297.91 664.61 293.5C664.61 291.31 664.61 289.5 664.61 288.23C664.61 287.64 664.61 287.16 664.61 286.79C664.63 286.621 664.663 286.454 664.71 286.29Z" fill="#263238"/>
<path d="M661.79 321C661.291 317.615 659.992 314.398 658 311.615C656.009 308.832 653.383 306.565 650.34 305C648.79 304.23 646.76 303.7 645.45 304.84C644.14 305.98 644.39 308.08 644.99 309.71C646.303 313.092 648.588 316.009 651.556 318.094C654.524 320.18 658.043 321.341 661.67 321.43" fill="#ED5100"/>
<path d="M651 310.28C651.346 310.401 651.68 310.552 652 310.73C652.38 310.918 652.751 311.125 653.11 311.35C653.597 311.634 654.067 311.944 654.52 312.28C655.082 312.667 655.62 313.087 656.13 313.54C656.732 314.042 657.303 314.579 657.84 315.15C659.076 316.46 660.159 317.906 661.07 319.46C661.956 321.041 662.658 322.719 663.16 324.46C663.368 325.217 663.535 325.985 663.66 326.76C663.781 327.421 663.865 328.089 663.91 328.76C663.939 329.323 663.939 329.887 663.91 330.45C663.923 330.874 663.903 331.299 663.85 331.72C663.842 332.081 663.795 332.439 663.71 332.79C663.62 332.79 663.81 331.25 663.58 328.79C663.52 328.119 663.424 327.451 663.29 326.79C663.152 326.031 662.975 325.28 662.76 324.54C662.245 322.846 661.547 321.213 660.68 319.67C659.784 318.145 658.728 316.72 657.53 315.42C657.007 314.85 656.453 314.309 655.87 313.8C655.372 313.348 654.851 312.92 654.31 312.52C652.36 311 651 310.36 651 310.28Z" fill="#263238"/>
<path d="M500.38 89.1102C499.56 88.5096 498.535 88.2587 497.531 88.4124C496.526 88.5661 495.623 89.1119 495.02 89.9302C494.73 89.5054 494.358 89.1434 493.926 88.8655C493.493 88.5877 493.009 88.3998 492.502 88.313C491.996 88.2262 491.477 88.2424 490.976 88.3604C490.476 88.4785 490.005 88.696 489.59 89.0002C488.851 89.6975 488.381 90.6319 488.26 91.6406C488.14 92.6493 488.377 93.6683 488.93 94.5201C490.43 96.8901 493.29 97.9001 495.06 100.03C496.84 97.9001 499.55 97.0301 501.06 94.6301C501.605 93.7742 501.836 92.7552 501.712 91.748C501.587 90.7408 501.117 89.8082 500.38 89.1102Z" fill="#ED5100"/>
<path d="M514.58 110.15L513.93 110.07L511.93 109.77L504.41 108.62H504.51C501.824 110.47 498.685 111.555 495.43 111.76C492.391 111.939 489.356 111.351 486.604 110.051C483.852 108.75 481.471 106.778 479.679 104.317C477.888 101.856 476.744 98.9838 476.353 95.965C475.962 92.9462 476.336 89.8775 477.441 87.0409C478.545 84.2044 480.346 81.6911 482.675 79.732C485.005 77.7729 487.79 76.431 490.774 75.8295C493.758 75.228 496.846 75.3863 499.753 76.2898C502.66 77.1933 505.293 78.813 507.41 81C510.289 83.9848 512.054 87.8685 512.41 92C512.702 95.2293 512.104 98.477 510.68 101.39V101.27C511.92 104.1 512.9 106.27 513.59 107.87C513.9 108.6 514.15 109.16 514.33 109.58C514.51 110 514.57 110.15 514.56 110.14L514.48 109.98L514.26 109.53C514.07 109.12 513.79 108.53 513.45 107.82L510.45 101.39V101.33V101.27C511.817 98.3831 512.373 95.1789 512.06 92C511.684 88.1574 510.057 84.5443 507.429 81.7158C504.801 78.8873 501.317 76.9997 497.512 76.343C493.708 75.6863 489.793 76.2967 486.368 78.0805C482.944 79.8644 480.2 82.7229 478.558 86.2173C476.916 89.7116 476.466 93.6484 477.278 97.4231C478.09 101.198 480.118 104.602 483.052 107.112C485.986 109.622 489.662 111.1 493.517 111.318C497.372 111.536 501.192 110.483 504.39 108.32H504.44H504.49L511.88 109.63L513.88 109.99L514.4 110.09L514.58 110.15Z" fill="#263238"/>
</g>
<defs>
<clipPath id="clip0_5497_40774">
<rect width="690" height="347" fill="white"/>
</clipPath>
</defs>
</svg>
