<svg width="206" height="130" viewBox="0 0 206 130" fill="none" xmlns="http://www.w3.org/2000/svg">
<g clip-path="url(#clip0_5497_40599)">
<path d="M32.3151 35.0654C32.1562 35.0556 31.9984 35.0978 31.8657 35.1855C31.7566 35.3022 31.6914 35.4529 31.6812 35.612C31.343 37.6877 32.1022 39.7681 32.8994 41.7165C33.7225 43.731 34.6119 45.7454 35.9175 47.4889C37.2232 49.2323 38.9925 50.7072 41.0953 51.2986C41.6251 51.447 42.2235 51.5342 42.7013 51.2585C43.1437 51.0065 43.3778 50.5117 43.5647 50.0381C44.9981 46.3688 45.1851 42.3328 44.0969 38.5476C43.8603 37.7042 43.4914 36.5167 42.7132 35.9913C42.0225 35.5201 40.8587 35.539 40.0663 35.4306C37.4982 35.0841 34.9046 34.9619 32.3151 35.0654Z" fill="#0D99FF"/>
<path d="M170.487 95.7618L161.413 94.1125L165.541 86.1821L162.163 77.1254L163.367 76.6777L166.34 84.6459L170.17 77.2903L171.312 77.8793L166.946 86.2669L170.487 95.7618ZM163.357 93.1701L168.493 94.0984L166.146 87.8124L163.357 93.1701Z" fill="#FAFAFA"/>
<path d="M163 121.285L161.804 120.814L165.314 112.037L160.843 102.943L170.035 103.678L166.723 111.978L170.981 120.656L169.832 121.219L166.08 113.585L163 121.285ZM163 104.401L165.962 110.426L168.204 104.816L163 104.401Z" fill="#FAFAFA"/>
<path d="M160.803 103.666L152.839 99.5432L143.749 102.91L143.299 101.708L151.299 98.7469L143.912 94.9324L144.506 93.7944L152.926 98.1437L162.449 94.6096L160.803 103.666ZM154.468 98.9542L159.847 101.734L160.779 96.5981L154.468 98.9542Z" fill="#FAFAFA"/>
<path d="M170.113 104.554V95.3658L178.685 98.0117L187.027 93.064L187.683 94.1666L180.35 98.5017L188.3 100.943L187.921 102.168L178.855 99.3853L170.113 104.554ZM171.4 97.1046V102.304L177.192 98.8834L171.4 97.1046Z" fill="#FAFAFA"/>
<path d="M158.951 98.6433L156.056 90.1851L147.153 86.3541L147.661 85.1761L155.495 88.5476L152.801 80.7067L154.019 80.292L157.08 89.245L166.407 93.2503L158.951 98.6433ZM157.65 90.8683L159.595 96.5982L163.819 93.5354L157.65 90.8683Z" fill="#FAFAFA"/>
<path d="M179.549 116.252L174.934 108.006L165.04 105.716L171.426 99.0815L175.79 106.887L185.237 109.074L184.946 110.322L176.625 108.379L180.674 115.619L179.549 116.252ZM167.53 104.967L174.089 106.494L171.142 101.218L167.53 104.967Z" fill="#FAFAFA"/>
<path d="M152.943 117.584L151.76 117.075L155.145 109.272L147.271 111.946L146.859 110.735L155.848 107.684L159.869 98.396L165.283 105.829L156.794 108.713L152.943 117.584ZM160.153 100.969L157.48 107.125L163.209 105.177L160.153 100.969Z" fill="#FAFAFA"/>
<path d="M172.372 99.7531L165.713 93.3918L173.547 89.059L175.745 79.6348L176.998 79.9246L175.066 88.2037L182.335 84.1702L182.959 85.2917L174.68 89.8883L172.372 99.7531ZM167.861 93.6745L171.631 97.2722L173.155 90.7388L167.861 93.6745Z" fill="#FAFAFA"/>
<path d="M165.811 123.337C161.005 123.336 156.308 121.916 152.313 119.256C148.318 116.596 145.205 112.816 143.367 108.394C141.528 103.971 141.048 99.1054 141.986 94.4111C142.924 89.7168 145.238 85.405 148.637 82.0209C152.035 78.6367 156.364 76.3322 161.077 75.3988C165.79 74.4653 170.675 74.9449 175.114 76.7768C179.554 78.6086 183.348 81.7106 186.018 85.6904C188.687 89.6702 190.112 94.3491 190.112 99.1355C190.105 105.553 187.542 111.705 182.986 116.242C178.43 120.779 172.253 123.331 165.811 123.337ZM165.811 77.7095C161.557 77.7123 157.399 78.9713 153.864 81.3273C150.328 83.6833 147.574 87.0306 145.948 90.9459C144.322 94.8612 143.898 99.1688 144.729 103.324C145.561 107.479 147.611 111.296 150.62 114.291C153.629 117.286 157.461 119.325 161.634 120.151C165.806 120.976 170.13 120.551 174.06 118.929C177.989 117.307 181.348 114.561 183.711 111.038C186.074 107.514 187.335 103.373 187.335 99.1355C187.331 93.4517 185.062 88.0019 181.026 83.9842C176.99 79.9664 171.517 77.7095 165.811 77.7095Z" fill="#8B8E8E"/>
<path d="M174.477 99.1357C174.477 100.843 173.97 102.511 173.018 103.931C172.066 105.35 170.714 106.457 169.131 107.11C167.548 107.764 165.805 107.935 164.125 107.603C162.444 107.27 160.9 106.449 159.688 105.242C158.476 104.036 157.65 102.498 157.315 100.824C156.981 99.15 157.152 97.4147 157.807 95.8376C158.462 94.2604 159.573 92.9123 160.997 91.9636C162.422 91.0149 164.097 90.5083 165.81 90.5078C166.948 90.5075 168.075 90.7304 169.126 91.1639C170.177 91.5973 171.133 92.2327 171.938 93.0339C172.742 93.8351 173.381 94.7863 173.817 95.8332C174.252 96.8802 174.477 98.0023 174.477 99.1357Z" fill="#8B8E8E"/>
<path d="M165.811 69.2798C159.882 69.2803 154.086 71.0319 149.157 74.3131C144.228 77.5944 140.386 82.2579 138.118 87.714C135.849 93.17 135.256 99.1736 136.413 104.965C137.57 110.757 140.426 116.077 144.618 120.253C148.811 124.428 154.152 127.271 159.967 128.423C165.782 129.575 171.809 128.983 177.286 126.723C182.764 124.462 187.445 120.635 190.738 115.724C194.032 110.814 195.789 105.041 195.789 99.1357C195.789 95.2146 195.013 91.3318 193.507 87.7093C192 84.0867 189.792 80.7952 187.008 78.0227C184.224 75.2503 180.92 73.0512 177.282 71.5511C173.645 70.051 169.747 69.2792 165.811 69.2798ZM165.811 121.949C161.281 121.949 156.852 120.611 153.086 118.105C149.32 115.598 146.384 112.035 144.65 107.866C142.917 103.697 142.463 99.1104 143.347 94.685C144.231 90.2596 146.412 86.1946 149.615 83.004C152.818 79.8135 156.899 77.6407 161.342 76.7604C165.785 75.8801 170.39 76.3319 174.575 78.0586C178.76 79.7853 182.338 82.7094 184.854 86.4611C187.371 90.2128 188.714 94.6236 188.714 99.1357C188.714 105.186 186.301 110.989 182.006 115.267C177.711 119.546 171.885 121.949 165.811 121.949Z" fill="#4F5151"/>
<path d="M142.912 99.1358C142.912 94.4375 144.368 89.8539 147.082 86.011C149.795 82.1682 153.634 79.2536 158.073 77.6654C162.512 76.0772 167.335 75.8929 171.884 77.1377C176.432 78.3825 180.483 80.9956 183.484 84.6201C181.727 82.0861 179.472 79.9328 176.856 78.2901C174.241 76.6474 171.318 75.5492 168.265 75.0618C165.212 74.5745 162.091 74.708 159.091 75.4543C156.091 76.2006 153.274 77.5443 150.809 79.4043C148.345 81.2643 146.284 83.6022 144.751 86.277C143.218 88.9518 142.244 91.9082 141.889 94.9678C141.534 98.0274 141.804 101.127 142.684 104.08C143.564 107.032 145.035 109.777 147.009 112.148C144.336 108.332 142.906 103.789 142.912 99.1358Z" fill="#434444"/>
<path d="M189.154 80.4028C193.644 86.7363 195.484 94.5607 194.285 102.221C193.087 109.882 188.944 116.778 182.733 121.45C176.522 126.123 168.73 128.206 161.005 127.259C153.279 126.312 146.227 122.409 141.339 116.375C143.656 119.644 146.609 122.416 150.023 124.525C153.437 126.635 157.242 128.04 161.211 128.656C165.181 129.272 169.234 129.087 173.131 128.112C177.027 127.137 180.687 125.391 183.893 122.98C187.099 120.568 189.785 117.539 191.792 114.072C193.8 110.606 195.087 106.773 195.578 102.801C196.069 98.8297 195.753 94.8002 194.649 90.9524C193.546 87.1046 191.677 83.517 189.154 80.4028Z" fill="#434444"/>
<path d="M171.724 99.1357C171.724 100.301 171.377 101.439 170.727 102.408C170.077 103.377 169.154 104.132 168.073 104.578C166.993 105.023 165.804 105.14 164.657 104.913C163.51 104.685 162.456 104.124 161.629 103.301C160.802 102.477 160.239 101.427 160.011 100.285C159.782 99.1423 159.9 97.958 160.347 96.8817C160.795 95.8054 161.553 94.8855 162.525 94.2383C163.497 93.5911 164.641 93.2456 165.81 93.2456C167.379 93.2456 168.883 93.8662 169.992 94.9708C171.101 96.0754 171.724 97.5736 171.724 99.1357Z" fill="#B6B7B7"/>
<path d="M128.407 69.4258L167.996 95.6133C167.996 95.6133 170.678 97.6702 169.366 100.561C168.166 103.193 164.635 101.956 164.635 101.956L124.417 75.9285L128.407 69.4258Z" fill="#434444"/>
<path d="M74.8841 81.3473C75.3572 82.3463 75.8303 83.3688 76.6132 84.1439C78.0868 85.5976 80.3362 85.9086 82.4106 85.8992C83.9017 85.8919 85.3893 85.7579 86.8575 85.4987C87.1393 85.4683 87.4108 85.3758 87.6522 85.2277C88.227 84.8154 88.1915 83.9719 88.1371 83.2698C88.0827 82.5677 88.1726 81.6913 88.8278 81.4227C89.386 81.1871 90.0412 81.6041 90.3085 82.1436C90.5758 82.6832 90.5687 83.3217 90.5947 83.9154C90.6543 85.2456 90.9085 86.56 91.3493 87.817C91.4794 88.1869 91.6497 88.5804 91.9974 88.7594C92.2251 88.8594 92.4725 88.9069 92.7212 88.8985C97.0819 89.0662 101.449 88.9946 105.802 88.6841C106.327 88.6464 106.927 88.5615 107.221 88.121C107.368 87.8297 107.429 87.503 107.398 87.1785C107.398 84.4675 107.394 81.7565 107.386 79.0454C107.386 75.549 107.386 72.0385 106.885 68.5751C106.733 67.5149 106.523 66.4217 105.898 65.5523C105.023 64.3389 103.512 63.7782 102.067 63.38C99.4648 62.6567 96.7683 62.2397 94.0883 61.825C89.8496 61.1677 85.6062 60.5104 81.3368 60.1004C78.4984 59.8271 75.6268 59.6645 72.8215 60.1004C71.3416 60.3121 69.9046 60.7558 68.5639 61.4151C67.0099 62.2091 66.5487 63.7311 67.4049 65.2696C68.1855 66.6667 69.0417 67.7906 69.6733 69.3267C71.3195 73.3713 73.0565 77.3781 74.8841 81.3473Z" fill="#8B8E8E"/>
<path d="M115.713 94.6214C115.239 95.4224 115.218 96.4026 115.211 97.3332C115.197 98.9557 115.184 100.579 115.171 102.203C115.171 102.674 115.171 103.197 115.504 103.544C115.838 103.89 116.42 103.949 116.924 103.958L130.432 104.173C131.44 104.189 132.48 104.201 133.42 103.831C133.735 103.727 134.011 103.526 134.207 103.259C134.364 102.954 134.439 102.614 134.425 102.271C134.541 99.5887 134.56 96.902 134.479 94.2114C134.494 93.943 134.44 93.6752 134.321 93.4339C134.03 92.9509 133.351 92.918 132.786 92.9439L122.927 93.3656C121.271 93.4363 116.654 92.7436 115.713 94.6214Z" fill="#8B8E8E"/>
<path d="M121.732 89.7654C122.901 89.6076 124.183 89.3414 124.88 88.3966C125.625 87.3835 125.42 85.9934 125.311 84.7423C125.229 84.2175 125.284 83.6806 125.469 83.1826C125.689 82.7114 126.217 82.3203 126.735 82.431C127.551 82.6077 127.698 83.6868 127.667 84.5162C127.608 85.9973 127.55 87.4777 127.492 88.9573C127.468 89.5652 127.414 90.2414 126.967 90.6537C126.626 90.9694 126.136 91.0518 125.678 91.1249C121.956 91.6668 118.216 92.0367 114.456 92.2346C113.872 92.2652 113.141 92.2063 112.916 91.6668C112.718 91.1956 113.11 90.6348 113.598 90.4628C115.944 89.6311 119.241 90.1 121.732 89.7654Z" fill="#8B8E8E"/>
<path d="M93.218 87.8243C92.2719 88.1942 91.3021 88.6465 90.635 89.4193C89.722 90.4819 89.5139 91.9615 89.398 93.3563C89.1662 96.2268 89.1662 99.1112 89.398 101.982C89.5352 103.688 89.871 105.589 91.2642 106.586C91.8386 106.952 92.4712 107.218 93.1352 107.372C97.3903 108.588 101.768 109.33 106.187 109.585C108.534 109.719 111.053 109.67 112.999 108.357C115.076 106.96 116.051 104.427 116.588 101.996C117.323 98.6371 117.453 95.1747 116.971 91.7706C116.822 90.7198 116.599 89.6502 115.987 88.7785C115.14 87.5792 113.671 86.969 112.226 86.691C110.473 86.3517 108.678 86.4106 106.883 86.4742C102.223 86.6274 97.6081 86.1208 93.218 87.8243Z" fill="#8B8E8E"/>
<path d="M110.634 64.5557C109.641 66.4075 109.338 68.5398 109.104 70.6249C108.777 73.5527 108.562 76.4899 108.458 79.4365C108.413 80.7182 108.411 82.0871 109.101 83.1732C110.064 84.6858 112.032 85.1547 113.808 85.435C119.561 86.3363 125.398 86.5884 131.208 86.1866C132.391 86.1065 133.623 85.9722 134.562 85.2677C135.184 84.7965 135.61 84.1298 136.043 83.4842C141.064 76.0728 148.512 70.6268 157.116 68.0756C158.629 67.6327 160.212 67.2628 161.48 66.3321C162.747 65.4015 163.623 63.7122 163.069 62.242C162.338 60.3006 159.805 59.886 157.723 59.8224C144.281 59.3347 130.304 58.9483 116.917 60.4773C114.31 60.786 111.897 62.1996 110.634 64.5557Z" fill="#0D99FF"/>
<path d="M50.015 57.3981L40.0806 56.5735C40.0806 56.5735 39.5649 52.7496 39.371 47.1493C39.177 41.549 40.4638 35.64 40.4638 35.64C40.4638 35.64 43.5269 35.2842 49.1304 37.8335C52.5915 39.4408 55.7264 41.6681 58.3789 44.4045L50.015 57.3981Z" fill="#434444"/>
<path d="M64.7207 40.081C61.2247 42.1331 58.4241 45.7355 57.0073 49.9976C56.5402 51.295 56.308 52.6647 56.3213 54.043C56.3923 56.0079 57.18 57.8668 58.2136 59.4242C61.0851 63.7075 65.7401 65.8562 70.3194 66.7586C73.7563 67.4371 77.2546 67.5196 80.7269 67.5997C89.675 67.8094 98.6539 68.0167 107.545 66.9141C109.39 66.6785 111.538 66.146 112.276 64.1693C112.967 62.3433 112.075 60.2182 110.994 58.6491C108.839 55.5226 105.904 53.2725 102.935 51.2558C96.6363 46.9607 89.8304 43.4544 82.6713 40.8161C76.6657 38.6061 70.7523 36.5375 64.7207 40.081Z" fill="#0D99FF"/>
<path d="M155.658 58.1356C155.658 58.1356 181.152 53.9536 194.294 65.4582C207.232 76.7673 207.866 89.9612 203.731 98.2946C201.104 103.6 197.818 103.6 197.818 103.6C197.818 103.6 200.297 87.7654 188.574 75.5092C176.26 62.6357 160.112 66.8907 160.112 66.8907L155.658 58.1356Z" fill="#0D99FF"/>
<path d="M5.49959 76.3219C5.49959 76.3219 14.2206 65.7856 30.7236 66.7068C47.2266 67.628 57.847 74.8281 60.9503 84.5822C64.0252 94.242 61.8964 105.707 61.8964 105.707H73.3258C73.3258 105.707 75.3576 89.0893 67.3817 75.8365C59.8126 63.2575 47.1533 57.9965 32.7199 58.774C15.4104 59.707 3.01835 70.2856 5.49959 76.3219Z" fill="#0D99FF"/>
<path d="M34.6452 96.7676L25.5718 95.1184L29.7017 87.1879L26.3216 78.1312L27.5279 77.6836L30.513 85.6612L34.3425 78.3056L35.4849 78.8946L31.1185 87.2822L34.6452 96.7676ZM27.5161 94.176L32.6536 95.1043L30.3072 88.823L27.5161 94.176Z" fill="#FAFAFA"/>
<path d="M27.1588 122.291L25.9761 121.82L29.4863 113.044L25.0063 103.949L34.1981 104.684L30.8866 112.985L35.1442 121.662L33.9899 122.225L30.2385 114.592L27.1588 122.291ZM27.1588 105.408L30.1155 111.441L32.3602 105.832L27.1588 105.408Z" fill="#FAFAFA"/>
<path d="M24.9616 104.663L16.9999 100.55L7.9075 103.916L7.46045 102.724L15.4577 99.7626L8.07307 95.9388L8.66441 94.8008L17.085 99.1501L26.6079 95.616L24.9616 104.663ZM18.6272 99.9511L24.0084 102.724L24.9403 97.6068L18.6272 99.9511Z" fill="#FAFAFA"/>
<path d="M34.2739 105.551V96.3625L42.8436 98.9942L51.1861 94.0771L51.8437 95.1798L44.5111 99.5149L52.461 101.956L52.0826 103.181L43.0186 100.398L34.2739 105.551ZM35.5607 98.1013V103.301L41.351 99.8966L35.5607 98.1013Z" fill="#FAFAFA"/>
<path d="M23.0976 99.6609L20.2025 91.1933L11.2993 87.36L11.8102 86.182L19.6324 89.5558L16.9572 81.7125L18.1754 81.2979L21.2361 90.2509L30.5627 94.2561L23.0976 99.6609ZM21.7967 91.886L23.7528 97.5994L27.9797 94.5365L21.7967 91.886Z" fill="#FAFAFA"/>
<path d="M43.7091 117.258L39.0943 109.012L29.1978 106.722L35.5842 100.087L39.9482 107.893L49.3954 110.079L49.1045 111.328L40.7927 109.403L44.8327 116.625L43.7091 117.258ZM31.6956 105.973L38.2546 107.492L35.3051 102.217L31.6956 105.973Z" fill="#FAFAFA"/>
<path d="M17.1036 118.59L15.9209 118.081L19.3057 110.277L11.4339 112.952L11.0176 111.741L20.0059 108.689L24.027 99.4019L29.4412 106.838L20.952 109.719L17.1036 118.59ZM24.3108 101.975L21.6403 108.143L27.3763 106.194L24.3108 101.975Z" fill="#FAFAFA"/>
<path d="M36.5329 100.759L29.8721 94.3976L37.7084 90.0507L39.9035 80.6406L41.1571 80.9304L39.2246 89.2096L46.4933 85.176L47.1201 86.2975L38.8414 90.8942L36.5329 100.759ZM32.0198 94.6804L35.7902 98.278L37.3158 91.7447L32.0198 94.6804Z" fill="#FAFAFA"/>
<path d="M29.9736 124.343C25.1687 124.343 20.4718 122.923 16.4767 120.264C12.4816 117.605 9.3678 113.826 7.52892 109.404C5.69004 104.982 5.20867 100.117 6.14566 95.4224C7.08266 90.7282 9.39595 86.4161 12.7931 83.0314C16.1902 79.6466 20.5186 77.3411 25.231 76.4064C29.9434 75.4718 34.8283 75.9498 39.268 77.7802C43.7077 79.6106 47.5028 82.711 50.1736 86.6896C52.8444 90.6683 54.2709 95.3463 54.2728 100.132C54.2678 106.551 51.7063 112.705 47.1506 117.244C42.5949 121.783 36.4173 124.336 29.9736 124.343ZM29.9736 78.7182C25.7188 78.7182 21.5595 79.9751 18.0219 82.33C14.4842 84.6848 11.7272 88.0318 10.0995 91.9475C8.47175 95.8633 8.04646 100.172 8.8774 104.329C9.70835 108.485 11.7582 112.303 14.7677 115.299C17.7771 118.295 21.611 120.334 25.7844 121.16C29.9578 121.985 34.2832 121.559 38.2135 119.936C42.1438 118.312 45.5025 115.564 47.8646 112.039C50.2268 108.514 51.4864 104.371 51.4841 100.132C51.4772 94.4531 49.2083 89.0085 45.1755 84.9937C41.1426 80.9789 35.6754 78.722 29.9736 78.7182Z" fill="#8B8E8E"/>
<path d="M38.5239 101.531C39.2904 96.8276 36.0838 92.3958 31.3618 91.6323C26.6398 90.8688 22.1905 94.0628 21.424 98.7663C20.6575 103.47 23.8641 107.902 28.5861 108.665C33.3081 109.429 37.7574 106.235 38.5239 101.531Z" fill="#8B8E8E"/>
<path d="M29.9736 70.2856C24.0444 70.2856 18.2483 72.0371 13.3186 75.3185C8.38878 78.5999 4.54669 83.2638 2.27823 88.7204C0.00976274 94.1769 -0.583171 100.181 0.574418 105.973C1.73201 111.766 4.58812 117.086 8.78152 121.261C12.9749 125.436 18.3172 128.279 24.1328 129.43C29.9483 130.581 35.9759 129.988 41.4531 127.726C46.9302 125.464 51.611 121.635 54.9034 116.724C58.1958 111.812 59.9519 106.038 59.9495 100.132C59.947 92.2151 56.7877 84.6232 51.1663 79.0261C45.5449 73.429 37.9218 70.285 29.9736 70.2856ZM29.9736 122.955C25.444 122.955 21.0162 121.617 17.25 119.111C13.4837 116.605 10.5481 113.042 8.81428 108.874C7.08049 104.706 6.62637 100.119 7.50934 95.6943C8.39231 91.2691 10.5727 87.2041 13.7749 84.0132C16.9771 80.8223 21.0572 78.6487 25.4995 77.7674C29.9417 76.8861 34.5466 77.3365 38.7318 79.0618C42.9171 80.787 46.4948 83.7097 49.0126 87.4601C51.5304 91.2106 52.8753 95.6204 52.8772 100.132C52.8784 103.129 52.2869 106.096 51.1364 108.865C49.986 111.634 48.2991 114.15 46.1722 116.27C44.0453 118.389 41.52 120.071 38.7406 121.218C35.9612 122.365 32.9821 122.955 29.9736 122.955Z" fill="#4F5151"/>
<path d="M7.07 100.132C7.07083 95.4342 8.52772 90.8508 11.2417 87.0083C13.9556 83.1658 17.7943 80.2514 22.2333 78.6634C26.6724 77.0753 31.4954 76.8909 36.0436 78.1354C40.5919 79.38 44.6435 81.9927 47.6451 85.6168C45.8763 83.1074 43.6178 80.9788 41.0046 79.3584C38.3914 77.738 35.4771 76.6589 32.4358 76.1856C29.3945 75.7123 26.2886 75.8545 23.3037 76.6037C20.3188 77.3529 17.5161 78.6937 15.0632 80.5461C12.6102 82.3985 10.5573 84.7244 9.02706 87.3848C7.49684 90.0452 6.52072 92.9856 6.15702 96.0303C5.79331 99.0749 6.0495 102.161 6.91025 105.105C7.77101 108.049 9.21869 110.79 11.1668 113.164C8.49153 109.341 7.06128 104.792 7.07 100.132Z" fill="#434444"/>
<path d="M53.3125 81.4087C57.8158 87.7411 59.6668 95.5713 58.4734 103.24C57.2799 110.908 53.1357 117.813 46.919 122.49C40.7023 127.167 32.9016 129.25 25.1699 128.296C17.4382 127.342 10.383 123.427 5.49951 117.381C7.81934 120.643 10.7732 123.408 14.186 125.511C17.5987 127.615 21.4009 129.015 25.3668 129.627C29.3328 130.239 33.3819 130.052 37.2739 129.076C41.1658 128.101 44.8215 126.357 48.024 123.947C51.2264 121.538 53.9105 118.512 55.9171 115.05C57.9236 111.588 59.2117 107.76 59.7049 103.793C60.1981 99.8253 59.8865 95.7998 58.7884 91.9547C57.6903 88.1097 55.8282 84.5234 53.3125 81.4087Z" fill="#434444"/>
<path d="M35.8824 100.132C35.8824 101.297 35.5356 102.436 34.8858 103.405C34.236 104.373 33.3125 105.128 32.232 105.574C31.1514 106.02 29.9625 106.137 28.8154 105.909C27.6683 105.682 26.6146 105.121 25.7876 104.297C24.9607 103.474 24.3975 102.424 24.1693 101.281C23.9411 100.139 24.0582 98.9545 24.5058 97.8783C24.9534 96.802 25.7113 95.8821 26.6837 95.2349C27.6562 94.5876 28.7995 94.2422 29.969 94.2422C31.5373 94.2422 33.0414 94.8628 34.1504 95.9674C35.2594 97.072 35.8824 98.5702 35.8824 100.132Z" fill="#B6B7B7"/>
<path d="M69.4797 7.25644C69.0067 9.37688 69.054 11.5609 69.3425 13.7002C69.4111 14.2186 69.5128 14.7746 69.8889 15.1398C70.4306 15.6628 71.3578 15.5757 71.9775 15.1398C72.5972 14.7039 72.9828 14.0301 73.3471 13.3728C75.2393 9.94705 77.1316 6.3847 77.5101 2.49485C77.5858 1.715 77.5408 0.796135 76.9022 0.339061C75.5255 -0.648126 73.2359 0.680688 72.311 1.75269C70.9246 3.32563 69.9517 5.21675 69.4797 7.25644Z" fill="#2D2D2D"/>
<path d="M72.5239 5.95156C72.9828 4.52379 73.7728 2.82979 75.2748 2.75439C74.8018 2.77796 72.9308 9.37491 72.673 10.1171C71.7931 12.6192 70.9258 15.1245 70.0711 17.6329C68.3491 22.696 66.6957 27.7851 65.1819 32.9142C64.4416 35.4234 63.9661 38.1329 63.0531 40.5761C62.7645 41.3348 62.0147 42.3125 61.3974 41.1039C61.0922 40.5031 61.693 39.5018 61.8894 38.9552C63.7059 33.9038 65.2127 28.7228 66.8566 23.6149C68.7441 17.7263 70.6332 11.8386 72.5239 5.95156Z" fill="#2D2D2D"/>
<path d="M56.0395 58.6987L33.9495 100.603C33.9495 100.603 32.1708 103.476 29.155 102.469C26.4017 101.551 27.2627 97.9199 27.2627 97.9199L49.1208 55.3955L56.0395 58.6987Z" fill="#434444"/>
<path d="M49.1328 55.4003C50.5284 53.1267 66.8729 27.7661 66.8729 27.7661L70.0282 29.1138L56.0396 58.6987L49.1328 55.4003Z" fill="#8B8E8E"/>
<path d="M77.4769 18.4339C82.6807 16.4737 88.4687 16.509 93.9326 17.5504C93.9878 18.5871 94.0414 19.623 94.0934 20.6581C90.0203 20.5968 85.9023 20.5426 81.9261 21.4214C77.95 22.3002 74.0637 24.2181 71.5896 27.4411C69.5885 30.0493 68.4768 33.4986 65.6762 35.2161C64.995 35.6331 64.0205 35.8923 63.4623 35.3269C61.9839 33.8425 67.1285 27.3304 68.1125 25.8013C70.2886 22.4086 73.7113 19.8499 77.4769 18.4339Z" fill="#8B8E8E"/>
<path d="M82.0771 19.3194C82.0793 19.7984 82.2081 20.2684 82.4506 20.682C82.6931 21.0956 83.0407 21.4383 83.4585 21.6755C83.9818 21.9191 84.5407 22.0782 85.1142 22.1467L90.2045 23.0491C91.0915 23.2069 92.0542 23.353 92.8489 22.9313C93.5964 22.5354 94.0198 21.7155 94.2516 20.9051C94.5141 20.0817 94.5444 19.2022 94.3391 18.3629C94.2335 17.9455 94.0344 17.5574 93.7566 17.2276C93.4789 16.8979 93.1297 16.6352 92.7354 16.4592C92.3251 16.3158 91.8951 16.2363 91.4605 16.2236C89.0052 16.0374 82.0771 15.5992 82.0771 19.3194Z" fill="#434444"/>
<path d="M84.1327 22.9949C83.3216 23.2252 82.4659 23.252 81.642 23.0726C81.2317 22.9801 80.8446 22.8054 80.5042 22.5591C80.1639 22.3129 79.8774 22.0002 79.6622 21.6401C79.3781 21.0516 79.2263 20.4083 79.2175 19.7553C79.1537 18.8129 79.1702 17.8068 79.577 16.928C80.315 15.3612 82.1789 14.5932 83.9222 14.6167C84.4803 14.6115 85.0347 14.7065 85.559 14.8971C86.1797 15.1544 86.7212 15.5702 87.1291 16.1026C87.5369 16.635 87.7965 17.2651 87.8818 17.9293C88.1893 20.283 86.3112 22.4365 84.1327 22.9949Z" fill="#434444"/>
<path d="M113.087 58.0604C113.796 56.5361 115.301 55.4853 116.909 54.9764C118.518 54.4675 120.237 54.4345 121.924 54.4839C127.958 54.6677 133.935 55.8622 139.969 55.8976C144.651 55.9268 149.311 55.263 153.797 53.9279C156.091 53.2447 158.364 52.38 160.753 52.1915C163.142 52.003 165.742 52.6109 167.305 54.4203C169.136 56.5408 168.944 60.0914 166.898 62.0045C165.181 63.6113 162.657 63.9553 160.306 64.1249C152.737 64.7022 119.133 64.966 115.838 64.8105C112.623 64.6715 111.881 60.6309 113.087 58.0604Z" fill="#434444"/>
<path d="M61.48 47.1943L112.486 63.4912L111.942 64.8695L60.7065 48.8318L61.48 47.1943Z" fill="#B6B7B7"/>
<path d="M90.0225 105.704C90.0225 105.704 85.7389 105.704 85.72 101.52C85.701 97.6136 89.5329 97.8563 89.5329 97.8563L89.3981 93.3562C89.3981 93.3562 78.0184 93.1347 78.9906 105.704C79.686 114.723 90.0249 114.723 90.0249 114.723H186.957V105.704H90.0225Z" fill="#B6B7B7"/>
<path d="M92.5155 111.319C92.5155 111.319 82.1766 111.319 81.4812 102.3C81.2731 99.6022 81.6349 97.4936 82.3304 95.8467C80.237 97.6019 78.5931 100.599 78.9881 105.704C79.6835 114.723 90.0224 114.723 90.0224 114.723H186.954V111.319H92.5155Z" fill="#8B8E8E"/>
<path d="M119.272 93.9663H119.253C118.889 93.9663 118.593 94.2606 118.593 94.6236V102.761C118.593 103.125 118.889 103.419 119.253 103.419H119.272C119.637 103.419 119.932 103.125 119.932 102.761V94.6236C119.932 94.2606 119.637 93.9663 119.272 93.9663Z" fill="#7E7F7F"/>
<path d="M122.222 93.9663H122.203C121.838 93.9663 121.543 94.2606 121.543 94.6236V102.761C121.543 103.125 121.838 103.419 122.203 103.419H122.222C122.586 103.419 122.882 103.125 122.882 102.761V94.6236C122.882 94.2606 122.586 93.9663 122.222 93.9663Z" fill="#7E7F7F"/>
<path d="M125.082 93.9663H125.063C124.698 93.9663 124.403 94.2606 124.403 94.6236V102.761C124.403 103.125 124.698 103.419 125.063 103.419H125.082C125.446 103.419 125.742 103.125 125.742 102.761V94.6236C125.742 94.2606 125.446 93.9663 125.082 93.9663Z" fill="#7E7F7F"/>
<path d="M128.242 93.9663H128.223C127.858 93.9663 127.563 94.2606 127.563 94.6236V102.761C127.563 103.125 127.858 103.419 128.223 103.419H128.242C128.606 103.419 128.902 103.125 128.902 102.761V94.6236C128.902 94.2606 128.606 93.9663 128.242 93.9663Z" fill="#7E7F7F"/>
<path d="M131.556 93.9663H131.537C131.172 93.9663 130.877 94.2606 130.877 94.6236V102.761C130.877 103.125 131.172 103.419 131.537 103.419H131.556C131.92 103.419 132.216 103.125 132.216 102.761V94.6236C132.216 94.2606 131.92 93.9663 131.556 93.9663Z" fill="#7E7F7F"/>
<path d="M77.666 77.7499C77.7773 78.1774 78.0387 78.5509 78.4028 78.8029C78.7668 79.0549 79.2095 79.1686 79.6505 79.1235C81.2258 79.18 82.7704 78.7654 84.3126 78.4473C90.3348 77.2127 96.5461 77.4719 102.687 77.168C103.328 77.1373 104.058 77.0525 104.427 76.5295C104.664 76.1902 104.688 75.7449 104.69 75.3279C104.698 74.121 104.632 72.9148 104.491 71.7161C104.416 71.0729 104.144 70.2647 103.496 70.2459C102.798 70.227 102.502 71.153 102.611 71.8409C102.72 72.5289 102.989 73.2852 102.611 73.8719C102.232 74.4585 101.473 74.5363 100.801 74.5787L80.0976 75.8132C79.9151 75.8417 79.7283 75.8189 79.5583 75.7473C79.4675 75.6868 79.3898 75.6086 79.3301 75.5176C79.2704 75.4265 79.2297 75.3243 79.2105 75.2172C79.0402 74.5669 79.2105 73.8719 79.0899 73.2075C78.7848 71.3744 77.271 72.0294 77.1101 73.4784C76.9319 74.9261 77.1231 76.3953 77.666 77.7499Z" fill="#7E7F7F"/>
<path d="M103.129 94.089C103.186 96.1505 103.242 98.2191 103.547 100.259C103.581 100.692 103.719 101.11 103.952 101.478C104.21 101.826 104.699 102.041 105.092 101.859C105.589 101.624 105.653 100.959 105.646 100.41C105.579 95.2458 105.512 90.0798 105.442 84.9122C105.428 83.6705 105.321 82.132 104.136 81.4087C102.604 80.4663 102.795 81.9317 102.828 83.098C102.928 86.7577 103.028 90.4214 103.129 94.089Z" fill="#7E7F7F"/>
<path d="M97.8852 94.8077C97.9419 96.8693 97.9987 98.9379 98.3038 100.978C98.3369 101.411 98.4757 101.829 98.7083 102.196C98.9685 102.545 99.4558 102.759 99.8484 102.578C100.347 102.342 100.411 101.678 100.404 101.129C100.335 95.9646 100.267 90.7985 100.201 85.6309C100.184 84.3893 100.078 82.8508 98.8928 82.1275C97.3601 81.185 97.5517 82.6505 97.5848 83.8167C97.6873 87.4812 97.7874 91.1449 97.8852 94.8077Z" fill="#7E7F7F"/>
<path d="M106.764 83.3008C106.764 83.8018 106.615 84.2914 106.336 84.7079C106.056 85.1245 105.659 85.4491 105.195 85.6408C104.73 85.8325 104.219 85.8826 103.725 85.7849C103.232 85.6872 102.779 85.446 102.423 85.0918C102.068 84.7375 101.826 84.2862 101.728 83.7949C101.629 83.3036 101.68 82.7944 101.872 82.3316C102.065 81.8688 102.391 81.4732 102.809 81.1949C103.227 80.9166 103.719 80.7681 104.221 80.7681C104.896 80.7681 105.543 81.0349 106.019 81.5099C106.496 81.9849 106.764 82.6291 106.764 83.3008Z" fill="#7E7F7F"/>
<path d="M101.525 83.3008C101.525 83.8018 101.376 84.2914 101.096 84.7079C100.817 85.1245 100.42 85.4491 99.9553 85.6408C99.4906 85.8325 98.9794 85.8826 98.4861 85.7849C97.9929 85.6872 97.5398 85.446 97.1842 85.0918C96.8286 84.7375 96.5864 84.2862 96.4883 83.7949C96.3902 83.3036 96.4406 82.7944 96.633 82.3316C96.8255 81.8688 97.1514 81.4732 97.5695 81.1949C97.9877 80.9166 98.4793 80.7681 98.9822 80.7681C99.6566 80.7681 100.303 81.0349 100.78 81.5099C101.257 81.9849 101.525 82.6291 101.525 83.3008Z" fill="#7E7F7F"/>
<path d="M88.5323 91.7306C88.4005 91.7581 88.2801 91.8246 88.1869 91.9215C88.102 92.0572 88.0638 92.2169 88.0781 92.3762C88.0545 94.5391 88.0813 96.7011 88.1586 98.8624C88.1435 99.0614 88.196 99.2598 88.3076 99.4255C88.4215 99.5384 88.5678 99.6134 88.7262 99.6399C89.1711 99.7461 89.6356 99.7388 90.0769 99.6187C90.1563 99.6031 90.2304 99.5674 90.2921 99.515C90.381 99.4058 90.4242 99.2665 90.4127 99.1263C90.5026 96.9682 90.5286 94.8084 90.4908 92.6471C90.4695 91.4408 89.4855 91.455 88.5323 91.7306Z" fill="#8B8E8E"/>
<g opacity="0.32">
<path d="M64.9099 43.3797C63.37 45.2646 62.5445 47.6206 61.9083 49.9602C61.7403 50.5892 61.5818 51.2466 61.7143 51.8851C61.8468 52.5236 62.3506 53.1291 63.0034 53.1621C63.4407 53.1472 63.8591 52.9805 64.1861 52.6908C66.9937 50.5704 67.3391 46.1575 70.2697 44.2091C72.2566 42.8802 74.8703 43.064 77.2286 43.474C78.0777 43.62 79.2557 43.5918 79.4425 42.753C79.6057 42.0203 78.7921 41.469 78.0919 41.1909C73.6167 39.4098 68.2332 39.3202 64.9099 43.3797Z" fill="white"/>
</g>
<g opacity="0.32">
<path d="M81.6611 43.9712C81.6694 44.2419 81.745 44.5063 81.8813 44.7408C82.0175 44.9752 82.2101 45.1722 82.4417 45.3141C82.9075 45.5939 83.4204 45.787 83.9555 45.8843C84.8898 46.1034 85.8336 46.2895 86.7939 46.4356C87.4397 46.5369 88.2794 46.5157 88.523 45.9126C88.7666 45.3094 88.2273 44.7604 87.7211 44.4094C86.7395 43.7356 81.7534 41.2735 81.6611 43.9712Z" fill="white"/>
</g>
<g opacity="0.32">
<path d="M19.9494 64.3202C20.9958 64.1169 22.029 63.851 23.0433 63.5238C28.204 62.0603 33.6211 61.7244 38.9242 62.539C39.353 62.6314 39.7944 62.6513 40.2299 62.5979C40.4473 62.5675 40.6527 62.4798 40.8249 62.344C40.997 62.2082 41.1296 62.0291 41.2091 61.8251C41.2549 61.6141 41.2417 61.3946 41.1708 61.1906C41.0999 60.9866 40.974 60.8059 40.807 60.6683C40.4671 60.3993 40.0657 60.218 39.6385 60.1406C38.4417 59.8602 37.1975 59.8861 35.9675 59.9238C30.513 60.0793 24.4152 60.3149 19.3297 62.5202C17.8537 63.1634 18.4119 64.5558 19.9494 64.3202Z" fill="white"/>
</g>
<g opacity="0.32">
<path d="M12.8864 66.0828C12.7308 66.2471 12.6115 66.4422 12.5363 66.6553C12.5006 66.7624 12.4934 66.8768 12.5154 66.9875C12.5373 67.0981 12.5877 67.2012 12.6616 67.2867C12.7503 67.3654 12.8582 67.4194 12.9744 67.4434C13.0907 67.4674 13.2112 67.4605 13.3239 67.4234C13.5516 67.3485 13.765 67.2362 13.9555 67.0912C14.6966 66.5933 15.4774 66.1568 16.2901 65.7859C16.4975 65.706 16.6914 65.5947 16.8649 65.4561C16.9494 65.385 17.0152 65.2944 17.0565 65.1921C17.0977 65.0898 17.1131 64.979 17.1014 64.8694C17.0697 64.7434 17.001 64.6297 16.9041 64.5428C16.8072 64.4559 16.6865 64.3998 16.5574 64.3817C16.2972 64.3498 16.0332 64.3789 15.7863 64.4665C14.7006 64.7728 13.6267 65.2205 12.8864 66.0828Z" fill="white"/>
</g>
<g opacity="0.32">
<path d="M112.529 70.0668C112.115 71.0915 111.876 72.1775 111.819 73.2805C111.677 74.9077 111.692 76.5447 111.862 78.1693C111.949 79.0198 112.099 79.8915 112.548 80.6149C112.997 81.3382 113.854 81.88 114.7 81.7387C115.864 81.5431 116.479 80.2261 116.593 79.0528C116.706 77.8088 116.474 76.5601 116.434 75.309C116.394 74.058 116.576 72.7174 117.38 71.7749C118.615 70.3071 120.794 70.2152 122.695 69.9349C123.625 69.8006 124.699 69.4636 124.973 68.5636C125.193 67.8568 124.772 67.0793 124.157 66.6788C122.388 65.5008 119.582 66.2453 117.622 66.5021C115.45 66.7613 113.43 68.0571 112.529 70.0668Z" fill="white"/>
</g>
<g opacity="0.56">
<path d="M176.258 108.993C176.769 108.963 177.313 108.923 177.725 108.696C178.137 108.47 178.326 107.99 177.961 107.714C177.723 107.571 177.452 107.49 177.174 107.478C174.137 107.125 171.024 107.266 167.949 107.37C158.235 107.7 148.501 107.641 138.806 107.196C133.779 106.96 128.344 106.409 123.336 107.094C122.546 107.203 119.604 107.756 119.942 108.68C120.28 109.603 125.491 109.033 126.499 109.024C137.11 108.918 147.706 109.34 158.315 109.396C164.311 109.436 170.305 109.351 176.258 108.993Z" fill="white"/>
</g>
<g opacity="0.32">
<path d="M174.07 62.6098C174.78 62.8737 175.568 62.9161 176.329 62.9868C182.816 63.6066 188.879 66.474 193.461 71.0893C194.554 72.199 195.59 73.4241 196.964 74.1521C197.239 74.2958 197.598 74.4136 197.842 74.2204C197.974 74.0961 198.058 73.9292 198.079 73.7492C198.445 71.8644 197.054 70.1115 195.661 68.7827C192.667 65.9432 189.227 63.6113 185.476 61.8794C183.568 60.9976 181.59 60.2734 179.563 59.7142C177.907 59.2619 175.596 58.409 173.886 58.8566C171.705 59.415 172.197 61.9266 174.07 62.6098Z" fill="white"/>
</g>
<g opacity="0.32">
<path d="M198.35 76.5715C198.308 77.0961 198.458 77.6183 198.771 78.0417C199.06 78.4752 199.424 78.8546 199.717 79.2881C200.709 80.7606 200.718 82.6502 201.047 84.3913C201.102 84.8471 201.274 85.2812 201.546 85.6518C201.842 85.9981 202.364 86.196 202.771 85.9863C203.244 85.7507 203.346 85.0957 203.351 84.5539C203.359 83.4027 203.264 82.253 203.067 81.1187C202.898 79.944 202.512 78.8105 201.929 77.7755C201.413 76.9273 198.705 74.2155 198.35 76.5715Z" fill="white"/>
</g>
</g>
<defs>
<clipPath id="clip0_5497_40599">
<rect width="206" height="130" fill="white"/>
</clipPath>
</defs>
</svg>
