<svg width="308" height="92" viewBox="0 0 308 92" fill="none" xmlns="http://www.w3.org/2000/svg">
<g clip-path="url(#clip0_5497_40540)">
<path d="M4.54217 80.4763L2.36865 52.731C2.36865 52.731 14.9744 40.4099 35.41 34.2493C55.8456 28.0888 111.058 21.9282 111.058 21.9282C111.058 21.9282 148.881 2.52889 162.358 1.20923C175.834 -0.110427 201.92 -2.75623 240.614 9.13367C279.309 21.0236 289.741 21.0236 289.741 21.0236L301.044 19.2629L302.35 29.3922C302.35 29.3922 308 32.9135 308 41.2821C308 49.6508 304.959 73.8683 304.959 73.8683L285.829 77.3928C285.829 77.3928 239.311 81.5333 174.967 82.6811C51.06 84.8795 4.54217 80.4763 4.54217 80.4763Z" fill="#2B2A25"/>
<path d="M302.35 29.3922L301.044 19.2629L289.741 21.0235C289.741 21.0235 279.306 21.0235 240.614 9.13362C201.923 -2.75628 175.834 -0.113717 162.358 1.20918C148.881 2.53209 111.058 21.9055 111.058 21.9055C111.058 21.9055 55.8424 28.066 35.41 34.2266C14.9776 40.3872 2.36865 52.7083 2.36865 52.7083L4.54218 80.4536C4.54218 80.4536 11.5237 81.1021 27.2697 81.7959C23.2128 76.8016 20.996 70.5341 20.9988 64.0665C20.9988 48.4608 33.6847 35.8089 49.3315 35.8089C64.9783 35.8089 77.6641 48.4543 77.6641 64.0665C77.6641 64.1021 77.6641 64.1378 77.6641 64.1735C77.6641 64.2091 77.6641 64.2221 77.6641 64.2448C77.6641 71.4948 75.1801 78.0509 70.9419 82.9956C96.7937 83.3847 131 83.4366 174.941 82.6552C198.68 82.2337 219.993 81.4036 237.439 80.5217C233.99 75.7467 232.135 69.9826 232.141 64.0665C232.141 48.4608 244.824 35.8089 260.474 35.8089C276.124 35.8089 288.803 48.4543 288.803 64.0665V64.2448C288.827 68.7972 287.798 73.2921 285.801 77.37L304.93 73.8456C304.93 73.8456 307.971 49.628 307.971 41.2594C307.971 32.8907 302.35 29.3922 302.35 29.3922Z" fill="#0D99FF"/>
<path d="M286.749 69.2924C289.298 54.888 279.836 41.1184 265.615 38.537C251.394 35.9556 237.8 45.5401 235.252 59.9444C232.703 74.3488 242.165 88.1185 256.386 90.6999C270.607 93.2813 284.201 83.6968 286.749 69.2924Z" fill="#464646"/>
<path d="M270.849 40.2314C278.451 44.8681 285.161 52.5137 285.522 62.1533C286.015 75.3499 280.183 90.3169 258.147 89.7138C254.516 89.5823 250.933 88.8371 247.545 87.509C251.479 89.9051 257.177 91.0497 262.103 91.0497C276.55 91.0497 287.168 79.4224 287.168 64.7862C287.167 59.5134 285.614 54.3606 282.707 49.9866C279.8 45.6125 275.671 42.2161 270.849 40.2314Z" fill="#424038"/>
<path d="M261.008 80.7812C269.82 80.7812 276.962 73.5461 276.962 64.6211C276.962 55.6961 269.82 48.4609 261.008 48.4609C252.197 48.4609 245.054 55.6961 245.054 64.6211C245.054 73.5461 252.197 80.7812 261.008 80.7812Z" fill="#B7B29E"/>
<path d="M275.265 68.0268C277.125 60.0463 272.245 52.0499 264.366 50.1664C256.488 48.2828 248.593 53.2253 246.734 61.2058C244.874 69.1863 249.754 77.1827 257.632 79.0663C265.511 80.9498 273.406 76.0073 275.265 68.0268Z" fill="#FAFAFA"/>
<path d="M261.008 75.1459C266.747 75.1459 271.399 70.4338 271.399 64.621C271.399 58.8083 266.747 54.0962 261.008 54.0962C255.27 54.0962 250.618 58.8083 250.618 64.621C250.618 70.4338 255.27 75.1459 261.008 75.1459Z" fill="#E0E0E0"/>
<path d="M262.513 71.6179C262.513 71.8182 262.474 72.0165 262.399 72.2016C262.324 72.3867 262.213 72.5549 262.073 72.6965C261.933 72.8381 261.767 72.9503 261.584 73.0267C261.402 73.1032 261.206 73.1423 261.008 73.1419C260.811 73.1419 260.615 73.1024 260.433 73.0258C260.251 72.9492 260.085 72.8369 259.945 72.6953C259.806 72.5538 259.695 72.3857 259.62 72.2009C259.545 72.016 259.506 71.8179 259.507 71.6179V57.6237C259.507 57.424 259.546 57.2263 259.621 57.0418C259.697 56.8573 259.807 56.6896 259.947 56.5484C260.086 56.4072 260.251 56.2952 260.434 56.2188C260.616 56.1424 260.811 56.103 261.008 56.103C261.206 56.1026 261.401 56.1416 261.584 56.2179C261.766 56.2941 261.932 56.406 262.072 56.5473C262.212 56.6885 262.322 56.8563 262.398 57.041C262.474 57.2257 262.513 57.4237 262.513 57.6237V71.6179Z" fill="#A4A4A4"/>
<path d="M267.929 62.9478C268.327 62.9478 268.709 63.108 268.991 63.3932C269.272 63.6783 269.43 64.0651 269.43 64.4684C269.43 64.8721 269.272 65.2592 268.991 65.5449C268.709 65.8306 268.327 65.9915 267.929 65.9924H254.1C253.702 65.9915 253.32 65.8306 253.039 65.5449C252.757 65.2592 252.599 64.8721 252.599 64.4684C252.599 64.0651 252.757 63.6783 253.039 63.3932C253.32 63.108 253.702 62.9478 254.1 62.9478H267.929Z" fill="#A4A4A4"/>
<path d="M267.01 68.5476C267.292 68.8333 267.45 69.2205 267.45 69.6241C267.45 70.0277 267.292 70.4149 267.01 70.7006C266.728 70.9857 266.346 71.1458 265.948 71.1458C265.549 71.1458 265.167 70.9857 264.885 70.7006L255.125 60.8015C254.844 60.5164 254.686 60.1297 254.686 59.7266C254.686 59.3235 254.844 58.9369 255.125 58.6518C255.407 58.3667 255.789 58.2065 256.188 58.2065C256.586 58.2065 256.968 58.3667 257.25 58.6518L267.01 68.5476Z" fill="#A4A4A4"/>
<path d="M264.779 58.5449C265.061 58.2597 265.443 58.0996 265.842 58.0996C266.24 58.0996 266.622 58.2597 266.905 58.5449C267.186 58.83 267.344 59.2166 267.344 59.6197C267.344 60.0228 267.186 60.4094 266.905 60.6946L257.132 70.5936C256.85 70.8786 256.469 71.0386 256.071 71.0386C255.673 71.0386 255.291 70.8786 255.009 70.5936C254.728 70.3079 254.57 69.9208 254.57 69.5172C254.57 69.1135 254.728 68.7264 255.009 68.4407L264.779 58.5449Z" fill="#A4A4A4"/>
<path d="M267.017 64.6208C267.017 65.8247 266.666 67.0017 266.006 68.0029C265.346 69.0042 264.408 69.7847 263.31 70.2459C262.212 70.707 261.004 70.828 259.838 70.5935C258.672 70.3591 257.602 69.7797 256.761 68.9287C255.92 68.0777 255.348 66.9932 255.116 65.8126C254.884 64.6319 255.002 63.4081 255.457 62.2958C255.912 61.1836 256.682 60.2329 257.67 59.564C258.658 58.8951 259.82 58.5381 261.008 58.5381C262.601 58.5381 264.129 59.1788 265.256 60.3195C266.383 61.4601 267.016 63.0073 267.017 64.6208Z" fill="#A4A4A4"/>
<path opacity="0.4" d="M237.324 63.3206L239.564 61.5664C239.564 61.5664 239.811 53.2983 247.849 47.1604C255.192 41.5543 264.174 42.5238 264.174 42.5238L265.038 40.7696C265.038 40.7696 253.783 39.3916 245.992 45.7824C236.597 53.4766 237.324 63.3206 237.324 63.3206Z" fill="#969283"/>
<path d="M261.011 58.1525C261.404 58.1525 261.722 57.8302 261.722 57.4327C261.722 57.0352 261.404 56.7129 261.011 56.7129C260.619 56.7129 260.301 57.0352 260.301 57.4327C260.301 57.8302 260.619 58.1525 261.011 58.1525Z" fill="#B7B29E"/>
<path d="M266.668 59.4361C266.668 59.5785 266.626 59.7177 266.548 59.836C266.47 59.9544 266.359 60.0467 266.229 60.1011C266.099 60.1556 265.956 60.1699 265.819 60.1421C265.681 60.1143 265.554 60.0458 265.455 59.9451C265.355 59.8444 265.288 59.7162 265.26 59.5766C265.233 59.4369 265.247 59.2922 265.301 59.1607C265.354 59.0291 265.446 58.9167 265.562 58.8376C265.679 58.7585 265.817 58.7163 265.957 58.7163C266.146 58.7163 266.326 58.7921 266.46 58.9271C266.593 59.0621 266.668 59.2452 266.668 59.4361Z" fill="#B7B29E"/>
<path d="M269.017 64.5235C269.017 64.6659 268.976 64.8051 268.898 64.9234C268.82 65.0418 268.709 65.1341 268.579 65.1885C268.449 65.243 268.306 65.2573 268.168 65.2295C268.03 65.2017 267.904 65.1332 267.804 65.0325C267.705 64.9318 267.637 64.8036 267.61 64.664C267.582 64.5243 267.596 64.3796 267.65 64.2481C267.704 64.1165 267.795 64.0041 267.912 63.925C268.029 63.8459 268.166 63.8037 268.307 63.8037C268.495 63.8037 268.676 63.8795 268.809 64.0145C268.943 64.1495 269.017 64.3326 269.017 64.5235Z" fill="#B7B29E"/>
<path d="M266.917 69.961C266.918 70.1042 266.877 70.2443 266.799 70.3636C266.721 70.4829 266.609 70.5761 266.479 70.6314C266.349 70.6866 266.205 70.7014 266.066 70.6738C265.928 70.6463 265.8 70.5777 265.7 70.4767C265.6 70.3757 265.531 70.2469 265.504 70.1065C265.476 69.9662 265.49 69.8206 265.544 69.6883C265.598 69.556 265.689 69.4429 265.807 69.3633C265.924 69.2837 266.062 69.2412 266.204 69.2412C266.297 69.2408 266.39 69.2591 266.477 69.2951C266.563 69.3311 266.642 69.384 266.708 69.4509C266.774 69.5178 266.827 69.5973 266.863 69.6848C266.899 69.7724 266.917 69.8662 266.917 69.961Z" fill="#B7B29E"/>
<path d="M261.658 71.8419C261.658 71.9843 261.616 72.1234 261.538 72.2418C261.46 72.3602 261.349 72.4524 261.219 72.5069C261.09 72.5614 260.947 72.5756 260.809 72.5479C260.671 72.5201 260.544 72.4515 260.445 72.3509C260.346 72.2502 260.278 72.1219 260.25 71.9823C260.223 71.8427 260.237 71.698 260.291 71.5664C260.345 71.4349 260.436 71.3225 260.553 71.2434C260.67 71.1643 260.807 71.1221 260.947 71.1221C261.136 71.1221 261.317 71.1979 261.45 71.3329C261.583 71.4679 261.658 71.651 261.658 71.8419Z" fill="#B7B29E"/>
<path d="M256.725 69.6498C256.725 69.792 256.683 69.9309 256.604 70.0488C256.526 70.1668 256.414 70.2585 256.285 70.3125C256.155 70.3665 256.012 70.3803 255.874 70.3522C255.737 70.324 255.61 70.2552 255.511 70.1544C255.412 70.0536 255.345 69.9254 255.318 69.7858C255.29 69.6463 255.305 69.5017 255.359 69.3704C255.412 69.239 255.504 69.1268 255.62 69.0478C255.737 68.9689 255.874 68.9268 256.015 68.9268C256.204 68.9276 256.384 69.0042 256.518 69.1397C256.651 69.2752 256.725 69.4586 256.725 69.6498Z" fill="#B7B29E"/>
<path d="M254.734 64.5756C254.734 64.7188 254.692 64.8587 254.614 64.9776C254.535 65.0966 254.424 65.1893 254.293 65.2439C254.162 65.2986 254.019 65.3127 253.88 65.2845C253.741 65.2564 253.614 65.1872 253.515 65.0857C253.415 64.9843 253.347 64.8551 253.32 64.7147C253.293 64.5742 253.307 64.4287 253.362 64.2967C253.416 64.1646 253.508 64.0519 253.626 63.9728C253.744 63.8938 253.882 63.8519 254.024 63.8525C254.212 63.8534 254.393 63.93 254.526 64.0655C254.66 64.201 254.734 64.3844 254.734 64.5756Z" fill="#B7B29E"/>
<path d="M256.725 59.4361C256.725 59.5785 256.684 59.7177 256.606 59.836C256.528 59.9544 256.417 60.0467 256.287 60.1011C256.157 60.1556 256.014 60.1699 255.876 60.1421C255.738 60.1143 255.612 60.0458 255.512 59.9451C255.413 59.8444 255.345 59.7162 255.318 59.5766C255.29 59.4369 255.305 59.2922 255.358 59.1607C255.412 59.0291 255.503 58.9167 255.62 58.8376C255.737 58.7585 255.874 58.7163 256.015 58.7163C256.203 58.7172 256.383 58.7933 256.516 58.9281C256.649 59.0629 256.725 59.2455 256.725 59.4361Z" fill="#B7B29E"/>
<path d="M261.009 67.9606C262.829 67.9606 264.306 66.4654 264.306 64.6209C264.306 62.7765 262.829 61.2812 261.009 61.2812C259.188 61.2812 257.711 62.7765 257.711 64.6209C257.711 66.4654 259.188 67.9606 261.009 67.9606Z" fill="#B7B29E"/>
<path d="M75.4356 66.2066C75.8163 51.5778 64.4172 39.4062 49.975 39.0206C35.5327 38.635 23.5163 50.1813 23.1356 64.8101C22.7549 79.4389 34.154 91.6105 48.5963 91.9961C63.0386 92.3817 75.0549 80.8354 75.4356 66.2066Z" fill="#464646"/>
<path d="M59.1206 41.1133C66.7264 45.7467 73.4326 53.3955 73.7943 63.0319C74.2905 76.2285 68.4581 91.1955 46.4188 90.5924C42.7879 90.4611 39.2044 89.7147 35.8169 88.3843C39.751 90.7837 45.4521 91.9282 50.3785 91.9282C64.8249 91.9282 75.4429 80.301 75.4429 65.6648C75.4419 60.3921 73.8883 55.2395 70.9807 50.866C68.0731 46.4925 63.9437 43.0968 59.1206 41.1133Z" fill="#424038"/>
<path d="M49.2837 81.6631C58.0949 81.6631 65.2378 74.4279 65.2378 65.5029C65.2378 56.5779 58.0949 49.3428 49.2837 49.3428C40.4725 49.3428 33.3296 56.5779 33.3296 65.5029C33.3296 74.4279 40.4725 81.6631 49.2837 81.6631Z" fill="#B7B29E"/>
<path d="M59.6498 76.0023C65.374 70.2042 65.374 60.8036 59.6498 55.0055C53.9256 49.2074 44.6449 49.2074 38.9207 55.0055C33.1965 60.8036 33.1965 70.2042 38.9207 76.0023C44.6449 81.8004 53.9256 81.8004 59.6498 76.0023Z" fill="#FAFAFA"/>
<path d="M53.2599 75.2278C58.5617 73.0034 61.0793 66.8467 58.8833 61.4764C56.6872 56.1062 50.609 53.556 45.3072 55.7804C40.0055 58.0048 37.4878 64.1616 39.6839 69.5318C41.8799 74.902 47.9581 77.4522 53.2599 75.2278Z" fill="#E0E0E0"/>
<path d="M50.7848 72.5001C50.7848 72.9034 50.6267 73.2902 50.3451 73.5754C50.0636 73.8606 49.6817 74.0208 49.2835 74.0208C48.8854 74.0208 48.5035 73.8606 48.222 73.5754C47.9404 73.2902 47.7822 72.9034 47.7822 72.5001V58.5059C47.7818 58.3059 47.8203 58.1078 47.8956 57.9229C47.9708 57.7381 48.0814 57.57 48.2208 57.4285C48.3603 57.2869 48.5259 57.1746 48.7083 57.098C48.8906 57.0214 49.0861 56.9819 49.2835 56.9819C49.481 56.9819 49.6764 57.0214 49.8588 57.098C50.0411 57.1746 50.2068 57.2869 50.3462 57.4285C50.4857 57.57 50.5962 57.7381 50.6715 57.9229C50.7467 58.1078 50.7852 58.3059 50.7848 58.5059V72.5001Z" fill="#A4A4A4"/>
<path d="M56.1916 63.8296C56.5901 63.8296 56.9723 63.9897 57.2543 64.2748C57.5364 64.5599 57.6953 64.9467 57.6961 65.3503C57.6953 65.7539 57.5364 66.1407 57.2543 66.4258C56.9723 66.7109 56.5901 66.871 56.1916 66.871H42.3758C41.9776 66.871 41.5958 66.7108 41.3142 66.4256C41.0327 66.1404 40.8745 65.7536 40.8745 65.3503C40.8745 64.947 41.0327 64.5602 41.3142 64.275C41.5958 63.9898 41.9776 63.8296 42.3758 63.8296H56.1916Z" fill="#A4A4A4"/>
<path d="M55.2856 69.4294C55.5669 69.7146 55.7249 70.1012 55.7249 70.5043C55.7249 70.9074 55.5669 71.294 55.2856 71.5791C55.1464 71.7211 54.9808 71.8338 54.7984 71.9106C54.616 71.9875 54.4204 72.0271 54.2229 72.0271C54.0253 72.0271 53.8297 71.9875 53.6473 71.9106C53.4649 71.8338 53.2994 71.7211 53.1601 71.5791L43.3905 61.6833C43.1092 61.3982 42.9512 61.0116 42.9512 60.6085C42.9512 60.2054 43.1092 59.8188 43.3905 59.5336C43.5294 59.3918 43.6947 59.2792 43.8769 59.2023C44.059 59.1255 44.2543 59.0859 44.4516 59.0859C44.6489 59.0859 44.8442 59.1255 45.0264 59.2023C45.2085 59.2792 45.3738 59.3918 45.5128 59.5336L55.2856 69.4294Z" fill="#A4A4A4"/>
<path d="M53.0544 59.4235C53.3359 59.1386 53.7176 58.9785 54.1155 58.9785C54.5135 58.9785 54.8952 59.1386 55.1767 59.4235C55.3168 59.5645 55.4281 59.7322 55.504 59.917C55.5798 60.1017 55.6189 60.2999 55.6189 60.5C55.6189 60.7001 55.5798 60.8982 55.504 61.0829C55.4281 61.2677 55.3168 61.4354 55.1767 61.5764L45.407 71.4723C45.1255 71.7572 44.7439 71.9172 44.3459 71.9172C43.9479 71.9172 43.5663 71.7572 43.2847 71.4723C43.1447 71.3315 43.0335 71.1641 42.9577 70.9796C42.8818 70.7951 42.8428 70.5972 42.8428 70.3974C42.8428 70.1976 42.8818 69.9997 42.9577 69.8152C43.0335 69.6307 43.1447 69.4633 43.2847 69.3225L53.0544 59.4235Z" fill="#A4A4A4"/>
<path d="M55.2922 65.4965C55.2935 66.701 54.9418 67.8789 54.2818 68.8808C53.6218 69.8828 52.6831 70.6638 51.5846 71.1251C50.4861 71.5863 49.2771 71.707 48.1108 71.4719C46.9445 71.2367 45.8734 70.6563 45.0329 69.8041C44.1925 68.952 43.6207 67.8663 43.3898 66.6847C43.1588 65.5031 43.2793 64.2787 43.7358 63.1665C44.1924 62.0543 44.9645 61.1043 45.9544 60.4368C46.9443 59.7694 48.1074 59.4144 49.2966 59.417C50.8868 59.4204 52.4108 60.0623 53.5346 61.2018C54.6585 62.3414 55.2905 63.8858 55.2922 65.4965Z" fill="#A4A4A4"/>
<path opacity="0.4" d="M25.6087 64.1996L27.8494 62.4454C27.8494 62.4454 28.0991 54.1773 36.137 48.0362C43.4802 42.4333 52.4624 43.4028 52.4624 43.4028L53.3267 41.6486C53.3267 41.6486 42.0718 40.2706 34.2804 46.6582C24.8725 54.3589 25.6087 64.1996 25.6087 64.1996Z" fill="#969283"/>
<path d="M49.994 58.3145C49.994 58.4569 49.9523 58.5961 49.8743 58.7145C49.7962 58.8328 49.6852 58.9251 49.5553 58.9796C49.4255 59.034 49.2826 59.0483 49.1448 59.0205C49.0069 58.9928 48.8803 58.9242 48.7809 58.8235C48.6815 58.7229 48.6138 58.5946 48.5864 58.455C48.559 58.3153 48.5731 58.1706 48.6268 58.0391C48.6806 57.9076 48.7717 57.7951 48.8886 57.716C49.0054 57.6369 49.1428 57.5947 49.2834 57.5947C49.3768 57.5943 49.4694 57.6126 49.5558 57.6487C49.6423 57.6847 49.7208 57.7377 49.7868 57.8046C49.8529 57.8715 49.9052 57.9511 49.9408 58.0386C49.9764 58.1261 49.9944 58.2199 49.994 58.3145Z" fill="#B7B29E"/>
<path d="M54.9432 60.3087C54.9432 60.4511 54.9016 60.5902 54.8235 60.7086C54.7454 60.827 54.6344 60.9192 54.5046 60.9737C54.3747 61.0282 54.2318 61.0424 54.094 61.0147C53.9561 60.9869 53.8295 60.9183 53.7301 60.8177C53.6307 60.717 53.563 60.5887 53.5356 60.4491C53.5082 60.3095 53.5223 60.1648 53.5761 60.0332C53.6299 59.9017 53.7209 59.7893 53.8378 59.7102C53.9547 59.6311 54.0921 59.5889 54.2326 59.5889C54.326 59.5884 54.4186 59.6068 54.5051 59.6428C54.5915 59.6788 54.67 59.7318 54.736 59.7987C54.8021 59.8657 54.8545 59.9452 54.89 60.0327C54.9256 60.1202 54.9437 60.214 54.9432 60.3087Z" fill="#B7B29E"/>
<path d="M56.5822 66.1125C56.9747 66.1125 57.2929 65.7902 57.2929 65.3927C57.2929 64.9951 56.9747 64.6729 56.5822 64.6729C56.1897 64.6729 55.8716 64.9951 55.8716 65.3927C55.8716 65.7902 56.1897 66.1125 56.5822 66.1125Z" fill="#B7B29E"/>
<path d="M55.1893 70.8433C55.1893 70.9857 55.1477 71.1249 55.0696 71.2433C54.9915 71.3616 54.8805 71.4539 54.7507 71.5084C54.6208 71.5629 54.4779 71.5771 54.3401 71.5493C54.2022 71.5216 54.0756 71.453 53.9762 71.3523C53.8768 71.2517 53.8091 71.1234 53.7817 70.9838C53.7543 70.8441 53.7684 70.6994 53.8222 70.5679C53.8759 70.4364 53.967 70.3239 54.0839 70.2448C54.2008 70.1657 54.3382 70.1235 54.4787 70.1235C54.6672 70.1235 54.8479 70.1994 54.9812 70.3344C55.1145 70.4694 55.1893 70.6524 55.1893 70.8433Z" fill="#B7B29E"/>
<path d="M49.9364 72.7203C49.9364 72.8627 49.8947 73.0018 49.8166 73.1202C49.7386 73.2386 49.6276 73.3308 49.4977 73.3853C49.3679 73.4398 49.225 73.4541 49.0871 73.4263C48.9493 73.3985 48.8227 73.33 48.7233 73.2293C48.6239 73.1286 48.5562 73.0004 48.5288 72.8607C48.5014 72.7211 48.5154 72.5764 48.5692 72.4448C48.623 72.3133 48.7141 72.2009 48.831 72.1218C48.9478 72.0427 49.0852 72.0005 49.2258 72.0005C49.4142 72.0005 49.595 72.0763 49.7283 72.2113C49.8615 72.3463 49.9364 72.5294 49.9364 72.7203Z" fill="#B7B29E"/>
<path d="M44.9877 70.5284C44.9884 70.6716 44.947 70.8117 44.869 70.931C44.7909 71.0503 44.6797 71.1435 44.5493 71.1987C44.4189 71.254 44.2753 71.2687 44.1366 71.2412C43.9979 71.2137 43.8704 71.1451 43.7703 71.0441C43.6701 70.9431 43.6018 70.8143 43.574 70.6739C43.5462 70.5336 43.5602 70.388 43.6141 70.2557C43.668 70.1234 43.7595 70.0103 43.877 69.9307C43.9944 69.8511 44.1326 69.8086 44.2739 69.8086C44.3675 69.8082 44.4602 69.8265 44.5468 69.8625C44.6334 69.8984 44.7121 69.9514 44.7785 70.0183C44.8448 70.0852 44.8974 70.1647 44.9333 70.2522C44.9692 70.3397 44.9877 70.4336 44.9877 70.5284Z" fill="#B7B29E"/>
<path d="M43.0062 65.4542C43.0062 65.5966 42.9646 65.7357 42.8865 65.8541C42.8084 65.9725 42.6974 66.0647 42.5675 66.1192C42.4377 66.1737 42.2948 66.188 42.157 66.1602C42.0191 66.1324 41.8925 66.0639 41.7931 65.9632C41.6937 65.8625 41.626 65.7343 41.5986 65.5946C41.5712 65.455 41.5853 65.3103 41.6391 65.1787C41.6928 65.0472 41.7839 64.9348 41.9008 64.8557C42.0177 64.7766 42.155 64.7344 42.2956 64.7344C42.389 64.734 42.4816 64.7523 42.568 64.7883C42.6545 64.8243 42.733 64.8773 42.799 64.9443C42.8651 65.0112 42.9174 65.0907 42.953 65.1782C42.9886 65.2658 43.0067 65.3595 43.0062 65.4542Z" fill="#B7B29E"/>
<path d="M44.9877 60.3087C44.9884 60.4518 44.947 60.5919 44.869 60.7113C44.7909 60.8306 44.6797 60.9238 44.5493 60.979C44.4189 61.0342 44.2753 61.049 44.1366 61.0215C43.9979 60.994 43.8704 60.9253 43.7703 60.8244C43.6701 60.7234 43.6018 60.5945 43.574 60.4542C43.5462 60.3138 43.5602 60.1683 43.6141 60.036C43.668 59.9037 43.7595 59.7906 43.877 59.711C43.9944 59.6314 44.1326 59.5889 44.2739 59.5889C44.3675 59.5884 44.4602 59.6068 44.5468 59.6427C44.6334 59.6787 44.7121 59.7317 44.7785 59.7986C44.8448 59.8654 44.8974 59.9449 44.9333 60.0325C44.9692 60.12 44.9877 60.2139 44.9877 60.3087Z" fill="#B7B29E"/>
<path d="M52.5407 66.0408C52.8325 64.2201 51.6119 62.5047 49.8145 62.2091C48.0171 61.9136 46.3235 63.1499 46.0317 64.9706C45.7399 66.7912 46.9605 68.5067 48.7579 68.8022C50.5553 69.0977 52.2489 67.8614 52.5407 66.0408Z" fill="#B7B29E"/>
<path d="M111.522 21.724C111.522 21.724 121.605 26.1272 128.212 26.3023C134.819 26.4774 208.002 23.9937 213.217 22.2428C218.431 20.4919 229.731 12.3826 229.731 12.3826C229.731 12.3826 216.171 6.39389 194.791 4.63327C173.411 2.87264 154.807 2.52246 154.807 2.52246C154.807 2.52246 144.899 4.63327 135.338 9.56497C125.776 14.4967 111.522 21.724 111.522 21.724Z" fill="#2B2A25"/>
<path d="M113.1 20.9522C113.1 20.9522 122.252 24.5675 128.465 24.7264C134.678 24.8852 203.421 22.6642 208.322 21.0754C213.223 19.4866 223.838 12.1912 223.838 12.1912C223.838 12.1912 211.097 6.80883 191.011 5.20708C170.924 3.60533 152.774 3.03467 152.774 3.03467C146.506 4.44299 140.439 6.65142 134.72 9.60702C124.71 14.7462 113.1 20.9522 113.1 20.9522Z" fill="#97C1BF"/>
<path opacity="0.4" d="M156.865 3.19043L121.448 23.6111L127.287 24.7362L164.877 3.55358L156.865 3.19043Z" fill="white"/>
<path opacity="0.4" d="M138.497 24.564L171.263 3.88721L172.992 3.98772L145.162 24.3792L138.497 24.564Z" fill="white"/>
<path d="M69.9722 31.1526L94.3195 48.7686C94.3195 48.7686 108.231 41.7229 151.705 36.8787C178.722 33.8697 265.612 27.6314 265.612 27.6314L249.091 21.9053C249.091 21.9053 121.272 31.1526 119.97 31.1526H69.9722Z" fill="#38BBF4"/>
<path d="M230.396 38.6395C229.334 39.5214 222.138 52.29 212.573 58.0161C203.008 63.7422 135.619 71.6569 135.619 71.6569L130.405 75.6223L225.179 70.7782C225.179 70.7782 224.747 60.208 230.396 50.5196C236.046 40.8313 248.223 34.2266 248.223 34.2266H240.832C237.018 34.6923 233.405 36.2198 230.396 38.6395Z" fill="#38BBF4"/>
<path d="M19.7954 53.2856C19.1136 50.776 2.38159 52.7603 2.38159 52.7603C2.38159 52.7603 0 53.3699 0 59.9131C0 64.1574 3.47956 68.7389 3.47956 68.7389L11.431 68.152C11.431 68.152 20.4868 55.7952 19.7954 53.2856Z" fill="#97C1BF"/>
<path d="M3.69092 54.177C3.69092 54.177 1.63264 57.3156 1.39256 58.8428C1.15248 60.37 2.03277 65.5708 2.03277 65.5708L4.27352 65.3211C4.27352 65.3211 3.37082 60.7072 4.16468 58.9757C5.59556 55.8468 10.2851 53.3696 10.2851 53.3696L3.69092 54.177Z" fill="white"/>
<path d="M4.5424 80.5183C4.5424 80.5183 11.5271 81.1668 27.286 81.8607C24.5741 78.5155 22.6653 74.5787 21.7097 70.3599H3.74854L4.5424 80.5183Z" fill="#3F343A"/>
<path d="M70.9678 83.0604C96.8228 83.4495 131.026 83.5013 174.967 82.7199C198.709 82.2984 220.022 81.4683 237.468 80.5864C235.266 77.5283 233.7 74.0492 232.865 70.3599H77.0722C76.1498 75.0547 74.0472 79.4292 70.9678 83.0604Z" fill="#3F343A"/>
<path d="M288.234 70.3599C287.742 72.8125 286.933 75.1891 285.83 77.4283L304.959 73.9265C304.959 73.9265 305.132 72.5679 305.391 70.3826L288.234 70.3599Z" fill="#3F343A"/>
<path d="M115.619 70.7751C115.45 70.7751 115.328 70.7751 115.258 70.7751C114.822 70.7264 114.422 70.3698 113.996 69.6499C111.349 65.1722 107.802 45.7178 109.397 41.681C111.17 37.1935 164.41 4.3933 166.676 3.00879L167.128 3.76103C151.763 13.2126 111.586 38.5099 110.203 42.0214C108.702 45.828 112.258 64.9939 114.742 69.196C115.142 69.8672 115.354 69.8996 115.354 69.8996C116.516 70.0293 136.33 68.7842 157.515 66.962C195.057 63.739 199.468 61.9752 199.926 61.5115C203.072 58.3275 213.668 37.9457 212.279 32.8746C210.906 27.8651 200.192 23.8153 200.083 23.7764L199.737 23.6467L202.996 6.25119L203.85 6.41656L200.729 23.0825C202.65 23.8445 211.754 27.677 213.117 32.6411C214.609 38.0819 203.834 58.8041 200.54 62.147C199.106 63.5834 184.647 65.4964 157.589 67.8277C138.008 69.5105 118.718 70.7751 115.619 70.7751Z" fill="#2B2A25"/>
<path d="M241.293 17.0582C242.042 18.9388 240.422 21.3706 237.676 22.4957C234.929 23.6208 232.097 23.021 231.347 21.1274C230.598 19.2338 232.218 16.8117 234.958 15.6899C237.698 14.568 240.541 15.1776 241.293 17.0582Z" fill="#2B2A25"/>
<path d="M301.044 19.2627L294.725 28.3414L302.35 29.392L301.044 19.2627Z" fill="#2B2A25"/>
</g>
<defs>
<clipPath id="clip0_5497_40540">
<rect width="308" height="92" fill="white"/>
</clipPath>
</defs>
</svg>
