<svg width="310" height="163" viewBox="0 0 310 163" fill="none" xmlns="http://www.w3.org/2000/svg">
<g clip-path="url(#clip0_5497_40679)">
<path d="M5.36418 120.456C2.40294 120.456 0 122.945 0 126.019C0 129.092 2.40294 131.584 5.36418 131.584V120.456Z" fill="#727272"/>
<path d="M7.87369 131.718C7.87369 132.661 7.25497 133.428 6.49236 133.428H5.79881C5.0362 133.428 4.41748 132.661 4.41748 131.718V120.302C4.41748 119.356 5.0362 118.589 5.79881 118.589H6.49236C7.25497 118.589 7.87369 119.356 7.87369 120.302V131.718Z" fill="#216AB6"/>
<path opacity="0.3" d="M2.87782 123.139C2.30227 122.56 1.80729 123.266 1.56843 123.981C1.23852 124.614 1.16827 125.352 1.37274 126.036C1.81017 127.46 2.52385 127.136 2.79149 125.894C2.91235 125.327 3.35841 123.608 2.87782 123.139Z" fill="white"/>
<path d="M76.2841 133.671H6.95264V97.011L32.3663 64.8081L77.1474 64.9847L76.2841 133.671Z" fill="#0D99FF"/>
<path d="M26.5361 134.589V147.689H6.9672C6.9672 147.689 2.65053 146.931 3.15126 141.139C3.71243 134.589 6.95281 134.589 6.95281 134.589H26.5361Z" fill="#0D99FF"/>
<path d="M23.5173 134.589V146.166H4.44336C5.10099 146.925 5.97874 147.456 6.95278 147.686H26.5361V134.589H23.5173Z" fill="#216AB6"/>
<path d="M299.557 115.553H76.2842V133.672H299.557V115.553Z" fill="#216AB6"/>
<path d="M209.434 155.793C217.268 147.915 217.268 135.141 209.434 127.263C201.601 119.384 188.901 119.384 181.068 127.263C173.235 135.141 173.235 147.915 181.068 155.793C188.901 163.671 201.601 163.671 209.434 155.793Z" fill="#4C4C4C"/>
<path d="M206.599 124.896C210.05 128.491 212.052 133.247 212.216 138.242C212.38 143.237 210.694 148.116 207.486 151.933C204.278 155.749 199.775 158.232 194.851 158.901C189.926 159.569 184.93 158.375 180.831 155.55C182.78 157.575 185.129 159.166 187.728 160.222C190.326 161.277 193.115 161.773 195.915 161.678C198.716 161.583 201.465 160.899 203.987 159.67C206.508 158.441 208.745 156.694 210.555 154.542C212.364 152.39 213.704 149.88 214.49 147.175C215.276 144.47 215.489 141.629 215.116 138.836C214.744 136.043 213.793 133.359 212.326 130.958C210.859 128.557 208.908 126.492 206.599 124.896Z" fill="#3E3E3E"/>
<path d="M202.559 148.355C206.512 144.38 206.512 137.935 202.559 133.959C198.607 129.984 192.198 129.984 188.246 133.959C184.293 137.935 184.293 144.38 188.246 148.355C192.198 152.331 198.607 152.331 202.559 148.355Z" fill="#A4A4A4"/>
<path d="M195.401 151.897C193.289 151.897 191.224 151.267 189.468 150.087C187.712 148.907 186.343 147.229 185.535 145.267C184.726 143.304 184.515 141.144 184.927 139.061C185.339 136.977 186.356 135.063 187.85 133.561C189.343 132.059 191.246 131.036 193.318 130.621C195.389 130.207 197.537 130.42 199.488 131.233C201.439 132.046 203.107 133.422 204.281 135.189C205.454 136.955 206.081 139.032 206.081 141.156C206.077 144.004 204.951 146.734 202.949 148.748C200.947 150.761 198.233 151.894 195.401 151.897ZM195.401 131.538C193.509 131.538 191.66 132.102 190.086 133.16C188.513 134.217 187.287 135.72 186.563 137.478C185.839 139.236 185.65 141.171 186.019 143.037C186.389 144.903 187.3 146.618 188.638 147.963C189.976 149.308 191.681 150.225 193.537 150.595C195.392 150.966 197.316 150.775 199.064 150.047C200.812 149.318 202.305 148.085 203.356 146.502C204.407 144.919 204.967 143.059 204.967 141.156C204.964 138.606 203.955 136.161 202.162 134.357C200.368 132.554 197.937 131.54 195.401 131.538Z" fill="#020202"/>
<path opacity="0.3" d="M196.635 134.624C196.187 132.913 193.74 133.654 192.558 133.958C191.199 134.308 189.467 135.616 188.606 138.106C188.063 139.68 187.887 144.719 190.748 144.297C193.32 143.918 190.914 139.86 191.899 138.129C192.725 136.667 197.01 136.036 196.635 134.624Z" fill="white"/>
<path opacity="0.3" d="M191.694 123.663C189.104 124.207 185.565 125.59 182.1 129.373C181.435 130.097 180.166 132.007 180.051 133.165C179.315 134.618 178.79 136.17 178.491 137.773C178.252 139.046 178.091 143.104 180.428 142.129C181.933 141.498 181.475 139.307 181.789 137.912C182.739 133.703 185.357 128.896 189.343 127.202C190.494 126.707 193.398 125.871 193.614 125.333C194.077 124.192 192.486 123.495 191.694 123.663Z" fill="white"/>
<path d="M260.875 155.402C268.708 147.523 268.708 134.75 260.875 126.872C253.042 118.993 240.342 118.993 232.508 126.872C224.675 134.75 224.675 147.523 232.508 155.402C240.342 163.28 253.042 163.28 260.875 155.402Z" fill="#4C4C4C"/>
<path d="M258.039 124.505C261.49 128.1 263.492 132.857 263.656 137.852C263.82 142.847 262.134 147.725 258.926 151.542C255.718 155.359 251.215 157.842 246.291 158.51C241.366 159.178 236.37 157.984 232.271 155.159C234.22 157.184 236.569 158.775 239.167 159.831C241.766 160.886 244.555 161.383 247.355 161.288C250.156 161.193 252.905 160.509 255.427 159.279C257.948 158.05 260.185 156.303 261.994 154.151C263.804 151.999 265.144 149.489 265.93 146.784C266.715 144.079 266.929 141.238 266.556 138.445C266.183 135.652 265.233 132.968 263.766 130.567C262.299 128.166 260.348 126.101 258.039 124.505Z" fill="#3E3E3E"/>
<path d="M246.841 150.945C252.431 150.945 256.962 146.387 256.962 140.765C256.962 135.143 252.431 130.586 246.841 130.586C241.252 130.586 236.72 135.143 236.72 140.765C236.72 146.387 241.252 150.945 246.841 150.945Z" fill="#A4A4A4"/>
<path d="M246.842 151.507C244.729 151.507 242.665 150.877 240.908 149.696C239.152 148.516 237.783 146.839 236.975 144.876C236.167 142.913 235.955 140.754 236.367 138.67C236.779 136.586 237.796 134.673 239.29 133.17C240.784 131.668 242.686 130.645 244.758 130.231C246.83 129.816 248.977 130.029 250.928 130.842C252.88 131.655 254.548 133.032 255.721 134.798C256.895 136.564 257.521 138.641 257.521 140.765C257.518 143.613 256.392 146.343 254.39 148.357C252.388 150.371 249.673 151.503 246.842 151.507ZM246.842 131.147C244.95 131.149 243.102 131.714 241.53 132.771C239.958 133.829 238.734 135.331 238.011 137.089C237.288 138.846 237.099 140.78 237.469 142.645C237.839 144.511 238.75 146.224 240.087 147.568C241.425 148.913 243.129 149.828 244.984 150.199C246.839 150.57 248.761 150.379 250.508 149.651C252.255 148.923 253.748 147.69 254.799 146.108C255.849 144.527 256.41 142.667 256.41 140.765C256.407 138.215 255.398 135.769 253.604 133.966C251.81 132.163 249.378 131.149 246.842 131.147Z" fill="#020202"/>
<path opacity="0.3" d="M248.065 134.233C247.616 132.519 245.17 133.263 243.987 133.567C242.629 133.917 240.896 135.223 240.036 137.715C239.492 139.286 239.316 144.328 242.177 143.906C244.752 143.527 242.344 139.466 243.328 137.738C244.168 136.276 248.45 135.657 248.065 134.233Z" fill="white"/>
<path opacity="0.3" d="M243.135 123.269C240.545 123.816 237.005 125.2 233.54 128.98C232.876 129.706 231.609 131.617 231.491 132.774C230.756 134.23 230.231 135.785 229.934 137.391C229.696 138.664 229.537 142.722 231.871 141.747C233.376 141.116 232.919 138.922 233.232 137.527C234.182 133.318 236.801 128.514 240.787 126.818C241.938 126.326 244.841 125.489 245.057 124.951C245.518 123.802 243.926 123.104 243.135 123.269Z" fill="white"/>
<path d="M302.198 115.553H76.2842V119.032H302.198V115.553Z" fill="#3E3E3E"/>
<path d="M76.7044 100.111H72.8252V133.671H76.7044V100.111Z" fill="#216AB6"/>
<path d="M43.1495 128.178C42.984 128.178 42.8251 128.113 42.7068 127.997C42.5885 127.88 42.5201 127.722 42.5164 127.556C42.5164 127.159 42.3782 117.831 48.3957 113.281C51.1497 111.197 51.6332 101.651 51.5843 98.1488C51.5827 97.9794 51.6478 97.8162 51.7653 97.6948C51.8828 97.5734 52.0432 97.5035 52.2116 97.5005C52.3783 97.5012 52.538 97.5678 52.6564 97.6858C52.7749 97.8038 52.8425 97.9638 52.8447 98.1315C52.8487 100.43 52.7248 102.727 52.4735 105.011C51.8979 109.932 50.7929 113.055 49.1497 114.299C43.6473 118.462 43.774 127.437 43.7768 127.527C43.7799 127.696 43.7163 127.859 43.5998 127.982C43.4833 128.104 43.3234 128.174 43.1552 128.178H43.1495Z" fill="#216AB6"/>
<path d="M46.6198 103.463H40.9707V104.736H46.6198V103.463Z" fill="#216AB6"/>
<path d="M6.95264 100.111H76.7071L77.1474 64.9847L32.3663 64.8081L6.95264 97.011V100.111Z" fill="#020202"/>
<path d="M33.8338 67.5693L10.4087 97.5001H50.335V67.5693H33.8338Z" fill="#437083"/>
<path d="M53.9785 67.5522L54.8447 97.5004H72.8251V67.5522H53.9785Z" fill="#437083"/>
<path d="M63.1093 155.794C70.9424 147.916 70.9424 135.143 63.1093 127.264C55.2761 119.386 42.576 119.386 34.7428 127.264C26.9096 135.143 26.9096 147.916 34.7428 155.794C42.576 163.673 55.2761 163.673 63.1093 155.794Z" fill="#4C4C4C"/>
<path d="M60.2749 124.896C63.7265 128.491 65.7281 133.247 65.8921 138.242C66.056 143.237 64.3706 148.116 61.1624 151.933C57.9542 155.749 53.4516 158.232 48.527 158.901C43.6025 159.569 38.6066 158.375 34.5073 155.55C36.4564 157.575 38.8057 159.166 41.4038 160.222C44.0019 161.277 46.791 161.773 49.5915 161.678C52.3919 161.583 55.1415 160.899 57.6629 159.67C60.1844 158.441 62.4217 156.694 64.2308 154.542C66.0398 152.39 67.3804 149.88 68.1661 147.175C68.9518 144.47 69.1652 141.629 68.7925 138.836C68.4198 136.043 67.4693 133.359 66.0022 130.958C64.5352 128.557 62.5842 126.492 60.2749 124.896Z" fill="#3E3E3E"/>
<path d="M56.2339 148.354C60.1864 144.378 60.1864 137.933 56.2339 133.958C52.2813 129.982 45.873 129.982 41.9204 133.958C37.9678 137.933 37.9679 144.378 41.9204 148.354C45.873 152.329 52.2813 152.329 56.2339 148.354Z" fill="#A4A4A4"/>
<path d="M49.0774 151.897C46.9652 151.897 44.9004 151.267 43.1442 150.087C41.388 148.907 40.0192 147.229 39.2109 145.267C38.4026 143.304 38.1911 141.144 38.6032 139.061C39.0152 136.977 40.0323 135.063 41.5259 133.561C43.0194 132.059 44.9223 131.036 46.9939 130.621C49.0655 130.207 51.2128 130.42 53.1642 131.233C55.1156 132.046 56.7835 133.422 57.957 135.189C59.1305 136.955 59.7568 139.032 59.7568 141.156C59.7538 144.004 58.6276 146.734 56.6255 148.748C54.6234 150.761 51.9088 151.894 49.0774 151.897ZM49.0774 131.538C47.1853 131.538 45.3358 132.102 43.7627 133.16C42.1895 134.217 40.9635 135.72 40.2395 137.478C39.5156 139.236 39.3263 141.171 39.6957 143.037C40.065 144.903 40.9763 146.618 42.3144 147.963C43.6525 149.308 45.3572 150.225 47.213 150.595C49.0687 150.966 50.9922 150.775 52.74 150.047C54.4879 149.318 55.9817 148.085 57.0324 146.502C58.0832 144.919 58.6437 143.059 58.6431 141.156C58.6401 138.606 57.6312 136.161 55.8378 134.357C54.0445 132.554 51.6132 131.54 49.0774 131.538Z" fill="#020202"/>
<path opacity="0.3" d="M50.3123 134.624C49.8633 132.913 47.4172 133.654 46.2344 133.958C44.8761 134.308 43.1437 135.616 42.2833 138.106C41.7394 139.68 41.5638 144.719 44.4243 144.297C46.9999 143.918 44.5912 139.86 45.5754 138.129C46.4042 136.667 50.6864 136.036 50.3123 134.624Z" fill="white"/>
<path opacity="0.3" d="M45.3711 123.663C42.7811 124.207 39.2443 125.59 35.7766 129.373C35.1118 130.097 33.8456 132.007 33.7276 133.165C32.992 134.618 32.4667 136.17 32.1678 137.773C31.929 139.046 31.7707 143.104 34.1046 142.129C35.6125 141.498 35.1521 139.307 35.4658 137.912C36.4154 133.703 39.0342 128.896 43.0199 127.202C44.171 126.707 47.0747 125.871 47.2906 125.333C47.7539 124.192 46.1625 123.495 45.3711 123.663Z" fill="white"/>
<path opacity="0.3" d="M27.7333 75.3668L43.797 67.5693H50.3354L18.415 87.2714L27.7333 75.3668Z" fill="white"/>
<path opacity="0.3" d="M26.5361 97.5005L50.3354 82.771V91.4281L46.6201 97.5005H26.5361Z" fill="white"/>
<path opacity="0.3" d="M54.2202 75.9257L67.8033 67.5696L72.8251 67.5522L54.4677 84.4786L54.2202 75.9257Z" fill="white"/>
<path opacity="0.3" d="M58.4648 97.5001L72.825 81.2598V86.0123L65.6449 97.5001H58.4648Z" fill="white"/>
<path d="M304.512 73.7896C304.512 73.7896 303.649 77.8417 304.066 78.7737C304.483 79.7057 307.715 80.409 308.337 83.8331C308.895 86.9127 307.453 90.7796 301.856 90.7622C297.07 90.7622 295.119 88.9995 294.555 85.3439C294.238 83.2773 295.922 81.8128 296.414 81.8128C296.967 81.8128 296.23 84.6551 297.954 85.8215C299.677 86.9879 303.951 87.1182 304.043 85.0342C304.135 82.9503 300.67 83.2802 300.452 80.7303C300.233 78.1803 300.757 74.1485 300.757 74.1485L304.512 73.7896Z" fill="#939393"/>
<path d="M306.167 67.856L306.34 75.6042L302.998 80.626L299.079 75.7692L298.906 68.018L306.167 67.856Z" fill="#939393"/>
<path d="M285.038 12.8194L168.888 50.1685L168.29 48.979L285.021 12.7876L285.038 12.8194Z" fill="#0D99FF"/>
<path d="M285.688 14.1103L285.038 12.8194L288.25 11.7861L285.688 14.1103Z" fill="#0D99FF"/>
<path d="M282.719 8.22312L286.408 7.34033L288.25 11.7861L285.021 12.7876L282.719 8.22312Z" fill="#0D99FF"/>
<path d="M161.933 45.8762L165.815 44.0557L168.29 48.979L163.593 50.4349L161.933 45.8762Z" fill="#0D99FF"/>
<path d="M299.039 3.70357L117.816 58.2134L118.208 59.5333L299.431 5.02353L299.039 3.70357Z" fill="#4C4C4C"/>
<path d="M302.275 13.8771L300.905 13.9185L302.704 74.2461L304.074 74.2047L302.275 13.8771Z" fill="#939393"/>
<path d="M173.854 72.2186L158.341 86.7734L160.385 88.9767L175.898 74.4219L173.854 72.2186Z" fill="#4C4C4C"/>
<path d="M189.468 57.7225L170.769 72.2847L175.002 77.7841L193.702 63.2219L189.468 57.7225Z" fill="#216AB6"/>
<path d="M159.37 83.7804L142.113 100.045L146.842 105.12L164.099 88.8555L159.37 83.7804Z" fill="#216AB6"/>
<path d="M302.132 23.4966L139.031 82.5998L131.52 59.1988L296.123 9.40381L302.132 23.4966Z" fill="#216AB6"/>
<path d="M93.6201 114.403C93.6201 115.243 94.023 115.923 94.5237 115.923H146.899C147.397 115.923 147.803 115.243 147.803 114.403V101.089C147.803 100.25 147.397 99.5669 146.899 99.5669H94.5237C94.023 99.5669 93.6201 100.25 93.6201 101.089V114.403Z" fill="#020202"/>
<path d="M151.604 97.8706H86.2988V99.6101H151.604V97.8706Z" fill="#216AB6"/>
<path d="M296.123 9.40381L297.559 12.7729L142.289 61.1814L138.484 57.0916L296.123 9.40381Z" fill="#0D99FF"/>
<path d="M297.804 25.8615C298.138 26.6922 298.805 27.2045 299.297 27.0193L309.528 22.8659C310.02 22.669 310.147 21.8326 309.816 21.0019L301.893 1.18694C301.562 0.356249 300.895 -0.156057 300.402 0.0436553L290.172 4.17973C289.68 4.37944 289.55 5.21302 289.884 6.04371L297.804 25.8615Z" fill="#0D99FF"/>
<path d="M302.262 19.8236C304.821 18.8457 306.106 15.967 305.134 13.3939C304.162 10.8208 301.299 9.52772 298.741 10.5057C296.183 11.4836 294.897 14.3623 295.869 16.9353C296.842 19.5084 299.704 20.8016 302.262 19.8236Z" fill="#4C4C4C"/>
<path d="M252.675 22.5474L258.237 39.4042L254.965 40.588L247.978 23.9685L252.675 22.5474Z" fill="#0D99FF"/>
<path d="M242.795 25.5371L247.592 43.0742L244.441 44.6487L238.991 26.6891L242.795 25.5371Z" fill="#0D99FF"/>
<path d="M86.2988 97.8707V52.8775L139.664 51.1641L149.331 70.5883V97.8707H86.2988Z" fill="#0D99FF"/>
<path d="M131.497 55.5723C131.02 55.6909 91.0127 57.2481 91.0127 57.2481V93.7781H96.1323L96.2502 62.5448L123.16 60.6056L131.497 55.5723Z" fill="#216AB6"/>
<path d="M77.1474 64.9849H31.6037C30.6008 64.9849 29.639 64.5842 28.9298 63.8709C28.2207 63.1577 27.8223 62.1903 27.8223 61.1816H77.1474V64.9849Z" fill="#0D99FF"/>
</g>
<defs>
<clipPath id="clip0_5497_40679">
<rect width="310" height="163" fill="white"/>
</clipPath>
</defs>
</svg>
