<svg width="310" height="99" viewBox="0 0 310 99" fill="none" xmlns="http://www.w3.org/2000/svg">
<g clip-path="url(#clip0_5497_40459)">
<path d="M243.722 37.9483C242.456 38.3727 156.756 47.7523 156.756 47.7523L60.9273 44.3429L30.9561 59.8186L37.9634 81.4137L85.8125 81.7064L159.294 58.4197L215.846 80.0031L263.692 72.8974L266.524 49.8946C266.524 49.8946 244.994 37.521 243.722 37.9483Z" fill="#2B2A25"/>
<path d="M61.9126 99.0027C73.2603 99.0027 82.4595 89.7129 82.4595 78.2533C82.4595 66.7937 73.2603 57.5039 61.9126 57.5039C50.5649 57.5039 41.3657 66.7937 41.3657 78.2533C41.3657 89.7129 50.5649 99.0027 61.9126 99.0027Z" fill="#464646"/>
<path d="M240.861 99.0027C252.209 99.0027 261.408 89.7129 261.408 78.2533C261.408 66.7937 252.209 57.5039 240.861 57.5039C229.514 57.5039 220.314 66.7937 220.314 78.2533C220.314 89.7129 229.514 99.0027 240.861 99.0027Z" fill="#464646"/>
<path d="M69.6417 59.1548C75.6116 62.7837 80.8802 68.7715 81.1642 76.3191C81.5525 86.6528 76.9708 98.3737 59.6638 97.9026C56.8115 97.7986 53.9965 97.214 51.335 96.173C54.4271 98.0518 58.9017 98.9474 62.7705 98.9474C74.1191 98.9474 82.4596 89.8428 82.4596 78.3823C82.4596 74.2533 81.2399 70.2181 78.9566 66.793C76.6732 63.3678 73.43 60.7083 69.6417 59.1548Z" fill="#424038"/>
<path d="M248.59 59.1548C254.56 62.7837 259.829 68.7715 260.113 76.3191C260.501 86.6528 255.919 98.3737 238.613 97.9026C235.76 97.7986 232.945 97.214 230.284 96.173C233.376 98.0518 237.85 98.9474 241.719 98.9474C253.068 98.9474 261.408 89.8428 261.408 78.3823C261.408 74.2533 260.189 70.2181 257.905 66.793C255.622 63.3678 252.379 60.7083 248.59 59.1548Z" fill="#424038"/>
<path d="M61.9128 90.9076C68.8335 90.9076 74.4438 85.242 74.4438 78.2531C74.4438 71.2642 68.8335 65.5986 61.9128 65.5986C54.9922 65.5986 49.3818 71.2642 49.3818 78.2531C49.3818 85.242 54.9922 90.9076 61.9128 90.9076Z" fill="#B7B29E"/>
<path d="M240.862 90.9076C247.782 90.9076 253.393 85.242 253.393 78.2531C253.393 71.2642 247.782 65.5986 240.862 65.5986C233.941 65.5986 228.331 71.2642 228.331 78.2531C228.331 85.242 233.941 90.9076 240.862 90.9076Z" fill="#B7B29E"/>
<path d="M73.4236 78.2528C73.4231 80.5517 72.7475 82.7989 71.4823 84.7101C70.2171 86.6213 68.4192 88.1108 66.3158 88.9902C64.2124 89.8695 61.898 90.0993 59.6653 89.6504C57.4326 89.2016 55.3818 88.0942 53.7723 86.4684C52.1628 84.8426 51.0667 82.7714 50.6228 80.5165C50.1789 78.2617 50.407 75.9246 51.2784 73.8007C52.1497 71.6768 53.6251 69.8615 55.5179 68.5843C57.4108 67.3072 59.6362 66.6255 61.9128 66.6255C63.4246 66.6255 64.9217 66.9263 66.3184 67.5106C67.7152 68.095 68.9843 68.9515 70.0532 70.0312C71.1221 71.1109 71.97 72.3927 72.5483 73.8034C73.1266 75.2141 73.424 76.726 73.4236 78.2528Z" fill="#FAFAFA"/>
<path d="M252.372 78.2528C252.372 80.5517 251.696 82.7989 250.431 84.7101C249.166 86.6213 247.368 88.1108 245.264 88.9902C243.161 89.8695 240.847 90.0993 238.614 89.6504C236.381 89.2016 234.331 88.0942 232.721 86.4684C231.111 84.8426 230.015 82.7714 229.572 80.5165C229.128 78.2617 229.356 75.9246 230.227 73.8007C231.098 71.6768 232.574 69.8615 234.467 68.5843C236.36 67.3072 238.585 66.6255 240.861 66.6255C242.373 66.6255 243.87 66.9263 245.267 67.5106C246.664 68.095 247.933 68.9515 249.002 70.0312C250.071 71.1109 250.919 72.3927 251.497 73.8034C252.075 75.2141 252.373 76.726 252.372 78.2528Z" fill="#FAFAFA"/>
<path d="M61.9127 86.4942C66.4198 86.4942 70.0735 82.8044 70.0735 78.2529C70.0735 73.7014 66.4198 70.0117 61.9127 70.0117C57.4057 70.0117 53.752 73.7014 53.752 78.2529C53.752 82.8044 57.4057 86.4942 61.9127 86.4942Z" fill="#E0E0E0"/>
<path d="M240.861 86.4942C245.369 86.4942 249.022 82.8044 249.022 78.2529C249.022 73.7014 245.369 70.0117 240.861 70.0117C236.354 70.0117 232.701 73.7014 232.701 78.2529C232.701 82.8044 236.354 86.4942 240.861 86.4942Z" fill="#E0E0E0"/>
<path d="M63.0919 83.7317C63.0919 84.0476 62.9676 84.3505 62.7464 84.5739C62.5252 84.7973 62.2252 84.9228 61.9124 84.9228C61.5996 84.9228 61.2996 84.7973 61.0784 84.5739C60.8572 84.3505 60.7329 84.0476 60.7329 83.7317V72.7717C60.7329 72.4558 60.8572 72.1528 61.0784 71.9294C61.2996 71.7061 61.5996 71.5806 61.9124 71.5806C62.2252 71.5806 62.5252 71.7061 62.7464 71.9294C62.9676 72.1528 63.0919 72.4558 63.0919 72.7717V83.7317Z" fill="#A4A4A4"/>
<path d="M242.041 83.7317C242.041 84.0476 241.916 84.3505 241.695 84.5739C241.474 84.7973 241.174 84.9228 240.861 84.9228C240.548 84.9228 240.248 84.7973 240.027 84.5739C239.806 84.3505 239.682 84.0476 239.682 83.7317V72.7717C239.682 72.4558 239.806 72.1528 240.027 71.9294C240.248 71.7061 240.548 71.5806 240.861 71.5806C241.174 71.5806 241.474 71.7061 241.695 71.9294C241.916 72.1528 242.041 72.4558 242.041 72.7717V83.7317Z" fill="#464646"/>
<path d="M67.3377 76.9424C67.6508 76.9424 67.9511 77.0678 68.1728 77.2911C68.3944 77.5144 68.5193 77.8173 68.5201 78.1335C68.5193 78.4497 68.3944 78.7526 68.1728 78.9759C67.9511 79.1992 67.6508 79.3246 67.3377 79.3246H56.4876C56.1745 79.3246 55.8742 79.1992 55.6525 78.9759C55.4309 78.7526 55.3059 78.4497 55.3052 78.1335C55.3059 77.8173 55.4309 77.5144 55.6525 77.2911C55.8742 77.0678 56.1745 76.9424 56.4876 76.9424H67.3377Z" fill="#A4A4A4"/>
<path d="M246.286 76.9424C246.6 76.9424 246.9 77.0678 247.121 77.2911C247.343 77.5144 247.468 77.8173 247.469 78.1335C247.468 78.4497 247.343 78.7526 247.121 78.9759C246.9 79.1992 246.6 79.3246 246.286 79.3246H235.436C235.123 79.3246 234.823 79.1992 234.601 78.9759C234.38 78.7526 234.255 78.4497 234.254 78.1335C234.255 77.8173 234.38 77.5144 234.601 77.2911C234.823 77.0678 235.123 76.9424 235.436 76.9424H246.286Z" fill="#464646"/>
<path d="M66.6248 81.3258C66.7345 81.4365 66.8216 81.5678 66.8809 81.7125C66.9403 81.8571 66.9709 82.0121 66.9709 82.1687C66.9709 82.3252 66.9403 82.4803 66.8809 82.6249C66.8216 82.7695 66.7345 82.9009 66.6248 83.0115C66.5155 83.1222 66.3857 83.2101 66.2427 83.27C66.0997 83.3299 65.9464 83.3608 65.7916 83.3608C65.6368 83.3608 65.4836 83.3299 65.3406 83.27C65.1976 83.2101 65.0678 83.1222 64.9585 83.0115L57.2845 75.262C57.1748 75.1514 57.0878 75.02 57.0284 74.8753C56.969 74.7307 56.9385 74.5757 56.9385 74.4191C56.9385 74.2626 56.969 74.1075 57.0284 73.9629C57.0878 73.8183 57.1748 73.6869 57.2845 73.5763C57.3938 73.4656 57.5237 73.3777 57.6667 73.3178C57.8096 73.2579 57.9629 73.2271 58.1177 73.2271C58.2725 73.2271 58.4258 73.2579 58.5688 73.3178C58.7117 73.3777 58.8416 73.4656 58.9509 73.5763L66.6248 81.3258Z" fill="#A4A4A4"/>
<path d="M245.574 81.3258C245.683 81.4365 245.77 81.5678 245.83 81.7125C245.889 81.8571 245.92 82.0121 245.92 82.1687C245.92 82.3252 245.889 82.4803 245.83 82.6249C245.77 82.7695 245.683 82.9009 245.574 83.0115C245.464 83.1222 245.334 83.2101 245.191 83.27C245.048 83.3299 244.895 83.3608 244.74 83.3608C244.586 83.3608 244.432 83.3299 244.289 83.27C244.146 83.2101 244.017 83.1222 243.907 83.0115L236.233 75.262C236.124 75.1514 236.037 75.02 235.977 74.8753C235.918 74.7307 235.887 74.5757 235.887 74.4191C235.887 74.2626 235.918 74.1075 235.977 73.9629C236.037 73.8183 236.124 73.6869 236.233 73.5763C236.343 73.4656 236.472 73.3777 236.615 73.3178C236.758 73.2579 236.912 73.2271 237.066 73.2271C237.221 73.2271 237.375 73.2579 237.518 73.3178C237.66 73.3777 237.79 73.4656 237.9 73.5763L245.574 81.3258Z" fill="#464646"/>
<path d="M64.8745 73.4918C64.9838 73.3811 65.1136 73.2933 65.2566 73.2334C65.3996 73.1734 65.5529 73.1426 65.7077 73.1426C65.8625 73.1426 66.0157 73.1734 66.1587 73.2334C66.3017 73.2933 66.4315 73.3811 66.5408 73.4918C66.6505 73.6024 66.7376 73.7338 66.797 73.8784C66.8563 74.0231 66.8869 74.1781 66.8869 74.3347C66.8869 74.4912 66.8563 74.6463 66.797 74.7909C66.7376 74.9355 66.6505 75.0669 66.5408 75.1775L58.8669 82.9271C58.7576 83.0378 58.6278 83.1256 58.4848 83.1855C58.3418 83.2454 58.1885 83.2763 58.0337 83.2763C57.8789 83.2763 57.7257 83.2454 57.5827 83.1855C57.4397 83.1256 57.3099 83.0378 57.2006 82.9271C57.0909 82.8164 57.0038 82.6851 56.9444 82.5404C56.8851 82.3958 56.8545 82.2408 56.8545 82.0842C56.8545 81.9277 56.8851 81.7726 56.9444 81.628C57.0038 81.4834 57.0909 81.352 57.2006 81.2414L64.8745 73.4918Z" fill="#A4A4A4"/>
<path d="M243.823 73.4918C243.933 73.3811 244.062 73.2933 244.205 73.2334C244.348 73.1734 244.502 73.1426 244.656 73.1426C244.811 73.1426 244.964 73.1734 245.107 73.2334C245.25 73.2933 245.38 73.3811 245.49 73.4918C245.599 73.6024 245.686 73.7338 245.746 73.8784C245.805 74.0231 245.836 74.1781 245.836 74.3347C245.836 74.4912 245.805 74.6463 245.746 74.7909C245.686 74.9355 245.599 75.0669 245.49 75.1775L237.816 82.9271C237.706 83.0378 237.576 83.1256 237.434 83.1855C237.291 83.2454 237.137 83.2763 236.982 83.2763C236.828 83.2763 236.674 83.2454 236.531 83.1855C236.388 83.1256 236.259 83.0378 236.149 82.9271C236.04 82.8164 235.953 82.6851 235.893 82.5404C235.834 82.3958 235.803 82.2408 235.803 82.0842C235.803 81.9277 235.834 81.7726 235.893 81.628C235.953 81.4834 236.04 81.352 236.149 81.2414L243.823 73.4918Z" fill="#464646"/>
<path d="M65.2485 81.6209C67.091 79.7603 67.091 76.7436 65.2485 74.883C63.4061 73.0223 60.4188 73.0223 58.5763 74.883C56.7339 76.7436 56.7339 79.7603 58.5763 81.6209C60.4188 83.4816 63.4061 83.4816 65.2485 81.6209Z" fill="#A4A4A4"/>
<path d="M244.197 81.6209C246.04 79.7603 246.04 76.7436 244.197 74.883C242.355 73.0223 239.368 73.0223 237.525 74.883C235.683 76.7436 235.683 79.7603 237.525 81.6209C239.368 83.4816 242.355 83.4816 244.197 81.6209Z" fill="#464646"/>
<path opacity="0.4" d="M43.3106 77.2344L45.0494 75.859C45.0494 75.859 45.2435 69.3854 51.5583 64.577C57.3253 60.1872 64.382 60.9481 64.382 60.9481L65.063 59.5755C65.063 59.5755 56.2212 58.4956 50.1093 63.5059C42.7397 69.5259 43.3106 77.2344 43.3106 77.2344Z" fill="#969283"/>
<path opacity="0.4" d="M222.259 77.2344L223.998 75.859C223.998 75.859 224.192 69.3854 230.507 64.577C236.274 60.1872 243.331 60.9481 243.331 60.9481L244.012 59.5755C244.012 59.5755 235.17 58.4956 229.058 63.5059C221.688 69.5259 222.259 77.2344 222.259 77.2344Z" fill="#969283"/>
<path d="M62.4717 72.6225C62.4717 72.7342 62.4389 72.8434 62.3774 72.9363C62.3159 73.0291 62.2286 73.1015 62.1264 73.1443C62.0242 73.187 61.9117 73.1982 61.8032 73.1764C61.6947 73.1546 61.5951 73.1008 61.5168 73.0218C61.4386 72.9429 61.3854 72.8422 61.3638 72.7326C61.3422 72.6231 61.3533 72.5095 61.3956 72.4063C61.4379 72.3031 61.5096 72.2149 61.6016 72.1528C61.6936 72.0907 61.8017 72.0576 61.9123 72.0576C61.9859 72.0572 62.0588 72.0716 62.1268 72.0998C62.1949 72.1281 62.2567 72.1697 62.3087 72.2222C62.3607 72.2747 62.4019 72.3371 62.4299 72.4058C62.4578 72.4745 62.472 72.5482 62.4717 72.6225Z" fill="#B7B29E"/>
<path d="M66.3637 74.1908C66.3643 74.3026 66.332 74.4121 66.2709 74.5054C66.2098 74.5987 66.1226 74.6715 66.0205 74.7147C65.9183 74.7579 65.8058 74.7695 65.6971 74.7481C65.5884 74.7266 65.4885 74.673 65.41 74.5942C65.3315 74.5153 65.2779 74.4147 65.2561 74.305C65.2343 74.1954 65.2452 74.0817 65.2874 73.9783C65.3297 73.8749 65.4013 73.7865 65.4934 73.7243C65.5854 73.6621 65.6937 73.6289 65.8044 73.6289C65.8777 73.6285 65.9504 73.6428 66.0183 73.6708C66.0861 73.6989 66.1478 73.7402 66.1997 73.7925C66.2517 73.8447 66.293 73.9067 66.3211 73.9751C66.3493 74.0435 66.3637 74.1168 66.3637 74.1908Z" fill="#B7B29E"/>
<path d="M68.2041 78.1654C68.2041 78.2771 68.1713 78.3863 68.1098 78.4792C68.0484 78.5721 67.961 78.6445 67.8588 78.6872C67.7566 78.73 67.6441 78.7412 67.5356 78.7194C67.4272 78.6976 67.3275 78.6438 67.2493 78.5648C67.171 78.4858 67.1178 78.3852 67.0962 78.2756C67.0746 78.166 67.0857 78.0525 67.128 77.9493C67.1704 77.8461 67.242 77.7578 67.334 77.6958C67.426 77.6337 67.5341 77.6006 67.6448 77.6006C67.7931 77.6006 67.9354 77.6601 68.0403 77.766C68.1452 77.8719 68.2041 78.0156 68.2041 78.1654Z" fill="#B7B29E"/>
<path d="M66.5522 82.4325C66.5528 82.5444 66.5205 82.6538 66.4594 82.7471C66.3983 82.8404 66.3111 82.9132 66.209 82.9564C66.1068 82.9996 65.9943 83.0112 65.8856 82.9898C65.7769 82.9683 65.677 82.9147 65.5984 82.8359C65.5199 82.757 65.4664 82.6564 65.4446 82.5467C65.4227 82.4371 65.4336 82.3234 65.4759 82.22C65.5181 82.1166 65.5898 82.0282 65.6819 81.966C65.7739 81.9038 65.8822 81.8706 65.9929 81.8706C66.0662 81.8702 66.1389 81.8845 66.2067 81.9125C66.2746 81.9406 66.3363 81.9819 66.3882 82.0342C66.4402 82.0864 66.4814 82.1484 66.5096 82.2168C66.5377 82.2852 66.5522 82.3585 66.5522 82.4325Z" fill="#B7B29E"/>
<path d="M62.4223 83.9042C62.4229 84.016 62.3906 84.1255 62.3295 84.2188C62.2684 84.3121 62.1812 84.3849 62.0791 84.4281C61.9769 84.4713 61.8644 84.4829 61.7557 84.4615C61.647 84.44 61.5471 84.3864 61.4686 84.3075C61.39 84.2287 61.3365 84.128 61.3147 84.0184C61.2929 83.9087 61.3038 83.795 61.346 83.6917C61.3883 83.5883 61.4599 83.4999 61.552 83.4377C61.644 83.3755 61.7523 83.3423 61.863 83.3423C61.9363 83.3419 62.009 83.3562 62.0768 83.3842C62.1447 83.4123 62.2064 83.4536 62.2583 83.5058C62.3103 83.558 62.3516 83.6201 62.3797 83.6885C62.4078 83.7568 62.4223 83.8302 62.4223 83.9042Z" fill="#B7B29E"/>
<path d="M58.539 82.1893C58.539 82.3012 58.5062 82.4105 58.4446 82.5034C58.383 82.5964 58.2955 82.6688 58.1931 82.7115C58.0907 82.7541 57.9781 82.7651 57.8695 82.7431C57.761 82.7211 57.6613 82.667 57.5832 82.5877C57.5051 82.5084 57.4521 82.4075 57.4308 82.2977C57.4096 82.188 57.421 82.0743 57.4638 81.9712C57.5066 81.868 57.5787 81.78 57.6711 81.7183C57.7635 81.6566 57.8719 81.6239 57.9826 81.6245C58.0559 81.6245 58.1285 81.6391 58.1962 81.6676C58.2639 81.696 58.3254 81.7376 58.3771 81.7901C58.4288 81.8426 58.4697 81.9049 58.4975 81.9734C58.5253 82.0419 58.5394 82.1153 58.539 82.1893Z" fill="#B7B29E"/>
<path d="M56.9829 78.2152C56.9829 78.3269 56.9501 78.4361 56.8886 78.529C56.8272 78.6219 56.7398 78.6943 56.6376 78.7371C56.5354 78.7798 56.423 78.791 56.3145 78.7692C56.206 78.7474 56.1063 78.6936 56.0281 78.6146C55.9499 78.5356 55.8966 78.435 55.875 78.3254C55.8534 78.2159 55.8645 78.1023 55.9068 77.9991C55.9492 77.8959 56.0209 77.8077 56.1128 77.7456C56.2048 77.6835 56.313 77.6504 56.4236 77.6504C56.5719 77.6504 56.7142 77.7099 56.8191 77.8158C56.924 77.9218 56.9829 78.0654 56.9829 78.2152Z" fill="#B7B29E"/>
<path d="M58.5395 74.1908C58.5401 74.3028 58.5077 74.4124 58.4465 74.5057C58.3852 74.599 58.2979 74.6719 58.1956 74.715C58.0933 74.7581 57.9806 74.7696 57.8718 74.7479C57.763 74.7262 57.6631 74.6723 57.5847 74.5931C57.5063 74.514 57.453 74.4131 57.4315 74.3032C57.41 74.1934 57.4213 74.0796 57.464 73.9762C57.5067 73.8729 57.5789 73.7847 57.6713 73.7229C57.7637 73.661 57.8722 73.6283 57.9831 73.6289C58.1307 73.6289 58.2722 73.6881 58.3766 73.7935C58.4809 73.8989 58.5395 74.0418 58.5395 74.1908Z" fill="#B7B29E"/>
<path d="M63.7445 80.1025C64.7563 79.0807 64.7563 77.4241 63.7445 76.4024C62.7327 75.3806 61.0923 75.3806 60.0805 76.4024C59.0687 77.4241 59.0687 79.0807 60.0805 80.1025C61.0923 81.1242 62.7327 81.1242 63.7445 80.1025Z" fill="#B7B29E"/>
<path d="M248.649 59.1543C254.621 62.7832 259.89 68.771 260.174 76.3186C260.562 86.6523 255.981 98.3733 238.671 97.9021C235.819 97.7981 233.005 97.2135 230.345 96.1725C233.434 98.0513 237.911 98.9469 241.78 98.9469C253.126 98.9469 261.466 89.8423 261.466 78.3819C261.467 74.2527 260.247 70.2174 257.964 66.7921C255.681 63.3669 252.437 60.7075 248.649 59.1543Z" fill="#424038"/>
<path d="M240.911 90.9076C247.832 90.9076 253.442 85.242 253.442 78.2531C253.442 71.2642 247.832 65.5986 240.911 65.5986C233.99 65.5986 228.38 71.2642 228.38 78.2531C228.38 85.242 233.99 90.9076 240.911 90.9076Z" fill="#B7B29E"/>
<path d="M245.898 88.7306C251.628 85.9496 254.041 79.0044 251.287 73.218C248.533 67.4317 241.655 64.9955 235.926 67.7765C230.196 70.5575 227.783 77.5028 230.537 83.2891C233.291 89.0754 240.168 91.5117 245.898 88.7306Z" fill="#FAFAFA"/>
<path d="M249.072 78.2529C249.072 79.8829 248.593 81.4763 247.696 82.8315C246.8 84.1868 245.525 85.2431 244.034 85.8668C242.543 86.4906 240.902 86.6538 239.319 86.3358C237.736 86.0178 236.282 85.2329 235.14 84.0804C233.999 82.9278 233.222 81.4594 232.907 79.8607C232.592 78.2621 232.754 76.6051 233.371 75.0992C233.989 73.5933 235.035 72.3062 236.377 71.4006C237.719 70.4951 239.297 70.0117 240.911 70.0117C241.983 70.0113 243.044 70.2242 244.034 70.6383C245.025 71.0523 245.924 71.6593 246.682 72.4247C247.44 73.19 248.041 74.0987 248.451 75.0987C248.861 76.0988 249.072 77.1706 249.072 78.2529Z" fill="#E0E0E0"/>
<path d="M242.09 83.7317C242.09 84.0476 241.966 84.3505 241.745 84.5739C241.524 84.7973 241.224 84.9228 240.911 84.9228C240.756 84.9228 240.603 84.892 240.46 84.8321C240.316 84.7723 240.186 84.6845 240.077 84.5739C239.967 84.4633 239.881 84.332 239.821 84.1875C239.762 84.043 239.731 83.8881 239.731 83.7317V72.7717C239.731 72.6153 239.762 72.4604 239.821 72.3159C239.881 72.1713 239.967 72.04 240.077 71.9294C240.186 71.8188 240.316 71.7311 240.46 71.6712C240.603 71.6114 240.756 71.5806 240.911 71.5806C241.224 71.5806 241.524 71.7061 241.745 71.9294C241.966 72.1528 242.09 72.4558 242.09 72.7717V83.7317Z" fill="#A4A4A4"/>
<path d="M246.33 76.9419C246.487 76.9408 246.641 76.9709 246.786 77.0306C246.93 77.0903 247.062 77.1784 247.172 77.2897C247.283 77.4011 247.37 77.5335 247.43 77.6792C247.489 77.825 247.519 77.9812 247.519 78.1389C247.519 78.4548 247.394 78.7578 247.173 78.9811C246.952 79.2045 246.652 79.33 246.339 79.33H235.486C235.173 79.33 234.873 79.2045 234.652 78.9811C234.431 78.7578 234.307 78.4548 234.307 78.1389C234.307 77.823 234.431 77.52 234.652 77.2966C234.873 77.0733 235.173 76.9478 235.486 76.9478L246.33 76.9419Z" fill="#A4A4A4"/>
<path d="M245.626 81.3261C245.736 81.4367 245.823 81.5681 245.882 81.7127C245.942 81.8573 245.972 82.0124 245.972 82.1689C245.972 82.3255 245.942 82.4805 245.882 82.6252C245.823 82.7698 245.736 82.9012 245.626 83.0118C245.517 83.1226 245.387 83.2105 245.243 83.2704C245.1 83.3304 244.947 83.3613 244.792 83.3613C244.637 83.3613 244.483 83.3304 244.34 83.2704C244.197 83.2105 244.067 83.1226 243.957 83.0118L236.283 75.2622C236.173 75.1516 236.086 75.0202 236.027 74.8756C235.968 74.731 235.937 74.5759 235.937 74.4194C235.937 74.2628 235.968 74.1078 236.027 73.9632C236.086 73.8185 236.173 73.6872 236.283 73.5765C236.393 73.4657 236.523 73.3778 236.666 73.3179C236.809 73.2579 236.963 73.2271 237.118 73.2271C237.273 73.2271 237.426 73.2579 237.569 73.3179C237.713 73.3778 237.843 73.4657 237.952 73.5765L245.626 81.3261Z" fill="#A4A4A4"/>
<path d="M243.873 73.4916C243.982 73.3808 244.112 73.2929 244.255 73.2329C244.399 73.173 244.552 73.1421 244.707 73.1421C244.862 73.1421 245.016 73.173 245.159 73.2329C245.302 73.2929 245.432 73.3808 245.542 73.4916C245.652 73.6022 245.739 73.7336 245.798 73.8782C245.857 74.0228 245.888 74.1779 245.888 74.3344C245.888 74.491 245.857 74.646 245.798 74.7906C245.739 74.9353 245.652 75.0666 245.542 75.1773L237.868 82.9268C237.758 83.0376 237.628 83.1255 237.485 83.1855C237.342 83.2454 237.188 83.2763 237.033 83.2763C236.878 83.2763 236.725 83.2454 236.581 83.1855C236.438 83.1255 236.308 83.0376 236.199 82.9268C236.089 82.8162 236.002 82.6848 235.943 82.5402C235.883 82.3956 235.853 82.2405 235.853 82.084C235.853 81.9274 235.883 81.7724 235.943 81.6278C236.002 81.4831 236.089 81.3518 236.199 81.2411L243.873 73.4916Z" fill="#A4A4A4"/>
<path d="M244.248 81.6239C246.09 79.7632 246.09 76.7465 244.248 74.8859C242.405 73.0253 239.418 73.0253 237.575 74.8859C235.733 76.7465 235.733 79.7632 237.575 81.6239C239.418 83.4845 242.405 83.4845 244.248 81.6239Z" fill="#A4A4A4"/>
<path opacity="0.4" d="M222.309 77.2346L224.047 75.8591C224.047 75.8591 224.242 69.3855 230.556 64.5772C236.323 60.1873 243.38 60.9482 243.38 60.9482L244.061 59.5757C244.061 59.5757 235.219 58.4958 229.099 63.5002C221.738 69.526 222.309 77.2346 222.309 77.2346Z" fill="#969283"/>
<path d="M241.47 72.6225C241.47 72.7343 241.437 72.8436 241.376 72.9366C241.314 73.0295 241.227 73.1019 241.124 73.1446C241.022 73.1872 240.909 73.1982 240.801 73.1762C240.692 73.1542 240.592 73.1001 240.514 73.0208C240.436 72.9415 240.383 72.8406 240.362 72.7308C240.341 72.6211 240.352 72.5074 240.395 72.4043C240.438 72.3011 240.51 72.2131 240.602 72.1514C240.695 72.0897 240.803 72.057 240.914 72.0576C240.987 72.0576 241.06 72.0723 241.127 72.1007C241.195 72.1291 241.257 72.1707 241.308 72.2232C241.36 72.2757 241.401 72.338 241.429 72.4065C241.456 72.475 241.471 72.5484 241.47 72.6225Z" fill="#B7B29E"/>
<path d="M245.356 74.1908C245.357 74.3026 245.325 74.4121 245.264 74.5054C245.202 74.5987 245.115 74.6715 245.013 74.7147C244.911 74.7579 244.798 74.7695 244.69 74.7481C244.581 74.7266 244.481 74.673 244.403 74.5942C244.324 74.5153 244.271 74.4147 244.249 74.305C244.227 74.1954 244.238 74.0817 244.28 73.9783C244.322 73.8749 244.394 73.7865 244.486 73.7243C244.578 73.6621 244.686 73.6289 244.797 73.6289C244.87 73.6285 244.943 73.6428 245.011 73.6708C245.079 73.6989 245.14 73.7402 245.192 73.7925C245.244 73.8447 245.286 73.9067 245.314 73.9751C245.342 74.0435 245.356 74.1168 245.356 74.1908Z" fill="#B7B29E"/>
<path d="M247.2 78.1654C247.2 78.2771 247.167 78.3863 247.105 78.4792C247.044 78.5721 246.957 78.6445 246.854 78.6873C246.752 78.73 246.64 78.7412 246.531 78.7194C246.423 78.6976 246.323 78.6438 246.245 78.5648C246.167 78.4858 246.113 78.3852 246.092 78.2756C246.07 78.166 246.081 78.0525 246.124 77.9493C246.166 77.8461 246.238 77.7578 246.33 77.6958C246.422 77.6337 246.53 77.6006 246.64 77.6006C246.714 77.6002 246.787 77.6145 246.855 77.6428C246.923 77.671 246.985 77.7126 247.037 77.7652C247.089 77.8177 247.13 77.8801 247.158 77.9488C247.186 78.0175 247.2 78.0911 247.2 78.1654Z" fill="#B7B29E"/>
<path d="M245.551 82.4325C245.551 82.5445 245.519 82.6541 245.458 82.7474C245.396 82.8407 245.309 82.9136 245.207 82.9567C245.105 82.9998 244.992 83.0112 244.883 82.9895C244.774 82.9678 244.674 82.914 244.596 82.8348C244.518 82.7557 244.464 82.6547 244.443 82.5449C244.421 82.4351 244.433 82.3213 244.475 82.2179C244.518 82.1146 244.59 82.0264 244.683 81.9646C244.775 81.9027 244.883 81.87 244.994 81.8706C245.067 81.8706 245.14 81.8851 245.207 81.9134C245.275 81.9416 245.336 81.983 245.388 82.0352C245.439 82.0874 245.48 82.1493 245.508 82.2175C245.536 82.2857 245.551 82.3587 245.551 82.4325Z" fill="#B7B29E"/>
<path d="M241.424 83.9042C241.424 84.016 241.392 84.1255 241.331 84.2188C241.27 84.3121 241.183 84.3849 241.081 84.4281C240.978 84.4713 240.866 84.4829 240.757 84.4614C240.648 84.44 240.549 84.3864 240.47 84.3075C240.392 84.2287 240.338 84.128 240.316 84.0184C240.294 83.9087 240.305 83.795 240.347 83.6916C240.39 83.5883 240.461 83.4999 240.553 83.4377C240.645 83.3755 240.754 83.3423 240.864 83.3423C241.012 83.3423 241.154 83.4014 241.259 83.5067C241.364 83.612 241.423 83.7549 241.424 83.9042Z" fill="#B7B29E"/>
<path d="M237.538 82.1893C237.538 82.301 237.505 82.4103 237.443 82.5031C237.382 82.596 237.294 82.6684 237.192 82.7112C237.09 82.7539 236.978 82.7651 236.869 82.7433C236.761 82.7215 236.661 82.6677 236.583 82.5887C236.505 82.5097 236.451 82.4091 236.43 82.2995C236.408 82.19 236.419 82.0764 236.462 81.9732C236.504 81.87 236.576 81.7818 236.668 81.7197C236.76 81.6576 236.868 81.6245 236.978 81.6245C237.127 81.6245 237.269 81.684 237.374 81.7899C237.479 81.8959 237.538 82.0395 237.538 82.1893Z" fill="#B7B29E"/>
<path d="M235.981 78.2152C235.981 78.3269 235.949 78.4361 235.887 78.529C235.826 78.6219 235.738 78.6943 235.636 78.7371C235.534 78.7798 235.421 78.791 235.313 78.7692C235.204 78.7474 235.105 78.6936 235.027 78.6146C234.948 78.5356 234.895 78.435 234.874 78.3254C234.852 78.2159 234.863 78.1023 234.905 77.9991C234.948 77.8959 235.019 77.8077 235.111 77.7456C235.203 77.6835 235.311 77.6504 235.422 77.6504C235.57 77.6504 235.713 77.7099 235.818 77.8158C235.922 77.9218 235.981 78.0654 235.981 78.2152Z" fill="#B7B29E"/>
<path d="M237.538 74.1913C237.538 74.3031 237.506 74.4126 237.445 74.5059C237.384 74.5992 237.296 74.672 237.194 74.7152C237.092 74.7584 236.98 74.77 236.871 74.7486C236.762 74.7271 236.662 74.6735 236.584 74.5947C236.505 74.5158 236.452 74.4151 236.43 74.3055C236.408 74.1959 236.419 74.0821 236.461 73.9788C236.503 73.8754 236.575 73.787 236.667 73.7248C236.759 73.6626 236.868 73.6294 236.978 73.6294C237.126 73.6294 237.268 73.6885 237.373 73.7938C237.478 73.8991 237.537 74.042 237.538 74.1913Z" fill="#B7B29E"/>
<path d="M242.744 80.1049C243.755 79.0832 243.755 77.4266 242.744 76.4048C241.732 75.3831 240.091 75.3831 239.08 76.4048C238.068 77.4266 238.068 79.0832 239.08 80.1049C240.091 81.1267 241.732 81.1267 242.744 80.1049Z" fill="#B7B29E"/>
<path d="M37.9632 81.4138L10.3771 81.4724L9.56276 74.5452L3.06253 68.6247L2.21631 62.9384L8.40356 60.0967L12.0637 46.453C12.0637 46.453 26.7045 38.2118 53.4415 33.9478C80.1785 29.6838 93.692 30.2515 93.692 30.2515C93.692 30.2515 134.505 4.09679 139.851 3.25101L145.19 2.39645C145.19 2.39645 222.882 -1.86464 228.229 0.977063C233.576 3.81876 260.316 22.5781 260.316 22.5781C260.316 22.5781 295.217 20.3041 296.906 23.7165C298.596 27.1289 298.877 51.8555 298.877 51.8555L306.756 53.5587L304.786 64.3607L300.282 66.3508L298.593 71.7503L263.692 72.8887C263.692 72.8887 256.395 56.2365 254.418 55.8327C245.977 54.1294 236.688 53.2749 224.859 58.1066C219.984 60.0996 215.852 79.9944 215.852 79.9944L85.8181 81.6977C85.8181 81.6977 86.2064 75.3002 82.439 66.6347C77.3762 54.9811 61.3531 49.2421 48.1063 57.8228C37.117 64.9285 37.9632 81.4138 37.9632 81.4138Z" fill="#0D99FF"/>
<path d="M105.371 32.8125C104.444 32.7335 111.231 25.4961 118.882 19.4527C126.75 13.2454 137.852 6.80992 139.991 6.37679C144.213 5.52516 170.113 4.38965 170.113 4.38965L163.923 31.1092C163.923 31.1092 112.127 33.3802 105.371 32.8125Z" fill="#97C1BF"/>
<path d="M120.846 21.1589C128.711 14.9516 139.817 8.51611 141.955 8.08298C145.389 7.38938 163.172 6.50848 169.681 6.2012L170.112 4.38965C170.112 4.38965 144.219 5.52808 139.996 6.37972C137.858 6.81285 126.755 13.2484 118.887 19.4556C111.236 25.4931 104.449 32.7364 105.377 32.8154C105.994 32.8652 106.985 32.8944 108.275 32.9032C110.35 30.4098 115.378 25.4756 120.846 21.1589Z" fill="#2B2A25"/>
<path d="M178.694 3.81873L174.471 30.2515L222.882 29.116L216.971 3.25098L178.694 3.81873Z" fill="#97C1BF"/>
<path d="M180.6 5.54833L217.533 4.38649L216.97 3.25098L178.694 3.81873L174.471 30.2515H176.764L180.6 5.54833Z" fill="#2B2A25"/>
<path d="M221.474 3.81862L228.974 28.7296L246.753 28.4135C246.753 28.4135 246.872 25.8674 245.467 24.1612C244.061 22.455 240.178 19.7626 233.869 13.1983C224.016 2.96698 221.474 3.81862 221.474 3.81862Z" fill="#97C1BF"/>
<path d="M223.364 4.23419C221.967 3.54352 221.474 3.70741 221.474 3.70741L228.974 28.6184L230.696 28.5862L223.364 4.23419Z" fill="#2B2A25"/>
<path d="M1.96142 62.1715C1.96142 62.1715 33.6425 62.0135 37.662 62.391C40.2122 62.631 39.908 69.0753 36.9462 69.5406C31.9761 70.3191 6.88804 69.8684 6.88804 69.8684C6.88804 69.8684 0.512419 70.0176 0.0458391 66.374C-0.351188 63.2865 1.96142 62.1715 1.96142 62.1715Z" fill="#72726F"/>
<path opacity="0.5" d="M2.35557 62.6313L0.712402 64.2263L37.9634 64.7795L37.1752 62.7543L2.35557 62.6313Z" fill="#97C1BF"/>
<path d="M262.559 53.6466C262.559 53.6466 302.728 53.4886 307.823 53.8661C311.057 54.1061 310.672 60.5474 306.916 61.0128C300.616 61.7942 268.804 61.3435 268.804 61.3435C268.804 61.3435 260.722 61.4927 260.128 57.8491C259.609 54.7587 262.559 53.6466 262.559 53.6466Z" fill="#72726F"/>
<path opacity="0.5" d="M263.04 54.106L260.962 55.7009L308.191 56.2541L307.191 54.2289L263.04 54.106Z" fill="#97C1BF"/>
<path d="M216.802 60.2754L83.8416 63.7931L80.7437 60.9485L219.602 56.582L216.802 60.2754Z" fill="#72726F"/>
<path d="M25.6089 48.0628C24.9801 45.9206 10.4437 46.9507 10.4437 46.9507C10.4437 46.9507 8.91641 49.769 8.40346 51.7122C7.64418 54.5598 8.16872 59.8071 8.16872 59.8071L25.067 59.6491C25.067 59.6491 26.119 49.7983 25.6089 48.0628Z" fill="#97C1BF"/>
<path d="M11.5424 48.0626C11.5424 48.0626 10.1281 50.7609 9.8934 52.3471C9.65866 53.9333 9.65576 58.9349 9.65576 58.9349L12.5538 59.0139C12.5538 59.0139 12.0814 55.2854 12.7885 53.4534C13.4956 51.6214 16.9529 47.7378 16.9529 47.7378L11.5424 48.0626Z" fill="white"/>
<path d="M292.965 28.2642L94.2545 34.7992L72.8643 46.1689L281.301 36.242L292.965 28.2642Z" fill="#38BBF4"/>
<path d="M22.0591 46.2393C22.0591 46.2393 44.4375 39.6369 55.6934 38.2176C66.9492 36.7982 94.2543 34.8052 94.2543 34.8052L101.01 38.5014C101.01 38.5014 63.8571 39.3531 56.2585 39.9237C48.6599 40.4944 25.1513 46.7514 25.1513 46.7514L22.0591 46.2393Z" fill="#38BBF4"/>
<path d="M298.086 34.9104C298.086 34.9104 290.58 34.7231 289.829 34.7231C289.079 34.7231 287.954 35.4811 287.954 36.4264C287.954 37.3717 288.516 43.4502 288.705 44.1965C288.893 44.9427 290.017 45.7124 291.33 45.7124C292.643 45.7124 299.213 45.9026 299.213 45.9026L298.086 34.9104Z" fill="#B52C1A"/>
<path d="M289.783 35.9203L290.456 44.3254H293.148L292.475 35.8354L289.783 35.9203Z" fill="#F23325"/>
<path opacity="0.7" d="M216.414 77.3225L85.7167 78.4785L84.6851 72.9824L218.191 71.0889L216.414 77.3225Z" fill="#2A5696"/>
<path opacity="0.7" d="M261.725 68.6249L300.283 66.3509L304.786 64.3608L260.392 65.8592L261.725 68.6249Z" fill="#2A5696"/>
<path d="M162.085 40.6262C162.085 41.6681 161.779 42.6866 161.206 43.5529C160.633 44.4192 159.818 45.0944 158.865 45.4931C157.912 45.8918 156.863 45.9961 155.851 45.7928C154.839 45.5896 153.91 45.0879 153.18 44.3511C152.451 43.6144 151.954 42.6758 151.753 41.6539C151.551 40.6321 151.655 39.5729 152.049 38.6103C152.444 37.6477 153.113 36.825 153.971 36.2462C154.829 35.6674 155.837 35.3584 156.869 35.3584C158.252 35.3584 159.579 35.9134 160.557 36.9013C161.536 37.8892 162.085 39.2291 162.085 40.6262Z" fill="#2A5696"/>
<path d="M224.288 37.7844C224.288 38.8263 223.982 39.8448 223.409 40.7111C222.835 41.5774 222.021 42.2526 221.068 42.6513C220.114 43.05 219.066 43.1543 218.054 42.951C217.042 42.7478 216.112 42.2461 215.383 41.5093C214.653 40.7726 214.156 39.834 213.955 38.8121C213.754 37.7903 213.857 36.7311 214.252 35.7685C214.647 34.8059 215.315 33.9832 216.173 33.4044C217.031 32.8256 218.04 32.5166 219.071 32.5166C220.455 32.5166 221.782 33.0716 222.76 34.0595C223.738 35.0474 224.288 36.3873 224.288 37.7844Z" fill="#2A5696"/>
<path d="M94.0514 73.4567L93.9876 73.2577C93.9558 73.1582 90.8897 63.3776 92.5676 50.1115C94.0166 38.5954 98.7665 32.1335 98.8157 32.0692L98.8621 32.0194C99.1287 31.797 125.793 9.75992 139.472 4.68524C142.787 3.45609 173.437 2.16547 174.741 2.10986H175.086L170.515 30.919C170.486 31.0127 167.426 40.6528 166.87 49.6081C166.313 58.5634 168.811 71.291 168.835 71.4198L168.901 71.7534H168.565L94.0514 73.4567ZM99.2446 32.4379C98.9172 32.8944 94.5151 39.1983 93.1269 50.1817C91.5968 62.2801 94.0398 71.4257 94.4629 72.8802L168.22 71.1886C167.832 69.1107 165.8 57.7732 166.307 49.5613C166.855 40.7377 169.811 31.2673 169.973 30.7522L174.419 2.6981C170.962 2.84443 142.715 4.09115 139.666 5.22373C126.271 10.193 100.239 31.6068 99.2446 32.4408V32.4379Z" fill="#2B2A25"/>
<path d="M168.562 71.7502V71.1824L214.38 70.6615C214.466 69.087 215.037 61.3433 217.886 57.925C220.036 55.3467 222.584 54.2463 224.841 53.2777C227.296 52.2182 229.235 51.3812 229.658 48.9639C229.858 47.8255 227.82 37.1552 225.12 25.1767C221.68 10.0083 219.483 2.7914 218.822 2.36998C217.26 1.69394 186.486 2.36705 174.749 2.68312V2.11244C176.488 2.06854 217.06 0.985709 219.057 1.85197C220.361 2.41973 223.726 16.517 225.609 24.8753C228.052 35.686 230.434 47.7025 230.194 49.0663C229.719 51.788 227.554 52.7245 225.044 53.8074C222.856 54.7497 220.376 55.8208 218.312 58.2967C215.321 61.8818 214.924 70.881 214.921 70.96V71.2292L168.562 71.7502Z" fill="#2B2A25"/>
<path d="M163.305 40.0936C163.308 40.3695 163.203 40.6353 163.012 40.8328C162.821 41.0303 162.561 41.1433 162.288 41.1472H151.015C150.741 41.1472 150.479 41.0374 150.285 40.842C150.092 40.6467 149.983 40.3817 149.983 40.1053C149.984 39.8293 150.093 39.5647 150.286 39.3695C150.479 39.1743 150.741 39.0642 151.015 39.0635H162.288C162.561 39.0635 162.824 39.1732 163.017 39.3686C163.211 39.564 163.32 39.829 163.32 40.1053L163.305 40.0936Z" fill="#2B2A25"/>
<path d="M225.415 37.4598C225.415 37.7359 225.306 38.0005 225.112 38.1957C224.919 38.3909 224.657 38.5009 224.384 38.5017H213.125C212.851 38.5017 212.589 38.3919 212.395 38.1965C212.202 38.0011 212.093 37.7361 212.093 37.4598C212.093 37.1835 212.202 36.9185 212.395 36.7231C212.589 36.5277 212.851 36.418 213.125 36.418H224.384C224.657 36.418 224.92 36.5277 225.113 36.7231C225.307 36.9185 225.415 37.1835 225.415 37.4598Z" fill="#2B2A25"/>
<path opacity="0.7" d="M9.54828 74.5453L38.3632 74.9901L39.305 70.7407L5.65625 70.9309L9.54828 74.5453Z" fill="#2A5696"/>
</g>
<defs>
<clipPath id="clip0_5497_40459">
<rect width="310" height="99" fill="white"/>
</clipPath>
</defs>
</svg>
