<svg width="460" height="312" viewBox="0 0 460 312" fill="none" xmlns="http://www.w3.org/2000/svg">
<g clip-path="url(#clip0_5497_41126)">
<path d="M183.772 360.951C207.551 345.529 213.849 315.616 213.839 288.535C213.839 284.02 214.499 279.271 212.488 275.243C210.477 271.215 205.55 268.323 201.436 270.088C198.023 271.559 196.429 275.405 194.438 278.571C191.786 282.787 187.993 286.168 183.498 288.322C180.573 289.722 176.977 290.513 174.183 288.849C170.364 286.566 170.12 281.168 170.263 276.673C170.594 268.306 170.933 259.938 171.278 251.571C171.451 247.076 171.624 242.499 170.374 238.187C169.125 233.875 166.159 229.816 161.923 228.467C157.687 227.117 152.314 229.41 151.268 233.773C150.831 235.59 151.136 237.507 150.953 239.364C150.77 241.221 149.825 243.26 148.027 243.717C146.23 244.174 144.462 242.844 143.162 241.485C138.682 236.797 135.726 230.851 133.004 224.946C130.282 219.04 127.6 212.993 123.558 207.899C119.515 202.806 113.827 198.696 107.407 198.118C100.987 197.54 93.9785 201.274 92.1704 207.524C90.3623 213.774 93.8058 220.349 97.6556 225.615C103.353 233.418 110.148 240.358 117.829 246.223C119.21 247.238 120.713 248.415 121.201 250.099C122.075 253.143 119.169 256.005 116.122 256.887C112.73 257.902 109.103 257.415 105.589 257.709C102.074 258.004 98.2142 259.414 96.782 262.681C94.7505 267.207 98.458 272.148 102.135 275.436C109.496 282.004 117.935 287.256 127.082 290.96C130.343 292.279 133.786 293.466 136.377 295.871C138.967 298.276 140.44 302.375 138.723 305.48C137.006 308.585 132.832 309.467 129.388 308.706C125.945 307.945 122.908 305.967 119.647 304.648C113.552 302.111 105.558 302.263 101.424 307.468C98.7018 310.888 98.3056 315.758 99.4839 319.979C100.662 324.2 103.202 327.894 105.914 331.313C115.421 343.246 127.783 353.027 141.943 358.476C156.103 363.924 169.369 365.71 183.762 360.992" fill="#EBEBEB"/>
<path d="M181.01 361.834C180.39 351.089 180.908 357.532 177.363 343.763C173.366 328.876 168.516 314.231 162.838 299.899C161.355 296.084 159.888 292.316 158.439 288.596C156.987 284.892 155.554 281.209 153.919 277.708C150.783 270.975 147.27 264.423 143.396 258.085C139.749 251.997 136.062 246.365 132.578 241.12C129.094 235.874 125.732 231.054 122.491 226.793C117.405 220.035 111.79 213.69 105.701 207.818C103.557 205.789 101.831 204.186 100.622 203.151L99.2709 201.974C99.1223 201.836 98.9626 201.71 98.7935 201.598C98.9202 201.761 99.0631 201.911 99.2201 202.045L100.561 203.273C101.699 204.358 103.385 205.951 105.498 208.052C111.483 213.995 117.014 220.379 122.044 227.148C125.244 231.43 128.566 236.28 132.029 241.505C135.493 246.731 139.14 252.403 142.766 258.48C146.604 264.808 150.09 271.342 153.208 278.053C154.823 281.544 156.255 285.156 157.698 288.9L162.086 300.203C167.753 314.504 172.613 329.111 176.642 343.956C180.217 357.674 179.76 351.17 180.451 361.875" fill="#E0E0E0"/>
<path d="M153.685 277.678C153.926 277.063 154.097 276.423 154.193 275.77C154.468 274.543 154.813 272.726 155.209 270.514C156.001 266.07 156.875 259.881 157.82 253.062C158.764 246.244 159.729 240.095 160.583 235.671C160.999 233.449 161.354 231.663 161.598 230.435C161.777 229.8 161.883 229.146 161.913 228.487C161.64 229.086 161.429 229.712 161.283 230.354C160.928 231.561 160.481 233.337 159.983 235.549C158.967 239.953 157.952 246.122 156.987 252.951C156.022 259.779 155.25 265.776 154.62 270.423C154.315 272.524 154.061 274.299 153.858 275.72C153.725 276.364 153.667 277.021 153.685 277.678Z" fill="#E0E0E0"/>
<path d="M96.2539 264.913C97.0057 265.106 97.7746 265.225 98.5495 265.269C100.033 265.451 102.166 265.705 104.807 266.101C110.078 266.851 117.331 268.13 125.264 269.916C133.197 271.702 140.308 273.629 145.417 275.172C147.977 275.923 150.029 276.582 151.451 277.039C152.175 277.316 152.923 277.526 153.685 277.668C153.007 277.285 152.292 276.969 151.552 276.724C150.161 276.176 148.129 275.425 145.59 274.603C140.511 272.909 133.4 270.89 125.447 269.094C118.656 267.547 111.791 266.348 104.878 265.502C102.227 265.177 100.073 265.015 98.58 264.934C97.807 264.854 97.0282 264.847 96.2539 264.913Z" fill="#E0E0E0"/>
<path d="M176.682 342.677C176.855 342.467 176.998 342.235 177.109 341.987L178.125 339.958C179.039 338.172 180.288 335.544 181.791 332.287C184.839 325.763 188.678 316.631 192.823 306.494C196.967 296.358 200.756 287.216 203.63 280.61C205.042 277.414 206.2 274.786 207.054 272.838C207.429 271.986 207.724 271.286 207.978 270.717C208.108 270.477 208.197 270.216 208.242 269.946C208.079 270.165 207.94 270.399 207.826 270.646L206.81 272.676C205.896 274.462 204.646 277.09 203.143 280.347C200.096 286.871 196.246 296.003 192.101 306.15C187.957 316.296 184.168 325.428 181.304 332.023L177.871 339.796L176.956 341.916C176.833 342.158 176.741 342.413 176.682 342.677Z" fill="#E0E0E0"/>
<path d="M377.865 132.175C377.865 132.175 365.615 125.702 354.289 154.569C342.963 183.436 339.215 199.823 339.215 199.823C339.215 199.823 336.066 205.911 331.739 202.573C327.412 199.234 320.931 189.047 314.39 191.624C307.594 194.303 306.06 202.319 308.519 213.622C310.977 224.926 315.446 249.907 315.842 252.179C316.238 254.452 315.273 257.821 311.952 255.984C308.63 254.148 288.782 236.016 280.727 245.939C272.672 255.863 284.699 286.242 285.948 289.57C287.198 292.898 286.669 294.45 285.115 295.455C283.561 296.459 277.477 289.742 271.616 284.811C265.755 279.88 258.106 275.192 253.931 281.3C249.756 287.409 250.559 311.02 276.654 346.929L289.859 362.778L310.327 359.612C353.73 350.186 370.064 333.099 371.029 325.773C371.994 318.447 363.157 316.844 355.498 316.641C347.839 316.438 338.809 317.392 338.321 315.626C337.834 313.861 338.474 312.349 341.633 310.685C344.792 309.021 374.025 294.349 374.625 281.584C375.224 268.82 348.326 269.155 344.629 268.313C340.932 267.47 342.496 264.254 344.263 262.884C346.031 261.514 366.052 245.807 375.427 238.999C384.803 232.191 388.998 225.2 385.717 218.706C382.558 212.425 370.958 215.662 365.473 215.327C359.987 214.992 361.735 208.316 361.735 208.316C361.735 208.316 369.861 193.593 380.648 164.523C391.436 135.452 377.601 132.114 377.601 132.114" fill="#EBEBEB"/>
<path d="M290.326 358.323C298.341 337.016 309.626 307.59 322.272 275.253C334.918 242.916 346.254 213.541 354.38 192.263L363.969 167.079L366.59 160.231L367.281 158.445C367.443 158.049 367.535 157.856 367.535 157.856C367.535 157.856 367.484 158.069 367.342 158.475L366.702 160.271L364.203 167.161C362.029 173.147 358.819 181.792 354.807 192.446C346.793 213.754 335.507 243.118 322.871 275.507C310.235 307.895 298.879 337.229 290.753 358.506" fill="#E0E0E0"/>
<path d="M322.729 206.012C322.995 206.433 323.213 206.883 323.38 207.352C323.766 208.224 324.284 209.513 324.913 211.106C326.173 214.292 327.788 218.736 329.484 223.667L333.781 236.33C334.299 237.842 334.746 239.121 335.102 240.156C335.301 240.61 335.444 241.087 335.528 241.576C335.258 241.16 335.036 240.714 334.868 240.247C334.482 239.364 333.964 238.086 333.354 236.483C332.125 233.286 330.571 228.822 328.875 223.88L324.497 211.258L323.146 207.443C322.958 206.982 322.818 206.502 322.729 206.012Z" fill="#E0E0E0"/>
<path d="M337.458 241.759C337.387 241.596 346.417 237.863 357.621 233.418C368.825 228.974 377.936 225.514 378.017 225.676C378.099 225.839 369.058 229.573 357.855 234.017C346.651 238.461 337.519 241.921 337.458 241.759Z" fill="#E0E0E0"/>
<path d="M315.903 290.625C316.394 290.491 316.898 290.416 317.407 290.402L321.531 290.016C325.005 289.681 329.809 289.205 335.091 288.474C340.373 287.743 345.127 286.952 348.56 286.333L352.623 285.613C353.119 285.491 353.626 285.423 354.137 285.41C353.673 285.617 353.185 285.767 352.684 285.856C351.729 286.089 350.348 286.414 348.621 286.779C345.198 287.51 340.434 288.393 335.142 289.113C329.85 289.834 324.984 290.25 321.531 290.463C319.784 290.564 318.372 290.635 317.396 290.655C316.899 290.696 316.399 290.686 315.903 290.625Z" fill="#E0E0E0"/>
<path d="M295.405 261.21C295.744 261.538 296.05 261.898 296.319 262.286L298.625 265.329C300.545 267.917 303.176 271.529 306.03 275.537C308.884 279.545 311.465 283.188 313.293 285.856L315.426 289.022C315.711 289.4 315.953 289.808 316.147 290.24C315.799 289.917 315.489 289.556 315.223 289.164L312.927 286.12C310.997 283.522 308.377 279.91 305.512 275.902C302.648 271.894 300.088 268.252 298.26 265.583L296.116 262.458C295.829 262.073 295.59 261.653 295.405 261.21Z" fill="#E0E0E0"/>
<path d="M270.844 301.928C271.272 302.352 271.659 302.814 272.002 303.308L274.978 307.215C277.456 310.523 280.849 315.119 284.577 320.223C288.305 325.327 291.626 329.964 294.024 333.342L296.827 337.401C297.194 337.876 297.514 338.386 297.782 338.923C297.347 338.501 296.953 338.039 296.604 337.543L293.638 333.647C291.149 330.339 287.756 325.743 284.039 320.639C280.321 315.535 276.979 310.898 274.582 307.519L271.778 303.461C271.421 302.979 271.109 302.466 270.844 301.928Z" fill="#E0E0E0"/>
<path d="M356.402 58.8857C356.402 58.8857 350.572 66.5059 339.205 64.3345C332.176 62.9951 318.24 62.3052 316.442 67.5002L318.534 83.1667C324.666 81.7601 331.03 81.7082 337.184 83.0145C346.437 85.2264 359.805 78.6818 359.805 78.6818L356.402 58.8857Z" fill="#EBEBEB"/>
<path d="M337.468 80.762C336.388 80.6711 335.34 80.3487 334.396 79.817C333.451 79.2852 332.633 78.5564 331.996 77.6803C331.358 76.8041 330.918 75.8011 330.704 74.7396C330.489 73.678 330.506 72.5828 330.754 71.5285C331.77 67.7235 337.458 65.9783 341.257 67.0234C342.163 67.2687 343.011 67.6906 343.752 68.2649C344.494 68.8391 345.115 69.5544 345.578 70.3693C346.042 71.1843 346.339 72.0828 346.454 73.0132C346.568 73.9436 346.497 74.8873 346.244 75.7901C345.198 79.585 341.399 81.1374 337.468 80.762Z" fill="#F5F5F5"/>
<path d="M336.351 77.9716C336.351 77.8498 336.676 77.8092 337.174 77.7889C337.859 77.7865 338.541 77.7014 339.205 77.5353C339.601 77.4294 339.971 77.2429 340.292 76.9874C340.602 76.7626 340.816 76.4292 340.891 76.0539C340.918 75.8695 340.9 75.6817 340.84 75.5054C340.78 75.3291 340.679 75.1694 340.546 75.0392C340.156 74.7732 339.686 74.6512 339.215 74.6942C338.9 74.6942 338.545 74.6942 338.2 74.6942C337.775 74.6785 337.357 74.5928 336.96 74.4405C336.743 74.3482 336.538 74.2289 336.351 74.0854C336.151 73.9333 335.98 73.7479 335.843 73.5375C335.591 73.1473 335.457 72.6929 335.457 72.2286C335.465 71.8024 335.576 71.3845 335.782 71.011C335.977 70.6816 336.24 70.3978 336.554 70.179C337.056 69.8386 337.636 69.6293 338.24 69.5702C338.694 69.5181 339.153 69.5352 339.601 69.6209C339.922 69.6734 340.238 69.7515 340.546 69.8543C341.054 70.0268 341.308 70.1891 341.288 70.3007C341.267 70.4123 340.962 70.4834 340.455 70.5037C339.771 70.5113 339.089 70.5929 338.423 70.7472C338.05 70.8572 337.704 71.0438 337.407 71.2951C337.272 71.4007 337.165 71.5389 337.098 71.6969C337.03 71.8548 337.004 72.0273 337.021 72.1981C337.032 72.3515 337.084 72.499 337.174 72.6243C337.22 72.6827 337.275 72.734 337.336 72.7765C337.41 72.8251 337.488 72.8659 337.57 72.8983C338.136 73.0241 338.718 73.0685 339.297 73.0302C339.708 73.0331 340.118 73.0877 340.516 73.1925C340.741 73.2531 340.959 73.3381 341.166 73.4462C341.379 73.5661 341.574 73.7165 341.745 73.8926C342.059 74.2145 342.288 74.6091 342.412 75.0411C342.536 75.4732 342.551 75.9292 342.456 76.3684C342.369 76.7427 342.206 77.0952 341.977 77.4041C341.748 77.7131 341.458 77.9718 341.125 78.1644C340.619 78.4767 340.05 78.6741 339.459 78.7427C338.676 78.8203 337.885 78.7233 337.143 78.4586C336.574 78.2658 336.32 78.0832 336.351 77.9716Z" fill="#EBEBEB"/>
<path d="M340.282 79.7474C340.048 79.7474 339.561 77.2412 339.185 74.0856C338.809 70.93 338.697 68.3527 338.931 68.3223C339.165 68.2919 339.652 70.8285 340.028 73.9841C340.404 77.1397 340.516 79.717 340.282 79.7474Z" fill="#EBEBEB"/>
<path d="M338.961 79.6053C338.738 79.6053 338.27 77.3324 337.945 74.4711C337.62 71.6097 337.519 69.2658 337.752 69.2354C337.986 69.205 338.453 71.5083 338.768 74.3696C339.083 77.231 339.195 79.585 338.961 79.6053Z" fill="#EBEBEB"/>
<g opacity="0.5">
<path d="M319.865 81.4926L318.006 67.2365L318.118 67.1554C323.674 63.0967 333.923 64.7811 340.708 65.9175C341.876 66.1103 342.984 66.303 343.938 66.435C350.307 67.3279 355.051 62.3154 355.173 61.7371H355.681L357.936 77.0889L357.804 77.1701C354.355 79.381 350.482 80.8487 346.433 81.4794C342.384 82.1101 338.248 81.89 334.289 80.833C328.885 79.2705 320.22 81.452 320.139 81.4824L319.865 81.4926ZM318.544 67.4699L320.291 80.833C321.845 80.4576 329.382 78.8037 334.431 80.2648C338.291 81.2958 342.322 81.5188 346.273 80.9199C350.223 80.321 354.007 78.9131 357.387 76.7845L355.284 62.4473C354.97 62.8089 354.631 63.148 354.269 63.462C353.151 64.4767 349.088 67.6424 343.847 66.9017C342.892 66.7698 341.815 66.577 340.607 66.3842C333.974 65.2985 323.948 63.5838 318.544 67.4699Z" fill="#FAFAFA"/>
</g>
<path d="M148.038 41.4336C148.038 41.4336 138.459 40.774 134 30.1099C131.237 23.5045 124.106 11.5314 118.763 12.8606L106.879 23.2609C111.431 27.5941 114.981 32.8681 117.28 38.7143C120.541 47.6535 133.38 55.1721 133.38 55.1721L148.038 41.4336Z" fill="#F5F5F5"/>
<path d="M119.322 37.7199C118.804 36.7654 118.498 35.7105 118.425 34.6272C118.352 33.5438 118.514 32.4575 118.899 31.4423C119.285 30.4272 119.885 29.5071 120.66 28.7448C121.434 27.9825 122.363 27.396 123.385 27.0253C127.133 25.7976 131.714 29.5519 132.943 33.296C133.238 34.1859 133.353 35.1253 133.282 36.0599C133.212 36.9946 132.957 37.906 132.532 38.7417C132.107 39.5774 131.521 40.3208 130.807 40.9291C130.093 41.5374 129.265 41.9985 128.372 42.2859C124.573 43.5035 121.181 41.1901 119.322 37.7199Z" fill="#EBEBEB"/>
<path d="M121.029 35.2441C121.14 35.2441 121.344 35.4267 121.638 35.8326C122.021 36.3837 122.46 36.8938 122.948 37.3546C123.246 37.617 123.59 37.8202 123.964 37.9532C124.319 38.097 124.716 38.097 125.071 37.9532C125.237 37.8746 125.382 37.7585 125.495 37.6141C125.608 37.4696 125.685 37.3008 125.721 37.1212C125.738 36.6497 125.583 36.1882 125.285 35.8224C125.112 35.5485 124.909 35.2542 124.726 34.9194C124.506 34.559 124.349 34.1647 124.259 33.7525C124.223 33.5171 124.223 33.2777 124.259 33.0422C124.27 32.7933 124.329 32.5489 124.431 32.3218C124.694 31.7384 125.175 31.2804 125.77 31.0454C126.366 30.8104 127.03 30.817 127.621 31.0636C128.179 31.277 128.674 31.6257 129.063 32.0783C129.358 32.4253 129.598 32.8154 129.774 33.235C129.912 33.5316 130.021 33.8408 130.099 34.1584C130.232 34.6758 130.242 34.9701 130.099 35.0208C129.957 35.0716 129.774 34.8483 129.47 34.4425C129.096 33.8837 128.66 33.3696 128.169 32.9103C127.878 32.6475 127.531 32.4534 127.154 32.3421C126.984 32.2778 126.801 32.2598 126.622 32.2902C126.444 32.3205 126.276 32.398 126.138 32.5146C126.009 32.6076 125.913 32.7391 125.864 32.89C125.848 32.9602 125.848 33.0329 125.864 33.1031C125.854 33.1874 125.854 33.2725 125.864 33.3568C126.069 33.9026 126.353 34.4155 126.707 34.8788C126.928 35.2219 127.109 35.5896 127.245 35.9746C127.314 36.1997 127.362 36.4307 127.387 36.6646C127.418 36.9037 127.418 37.1458 127.387 37.385C127.294 37.828 127.091 38.2405 126.796 38.5845C126.502 38.9285 126.125 39.1929 125.701 39.3534C125.341 39.4809 124.959 39.5358 124.577 39.5149C124.195 39.494 123.821 39.3977 123.477 39.2317C122.944 38.9995 122.469 38.6531 122.085 38.217C121.605 37.6213 121.258 36.9291 121.069 36.1877C120.876 35.589 120.927 35.2846 121.029 35.2441Z" fill="#F5F5F5"/>
<path d="M121.719 39.4955C121.567 39.323 123.416 37.4662 125.843 35.4369C128.271 33.4076 130.374 31.8653 130.516 32.0479C130.658 32.2305 128.83 34.0772 126.392 36.1066C123.954 38.1359 121.892 39.6782 121.719 39.4955Z" fill="#F5F5F5"/>
<path d="M121.11 38.3287C120.957 38.146 122.623 36.4921 124.827 34.6353C127.032 32.7784 128.951 31.4087 129.104 31.5913C129.256 31.7739 127.58 33.4278 125.376 35.2847C123.172 37.1415 121.262 38.5012 121.11 38.3287Z" fill="#F5F5F5"/>
<g opacity="0.5">
<path d="M109.002 23.4435L119.86 14.0376H120.003C126.473 16.4119 130.689 25.899 133.482 32.1798C133.969 33.2655 134.427 34.2903 134.833 35.1528C137.606 40.9567 144.401 42.1438 144.991 41.9307L145.285 42.3366L133.695 52.7268L133.543 52.6659C129.801 51.0043 126.446 48.5828 123.691 45.5555C120.937 42.5281 118.844 38.9612 117.545 35.0817C115.879 29.7142 109.276 23.6972 109.205 23.6363L109.002 23.4435ZM119.982 14.616L109.754 23.4537C110.932 24.5495 116.468 29.9171 118.032 34.9295C119.292 38.7228 121.325 42.214 124.004 45.1829C126.682 48.1518 129.947 50.5339 133.594 52.1788L144.401 42.5192C143.935 42.4674 143.473 42.3792 143.02 42.2554C141.578 41.8699 136.671 40.2261 134.396 35.4572C133.99 34.5846 133.533 33.5597 133.045 32.4741C130.313 26.2846 126.179 17.0004 119.982 14.616Z" fill="#EBEBEB"/>
</g>
<path d="M79.0672 131.201C78.2911 133.253 76.9743 135.058 75.256 136.424C73.5378 137.791 71.4819 138.668 69.3057 138.963C64.4402 139.826 55.278 142.829 55.3897 146.604L60.6107 156.202C64.2195 153.785 68.3139 152.185 72.6069 151.515C79.1282 150.662 86.1369 143.144 86.1369 143.144L79.0672 131.201Z" fill="#F5F5F5"/>
<path d="M72.241 149.992C71.5203 150.199 70.7636 150.248 70.0223 150.136C69.2809 150.025 68.5722 149.755 67.9441 149.346C67.3161 148.938 66.7834 148.398 66.3821 147.766C65.9808 147.133 65.7203 146.422 65.6182 145.68C65.3541 142.971 68.5843 140.444 71.2964 140.181C72.5987 140.056 73.8973 140.453 74.9067 141.285C75.9162 142.116 76.5539 143.314 76.6799 144.615C76.9339 147.324 74.8617 149.262 72.241 149.992Z" fill="#EBEBEB"/>
<path d="M70.8191 148.471C70.8191 148.379 70.9918 148.278 71.3168 148.146C71.7475 147.974 72.1566 147.753 72.5357 147.486C72.7655 147.321 72.9591 147.11 73.1046 146.867C73.2516 146.647 73.3063 146.377 73.2569 146.116C73.2279 145.994 73.1705 145.879 73.0894 145.782C73.0083 145.685 72.9057 145.609 72.7897 145.558C72.4727 145.479 72.1377 145.515 71.845 145.66L71.1543 145.903C70.8752 145.992 70.5838 146.037 70.2909 146.035C70.1261 146.031 69.9624 146.008 69.8033 145.964C69.5679 145.884 69.354 145.75 69.1779 145.574C69.0019 145.398 68.8684 145.185 68.7876 144.95C68.6874 144.674 68.656 144.378 68.6961 144.087C68.7359 143.827 68.8369 143.58 68.9907 143.367C69.2227 143.016 69.5457 142.736 69.9252 142.555C70.2059 142.409 70.5074 142.306 70.8191 142.251C71.0353 142.198 71.2569 142.171 71.4793 142.169C71.8552 142.169 72.0583 142.169 72.0685 142.271C72.0786 142.372 71.906 142.464 71.5911 142.616C71.1571 142.779 70.7444 142.993 70.362 143.255C70.1386 143.415 69.9545 143.623 69.8236 143.864C69.7667 143.968 69.7369 144.085 69.7369 144.204C69.7369 144.323 69.7667 144.439 69.8236 144.544C69.8686 144.641 69.9387 144.725 70.0268 144.787L70.169 144.838C70.2294 144.849 70.2914 144.849 70.3518 144.838C70.7487 144.783 71.1354 144.67 71.4997 144.503C71.7653 144.405 72.0414 144.337 72.3224 144.3C72.4846 144.285 72.6478 144.285 72.81 144.3C72.9748 144.326 73.1354 144.374 73.2874 144.442C73.5709 144.574 73.8174 144.773 74.0052 145.023C74.1931 145.272 74.3163 145.564 74.3641 145.873C74.399 146.135 74.3801 146.402 74.3085 146.656C74.2369 146.911 74.1141 147.149 73.9477 147.354C73.6959 147.679 73.3771 147.945 73.0131 148.136C72.5265 148.379 71.9928 148.514 71.4489 148.531C71.0426 148.592 70.8394 148.542 70.8191 148.471Z" fill="#F5F5F5"/>
<path d="M73.8053 148.643C72.9397 147.624 72.231 146.482 71.7027 145.254C70.9977 144.12 70.4606 142.889 70.1079 141.601C70.9722 142.619 71.6839 143.758 72.2207 144.98C72.9231 146.118 73.4569 147.352 73.8053 148.643Z" fill="#F5F5F5"/>
<path d="M72.9219 148.876C72.1154 147.973 71.4603 146.945 70.9817 145.832C70.3371 144.805 69.8605 143.682 69.5698 142.504C70.375 143.407 71.0269 144.435 71.4998 145.548C72.15 146.574 72.6302 147.698 72.9219 148.876Z" fill="#F5F5F5"/>
<g opacity="0.5">
<path d="M61.0476 154.802L56.3345 146.045V145.964C58.9145 141.967 65.9538 140.546 70.6161 139.612C71.4186 139.45 72.1804 139.298 72.8305 139.146C74.2529 138.771 75.5575 138.044 76.6231 137.031C77.6886 136.018 78.4805 134.753 78.9251 133.352L79.24 133.21L84.4814 142.565L84.4204 142.656C82.7371 144.928 80.5972 146.824 78.1378 148.222C75.6785 149.62 72.9539 150.489 70.1387 150.774C66.2687 151.098 61.2102 154.64 61.1594 154.67L61.0476 154.802ZM56.7408 146.066L61.1695 154.285C62.0837 153.666 66.5429 150.743 70.1591 150.439C72.9063 150.157 75.5653 149.309 77.9689 147.951C80.3725 146.592 82.4688 144.752 84.1258 142.545L79.2299 133.809C79.1185 134.115 78.9861 134.413 78.8337 134.702C78.2401 135.864 77.4106 136.89 76.398 137.715C75.3854 138.539 74.2119 139.144 72.9524 139.491L70.738 139.947C66.1671 140.871 59.2802 142.251 56.7408 146.066Z" fill="#EBEBEB"/>
</g>
<path d="M451 43.8891C449.17 45.0994 447.048 45.7939 444.856 45.8993C442.664 46.0047 440.484 45.517 438.547 44.4878C434.088 42.3468 424.895 39.4144 422.782 42.5802L421.37 53.4371C425.716 53.5847 429.976 54.679 433.854 56.6435C439.644 59.7585 449.73 57.7393 449.73 57.7393L451 43.8891Z" fill="#F5F5F5"/>
<path d="M434.443 55.162C433.738 54.9078 433.096 54.5053 432.56 53.9817C432.025 53.4581 431.608 52.8257 431.338 52.1271C431.069 51.4286 430.952 50.6803 430.997 49.933C431.042 49.1857 431.247 48.4567 431.599 47.7955C432.97 45.4415 437.064 45.2792 439.42 46.649C439.986 46.976 440.48 47.4119 440.875 47.9312C441.27 48.4505 441.559 49.043 441.723 49.6744C441.887 50.3057 441.925 50.9634 441.833 51.6093C441.741 52.2552 441.522 52.8764 441.188 53.4371C439.827 55.7302 437.003 56.0955 434.443 55.162Z" fill="#EBEBEB"/>
<path d="M434.189 53.092C434.189 53.021 434.433 53.092 434.778 53.092C435.227 53.2062 435.687 53.2708 436.15 53.2848C436.433 53.2786 436.713 53.2166 436.973 53.1021C437.223 53.0108 437.427 52.825 437.541 52.5847C437.589 52.4669 437.608 52.3401 437.6 52.2136C437.591 52.0871 437.554 51.9642 437.491 51.8541C437.275 51.6073 436.981 51.4424 436.658 51.3874L435.957 51.1844C435.675 51.0981 435.411 50.9642 435.175 50.7887C435.045 50.6895 434.929 50.5735 434.829 50.4437C434.726 50.3098 434.647 50.1586 434.596 49.9973C434.505 49.6892 434.505 49.3617 434.596 49.0536C434.673 48.7666 434.824 48.5045 435.032 48.2926C435.22 48.1086 435.445 47.9668 435.693 47.8766C436.087 47.7382 436.509 47.6998 436.922 47.765C437.235 47.8107 437.54 47.903 437.826 48.039C438.03 48.1315 438.227 48.24 438.415 48.3637C438.72 48.5666 438.862 48.7188 438.831 48.8C438.801 48.8811 438.588 48.8608 438.242 48.8C437.791 48.6824 437.327 48.6177 436.861 48.6072C436.587 48.6026 436.316 48.6616 436.069 48.7797C435.96 48.8281 435.865 48.9026 435.793 48.9964C435.72 49.0902 435.672 49.2005 435.652 49.3174C435.621 49.42 435.621 49.5294 435.652 49.632C435.669 49.6814 435.697 49.7264 435.733 49.7639C435.768 49.8111 435.813 49.8494 435.865 49.8755C436.219 50.0657 436.599 50.2025 436.993 50.2814C437.269 50.3542 437.535 50.4598 437.785 50.5959C437.923 50.6817 438.052 50.7802 438.171 50.8902C438.289 51.0086 438.392 51.1415 438.476 51.2859C438.625 51.5599 438.703 51.8668 438.703 52.1788C438.703 52.4908 438.625 52.7977 438.476 53.0717C438.218 53.5376 437.788 53.8837 437.277 54.0356C436.882 54.1509 436.466 54.1786 436.058 54.1168C435.523 54.0349 435.012 53.8337 434.565 53.5283C434.291 53.3254 434.159 53.163 434.189 53.092Z" fill="#F5F5F5"/>
<path d="M436.505 54.9691C436.4 53.6404 436.492 52.3034 436.779 51.0018C436.866 49.6675 437.153 48.3539 437.633 47.1055C437.726 48.4376 437.634 49.7762 437.358 51.083C437.271 52.4139 436.984 53.724 436.505 54.9691Z" fill="#F5F5F5"/>
<path d="M435.652 54.6445C435.531 53.4362 435.607 52.2164 435.876 51.0322C435.948 49.8193 436.219 48.6264 436.678 47.5012C436.793 48.7129 436.718 49.9351 436.455 51.1236C436.38 52.3329 436.109 53.5221 435.652 54.6445Z" fill="#F5F5F5"/>
<g opacity="0.5">
<path d="M422.559 52.5341L423.838 42.6817H423.94C428.369 40.9365 434.91 43.8993 439.248 45.8576C439.989 46.1924 440.69 46.507 441.279 46.7708C442.653 47.2969 444.138 47.4676 445.596 47.2671C447.054 47.0667 448.438 46.5016 449.619 45.6242L449.954 45.6953L448.735 56.3492H448.633C445.938 57.2132 443.092 57.5052 440.278 57.2064C437.463 56.9076 434.743 56.0247 432.29 54.6142C428.958 52.5848 422.782 52.5848 422.721 52.5848L422.559 52.5341ZM424.163 42.9252L422.955 52.1891C424.052 52.1891 429.385 52.4428 432.493 54.3098C434.889 55.6819 437.544 56.5444 440.29 56.8429C443.036 57.1415 445.814 56.8698 448.45 56.0448L449.578 46.1011C449.311 46.2847 449.033 46.4508 448.745 46.5983C447.583 47.1963 446.308 47.545 445.004 47.6218C443.699 47.6987 442.392 47.5022 441.167 47.0448C440.558 46.7911 439.847 46.4664 439.136 46.1316C434.86 44.2138 428.46 41.3119 424.163 42.9252Z" fill="#EBEBEB"/>
</g>
<path d="M206.83 142.048C205.283 138.708 204.069 135.224 203.204 131.647C202.339 128.048 202.561 124.273 203.844 120.801C204.503 119.078 205.572 117.54 206.957 116.321C208.342 115.101 210.003 114.236 211.797 113.799C214.022 113.363 216.409 113.738 218.542 112.957C221.01 112.044 222.605 109.781 224.576 107.985C227.61 105.168 231.477 103.409 235.597 102.973C237.746 102.671 239.937 102.984 241.915 103.876C242.892 104.337 243.737 105.038 244.371 105.912C245.005 106.787 245.407 107.807 245.541 108.878C248.023 107.929 250.618 107.308 253.261 107.032C255.931 106.759 258.602 107.546 260.696 109.223C262.728 110.989 263.612 114.053 262.413 116.417C263.538 115.862 264.829 115.743 266.037 116.082C267.244 116.421 268.284 117.195 268.955 118.254C269.577 119.352 269.869 120.606 269.795 121.866C269.721 123.126 269.285 124.338 268.538 125.356C266.68 127.576 264.09 129.061 261.235 129.547C258.756 129.882 255.872 130.125 253.505 129.324" fill="#263238"/>
<path d="M212.894 213.521L248.446 210.69C248.67 206.54 248.375 190.498 248.375 190.498C248.375 190.498 263.165 188.195 263.348 173.421C263.53 158.648 260.971 124.717 260.971 124.717C252.561 121.107 243.338 119.806 234.256 120.947C225.174 122.089 216.561 125.632 209.309 131.211L207.115 132.895L212.894 213.521Z" fill="#FFBE9D"/>
<path d="M248.406 190.285C241.572 190.406 234.855 188.5 229.106 184.806C229.106 184.806 233.667 195.439 248.406 194.11V190.285Z" fill="#AA6550"/>
<path d="M208.943 148.186C208.7 148.085 198.786 145.142 199.111 155.289C199.436 165.436 209.522 162.98 209.522 162.696C209.522 162.412 208.943 148.186 208.943 148.186Z" fill="#FFBE9D"/>
<path d="M206.312 158.962C206.312 158.962 206.14 159.094 205.845 159.236C205.435 159.43 204.964 159.455 204.535 159.307C203.448 158.952 202.503 157.278 202.392 155.461C202.338 154.596 202.477 153.73 202.798 152.925C202.883 152.606 203.046 152.312 203.27 152.07C203.495 151.828 203.776 151.644 204.088 151.535C204.283 151.487 204.488 151.506 204.671 151.586C204.855 151.667 205.007 151.806 205.104 151.981C205.246 152.265 205.185 152.468 205.236 152.478C205.287 152.488 205.449 152.306 205.358 151.89C205.292 151.643 205.146 151.424 204.941 151.271C204.796 151.167 204.631 151.094 204.456 151.056C204.282 151.018 204.101 151.015 203.925 151.048C203.513 151.142 203.132 151.342 202.819 151.626C202.506 151.91 202.271 152.27 202.138 152.671C201.732 153.557 201.554 154.53 201.62 155.502C201.742 157.531 202.849 159.408 204.322 159.784C204.596 159.854 204.882 159.862 205.16 159.808C205.437 159.754 205.699 159.638 205.926 159.469C206.302 159.205 206.353 158.962 206.312 158.962Z" fill="#AA6550"/>
<path d="M256.126 147.608C256.131 148.157 255.922 148.687 255.543 149.085C255.164 149.483 254.644 149.718 254.094 149.739C253.822 149.759 253.549 149.725 253.291 149.638C253.033 149.551 252.795 149.413 252.591 149.232C252.387 149.052 252.222 148.832 252.105 148.586C251.988 148.34 251.922 148.073 251.91 147.801C251.905 147.251 252.114 146.721 252.493 146.323C252.872 145.925 253.392 145.691 253.942 145.67C254.214 145.649 254.487 145.683 254.745 145.77C255.003 145.857 255.241 145.995 255.445 146.176C255.649 146.357 255.814 146.577 255.931 146.823C256.048 147.069 256.114 147.336 256.126 147.608Z" fill="#263238"/>
<path d="M258.178 145.497C257.914 145.771 256.319 144.594 254.044 144.594C251.768 144.594 250.102 145.741 249.859 145.457C249.737 145.335 250.001 144.838 250.732 144.31C251.718 143.636 252.889 143.281 254.084 143.296C255.266 143.298 256.417 143.671 257.375 144.361C258.066 144.878 258.31 145.376 258.178 145.497Z" fill="#263238"/>
<path d="M233.779 147.608C233.785 148.157 233.576 148.687 233.196 149.085C232.817 149.483 232.297 149.718 231.747 149.739C231.476 149.759 231.203 149.725 230.944 149.638C230.686 149.551 230.448 149.413 230.244 149.232C230.04 149.052 229.875 148.832 229.758 148.586C229.641 148.34 229.575 148.073 229.564 147.801C229.558 147.251 229.767 146.721 230.146 146.323C230.526 145.925 231.045 145.691 231.595 145.67C231.867 145.649 232.14 145.683 232.398 145.77C232.657 145.857 232.895 145.995 233.099 146.176C233.302 146.357 233.468 146.577 233.584 146.823C233.701 147.069 233.768 147.336 233.779 147.608Z" fill="#263238"/>
<path d="M235.831 145.924C235.566 146.198 233.972 145.01 231.696 145.021C229.421 145.031 227.755 146.157 227.511 145.883C227.268 145.609 227.654 145.264 228.385 144.736C229.371 144.062 230.542 143.708 231.737 143.722C232.914 143.705 234.066 144.06 235.028 144.736C235.719 145.305 235.963 145.771 235.831 145.924Z" fill="#263238"/>
<path d="M244.079 162.757C245.281 162.391 246.522 162.17 247.776 162.097C248.355 162.036 248.904 161.925 249.005 161.529C249.05 160.929 248.916 160.328 248.619 159.804L246.902 155.39C244.515 149.11 242.839 143.935 243.043 143.844C243.246 143.752 245.44 148.765 247.817 155.056C248.396 156.608 248.944 158.1 249.462 159.5C249.829 160.198 249.937 161.003 249.767 161.773C249.683 161.978 249.553 162.161 249.388 162.309C249.222 162.456 249.026 162.565 248.812 162.625C248.48 162.71 248.139 162.755 247.796 162.757C246.562 162.915 245.313 162.915 244.079 162.757Z" fill="#263238"/>
<path d="M237.395 164.33C237.761 164.33 237.771 166.775 239.884 168.53C241.997 170.286 244.617 170.002 244.638 170.347C244.638 170.499 244.048 170.824 242.941 170.854C241.495 170.879 240.088 170.39 238.97 169.474C237.899 168.595 237.207 167.338 237.04 165.963C236.948 164.928 237.223 164.32 237.395 164.33Z" fill="#263238"/>
<path d="M257.345 141.5C256.938 142.017 255.374 141.5 253.495 141.5C251.616 141.5 250.011 141.845 249.645 141.307C249.482 141.043 249.736 140.526 250.437 140.038C251.373 139.455 252.462 139.161 253.565 139.196C254.668 139.23 255.736 139.59 256.633 140.231C257.304 140.698 257.517 141.246 257.345 141.5Z" fill="#263238"/>
<path d="M232.875 137.715C232.621 137.989 232.042 137.877 231.28 137.715C229.434 137.289 227.522 137.227 225.653 137.532C224.881 137.634 224.292 137.705 224.058 137.411C223.824 137.116 224.058 136.497 224.85 135.848C225.925 135.062 227.233 134.659 228.564 134.703C229.896 134.747 231.174 135.236 232.194 136.092C232.936 136.802 233.119 137.461 232.875 137.715Z" fill="#263238"/>
<path d="M261.713 129.253C254.587 131.183 247.031 130.799 240.138 128.157C232.469 125.255 223.784 124.331 222.057 125.985C220.33 127.639 220.696 135.188 213.687 138.111C213.687 138.111 215.637 152.387 209.868 152.458C204.098 152.529 205.429 129.973 205.429 129.973L218.725 121.734L233.698 117.361L248 115.92L261.713 118.66V129.253Z" fill="#263238"/>
<path d="M299.916 247.492C299.916 247.492 325.686 273.984 334.756 270.048C359.45 259.353 379.521 236.827 386.418 228.741C386.713 227.219 387.007 225.423 387.261 223.292C387.488 221.464 387.403 219.611 387.007 217.813C386.581 215.539 385.846 213.333 384.824 211.258C383.696 209.442 385.321 207.199 387.099 208.001C388.876 208.802 393.193 213.531 394.097 220.299C394.207 220.684 394.399 221.042 394.66 221.346C394.922 221.651 395.246 221.895 395.611 222.062C395.977 222.229 396.374 222.315 396.775 222.313C397.177 222.312 397.573 222.223 397.937 222.054C402.406 220.583 417.592 214.687 420.284 214.068C422.691 213.51 425.566 213.642 423.961 215.398C422.356 217.153 411.162 223.698 411.162 223.698C411.162 223.698 425.667 214.829 426.866 217.001C427.689 218.503 424.631 221.963 414.453 226.874C414.453 226.874 426.46 219.659 428.512 219.893C433.123 220.43 418.76 229.248 418.76 229.248C428.918 223.16 428.4 222.754 429.497 223.931C430.32 224.814 428.542 226.843 423.555 230.902C419.492 234.199 415.977 238.42 410.086 243.768C410.086 243.768 349.14 328.441 310.794 302.446C290.124 288.443 284.445 281.371 272.713 270.758" fill="#FFBE9D"/>
<path d="M412.716 233.033C412.869 233.286 416.048 231.541 419.827 229.136C423.605 226.732 426.531 224.591 426.358 224.347C426.185 224.104 423.006 225.849 419.248 228.233C415.489 230.618 412.574 232.779 412.716 233.033Z" fill="#AA6550"/>
<path d="M409.963 229.4C410.106 229.664 413.61 228 417.775 225.686C421.939 223.373 425.2 221.293 425.058 221.029C424.916 220.765 421.421 222.439 417.247 224.743C413.072 227.046 409.821 229.146 409.963 229.4Z" fill="#AA6550"/>
<path d="M407.13 225.616C407.272 225.869 410.604 224.357 414.575 222.216C418.547 220.075 421.686 218.158 421.513 217.884C421.34 217.61 418.039 219.142 414.067 221.273C410.096 223.404 406.987 225.352 407.13 225.616Z" fill="#AA6550"/>
<path d="M147.408 268.546C147.408 268.546 114.394 334.169 104.5 334.24C77.5824 334.321 70.1998 360.584 60.6313 355.927C59.7577 354.659 58.7623 353.137 57.6754 351.28C56.742 349.681 56.0893 347.934 55.7454 346.115C55.2251 343.861 55.0132 341.547 55.1157 339.236C55.4204 337.125 53.0841 325.766 51.723 327.207C50.3619 328.647 48.3506 344.725 50.24 351.28C50.2947 351.677 50.2622 352.081 50.1448 352.464C50.0274 352.847 49.8279 353.2 49.5602 353.499C49.2924 353.797 48.9629 354.034 48.5944 354.192C48.2259 354.35 47.8273 354.426 47.4263 354.415C42.7436 354.862 26.471 355.542 23.7386 356.049C21.3109 356.505 18.7309 357.774 20.9046 358.748C22.4892 359.448 29.7215 360.442 33.5611 360.929C28.8987 360.392 19.0559 359.499 18.8934 361.376C18.7918 362.472 20.5186 363.669 24.7747 364.501C21.8798 364.308 19.2489 364.268 18.5481 364.684C14.485 367.017 31.235 369.351 31.235 369.351C19.513 367.819 19.7873 367.261 19.2591 368.773C18.8629 369.909 21.2906 371.056 27.497 372.781C32.5758 374.181 37.4515 376.636 44.9986 379.183C44.9986 379.183 134.813 362.372 159.516 323.216C172.823 302.111 175.2 293.365 181.69 278.946L147.408 268.546Z" fill="#FFBE9D"/>
<path d="M330.307 270.118L287.818 222.764C275.984 211.146 269.666 207.676 253.2 205.728C250.509 205.413 248.365 205.21 246.832 205.018C234.492 208.909 221.252 208.909 208.913 205.018C203.052 205.261 198.197 207.047 193.219 208.062C177.516 211.106 166.22 222.48 163.082 233.032L128.5 301L157.576 327.244L184.87 283.867L186.536 329.984L184.839 364.482L289.717 364.777L284.953 283.887L313.181 306.839L330.307 270.118Z" fill="#0D99FF"/>
<path d="M185.378 254.899C185.482 255.402 185.527 255.917 185.51 256.431C185.51 257.445 185.581 258.856 185.611 260.621C185.662 264.163 185.682 269.043 185.611 274.441C185.54 279.839 185.52 284.73 185.438 288.271C185.438 290.037 185.347 291.467 185.306 292.462C185.319 292.977 185.267 293.491 185.154 293.994C185.042 293.491 184.994 292.976 185.012 292.462C185.012 291.447 184.941 290.037 184.91 288.271C184.859 284.73 184.839 279.839 184.91 274.441C184.981 269.043 185.002 264.163 185.083 260.621C185.083 258.856 185.174 257.425 185.225 256.431C185.207 255.916 185.258 255.4 185.378 254.899Z" fill="#263238"/>
<path d="M286.761 314.206C286.598 313.423 286.496 312.63 286.456 311.831C286.304 310.178 286.111 307.986 285.867 305.338C285.41 299.848 284.851 292.269 284.242 283.888C283.632 275.506 283.145 267.917 282.82 262.417C282.688 259.759 282.566 257.567 282.485 255.903C282.418 255.106 282.418 254.305 282.485 253.509C282.655 254.29 282.761 255.084 282.799 255.883C282.952 257.537 283.145 259.728 283.378 262.377C283.836 267.866 284.394 275.446 285.014 283.837C285.633 292.228 286.101 299.808 286.426 305.297C286.568 307.955 286.68 310.147 286.771 311.811C286.832 312.608 286.829 313.409 286.761 314.206Z" fill="#263238"/>
<g opacity="0.3">
<path d="M302.313 238.694C302.313 238.847 270.489 238.958 231.209 238.958C191.929 238.958 160.105 238.847 160.105 238.694C160.105 238.542 191.929 238.431 231.209 238.431C270.489 238.431 302.313 238.552 302.313 238.694Z" fill="#EBEBEB"/>
</g>
<g opacity="0.3">
<path d="M313.313 280.793C313.313 280.935 274.531 281.057 226.709 281.057C178.887 281.057 140.095 280.935 140.095 280.793C140.095 280.651 178.867 280.529 226.709 280.529C274.552 280.529 313.313 280.641 313.313 280.793Z" fill="#EBEBEB"/>
</g>
<g opacity="0.3">
<path d="M198.268 364.736C198.125 364.736 198.003 329.385 198.003 285.785C198.003 242.185 198.125 206.834 198.268 206.834C198.41 206.834 198.532 242.175 198.532 285.785C198.532 329.395 198.42 364.736 198.268 364.736Z" fill="#EBEBEB"/>
</g>
<g opacity="0.3">
<path d="M259.021 364.736C259.021 364.736 259.021 364.604 259.021 364.33C259.021 364.056 259.021 363.64 259.021 363.133C259.021 362.047 259.021 360.505 259.021 358.516C259.021 354.457 258.94 348.694 258.889 341.551C258.757 327.204 258.574 307.428 258.381 285.582C258.188 263.736 258.046 243.92 258.036 229.593C258.036 222.49 258.036 216.656 258.036 212.628C258.036 210.649 258.036 209.097 258.036 208.011C258.036 207.504 258.036 207.108 258.036 206.814C258.022 206.679 258.022 206.543 258.036 206.408C258.045 206.543 258.045 206.678 258.036 206.814C258.036 207.108 258.036 207.504 258.036 208.011C258.036 209.097 258.036 210.649 258.086 212.628C258.086 216.686 258.168 222.45 258.218 229.593C258.35 243.94 258.533 263.716 258.726 285.572C258.919 307.428 259.062 327.224 259.072 341.551C259.072 348.654 259.072 354.488 259.072 358.516C259.072 360.545 259.072 362.047 259.072 363.133C259.072 363.64 259.072 364.036 259.072 364.33C259.068 364.467 259.051 364.603 259.021 364.736Z" fill="#EBEBEB"/>
</g>
<g opacity="0.3">
<path d="M302.048 297.261C301.906 297.261 301.784 284.476 301.784 268.708C301.784 252.94 301.906 240.146 302.048 240.146C302.19 240.146 302.312 252.93 302.312 268.708C302.312 284.486 302.201 297.261 302.048 297.261Z" fill="#EBEBEB"/>
</g>
<g opacity="0.3">
<path d="M150.689 308.96C150.537 308.96 150.425 296.895 150.425 282.021C150.425 267.146 150.537 255.091 150.689 255.091C150.841 255.091 150.953 267.146 150.953 282.021C150.953 296.895 150.831 308.96 150.689 308.96Z" fill="#EBEBEB"/>
</g>
<path d="M204.992 206.408L210.782 194.252L229.746 207.595L248.457 195.044L255.039 205.718L236.298 217.884H223.753L204.992 207.818" fill="#ED5100"/>
<path d="M229.746 207.595C229.746 207.595 229.624 207.656 229.39 207.707C229.041 207.746 228.699 207.834 228.375 207.97C227.204 208.451 226.215 209.289 225.551 210.365C224.519 211.968 223.644 213.667 222.94 215.438C222.493 216.453 222.046 217.468 221.478 218.543C220.926 219.674 220.188 220.703 219.294 221.587L219.111 221.76L218.928 221.577L217.851 220.461C214.093 216.524 210.893 212.78 208.709 210C207.592 208.61 206.678 207.463 206.129 206.662C205.801 206.262 205.508 205.834 205.256 205.383C205.626 205.74 205.966 206.127 206.272 206.54L208.974 209.756C211.279 212.476 214.509 216.169 218.258 220.096L219.324 221.212H218.959C219.811 220.362 220.518 219.378 221.051 218.3C221.61 217.285 222.067 216.22 222.524 215.256C223.268 213.476 224.19 211.776 225.277 210.182C226.003 209.079 227.074 208.248 228.324 207.818C228.65 207.701 228.993 207.64 229.34 207.636C229.472 207.603 229.609 207.589 229.746 207.595Z" fill="#263238"/>
<path d="M254.704 205.951C254.437 206.387 254.127 206.795 253.779 207.169C253.139 207.92 252.205 208.995 250.986 210.274C247.785 213.575 244.286 216.574 240.534 219.233C239.711 219.822 238.888 220.37 238.096 220.887L237.73 221.131V220.684C237.5 218.547 236.981 216.451 236.186 214.454C235.594 212.832 234.747 211.315 233.677 209.959C232.982 209.05 232.051 208.348 230.985 207.93C230.234 207.666 229.777 207.646 229.787 207.585C229.895 207.569 230.004 207.569 230.112 207.585C230.429 207.589 230.744 207.641 231.046 207.737C232.181 208.105 233.186 208.792 233.941 209.716C235.084 211.07 235.991 212.606 236.623 214.261C237.457 216.301 238.007 218.445 238.258 220.633L237.852 220.43C238.634 219.913 239.447 219.365 240.269 218.787C243.993 216.134 247.501 213.192 250.762 209.99C252.012 208.752 252.987 207.727 253.667 207.017C253.983 206.633 254.329 206.277 254.704 205.951Z" fill="#263238"/>
<path d="M236.958 364.736C236.958 364.736 236.958 364.604 236.958 364.34C236.958 364.077 236.958 363.65 236.958 363.153C236.958 362.078 236.958 360.546 236.897 358.587C236.897 354.6 236.785 348.887 236.694 341.825C236.491 327.62 236.044 308.118 235.048 286.536C234.053 264.954 232.712 245.432 231.615 231.318C231.046 224.286 230.599 218.584 230.274 214.606C230.122 212.658 230 211.126 229.909 210.061C229.909 209.563 229.848 209.168 229.838 208.884C229.822 208.749 229.822 208.613 229.838 208.478C229.871 208.607 229.891 208.74 229.899 208.874C229.899 209.168 229.97 209.553 230.031 210.051C230.142 211.116 230.295 212.638 230.488 214.586C230.884 218.533 231.402 224.236 232.001 231.287C233.19 245.401 234.591 264.924 235.587 286.516C236.582 308.108 236.968 327.66 237.08 341.825C237.141 348.928 237.151 354.63 237.08 358.587C237.08 360.546 237.08 362.078 237.08 363.153C237.08 363.65 237.08 364.046 237.08 364.34C237.053 364.476 237.013 364.609 236.958 364.736Z" fill="#263238"/>
<g opacity="0.2">
<path d="M229.299 207.666C231.605 208.975 232.458 211.897 232.469 214.535C232.479 217.173 231.849 219.812 232.072 222.439C232.071 223.134 232.229 223.819 232.536 224.442C232.842 225.065 233.289 225.609 233.84 226.031C235.445 226.995 237.486 226.092 239.132 225.189C242.667 223.251 246.242 221.273 249.137 218.452C250.521 217.026 251.596 215.331 252.295 213.471C252.994 211.612 253.302 209.629 253.2 207.646C248.325 212.871 243.408 216.017 238.076 220.146C237.693 217.365 236.783 214.682 235.394 212.242C234.012 209.848 232.052 207.372 229.299 207.666Z" fill="black"/>
</g>
<g opacity="0.2">
<path d="M211.879 213.652C213.687 217.163 215.566 220.755 218.664 223.251C220.036 224.347 222.047 225.159 223.479 224.144C224.627 223.332 224.82 221.739 224.911 220.329C225.155 216.757 226.211 212.638 226.455 209.066C223.621 212.262 222.067 217.884 219.081 221.76C216.033 219.842 214.276 216.565 212.082 213.713" fill="black"/>
</g>
<g opacity="0.2">
<path d="M304.141 298.986C308.881 290.233 313.598 281.473 318.29 272.706C314.105 273.112 311.292 277.069 309.149 280.671C307.005 284.273 304.374 288.301 300.22 289.012C297.335 289.509 294.45 288.22 291.931 286.729C289.412 285.237 286.974 283.451 284.11 282.812L304.141 298.986Z" fill="black"/>
</g>
<g opacity="0.2">
<path d="M179.852 291.883C179.852 291.883 169.999 302.233 163.356 303.755C160.016 304.494 156.556 304.515 153.207 303.815C149.859 303.115 146.697 301.711 143.934 299.696C143.51 299.328 143.006 299.064 142.461 298.925C142.186 298.868 141.899 298.919 141.66 299.066C141.42 299.213 141.246 299.445 141.171 299.716C141.11 300.203 141.507 300.619 141.862 300.964C148.634 307.255 155.69 313.245 163.031 318.934L179.852 291.883Z" fill="black"/>
</g>
<g opacity="0.2">
<path d="M226.252 221.242C222.514 251.06 220.073 281.003 218.928 311.07C218.756 315.768 218.634 320.618 220.31 325.012C222.26 330.085 226.404 334.032 230.467 337.756C232.184 339.339 234.531 341.044 236.633 340.049C237.426 339.601 238.101 338.972 238.604 338.213C241.143 334.935 243.52 331.404 244.465 327.376C247.41 314.733 235.465 302.223 238.157 289.519" fill="black"/>
</g>
<path d="M225.287 210.852L234.256 210.629C235.008 212.131 235.952 214.028 236.653 215.449L233.779 223.505H226.455L222.575 216.291L225.287 210.852Z" fill="#455A64"/>
<path d="M226.455 223.505L222.26 326.037L234.449 339.288L245.714 323.287L233.779 223.505H226.455Z" fill="#455A64"/>
<path d="M233.352 223.647C232.224 223.744 231.088 223.744 229.96 223.647C228.831 223.713 227.698 223.672 226.577 223.525C227.666 223.151 228.823 223.013 229.97 223.119C231.122 223.046 232.277 223.226 233.352 223.647Z" fill="#263238"/>
<path d="M235.282 212.354C234.994 212.932 234.61 213.457 234.144 213.906C233.124 215.073 231.995 216.139 230.772 217.092C229.562 218.056 228.266 218.908 226.902 219.639C226.356 219.987 225.755 220.241 225.124 220.39C225.053 220.248 227.654 218.908 230.447 216.686C233.24 214.464 235.16 212.252 235.282 212.354Z" fill="#263238"/>
<path d="M234.886 233.51C232.1 236.779 229.042 239.807 225.744 242.56C227.076 240.874 228.543 239.299 230.132 237.852C231.597 236.279 233.187 234.827 234.886 233.51Z" fill="#263238"/>
<path d="M235.506 240.906C233.992 242.762 232.346 244.505 230.579 246.122C228.945 247.864 227.187 249.485 225.317 250.972C226.81 249.105 228.447 247.358 230.213 245.746C231.848 243.997 233.618 242.379 235.506 240.906Z" fill="#EBEBEB"/>
<path d="M236.674 247.715C234.905 249.846 233.001 251.863 230.975 253.752C229.068 255.765 227.032 257.653 224.881 259.404C228.565 255.267 232.504 251.363 236.674 247.715Z" fill="#263238"/>
<path d="M237.466 254.909C235.52 257.21 233.441 259.395 231.239 261.453C229.163 263.638 226.962 265.701 224.647 267.633C226.589 265.328 228.665 263.139 230.863 261.078C232.944 258.896 235.148 256.836 237.466 254.909Z" fill="#EBEBEB"/>
<path d="M238.228 262.133C236.111 264.599 233.866 266.953 231.503 269.185C229.26 271.539 226.887 273.764 224.393 275.851C226.509 273.387 228.753 271.037 231.117 268.81C233.365 266.458 235.739 264.229 238.228 262.133Z" fill="#263238"/>
<path d="M239.142 269.215C239.244 269.317 235.922 272.777 231.737 276.937C227.552 281.097 224.058 284.395 223.956 284.293C223.855 284.192 227.166 280.732 231.361 276.562C235.556 272.391 239.03 269.114 239.142 269.215Z" fill="#EBEBEB"/>
<path d="M239.904 276.44C240.006 276.541 236.44 280.245 231.951 284.709C227.461 289.174 223.733 292.715 223.632 292.614C223.53 292.512 227.085 288.809 231.575 284.334C236.064 279.859 239.803 276.338 239.904 276.44Z" fill="#263238"/>
<path d="M240.798 283.533C240.899 283.644 237.09 287.591 232.296 292.35C227.501 297.109 223.53 300.904 223.428 300.802C223.327 300.701 227.126 296.743 231.93 291.985C236.735 287.226 240.737 283.431 240.798 283.533Z" fill="#EBEBEB"/>
<path d="M241.356 290.96C241.458 291.071 237.415 295.252 232.326 300.315C227.237 305.378 223.032 309.396 222.92 309.295C222.808 309.193 226.861 305.003 231.95 299.94C237.039 294.876 241.255 290.868 241.356 290.96Z" fill="#263238"/>
<path d="M242.341 297.971C242.443 298.083 238.177 302.486 232.814 307.834C227.45 313.181 223.001 317.422 222.9 317.311C222.798 317.199 227.064 312.795 232.438 307.458C237.811 302.121 242.24 297.86 242.341 297.971Z" fill="#EBEBEB"/>
<path d="M243.896 304.404C243.997 304.505 239.223 309.477 233.24 315.383C227.257 321.288 222.311 326.087 222.209 325.986C222.108 325.884 226.871 320.973 232.865 315.007C238.858 309.041 243.784 304.302 243.896 304.404Z" fill="#263238"/>
<path d="M226.08 330.187C225.978 330.085 230.011 325.864 235.1 320.771C240.189 315.677 244.384 311.639 244.495 311.72C244.607 311.801 240.554 316.042 235.475 321.136C230.397 326.229 226.181 330.298 226.08 330.187Z" fill="#EBEBEB"/>
<path d="M233.982 226.64C232.824 228.166 231.525 229.579 230.102 230.861C228.802 232.268 227.378 233.556 225.846 234.707C227.004 233.181 228.303 231.768 229.726 230.486C231.028 229.081 232.453 227.794 233.982 226.64Z" fill="#EBEBEB"/>
<path d="M127.5 301.5C126.5 300.5 126.514 299.777 126.981 298.357C127.448 296.936 128.576 295.81 129.013 294.4C129.287 293.588 129.409 292.624 130.11 292.147C130.492 291.902 130.941 291.78 131.395 291.798C131.85 291.816 132.288 291.973 132.649 292.249C136.783 295.79 139.831 299.229 144.341 303.045C148.688 306.728 153.371 311.446 157.962 314.825C160.542 316.732 163.701 318.701 164.057 321.927C164.148 323.254 163.723 324.564 162.869 325.584C162.015 326.603 160.799 327.253 159.476 327.397C156.855 327.569 154.59 325.712 152.639 323.967L128.109 302.03" fill="#ED5100"/>
<path d="M162.411 318.498C161.97 318.223 161.549 317.918 161.151 317.584C160.359 316.986 159.191 316.144 157.728 315.109C156.006 313.919 154.36 312.621 152.802 311.223L147.124 306.088C143.061 302.405 139.485 299.047 136.885 296.601L133.838 293.689C133.451 293.348 133.094 292.974 132.771 292.573C133.206 292.871 133.611 293.211 133.98 293.588L137.159 296.388C139.82 298.762 143.467 302.06 147.489 305.743L153.127 310.938C154.664 312.346 156.278 313.667 157.962 314.896C159.394 315.91 160.532 316.854 161.294 317.503C161.699 317.796 162.073 318.129 162.411 318.498Z" fill="#263238"/>
<path d="M159.709 320.862C159.249 320.649 158.807 320.398 158.389 320.111C157.566 319.594 156.357 318.833 154.945 317.859C152.061 315.91 148.15 313.1 144.006 309.741C139.861 306.383 136.255 303.227 133.726 300.843C132.456 299.645 131.441 298.671 130.77 297.971C130.396 297.633 130.056 297.259 129.754 296.855C130.172 297.14 130.563 297.463 130.923 297.819L133.97 300.569C136.57 302.882 140.196 306.017 144.331 309.325C148.465 312.633 152.335 315.484 155.159 317.503L158.511 319.898C158.936 320.186 159.337 320.508 159.709 320.862Z" fill="#263238"/>
<g opacity="0.3">
<path d="M141.618 300.721C140.669 302.033 139.583 303.241 138.378 304.323C137.294 305.528 136.082 306.61 134.762 307.55C135.711 306.238 136.797 305.03 138.002 303.948C139.086 302.744 140.299 301.662 141.618 300.721Z" fill="#EBEBEB"/>
</g>
<g opacity="0.5">
<path d="M218.146 199.975C217.142 202.012 215.985 203.969 214.682 205.829C213.531 207.783 212.227 209.642 210.782 211.39C211.784 209.356 212.942 207.402 214.246 205.545C215.402 203.592 216.706 201.73 218.146 199.975Z" fill="#EBEBEB"/>
</g>
<g opacity="0.5">
<path d="M248.294 211.725C247.129 209.805 246.11 207.801 245.247 205.728C244.228 203.738 243.365 201.672 242.667 199.549C243.84 201.464 244.859 203.469 245.714 205.545C246.741 207.532 247.604 209.598 248.294 211.725Z" fill="#EBEBEB"/>
</g>
<path d="M314.563 304.445C314.285 305.086 313.805 305.62 313.197 305.966C312.589 306.312 311.885 306.451 311.191 306.362C309.708 306.2 308.357 305.348 306.863 305.226C306.02 305.145 305.055 305.226 304.426 304.658C304.152 304.312 303.967 303.905 303.888 303.471C303.808 303.038 303.836 302.592 303.968 302.172C304.913 296.561 307.96 291.538 311.231 286.881C314.502 282.223 318.088 277.749 320.373 272.503C321.653 269.56 322.872 266.04 325.909 264.994C327.182 264.613 328.554 264.737 329.737 265.342C330.92 265.948 331.823 266.986 332.258 268.241C333.019 270.748 331.709 273.376 330.439 275.669L314.563 304.445Z" fill="#ED5100"/>
<path d="M324.72 270.23C324.6 270.716 324.44 271.191 324.243 271.651C323.908 272.554 323.39 273.853 322.74 275.456C321.429 278.642 319.53 283.015 317.285 287.774C315.04 292.533 312.846 296.764 311.19 299.798C310.378 301.32 309.697 302.537 309.21 303.369C308.981 303.815 308.712 304.24 308.407 304.638C308.572 304.163 308.78 303.705 309.027 303.268L310.865 299.625C312.42 296.581 314.542 292.289 316.797 287.54C319.052 282.792 320.993 278.408 322.384 275.304L324.03 271.59C324.218 271.117 324.449 270.662 324.72 270.23Z" fill="#263238"/>
<path d="M323.014 264.609C322.799 265.085 322.541 265.54 322.242 265.969L320.038 269.56C318.179 272.604 315.67 276.896 313.049 281.736C310.428 286.576 308.214 290.97 306.64 294.197L304.791 298.022C304.582 298.499 304.337 298.961 304.06 299.402C304.192 298.895 304.372 298.403 304.598 297.93C304.984 297.007 305.563 295.678 306.304 294.034C307.787 290.767 309.961 286.302 312.582 281.493C315.203 276.683 317.783 272.422 319.692 269.408C320.708 267.896 321.47 266.679 322.039 265.857C322.326 265.413 322.652 264.995 323.014 264.609Z" fill="#263238"/>
<g opacity="0.5">
<path d="M318.098 297.241C316.182 296.971 314.322 296.392 312.592 295.526C310.789 294.82 309.114 293.822 307.635 292.573C307.717 292.441 309.921 293.76 312.806 295.049C315.69 296.338 318.138 297.088 318.098 297.241Z" fill="#EBEBEB"/>
</g>
<g opacity="0.5">
<path d="M330.551 276.278C328.693 275.38 326.894 274.364 325.168 273.234C323.362 272.226 321.624 271.101 319.967 269.865C321.903 270.626 323.752 271.592 325.482 272.747C327.291 273.743 328.99 274.926 330.551 276.278Z" fill="#EBEBEB"/>
</g>
<path d="M419.095 173.442L417.064 177.145L413.366 179.164L417.064 181.194L419.095 184.887L421.116 181.194L424.824 179.164L421.116 177.145L419.095 173.442Z" fill="#455A64"/>
<path d="M392.431 71.1736L391.182 73.4464L388.917 74.6945L391.182 75.9425L392.431 78.2154L393.68 75.9425L395.946 74.6945L393.68 73.4464L392.431 71.1736Z" fill="#455A64"/>
<path d="M227.278 6.66113L226.028 8.93398L223.753 10.182L226.028 11.4199L227.278 13.6928L228.527 11.4199L230.792 10.182L228.527 8.93398L227.278 6.66113Z" fill="#455A64"/>
<path d="M156.347 65.197L155.229 67.2162L153.218 68.3222L155.229 69.4282L156.347 71.4474L157.454 69.4282L159.475 68.3222L157.454 67.2162L156.347 65.197Z" fill="#455A64"/>
<path d="M290.326 162.534L289.219 164.553L287.198 165.659L289.219 166.765L290.326 168.784L291.444 166.765L293.455 165.659L291.444 164.553L290.326 162.534Z" fill="#455A64"/>
<path d="M95.4821 181.589L94.3749 183.619L92.3535 184.715L94.3749 185.821L95.4821 187.85L96.5893 185.821L98.6106 184.715L96.5893 183.619L95.4821 181.589Z" fill="#455A64"/>
<path d="M431.589 97.7068C431.589 97.7068 431.518 109.538 418.73 115.849C410.817 119.755 396.616 129.466 398.689 135.878L412.401 149.729C412.401 149.729 419.684 140.505 430.624 135.726C441.381 131.018 449.65 114.652 449.65 114.652L431.589 97.7068Z" fill="#0D99FF"/>
<g opacity="0.4">
<path d="M429.253 133.301C428.124 134.014 426.854 134.477 425.531 134.657C424.207 134.837 422.86 134.732 421.581 134.347C420.302 133.962 419.12 133.307 418.117 132.426C417.113 131.546 416.31 130.46 415.763 129.243C413.965 124.727 418.232 118.792 422.752 116.996C424.921 116.137 427.342 116.172 429.485 117.095C431.627 118.018 433.316 119.752 434.179 121.917C435.977 126.392 433.387 130.744 429.253 133.301Z" fill="white"/>
</g>
<path d="M426.063 131.383C426.002 131.252 426.266 130.988 426.744 130.592C427.402 130.085 427.998 129.502 428.521 128.857C428.822 128.455 429.046 128.001 429.181 127.518C429.313 127.063 429.273 126.575 429.07 126.148C428.956 125.952 428.799 125.784 428.611 125.657C428.422 125.531 428.208 125.448 427.983 125.417C427.401 125.442 426.846 125.672 426.419 126.067C426.094 126.3 425.758 126.564 425.403 126.828C424.97 127.121 424.494 127.344 423.991 127.487C423.705 127.56 423.412 127.597 423.117 127.599C422.813 127.591 422.511 127.536 422.223 127.436C421.683 127.239 421.213 126.886 420.872 126.422C420.552 126.002 420.349 125.505 420.283 124.981C420.221 124.517 420.266 124.045 420.415 123.601C420.654 122.892 421.066 122.254 421.614 121.744C422.024 121.343 422.489 121.001 422.995 120.73C423.347 120.536 423.718 120.38 424.103 120.263C424.722 120.06 425.118 120.029 425.118 120.151C425.118 120.273 424.936 120.557 424.458 120.973C423.799 121.475 423.199 122.05 422.67 122.688C422.373 123.075 422.162 123.522 422.051 123.997C422 124.202 422.001 124.417 422.052 124.622C422.103 124.827 422.204 125.016 422.345 125.174C422.47 125.322 422.636 125.428 422.823 125.478C422.91 125.493 422.999 125.493 423.087 125.478C423.195 125.477 423.301 125.456 423.402 125.417C424.06 125.13 424.669 124.743 425.21 124.271C425.614 123.968 426.054 123.716 426.52 123.52C426.79 123.418 427.069 123.343 427.353 123.297C427.653 123.252 427.957 123.252 428.257 123.297C428.806 123.382 429.325 123.602 429.768 123.936C430.212 124.271 430.565 124.71 430.797 125.214C430.983 125.649 431.079 126.117 431.079 126.589C431.079 127.062 430.983 127.53 430.797 127.964C430.534 128.646 430.121 129.26 429.588 129.76C428.882 130.424 428.035 130.921 427.109 131.211C426.51 131.505 426.124 131.566 426.063 131.383Z" fill="#0D99FF"/>
<path d="M431.264 130.207C431.051 130.399 428.684 128.279 425.972 125.448C423.26 122.617 421.218 120.172 421.421 119.969C421.624 119.766 424.001 121.897 426.723 124.727C429.446 127.558 431.467 130.004 431.264 130.207Z" fill="#0D99FF"/>
<path d="M429.862 131.049C429.659 131.252 427.485 129.324 425.027 126.767C422.569 124.21 420.73 121.947 420.964 121.754C421.197 121.562 423.341 123.469 425.799 126.036C428.257 128.603 430.075 130.846 429.862 131.049Z" fill="#0D99FF"/>
<g opacity="0.5">
<path d="M412.472 147.101L400.029 134.458L400.09 134.275C402.508 126.158 413.874 120.212 421.421 116.285C422.711 115.605 423.94 114.966 424.977 114.388C431.914 110.542 432.839 102.09 432.534 101.42L433.011 101.035L446.653 114.449L446.592 114.642C444.839 119.372 442.118 123.686 438.603 127.308C435.087 130.93 430.855 133.779 426.175 135.676C419.695 138.151 412.797 146.735 412.726 146.837L412.472 147.101ZM400.73 134.285L412.401 146.167C413.651 144.645 419.837 137.411 425.891 135.097C430.463 133.249 434.603 130.476 438.051 126.952C441.498 123.429 444.178 119.23 445.922 114.621L433.164 102.141C433.13 102.717 433.055 103.29 432.94 103.856C432.574 105.662 430.909 111.821 425.241 115.017C424.225 115.595 422.975 116.235 421.675 116.914C414.301 120.679 403.198 126.493 400.73 134.285Z" fill="white"/>
</g>
<path d="M345.899 6.02181C345.899 6.02181 336.463 13.1245 323.664 6.89442C315.741 2.99811 299.377 -2.32888 295.547 3.22134L292.927 22.5C292.927 22.5 304.679 22.6522 315.142 28.4053C325.431 34.057 343.461 30.6274 343.461 30.6274L345.899 6.02181Z" fill="#0D99FF"/>
<g opacity="0.4">
<path d="M316.228 25.8585C314.971 25.3976 313.829 24.6714 312.878 23.7294C311.927 22.7873 311.191 21.6517 310.72 20.3998C310.248 19.1478 310.053 17.8091 310.146 16.4748C310.24 15.1405 310.62 13.842 311.261 12.6679C313.74 8.48745 321.053 8.25407 325.228 10.74C327.231 11.9359 328.677 13.8771 329.248 16.1373C329.82 18.3974 329.47 20.7917 328.275 22.7942C325.807 26.9746 320.769 27.5733 316.228 25.8585Z" fill="white"/>
</g>
<path d="M315.802 22.1652C315.863 22.0333 316.238 22.084 316.817 22.226C317.618 22.4332 318.439 22.5489 319.265 22.571C319.771 22.5674 320.271 22.4676 320.738 22.2768C321.18 22.1055 321.542 21.7764 321.754 21.3534C321.842 21.1454 321.88 20.9199 321.866 20.6945C321.852 20.4692 321.786 20.2502 321.673 20.0547C321.299 19.6061 320.776 19.3071 320.2 19.2125C319.824 19.0907 319.408 18.9893 318.961 18.8269C318.46 18.6704 317.989 18.4303 317.569 18.1167C317.335 17.9355 317.127 17.724 316.949 17.4876C316.769 17.244 316.629 16.9734 316.533 16.686C316.371 16.1362 316.371 15.5514 316.533 15.0016C316.674 14.4952 316.943 14.0338 317.315 13.6623C317.652 13.331 318.058 13.0781 318.504 12.9216C319.212 12.6814 319.969 12.6187 320.708 12.7389C321.264 12.8299 321.805 13.0008 322.313 13.2463C322.669 13.4104 323.009 13.6074 323.328 13.8348C323.867 14.2102 324.121 14.4842 324.06 14.6059C323.999 14.7277 323.623 14.7175 323.044 14.6059C322.244 14.3931 321.423 14.2706 320.596 14.2406C320.106 14.2389 319.621 14.3427 319.174 14.545C318.982 14.6299 318.813 14.7601 318.682 14.9244C318.551 15.0888 318.462 15.2824 318.422 15.4887C318.368 15.6742 318.368 15.8714 318.422 16.0569C318.452 16.1387 318.497 16.2143 318.554 16.2801C318.626 16.3646 318.708 16.4396 318.798 16.5033C319.437 16.8408 320.121 17.0835 320.83 17.2238C321.315 17.3662 321.781 17.5637 322.221 17.8123C322.473 17.9576 322.706 18.135 322.912 18.3399C323.131 18.5467 323.316 18.7863 323.461 19.0502C323.723 19.5403 323.86 20.0874 323.86 20.6432C323.86 21.1989 323.723 21.7461 323.461 22.2362C323.23 22.6494 322.919 23.0122 322.545 23.3032C322.172 23.5942 321.744 23.8076 321.287 23.9307C320.585 24.1353 319.846 24.1838 319.123 24.0727C318.185 23.9074 317.295 23.5404 316.513 22.9972C315.974 22.5812 315.731 22.2971 315.802 22.1652Z" fill="#0D99FF"/>
<path d="M319.895 25.5643C319.611 25.5643 319.895 22.3479 320.454 18.4617C321.013 14.5755 321.744 11.4808 322.029 11.5214C322.313 11.562 322.029 14.7379 321.48 18.624C320.932 22.5102 320.19 25.6049 319.895 25.5643Z" fill="#0D99FF"/>
<path d="M318.382 24.9655C318.097 24.9655 318.3 22.0433 318.829 18.5224C319.357 15.0015 320.037 12.1909 320.322 12.2416C320.606 12.2924 320.403 15.1639 319.865 18.6848C319.326 22.2056 318.666 25.0264 318.382 24.9655Z" fill="#0D99FF"/>
<g opacity="0.5">
<path d="M295.04 20.9677L297.498 3.40386L297.67 3.34298C305.614 0.298987 317.234 5.68686 324.934 9.24833C326.264 9.86727 327.514 10.4456 328.6 10.9124C335.884 14.0578 343.167 9.64405 343.502 9.00481L344.101 9.13671L341.765 28.1211L341.582 28.182C336.759 29.6804 331.675 30.1565 326.657 29.5799C321.639 29.0033 316.796 27.3868 312.44 24.8336C306.518 21.2112 295.507 20.9778 295.395 20.9778L295.04 20.9677ZM298.087 3.86046L295.771 20.3589C297.752 20.4299 307.259 20.917 312.775 24.3059C317.027 26.7954 321.75 28.3781 326.645 28.9544C331.54 29.5307 336.501 29.088 341.216 27.6543L343.4 9.92815C342.917 10.249 342.415 10.5404 341.897 10.8008C340.241 11.6125 334.37 14.068 328.377 11.4806C327.28 11.0138 326.02 10.4659 324.69 9.81654C317.132 6.32609 305.746 1.05999 298.067 3.87061L298.087 3.86046Z" fill="white"/>
</g>
<path d="M336.087 137.543C336.087 137.543 326.701 135.513 323.826 124.352C322.049 117.422 316.716 104.546 311.271 105.073L297.975 113.637C301.857 118.577 304.609 124.305 306.04 130.42C307.98 139.734 319.601 149.029 319.601 149.029L336.087 137.543Z" fill="#ED5100"/>
<g opacity="0.4">
<path d="M308.204 129.74C307.827 128.724 307.674 127.638 307.755 126.558C307.835 125.477 308.148 124.427 308.671 123.478C309.195 122.528 309.916 121.703 310.787 121.057C311.658 120.411 312.658 119.961 313.719 119.735C317.6 119.065 321.602 123.439 322.272 127.315C322.435 128.238 322.414 129.184 322.209 130.099C322.005 131.014 321.621 131.879 321.08 132.645C320.539 133.411 319.851 134.062 319.057 134.562C318.263 135.061 317.377 135.398 316.452 135.554C312.561 136.223 309.545 133.443 308.204 129.74Z" fill="white"/>
</g>
<path d="M310.256 127.508C310.367 127.508 310.54 127.741 310.774 128.188C311.068 128.791 311.43 129.359 311.85 129.882C312.12 130.186 312.444 130.437 312.805 130.623C313.142 130.81 313.539 130.861 313.912 130.765C314.087 130.71 314.247 130.615 314.379 130.489C314.511 130.362 314.612 130.206 314.674 130.034C314.749 129.569 314.659 129.091 314.42 128.685C314.288 128.39 314.136 128.076 313.994 127.67C313.835 127.278 313.736 126.864 313.699 126.442C313.689 126.204 313.71 125.965 313.76 125.732C313.819 125.492 313.915 125.262 314.045 125.052C314.289 124.66 314.642 124.346 315.06 124.149C315.45 123.967 315.881 123.89 316.31 123.926C316.689 123.956 317.057 124.07 317.386 124.261C317.907 124.569 318.343 125.001 318.656 125.519C318.889 125.913 319.07 126.336 319.194 126.777C319.285 127.089 319.347 127.408 319.377 127.731C319.438 128.259 319.377 128.563 319.286 128.593C319.194 128.624 318.991 128.38 318.747 127.924C318.458 127.32 318.1 126.752 317.681 126.229C317.429 125.923 317.109 125.68 316.746 125.519C316.592 125.43 316.417 125.383 316.239 125.383C316.06 125.383 315.885 125.43 315.731 125.519C315.596 125.597 315.484 125.709 315.406 125.844C315.376 125.908 315.356 125.976 315.345 126.047C315.329 126.134 315.329 126.223 315.345 126.31C315.468 126.878 315.674 127.425 315.954 127.934C316.131 128.304 316.257 128.697 316.33 129.101C316.356 129.333 316.356 129.568 316.33 129.801C316.316 130.044 316.264 130.283 316.178 130.511C316.019 130.933 315.758 131.309 315.418 131.605C315.077 131.901 314.668 132.108 314.227 132.206C313.853 132.286 313.466 132.288 313.09 132.213C312.715 132.138 312.358 131.987 312.043 131.769C311.545 131.446 311.126 131.016 310.814 130.511C310.409 129.837 310.159 129.082 310.083 128.299C310.093 127.863 310.144 127.558 310.256 127.508Z" fill="#ED5100"/>
<path d="M310.327 131.84C310.205 131.647 312.287 130.125 314.989 128.451C317.691 126.777 319.977 125.57 320.068 125.762C320.159 125.955 318.108 127.487 315.406 129.162C312.704 130.836 310.449 132.043 310.327 131.84Z" fill="#ED5100"/>
<path d="M309.89 130.602C309.758 130.399 311.647 128.999 314.095 127.477C316.543 125.955 318.636 124.88 318.768 125.082C318.9 125.285 317 126.675 314.552 128.197C312.104 129.719 310.012 130.795 309.89 130.602Z" fill="#ED5100"/>
<g opacity="0.5">
<path d="M300.047 114.124L312.176 106.382L312.308 106.453C318.402 109.741 321.175 119.735 323.034 126.351C323.349 127.487 323.654 128.563 323.938 129.486C325.838 135.625 332.4 137.776 332.978 137.604L333.202 138.05L320.261 146.624L320.129 146.533C316.663 144.352 313.69 141.473 311.401 138.081C309.112 134.688 307.556 130.855 306.833 126.828C305.949 121.278 300.291 114.378 300.23 114.307L300.047 114.124ZM312.237 106.971L300.84 114.246C301.855 115.494 306.548 121.602 307.371 126.787C308.075 130.718 309.587 134.46 311.81 137.778C314.034 141.096 316.922 143.918 320.292 146.066L332.379 138.06C331.923 137.942 331.478 137.786 331.049 137.593C329.677 137.005 325.066 134.681 323.501 129.638C323.217 128.705 322.912 127.609 322.587 126.483C320.728 119.999 317.935 110.258 312.196 106.971H312.237Z" fill="white"/>
</g>
<path d="M247.055 63.807C247.055 63.807 239.589 65.2174 234.032 57.9524C230.599 53.4574 222.727 45.7156 218.938 47.8058L211.899 58.1553C216.257 60.5568 220.036 63.8814 222.971 67.8961C227.257 74.0856 238.593 77.2716 238.593 77.2716L247.055 63.807Z" fill="#ED5100"/>
<g opacity="0.4">
<path d="M224.322 66.719C223.734 66.0947 223.287 65.3513 223.012 64.5393C222.737 63.7273 222.64 62.8658 222.728 62.013C222.815 61.1603 223.086 60.3364 223.52 59.5972C223.955 58.8581 224.543 58.2209 225.246 57.7291C227.877 56.0447 232.133 57.9929 233.829 60.6107C234.639 61.8705 234.915 63.3997 234.597 64.8625C234.279 66.3254 233.393 67.6024 232.133 68.4135C229.563 70.0978 226.445 69.0121 224.322 66.719Z" fill="white"/>
</g>
<path d="M225.134 64.4766C225.216 64.4766 225.419 64.5577 225.724 64.8114C226.127 65.1577 226.566 65.4604 227.034 65.7145C227.322 65.8579 227.637 65.9407 227.958 65.958C228.259 65.9911 228.561 65.9076 228.801 65.7246C228.915 65.6323 229.005 65.514 229.063 65.3798C229.121 65.2456 229.147 65.0994 229.137 64.9535C229.049 64.5914 228.837 64.2716 228.537 64.0504C228.344 63.8779 228.141 63.6953 227.928 63.472C227.686 63.2388 227.484 62.9682 227.328 62.6705C227.251 62.4981 227.193 62.3178 227.156 62.1327C227.125 61.9377 227.125 61.7392 227.156 61.5442C227.213 61.169 227.375 60.8174 227.623 60.5295C227.851 60.2806 228.137 60.0923 228.456 59.9816C228.745 59.8915 229.049 59.8639 229.35 59.9004C229.825 59.9698 230.278 60.1506 230.67 60.428C230.961 60.6415 231.221 60.8941 231.442 61.1789C231.607 61.3782 231.753 61.5922 231.879 61.8181C232.082 62.1834 232.143 62.4168 232.072 62.4675C232.001 62.5183 231.798 62.4066 231.483 62.153C231.079 61.8044 230.64 61.4984 230.173 61.2398C229.893 61.0965 229.583 61.02 229.269 61.0166C229.134 61.0074 228.999 61.0323 228.876 61.0891C228.754 61.1459 228.648 61.2326 228.568 61.3412C228.488 61.4352 228.441 61.553 228.436 61.6761C228.426 61.7331 228.426 61.7915 228.436 61.8486C228.456 61.9155 228.483 61.9801 228.517 62.0414C228.78 62.4243 229.098 62.7662 229.462 63.056C229.699 63.2742 229.911 63.5194 230.091 63.7866C230.193 63.9417 230.275 64.1087 230.335 64.2838C230.402 64.466 230.44 64.6579 230.447 64.852C230.461 65.208 230.387 65.5619 230.231 65.8824C230.075 66.2028 229.842 66.4797 229.553 66.6885C229.303 66.8624 229.02 66.9836 228.721 67.0446C228.422 67.1057 228.115 67.1054 227.816 67.0437C227.356 66.9559 226.92 66.7727 226.536 66.5059C226.037 66.1372 225.621 65.6669 225.317 65.1259C225.114 64.7708 225.063 64.5374 225.134 64.4766Z" fill="#ED5100"/>
<path d="M226.516 67.6424C226.363 67.5308 227.41 65.7856 228.862 63.7258C230.315 61.666 231.605 60.0832 231.757 60.1948C231.909 60.3064 230.853 62.0516 229.411 64.1114C227.968 66.1711 226.668 67.7033 226.516 67.6424Z" fill="#ED5100"/>
<path d="M225.815 66.8306C225.663 66.719 226.607 65.1158 227.928 63.259C229.248 61.4022 230.427 59.9614 230.579 60.073C230.731 60.1846 229.787 61.7776 228.476 63.6446C227.166 65.5116 225.967 66.9321 225.815 66.8306Z" fill="#ED5100"/>
<g opacity="0.5">
<path d="M213.555 57.861L219.995 48.4753H220.117C225.551 49.003 230.681 55.4156 234.083 59.6367C234.672 60.3672 235.221 61.0572 235.709 61.666C236.84 62.9228 238.272 63.8725 239.871 64.4261C241.47 64.9798 243.183 65.1193 244.85 64.8317L245.155 65.0854L238.37 75.3234H238.248C235.044 74.8049 231.985 73.6237 229.265 71.8554C226.545 70.0872 224.225 67.7709 222.453 65.055C220.096 61.2804 213.829 57.9523 213.768 57.9523L213.555 57.861ZM220.198 48.9015L214.103 57.7189C215.21 58.3176 220.533 61.321 222.737 64.8216C224.465 67.4669 226.722 69.726 229.368 71.4566C232.013 73.1872 234.988 74.3518 238.106 74.8769L244.444 65.3188C244.077 65.3695 243.707 65.3932 243.337 65.3898C241.839 65.3965 240.357 65.0914 238.984 64.4939C237.611 63.8964 236.378 63.0197 235.363 61.9196C234.876 61.3311 234.347 60.6412 233.728 59.8903C230.437 55.7606 225.419 49.49 220.198 48.9015Z" fill="white"/>
</g>
<path d="M59.788 201.639C59.788 201.639 52.3221 203.06 46.7659 195.784C43.3326 191.289 35.4604 183.548 31.6716 185.638L24.6323 195.987C28.99 198.389 32.7689 201.713 35.7042 205.728C39.9907 211.918 51.3267 215.104 51.3267 215.104L59.788 201.639Z" fill="#ED5100"/>
<g opacity="0.4">
<path d="M37.0654 204.551C36.4758 203.928 36.0276 203.184 35.7516 202.372C35.4756 201.56 35.3781 200.698 35.4658 199.845C35.5536 198.991 35.8244 198.167 36.26 197.428C36.6955 196.689 37.2855 196.052 37.9897 195.561C40.6104 193.877 44.8766 195.825 46.5628 198.453C47.3717 199.711 47.6473 201.239 47.3293 202.7C47.0112 204.161 46.1254 205.436 44.8665 206.246C42.2458 207.93 39.1782 206.844 37.0654 204.551Z" fill="white"/>
</g>
<path d="M37.8778 202.309C37.9489 202.258 38.1521 202.39 38.4568 202.643C38.8606 202.99 39.2998 203.292 39.7672 203.546C40.0585 203.691 40.3767 203.774 40.7017 203.79C41.002 203.82 41.3028 203.737 41.5448 203.557C41.6553 203.462 41.7422 203.343 41.7986 203.209C41.855 203.076 41.8794 202.93 41.8698 202.785C41.7868 202.422 41.5737 202.1 41.2705 201.882C41.0877 201.71 40.8743 201.527 40.661 201.304C40.4227 201.07 40.2237 200.8 40.0719 200.502C39.9895 200.332 39.9314 200.151 39.8992 199.965C39.8637 199.774 39.8637 199.577 39.8992 199.386C39.947 199.008 40.1102 198.654 40.3665 198.372C40.5942 198.123 40.8805 197.934 41.1994 197.824C41.4844 197.732 41.7862 197.704 42.0831 197.743C42.5588 197.812 43.0113 197.993 43.4036 198.27C43.6997 198.481 43.9632 198.734 44.1858 199.021C44.3479 199.22 44.4907 199.434 44.6124 199.66C44.8155 200.026 44.8866 200.259 44.8155 200.31C44.7444 200.36 44.5311 200.249 44.2162 199.995C43.8158 199.646 43.38 199.34 42.916 199.082C42.6354 198.94 42.3264 198.864 42.012 198.859C41.8758 198.85 41.7395 198.875 41.6154 198.931C41.4913 198.988 41.3832 199.075 41.301 199.183C41.2253 199.28 41.1794 199.396 41.1689 199.518C41.1538 199.575 41.1538 199.634 41.1689 199.691C41.1807 199.759 41.2048 199.824 41.24 199.884C41.5031 200.266 41.8214 200.608 42.1847 200.898C42.4257 201.116 42.6405 201.361 42.8246 201.629C42.918 201.788 42.9995 201.954 43.0684 202.126C43.1325 202.309 43.1668 202.501 43.17 202.694C43.1878 203.051 43.1152 203.406 42.9589 203.727C42.8027 204.048 42.5678 204.324 42.2761 204.531C42.0277 204.704 41.7464 204.825 41.4494 204.886C41.1525 204.947 40.8462 204.947 40.5493 204.886C40.0885 204.802 39.6517 204.618 39.2694 204.348C38.7644 203.985 38.3477 203.514 38.0505 202.968C37.8575 202.593 37.7966 202.369 37.8778 202.309Z" fill="#ED5100"/>
<path d="M39.2594 205.434C39.107 205.332 40.1532 203.577 41.6058 201.517C43.0583 199.457 44.3484 197.885 44.5007 197.986C44.6531 198.088 43.6068 199.843 42.1543 201.903C40.7018 203.962 39.4117 205.535 39.2594 205.434Z" fill="#ED5100"/>
<path d="M38.5993 204.622C38.4469 204.511 39.3814 202.907 40.7019 201.051C42.0224 199.194 43.2109 197.753 43.3531 197.864C43.4953 197.976 42.5709 199.569 41.2504 201.436C39.9299 203.303 38.711 204.764 38.5993 204.622Z" fill="#ED5100"/>
<g opacity="0.5">
<path d="M26.2881 195.693L32.7382 186.358H32.8499C38.2843 186.886 43.4241 193.298 46.8167 197.519C47.4059 198.25 47.9544 198.94 48.4521 199.549C49.5824 200.807 51.0144 201.758 52.6135 202.312C54.2127 202.865 55.9265 203.004 57.594 202.715L57.9089 202.968L51.1236 213.206H50.9915C47.7925 212.686 44.7373 211.505 42.021 209.739C39.3048 207.973 36.9873 205.66 35.2167 202.948C32.8601 199.173 26.5928 195.896 26.5319 195.845L26.2881 195.693ZM32.9312 186.734L26.8366 195.551C27.9539 196.15 33.2664 199.153 35.4706 202.654C37.2009 205.31 39.465 207.579 42.1194 209.315C44.7738 211.051 47.7605 212.217 50.8899 212.739L57.2182 203.181C56.8514 203.232 56.4813 203.256 56.111 203.252C54.6146 203.261 53.1329 202.957 51.7613 202.36C50.3897 201.762 49.1587 200.884 48.1474 199.782C47.6497 199.194 47.1316 198.504 46.512 197.753C43.1803 193.593 38.1522 187.373 32.9312 186.734Z" fill="white"/>
</g>
<path d="M169.267 106.007C169.267 106.007 166.494 115.047 155.26 116.945C148.302 118.112 135.199 122.282 135.31 127.67L142.634 141.419C147.813 138.021 153.671 135.791 159.8 134.884C169.115 133.758 179.202 123.134 179.202 123.134L169.267 106.007Z" fill="#ED5100"/>
<g opacity="0.4">
<path d="M159.293 132.713C158.263 132.998 157.183 133.058 156.128 132.889C155.072 132.721 154.066 132.327 153.176 131.735C152.287 131.143 151.535 130.366 150.973 129.458C150.41 128.55 150.05 127.532 149.917 126.473C149.572 122.607 154.204 119.055 158.043 118.71C159.902 118.55 161.748 119.133 163.177 120.332C164.605 121.53 165.499 123.246 165.662 125.103C166.027 128.969 163.041 131.708 159.293 132.713Z" fill="white"/>
</g>
<path d="M157.291 130.552C157.291 130.43 157.535 130.288 158.002 130.095C158.618 129.858 159.204 129.552 159.75 129.182C160.076 128.944 160.353 128.644 160.562 128.299C160.776 127.988 160.86 127.606 160.796 127.234C160.755 127.057 160.674 126.892 160.56 126.751C160.446 126.611 160.3 126.498 160.136 126.422C159.683 126.302 159.202 126.353 158.785 126.564C158.49 126.665 158.165 126.787 157.769 126.899C157.371 127.021 156.956 127.083 156.54 127.081C156.305 127.071 156.073 127.031 155.849 126.96C155.616 126.889 155.396 126.779 155.199 126.635C154.832 126.363 154.553 125.989 154.396 125.559C154.246 125.165 154.204 124.738 154.275 124.322C154.344 123.957 154.489 123.612 154.701 123.307C155.046 122.822 155.507 122.431 156.042 122.17C156.444 121.963 156.876 121.82 157.322 121.744C157.636 121.68 157.956 121.646 158.277 121.643C158.795 121.643 159.089 121.694 159.11 121.805C159.13 121.917 158.876 122.069 158.419 122.272C157.799 122.508 157.206 122.811 156.651 123.175C156.335 123.404 156.072 123.698 155.88 124.037C155.783 124.187 155.727 124.36 155.718 124.538C155.709 124.716 155.747 124.893 155.829 125.052C155.896 125.19 155.997 125.309 156.123 125.397L156.316 125.478C156.404 125.49 156.493 125.49 156.58 125.478C157.144 125.396 157.694 125.239 158.216 125.012C158.599 124.872 158.998 124.78 159.404 124.738C159.63 124.712 159.859 124.712 160.085 124.738C160.324 124.768 160.558 124.836 160.775 124.94C161.175 125.129 161.521 125.413 161.785 125.767C162.049 126.121 162.222 126.534 162.289 126.97C162.332 127.345 162.3 127.725 162.194 128.088C162.087 128.45 161.909 128.788 161.669 129.08C161.314 129.544 160.859 129.922 160.339 130.186C159.641 130.523 158.879 130.706 158.104 130.724C157.606 130.704 157.312 130.633 157.291 130.552Z" fill="#ED5100"/>
<path d="M161.507 130.805C161.304 130.907 159.983 128.776 158.551 125.955C157.119 123.134 156.133 120.821 156.337 120.72C156.54 120.618 157.87 122.749 159.292 125.57C160.715 128.39 161.74 130.704 161.507 130.805Z" fill="#ED5100"/>
<path d="M160.278 131.13C160.074 131.242 158.856 129.273 157.566 126.737C156.276 124.2 155.382 122.069 155.534 121.968C155.686 121.866 156.956 123.835 158.256 126.361C159.556 128.888 160.491 131.029 160.278 131.13Z" fill="#ED5100"/>
<g opacity="0.5">
<path d="M143.274 139.42L136.661 126.889L136.742 126.767C140.47 121.095 150.537 119.167 157.19 117.889C158.338 117.665 159.414 117.462 160.339 117.26C166.535 115.9 169.196 109.65 169.115 109.071L169.572 108.878L176.926 122.282L176.835 122.414C174.402 125.632 171.325 128.308 167.799 130.272C164.273 132.235 160.376 133.443 156.357 133.819C150.831 134.225 143.579 139.207 143.507 139.257L143.274 139.42ZM137.24 126.919L143.457 138.669C144.767 137.786 151.156 133.677 156.326 133.291C160.248 132.929 164.052 131.757 167.496 129.85C170.941 127.942 173.951 125.341 176.337 122.211L169.47 109.7C169.311 110.133 169.121 110.553 168.902 110.958C168.211 112.267 165.55 116.6 160.45 117.706C159.516 117.909 158.419 118.122 157.281 118.345C150.76 119.624 140.917 121.511 137.24 126.919Z" fill="white"/>
</g>
<path d="M108.352 80.4475C108.352 80.4475 99.0574 87.7733 86.1369 81.7259C78.1428 77.9818 61.6975 72.9491 57.9595 78.5703L55.6943 97.9301C55.6943 97.9301 67.4468 97.8692 78.0412 103.419C88.3715 108.888 106.371 105.185 106.371 105.185L108.352 80.4475Z" fill="#0D99FF"/>
<g opacity="0.4">
<path d="M79.047 100.822C77.7836 100.383 76.6295 99.6775 75.6635 98.7533C74.6974 97.8291 73.942 96.7078 73.4485 95.4659C72.955 94.224 72.7351 92.8904 72.8038 91.556C72.8724 90.2215 73.228 88.9175 73.8463 87.7326C76.2536 83.5116 83.557 83.1464 87.7724 85.5511C89.7985 86.708 91.2821 88.6209 91.8973 90.8696C92.5124 93.1184 92.2089 95.5191 91.0534 97.5444C88.646 101.765 83.6281 102.455 79.047 100.822Z" fill="white"/>
</g>
<path d="M78.5594 97.1489C78.6204 97.0068 78.9962 97.0575 79.5752 97.1489C80.3802 97.3439 81.205 97.446 82.0334 97.4533C82.5372 97.439 83.0336 97.3287 83.4961 97.1286C83.9432 96.961 84.3075 96.6262 84.5118 96.1951C84.5966 95.9855 84.6316 95.7591 84.614 95.5337C84.5963 95.3084 84.5266 95.0902 84.4103 94.8963C84.0303 94.4539 83.5041 94.1622 82.9272 94.0744C82.5514 93.9628 82.1248 93.8613 81.6778 93.7193C81.1755 93.5686 80.7017 93.3355 80.2761 93.0293C80.0372 92.8547 79.825 92.6461 79.6463 92.4104C79.4597 92.1713 79.3122 91.9042 79.2095 91.6189C79.0309 91.0744 79.0098 90.4906 79.1486 89.9346C79.2848 89.4249 79.5467 88.9574 79.9104 88.5749C80.2367 88.2382 80.6365 87.9812 81.0785 87.8241C81.789 87.5763 82.5502 87.51 83.2929 87.6313C83.8503 87.7116 84.3938 87.8687 84.908 88.098C85.2622 88.262 85.602 88.4554 85.9237 88.6764C86.4723 89.0417 86.7262 89.3055 86.6653 89.4374C86.6043 89.5693 86.2386 89.549 85.6495 89.4374C84.8432 89.2464 84.0196 89.1376 83.1913 89.1127C82.6991 89.1239 82.2147 89.2379 81.7693 89.4476C81.5717 89.5415 81.4012 89.6838 81.2733 89.8612C81.1455 90.0385 81.0645 90.2453 81.0379 90.4622C80.9954 90.6532 81.0168 90.8528 81.0989 91.0304C81.1327 91.1127 81.1808 91.1882 81.2411 91.2537C81.3132 91.3345 81.3951 91.406 81.4848 91.4667C82.1265 91.7903 82.8103 92.0226 83.5164 92.1567C84.0058 92.2814 84.477 92.469 84.9181 92.7148C85.1692 92.8585 85.4041 93.0285 85.619 93.2221C85.8361 93.4292 86.024 93.6647 86.1777 93.9222C86.4559 94.4042 86.6099 94.9476 86.6259 95.5037C86.6418 96.0598 86.5192 96.6112 86.2691 97.1083C86.0461 97.5259 85.7415 97.8946 85.3734 98.1926C85.0052 98.4906 84.581 98.7119 84.1258 98.8433C83.4308 99.0647 82.6948 99.1271 81.9724 99.026C81.0144 98.89 80.0985 98.5435 79.2908 98.0113C78.7423 97.5547 78.4985 97.2706 78.5594 97.1489Z" fill="#0D99FF"/>
<path d="M82.7238 100.457C82.4292 100.457 82.6222 97.2402 83.1402 93.354C83.6583 89.4679 84.3084 86.3528 84.5928 86.3833C84.8772 86.4137 84.6944 89.5998 84.1763 93.4859C83.6583 97.3721 83.0082 100.497 82.7238 100.457Z" fill="#0D99FF"/>
<path d="M81.1902 99.8984C80.9058 99.8984 81.048 96.9661 81.5254 93.4452C82.0028 89.9243 82.6123 87.0934 82.8967 87.134C83.1811 87.1746 83.0288 90.0562 82.5615 93.5872C82.0943 97.1183 81.4746 99.939 81.1902 99.8984Z" fill="#0D99FF"/>
<g opacity="0.5">
<path d="M57.7871 96.3371L59.9304 78.7326L60.0929 78.6616C67.9752 75.4756 79.7074 80.691 87.4678 84.0698C88.7985 84.6583 90.0682 85.2163 91.1652 85.6628C98.499 88.7068 105.701 84.1307 106.026 83.4813L106.625 83.603L104.594 102.638L104.411 102.699C99.614 104.281 94.5398 104.848 89.5116 104.362C84.4835 103.876 79.6119 102.349 75.2075 99.8783C69.2348 96.3675 58.2137 96.3371 58.102 96.3371H57.7871ZM60.489 79.169L58.4575 95.7181C60.4281 95.7181 69.9458 96.0631 75.5224 99.3405C79.82 101.753 84.5708 103.251 89.4761 103.739C94.3813 104.228 99.3348 103.698 104.025 102.182L105.884 84.4148C105.407 84.7456 104.908 85.0439 104.39 85.3077C102.755 86.1499 96.9246 88.717 90.8808 86.2412C89.7838 85.7846 88.514 85.2265 87.1732 84.638C79.5956 81.2795 68.1276 76.2264 60.489 79.169Z" fill="white"/>
</g>
</g>
<defs>
<clipPath id="clip0_5497_41126">
<rect width="460" height="312" fill="white"/>
</clipPath>
</defs>
</svg>
