<svg width="460" height="240" viewBox="0 0 460 240" fill="none" xmlns="http://www.w3.org/2000/svg">
<path d="M428.647 131.095C428.644 132.398 428.122 133.646 427.194 134.566C426.266 135.486 425.009 136.003 423.698 136.003H271.318C270.007 136.003 268.749 135.486 267.821 134.566C266.893 133.646 266.371 132.398 266.369 131.095M266.579 131.095C266.582 132.342 267.082 133.537 267.97 134.418C268.859 135.299 270.062 135.794 271.318 135.794H423.715C424.97 135.794 426.174 135.299 427.062 134.418C427.95 133.537 428.451 132.342 428.453 131.095" fill="#E0E0E0"/>
<path d="M252.921 131.095C252.919 132.396 252.398 133.643 251.472 134.563C250.546 135.483 249.291 136.001 247.981 136.003H95.5924C94.2827 136.001 93.0274 135.483 92.1014 134.563C91.1753 133.643 90.6541 132.396 90.6519 131.095M90.8626 131.095C90.8626 132.341 91.3609 133.536 92.2479 134.418C93.1349 135.299 94.338 135.794 95.5924 135.794H247.981C249.235 135.794 250.438 135.299 251.325 134.418C252.212 133.536 252.711 132.341 252.711 131.095" fill="#E0E0E0"/>
<path d="M459.947 234.866C459.947 237.697 357.225 240 230.51 240C103.795 240 1.07227 237.697 1.07227 234.866C1.07227 232.034 103.795 229.723 230.51 229.723C357.225 229.723 459.947 232.026 459.947 234.866Z" fill="#003A65"/>
<path opacity="0.3" d="M9.38651 143.793H1.04834V171.333H9.38651V143.793Z" fill="black"/>
<path d="M186.4 20.8182C187.267 11.0445 179.996 2.42257 170.158 1.56061C160.32 0.698643 151.642 7.92302 150.774 17.6967C149.906 27.4704 157.178 36.0923 167.016 36.9543C176.854 37.8162 185.532 30.5919 186.4 20.8182Z" fill="#ED5100"/>
<path d="M175.619 31.3032L174.379 35.709L179.505 38.4228L180.129 32.7774L175.619 31.3032Z" fill="#ED5100"/>
<path d="M183.122 3.42773C185.475 5.13977 187.365 7.40267 188.626 10.0154C189.886 12.6281 190.478 15.5096 190.347 18.4041" stroke="#ED5100" stroke-width="0.5" stroke-linecap="round" stroke-linejoin="round"/>
<path d="M190.103 21.0425C190.119 21.9265 189.952 22.8045 189.614 23.6223" stroke="#ED5100" stroke-width="0.5" stroke-linecap="round" stroke-linejoin="round"/>
<path d="M168.267 26.7382L159.263 20.7577L161.362 17.6335L167.399 21.6456L174.91 11.7703L177.929 14.0318L168.267 26.7382Z" fill="white"/>
<path d="M441.749 193.454L24.7476 203.162V132.31H445.762L441.749 193.454Z" fill="#263238"/>
<path opacity="0.5" d="M441.749 193.454L24.7476 203.162V132.31H445.762L441.749 193.454Z" fill="black"/>
<path d="M8.71191 150.486V186.419C8.71112 190.167 9.92017 193.817 12.1615 196.832C14.4028 199.847 17.5582 202.069 21.1644 203.171L24.0899 204.084C25.9044 204.64 27.7979 204.901 29.6964 204.854L49.1718 204.402C47.1049 197.202 46.7254 189.628 48.0625 182.26C49.3996 174.893 52.4177 167.927 56.8853 161.898C61.3529 155.869 67.1512 150.937 73.8355 147.48C80.5197 144.023 87.9122 142.133 95.4457 141.955C102.979 141.777 110.454 143.316 117.296 146.454C124.138 149.592 130.165 154.245 134.916 160.056C139.666 165.868 143.014 172.683 144.702 179.98C146.389 187.276 146.372 194.86 144.652 202.149L342.829 197.492C342.506 195.191 342.351 192.871 342.365 190.548C342.753 177.773 348.148 165.653 357.4 156.773C366.653 147.892 379.03 142.953 391.895 143.009C404.76 143.065 417.094 148.111 426.268 157.071C435.442 166.031 440.731 178.197 441.007 190.975C441.007 191.93 440.931 192.868 440.931 193.815C441.192 193.706 441.462 193.605 441.723 193.48L448.468 190.473C451.737 189.002 454.509 186.626 456.453 183.629C458.397 180.633 459.43 177.143 459.428 173.578V100.33C459.429 96.9514 458.501 93.6368 456.743 90.7446C454.985 87.8525 452.465 85.493 449.454 83.9213L398.607 57.3442C398.149 57.1018 397.772 56.7328 397.52 56.2817C397.268 55.8307 397.153 55.3169 397.189 54.8024C397.224 54.2879 397.409 53.7946 397.721 53.3821C398.032 52.9696 398.457 52.6555 398.945 52.4778L405.167 50.2581C405.48 50.1547 405.748 49.9485 405.927 49.6735C406.106 49.3985 406.185 49.0711 406.152 48.7452C406.118 48.4194 405.974 48.1146 405.743 47.881C405.512 47.6475 405.207 47.4992 404.88 47.4605C380.683 44.1101 286.552 31.8811 237.105 37.8867C180.028 44.8304 125.328 94.006 125.328 94.006C83.3001 92.4816 44.088 107.031 27.2093 114.293C24.513 115.46 22.0924 117.175 20.1031 119.327C18.1139 121.479 16.6 124.021 15.659 126.79L9.88381 143.793C9.12915 145.946 8.73331 148.206 8.71191 150.486Z" fill="#0D99FF"/>
<path d="M342.879 197.492C342.593 195.331 342.449 193.154 342.449 190.975C342.449 189.87 342.491 188.772 342.559 187.675L306.719 173.109C304.622 172.262 302.36 171.896 300.101 172.037L175.458 180.162C173.421 180.295 171.433 180.839 169.616 181.762L145.933 193.865C145.764 196.663 145.361 199.442 144.728 202.174L342.879 197.492Z" fill="#263238"/>
<path d="M459.521 173.553V171.677L439.287 177.842C440.475 182.111 441.074 186.521 441.066 190.95C441.066 191.905 440.99 192.843 440.99 193.789C441.251 193.681 441.521 193.58 441.782 193.454L448.577 190.447C451.842 188.973 454.611 186.596 456.551 183.6C458.492 180.604 459.523 177.116 459.521 173.553Z" fill="#263238"/>
<path d="M14.4619 199.318C16.387 201.097 18.693 202.42 21.2066 203.187L24.1575 204.084C25.972 204.64 27.8655 204.901 29.764 204.854L49.2394 204.402C48.5366 201.958 48.0292 199.462 47.7218 196.939L14.4619 199.318Z" fill="#263238"/>
<path d="M391.829 137.327C384.179 137.332 376.617 138.952 369.644 142.079C362.672 145.206 356.447 149.769 351.383 155.466C346.319 161.163 342.531 167.864 340.27 175.125C338.009 182.386 337.327 190.041 338.268 197.584L342.947 197.467C342.012 190.798 342.47 184.01 344.292 177.526C346.115 171.041 349.262 164.999 353.538 159.776C357.815 154.553 363.128 150.261 369.148 147.168C375.167 144.075 381.763 142.247 388.525 141.799C395.287 141.35 402.069 142.29 408.449 144.56C414.829 146.83 420.669 150.382 425.607 154.993C430.544 159.605 434.473 165.178 437.147 171.364C439.821 177.55 441.184 184.218 441.15 190.95C441.15 191.905 441.074 192.843 441.074 193.79C441.335 193.681 441.605 193.58 441.867 193.455L445.762 191.696V190.95C445.739 176.74 440.047 163.117 429.933 153.069C419.819 143.021 406.107 137.366 391.804 137.344L391.829 137.327Z" fill="#263238"/>
<path d="M96.6969 137.327C88.4439 137.322 80.2998 139.198 72.8911 142.811C65.4825 146.424 59.0067 151.677 53.962 158.166C48.9173 164.655 45.4381 172.207 43.7921 180.242C42.1461 188.276 42.3771 196.579 44.4674 204.511L49.2562 204.402C47.1864 197.202 46.8046 189.626 48.14 182.257C49.4754 174.887 52.4926 167.92 56.96 161.889C61.4274 155.858 67.2262 150.924 73.9114 147.466C80.5966 144.007 87.9904 142.117 95.5254 141.939C103.06 141.761 110.536 143.301 117.379 146.44C124.222 149.579 130.25 154.233 135.001 160.047C139.751 165.86 143.098 172.678 144.784 179.976C146.47 187.274 146.451 194.859 144.728 202.149L149.5 202.032C151.163 194.222 151.05 186.141 149.168 178.381C147.287 170.62 143.685 163.374 138.624 157.174C133.564 150.973 127.174 145.973 119.92 142.539C112.666 139.106 104.732 137.325 96.6969 137.327Z" fill="#263238"/>
<path d="M143.666 96.142C143.074 96.6547 142.668 97.3463 142.511 98.1104C142.289 98.9606 142.397 99.8625 142.812 100.638C143.227 101.413 143.92 102.006 144.753 102.298L165.35 108.036C167.166 108.546 169.067 108.689 170.94 108.455L323.682 89.6506C327.52 89.1183 331.021 87.1866 333.504 84.2313L353.536 61.0381C354.226 60.2427 354.647 59.2527 354.742 58.207C355.012 55.5686 353.351 53.1814 351.015 52.8966C314.442 48.0721 268.198 43.683 239.002 47.2345C200.709 51.8748 162.18 80.4621 143.666 96.142Z" fill="#0D99FF"/>
<path opacity="0.8" d="M144.357 96.142C143.762 96.6539 143.354 97.3454 143.193 98.1104C142.976 98.9616 143.087 99.8626 143.503 100.637C143.919 101.412 144.611 102.004 145.444 102.298L166.041 108.036C167.857 108.546 169.758 108.689 171.631 108.455L320.95 98.2863C324.668 97.8172 330.41 91.0326 334.44 85.5212L354.176 61.0549C354.88 60.2572 355.316 59.262 355.424 58.207C355.702 55.5686 354.033 53.1814 351.706 52.8966C315.133 48.0721 268.889 43.683 239.685 47.2345C201.4 51.8748 162.871 80.4621 144.357 96.142Z" fill="white"/>
<g opacity="0.3">
<path d="M244.136 110.557C243.904 110.474 243.69 110.346 243.507 110.18C243.324 110.015 243.176 109.815 243.071 109.592C242.966 109.37 242.906 109.129 242.895 108.883C242.884 108.638 242.922 108.392 243.007 108.162C243.22 107.575 243.604 107.064 244.11 106.694C244.615 106.324 245.22 106.112 245.848 106.084L264.025 105.33C264.271 105.318 264.517 105.352 264.75 105.431C264.987 105.515 265.205 105.645 265.391 105.814C265.577 105.982 265.727 106.186 265.833 106.413C265.939 106.64 265.998 106.885 266.008 107.135C266.017 107.385 265.977 107.634 265.888 107.868C265.671 108.456 265.284 108.967 264.775 109.336C264.267 109.706 263.66 109.918 263.03 109.946L244.853 110.691C244.608 110.692 244.365 110.646 244.136 110.557Z" fill="black"/>
</g>
<path d="M379.309 58.8185C378.924 59.159 378.611 59.5721 378.389 60.0338C378.166 60.4955 378.038 60.9966 378.012 61.5079C377.986 62.0193 378.063 62.5306 378.238 63.0122C378.413 63.4937 378.682 63.936 379.031 64.3131L383.339 68.9702C383.832 69.4959 384.463 69.8757 385.16 70.0675L437.921 84.5831C438.838 84.8337 439.785 84.9605 440.737 84.96H451.225C450.685 84.5998 450.12 84.2648 449.538 83.9549L398.607 57.3192C398.302 57.1686 398.029 56.9596 397.804 56.7042C397.58 56.4489 397.409 56.152 397.3 55.8308C397.191 55.5095 397.147 55.1701 397.17 54.8319C397.193 54.4937 397.284 54.1634 397.435 53.8599L380.886 57.9725C380.301 58.1286 379.761 58.4183 379.309 58.8185Z" fill="#0D99FF"/>
<path d="M50.4954 121.136L32.5207 119.193L22.176 123.381C21.0989 123.817 20.1405 124.499 19.3787 125.372C18.6169 126.246 18.0733 127.285 17.7919 128.406C17.4508 129.715 17.6416 131.105 18.3231 132.276L18.5085 132.586C19.0724 133.555 19.9139 134.336 20.926 134.828C21.938 135.32 23.0746 135.502 24.191 135.35L34.5778 133.934C35.5903 133.786 36.5495 133.388 37.3685 132.779L49.3151 123.783L50.4954 121.136Z" fill="white"/>
<path d="M125.345 94.0144L128.212 94.852C129.309 95.1614 130.467 95.1986 131.582 94.9606C132.698 94.7226 133.738 94.2166 134.611 93.4868C151.312 79.3899 180.34 57.8971 211.669 47.8626C211.806 47.8125 211.922 47.718 211.998 47.5946C212.035 47.5281 212.059 47.4549 212.068 47.3793C212.076 47.3036 212.07 47.2271 212.049 47.1539C212.028 47.0807 211.992 47.0125 211.944 46.953C211.897 46.8935 211.838 46.8439 211.77 46.8072L207.884 44.8137C162.686 60.3847 125.345 94.0144 125.345 94.0144Z" fill="#0D99FF"/>
<path opacity="0.8" d="M125.345 94.0144L128.212 94.852C129.309 95.1614 130.467 95.1986 131.582 94.9606C132.698 94.7226 133.738 94.2166 134.611 93.4868C151.312 79.3899 180.34 57.8971 211.669 47.8626C211.806 47.8125 211.922 47.718 211.998 47.5946C212.035 47.5281 212.059 47.4549 212.068 47.3793C212.076 47.3036 212.07 47.2271 212.049 47.1539C212.028 47.0807 211.992 47.0125 211.944 46.953C211.897 46.8935 211.838 46.8439 211.77 46.8072L207.884 44.8137C162.686 60.3847 125.345 94.0144 125.345 94.0144Z" fill="white"/>
<path opacity="0.2" d="M296.568 112.961L144.728 123.783L147.586 142.386C148.463 148.08 150.59 153.514 153.816 158.3L166.462 177.146L296.054 159.741L357.33 112.978L296.568 112.961Z" fill="white"/>
<path d="M391.779 231.783C414.482 231.783 432.888 213.498 432.888 190.942C432.888 168.386 414.482 150.1 391.779 150.1C369.075 150.1 350.669 168.386 350.669 190.942C350.669 213.498 369.075 231.783 391.779 231.783Z" fill="#263238"/>
<path opacity="0.4" d="M391.779 215.978C405.696 215.978 416.979 204.769 416.979 190.942C416.979 177.115 405.696 165.906 391.779 165.906C377.861 165.906 366.579 177.115 366.579 190.942C366.579 204.769 377.861 215.978 391.779 215.978Z" fill="white"/>
<g opacity="0.3">
<path d="M391.787 168.427H391.779C390.666 168.427 389.764 169.323 389.764 170.429V183.261C389.764 184.367 390.666 185.263 391.779 185.263H391.787C392.9 185.263 393.802 184.367 393.802 183.261V170.429C393.802 169.323 392.9 168.427 391.787 168.427Z" fill="white"/>
</g>
<g opacity="0.3">
<path d="M391.787 196.637H391.779C390.666 196.637 389.764 197.534 389.764 198.639V211.471C389.764 212.577 390.666 213.473 391.779 213.473H391.787C392.9 213.473 393.802 212.577 393.802 211.471V198.639C393.802 197.534 392.9 196.637 391.787 196.637Z" fill="white"/>
</g>
<g opacity="0.3">
<path d="M399.485 188.848C399.02 189.109 398.471 189.177 397.956 189.037C397.441 188.897 397.003 188.561 396.736 188.102C396.603 187.875 396.517 187.624 396.483 187.363C396.448 187.102 396.466 186.837 396.535 186.584C396.604 186.33 396.723 186.092 396.885 185.884C397.047 185.676 397.248 185.502 397.478 185.372L408.657 178.922C408.888 178.79 409.142 178.704 409.405 178.67C409.669 178.635 409.937 178.653 410.194 178.721C410.451 178.79 410.691 178.908 410.902 179.069C411.113 179.23 411.29 179.43 411.423 179.659C411.686 180.12 411.756 180.665 411.617 181.176C411.478 181.687 411.141 182.124 410.681 182.39L399.501 188.839L399.485 188.848Z" fill="white"/>
</g>
<g opacity="0.3">
<path d="M374.891 202.894C374.662 203.026 374.409 203.111 374.147 203.146C373.885 203.18 373.618 203.162 373.363 203.094C373.107 203.025 372.868 202.907 372.659 202.746C372.449 202.586 372.274 202.385 372.143 202.157C372.01 201.93 371.924 201.678 371.89 201.418C371.855 201.157 371.873 200.892 371.942 200.638C372.011 200.385 372.13 200.147 372.291 199.939C372.453 199.731 372.655 199.557 372.885 199.426L384.064 192.977C384.292 192.843 384.544 192.756 384.806 192.72C385.068 192.684 385.334 192.7 385.59 192.767C385.845 192.834 386.085 192.951 386.295 193.11C386.505 193.27 386.681 193.47 386.813 193.697C387.083 194.157 387.158 194.705 387.022 195.22C386.886 195.735 386.55 196.175 386.087 196.445L374.9 202.894H374.891Z" fill="white"/>
</g>
<g opacity="0.3">
<path d="M408.657 202.944L397.478 196.495C397.247 196.363 397.045 196.187 396.883 195.978C396.721 195.768 396.602 195.529 396.533 195.274C396.465 195.019 396.447 194.753 396.482 194.491C396.516 194.229 396.603 193.976 396.736 193.748C397.007 193.288 397.45 192.954 397.968 192.819C398.487 192.684 399.038 192.759 399.501 193.027L410.68 199.477C411.141 199.743 411.478 200.179 411.616 200.69C411.755 201.202 411.686 201.747 411.422 202.207C411.29 202.436 411.113 202.637 410.902 202.798C410.691 202.959 410.45 203.077 410.193 203.145C409.937 203.214 409.669 203.231 409.405 203.197C409.141 203.162 408.887 203.077 408.657 202.944Z" fill="white"/>
</g>
<g opacity="0.3">
<path d="M386.812 188.102C386.545 188.56 386.105 188.894 385.59 189.031C385.075 189.167 384.526 189.095 384.064 188.831L372.885 182.415C372.424 182.149 372.087 181.712 371.95 181.2C371.812 180.688 371.885 180.143 372.151 179.684C372.419 179.226 372.859 178.892 373.374 178.756C373.889 178.619 374.438 178.691 374.9 178.955L386.087 185.405C386.316 185.537 386.516 185.713 386.676 185.923C386.837 186.132 386.954 186.371 387.021 186.625C387.088 186.88 387.105 187.145 387.069 187.405C387.033 187.666 386.946 187.917 386.812 188.144V188.102Z" fill="white"/>
</g>
<path d="M388.397 190.933C388.397 190.045 388.753 189.193 389.385 188.564C390.018 187.936 390.875 187.583 391.77 187.583C392.437 187.583 393.089 187.78 393.643 188.148C394.198 188.516 394.63 189.039 394.885 189.651C395.141 190.263 395.208 190.937 395.077 191.587C394.947 192.237 394.626 192.834 394.154 193.303C393.683 193.771 393.082 194.09 392.428 194.219C391.774 194.349 391.095 194.282 390.479 194.029C389.863 193.775 389.336 193.346 388.966 192.795C388.595 192.244 388.397 191.596 388.397 190.933Z" fill="#263238"/>
<path d="M96.697 231.792C119.401 231.792 137.806 213.506 137.806 190.95C137.806 168.394 119.401 150.109 96.697 150.109C73.993 150.109 55.5879 168.394 55.5879 190.95C55.5879 213.506 73.993 231.792 96.697 231.792Z" fill="#263238"/>
<path opacity="0.4" d="M96.697 215.986C110.615 215.986 121.897 204.777 121.897 190.95C121.897 177.123 110.615 165.914 96.697 165.914C82.7795 165.914 71.4971 177.123 71.4971 190.95C71.4971 204.777 82.7795 215.986 96.697 215.986Z" fill="white"/>
<g opacity="0.3">
<path d="M96.6968 168.427H96.6883C95.5755 168.427 94.6733 169.323 94.6733 170.429V183.261C94.6733 184.367 95.5755 185.263 96.6883 185.263H96.6968C97.8096 185.263 98.7117 184.367 98.7117 183.261V170.429C98.7117 169.323 97.8096 168.427 96.6968 168.427Z" fill="white"/>
</g>
<g opacity="0.3">
<path d="M96.6968 196.637H96.6883C95.5755 196.637 94.6733 197.534 94.6733 198.639V211.471C94.6733 212.577 95.5755 213.473 96.6883 213.473H96.6968C97.8096 213.473 98.7117 212.577 98.7117 211.471V198.639C98.7117 197.534 97.8096 196.637 96.6968 196.637Z" fill="white"/>
</g>
<g opacity="0.3">
<path d="M104.386 188.848C104.158 188.977 103.906 189.061 103.646 189.094C103.385 189.127 103.121 189.108 102.868 189.038C102.615 188.969 102.378 188.851 102.171 188.69C101.964 188.529 101.791 188.33 101.662 188.102C101.396 187.642 101.323 187.096 101.461 186.583C101.598 186.069 101.934 185.631 102.396 185.363L113.584 178.914C114.047 178.65 114.596 178.579 115.111 178.718C115.627 178.856 116.066 179.191 116.332 179.651C116.463 179.878 116.548 180.129 116.582 180.388C116.616 180.648 116.598 180.912 116.529 181.165C116.46 181.418 116.342 181.654 116.181 181.862C116.02 182.069 115.819 182.243 115.59 182.373L104.411 188.823L104.386 188.848Z" fill="white"/>
</g>
<g opacity="0.3">
<path d="M77.0529 202.157C76.9203 201.93 76.8343 201.679 76.7998 201.418C76.7653 201.157 76.7831 200.892 76.852 200.639C76.921 200.385 77.0398 200.147 77.2016 199.939C77.3634 199.731 77.565 199.557 77.7948 199.427L88.9742 192.977C89.4372 192.709 89.9884 192.634 90.5069 192.769C91.0253 192.904 91.4686 193.238 91.7396 193.697C91.8726 193.926 91.9589 194.179 91.9936 194.441C92.0283 194.703 92.0107 194.969 91.9418 195.224C91.8729 195.479 91.754 195.718 91.592 195.928C91.43 196.137 91.228 196.313 90.9976 196.445L79.8183 202.894C79.588 203.027 79.3338 203.112 79.0702 203.147C78.8065 203.181 78.5386 203.164 78.2818 203.095C78.025 203.027 77.7843 202.909 77.5734 202.748C77.3625 202.587 77.1857 202.386 77.0529 202.157Z" fill="white"/>
</g>
<g opacity="0.3">
<path d="M116.324 202.216C116.056 202.674 115.617 203.008 115.101 203.144C114.586 203.281 114.038 203.209 113.576 202.944L102.388 196.495C101.925 196.226 101.589 195.785 101.453 195.27C101.317 194.755 101.393 194.208 101.663 193.748C101.795 193.521 101.972 193.322 102.182 193.163C102.392 193.004 102.631 192.888 102.886 192.821C103.142 192.754 103.408 192.737 103.67 192.773C103.931 192.808 104.183 192.895 104.411 193.027L115.591 199.477C116.052 199.743 116.388 200.18 116.525 200.692C116.663 201.203 116.59 201.748 116.324 202.207V202.216Z" fill="white"/>
</g>
<g opacity="0.3">
<path d="M91.731 188.119C91.4603 188.576 91.0178 188.908 90.5009 189.042C89.9839 189.175 89.4348 189.1 88.9741 188.831L77.7947 182.415C77.3337 182.149 76.9976 181.712 76.8601 181.2C76.7226 180.688 76.795 180.143 77.0612 179.684C77.194 179.455 77.3708 179.255 77.5817 179.094C77.7926 178.933 78.0333 178.815 78.2901 178.746C78.5469 178.678 78.8148 178.66 79.0785 178.695C79.3421 178.729 79.5963 178.815 79.8266 178.947L91.0059 185.397C91.467 185.663 91.803 186.1 91.9405 186.612C92.078 187.123 92.0057 187.668 91.7394 188.127L91.731 188.119Z" fill="white"/>
</g>
<path d="M96.6966 187.583C97.3636 187.583 98.0156 187.78 98.5702 188.148C99.1248 188.516 99.557 189.039 99.8122 189.651C100.067 190.263 100.134 190.937 100.004 191.587C99.874 192.237 99.5528 192.834 99.0812 193.303C98.6096 193.771 98.0087 194.09 97.3545 194.219C96.7003 194.349 96.0223 194.282 95.406 194.029C94.7898 193.775 94.2631 193.346 93.8926 192.795C93.522 192.244 93.3242 191.596 93.3242 190.933C93.3242 190.045 93.6795 189.193 94.312 188.564C94.9444 187.936 95.8022 187.583 96.6966 187.583Z" fill="#263238"/>
<path opacity="0.3" d="M455.213 113.908C455.867 113.7 456.412 113.243 456.728 112.637C457.044 112.031 457.105 111.325 456.899 110.674C456.427 102.081 454.589 94.4249 449.311 89.1564C449.14 88.5951 448.781 88.1088 448.293 87.7782C447.805 87.4476 447.219 87.2926 446.63 87.3388L415.284 90.2788C414.738 90.3391 414.225 90.5676 413.817 90.9321C413.306 91.3909 413 92.0325 412.965 92.7157C412.93 93.399 413.17 94.0681 413.631 94.5757L422.602 104.191C422.917 104.52 423.312 104.762 423.749 104.895L453.737 113.924C454.221 114.057 454.732 114.051 455.213 113.908Z" fill="black"/>
<path d="M142.511 98.0599C142.289 98.9102 142.397 99.812 142.812 100.587C143.227 101.363 143.92 101.955 144.753 102.248L165.35 107.986C167.212 108.549 169.138 108.876 171.083 108.957L177.566 108.53L171.445 75.7043C157.324 84.918 156.354 85.3368 143.666 96.0664C143.069 96.5852 142.662 97.2865 142.511 98.0599Z" fill="#263238"/>
<path d="M276.697 46.179L263.755 102.24L280.685 101.033L288.416 46.7234C284.453 46.4889 280.547 46.3074 276.697 46.179Z" fill="#263238"/>
<path d="M330.41 90.5468L354.185 61.0381C354.888 60.2342 355.321 59.233 355.425 58.1735C355.686 55.5267 354.017 53.1479 351.69 52.8631C346.817 52.2098 341.632 51.5732 336.447 50.9534" fill="#263238"/>
<path d="M161.244 103.756C160.266 103.768 159.294 103.588 158.386 103.227C157.477 102.866 156.65 102.331 155.95 101.652C155.25 100.973 154.691 100.163 154.306 99.2694C153.921 98.3757 153.718 97.4154 153.707 96.4434C153.685 94.7541 154.245 93.1083 155.294 91.7785C156.343 90.4487 157.817 89.5147 159.473 89.1311L169.397 86.8193L171.926 103.354L161.438 103.756H161.244Z" fill="#0D99FF"/>
<path opacity="0.3" d="M169.017 103.471L171.926 103.354L169.396 86.8193L166.563 87.4894L169.017 103.471Z" fill="black"/>
<path opacity="0.6" d="M280.33 101.033C280.457 106.846 280.389 112.994 279.757 116.11C278.357 123.088 267.406 174.131 267.406 174.131" stroke="black" stroke-width="0.5" stroke-linecap="round" stroke-linejoin="round"/>
<path opacity="0.6" d="M142.417 99.2913C142.417 99.2913 145.689 143.416 150.671 152.345C155.528 161.056 169.616 181.736 169.616 181.736" stroke="black" stroke-width="0.5" stroke-linecap="round" stroke-linejoin="round"/>
<path opacity="0.6" d="M130.985 95.095C130.985 95.095 95.9801 103.68 85.6775 105.356C77.2466 106.704 42.8317 115.022 32.4785 119.226" stroke="black" stroke-width="0.5" stroke-linecap="round" stroke-linejoin="round"/>
<path opacity="0.8" d="M379.309 58.8185C378.924 59.159 378.611 59.5721 378.389 60.0338C378.166 60.4955 378.038 60.9966 378.012 61.5079C377.986 62.0193 378.063 62.5306 378.238 63.0122C378.413 63.4937 378.682 63.936 379.031 64.3131L383.339 68.9702C383.832 69.4959 384.463 69.8757 385.16 70.0675L437.921 84.5831C438.838 84.8337 439.785 84.9605 440.737 84.96H451.225C450.685 84.5998 450.12 84.2648 449.538 83.9549L398.607 57.3192C398.302 57.1686 398.029 56.9596 397.804 56.7042C397.58 56.4489 397.409 56.152 397.3 55.8308C397.191 55.5095 397.147 55.1701 397.17 54.8319C397.193 54.4937 397.284 54.1634 397.435 53.8599L380.886 57.9725C380.301 58.1286 379.761 58.4183 379.309 58.8185Z" fill="white"/>
<path d="M204.427 81.0651C204.427 81.0651 210.733 103.102 213.802 103.89C219.349 105.305 238.117 102.106 237.737 101.494L236.203 93.7296C236.203 93.7296 217.048 92.3559 216.652 92.5067L210.573 78.6863L204.427 81.0651Z" fill="#FFBE9D"/>
<path d="M210.615 82.5561C210.615 82.5561 212.529 80.7888 212.579 78.6445C212.63 76.5003 213.245 74.8 213.178 73.2001C213.111 71.6003 211.762 73.2923 211.256 74.3644C210.75 75.4365 210.118 76.5924 209.384 76.0396C208.651 75.4868 205.497 68.5012 204.41 67.9065C203.322 67.3118 203.474 68.5849 203.474 68.5849C203.474 68.5849 202.631 66.9097 201.906 67.0438C201.712 67.0438 201.307 67.4793 201.56 68.3085C202.125 70.1596 203.508 73.9791 203.508 73.9791C203.432 73.7613 201.383 69.1629 200.978 68.5096C200.464 67.672 199.781 67.5212 199.292 67.8395C198.601 68.2918 200.978 74.0796 200.869 74.3895C200.869 74.3895 199.638 71.0391 198.584 70.8548C197.53 70.6706 198.196 72.8567 199.141 74.6576C199.984 76.3328 201.282 79.7837 202.327 81.3584C203.617 83.3184 204.933 84.357 207.116 84.0219C208.389 83.8387 209.594 83.334 210.615 82.5561Z" fill="#FFBE9D"/>
<path opacity="0.3" d="M203.592 68.7859C204.205 70.1428 204.767 71.5388 205.278 72.9739" stroke="black" stroke-width="0.25" stroke-linecap="round" stroke-linejoin="round"/>
<path opacity="0.3" d="M201.282 75.7211C202.793 74.4911 204.634 73.7281 206.577 73.5266" stroke="black" stroke-width="0.25" stroke-linecap="round" stroke-linejoin="round"/>
<path opacity="0.3" d="M208.878 76.8772C208.205 77.3097 207.705 77.9611 207.462 78.7199C207.226 79.4784 207.259 80.2942 207.555 81.0317" stroke="black" stroke-width="0.25" stroke-linecap="round" stroke-linejoin="round"/>
<path d="M253.882 73.7026C253.882 73.7026 260.905 67.8394 260.627 65.8459C260.349 63.8524 259.194 64.4806 259.194 64.4806C259.194 64.4806 261.622 59.7314 259.236 58.9106C256.85 58.0897 256.707 58.9106 256.707 58.9106C256.707 58.9106 257.651 55.0325 255.754 53.885C254.312 52.9887 253.697 54.7728 253.697 54.7728C253.697 54.7728 250.94 50.5262 247.644 50.5848C246.016 50.7105 245.207 51.7575 245.443 53.0055C245.44 53.0585 245.44 53.1116 245.443 53.1646C245.443 53.1646 238.783 50.2833 235.689 52.0925C232.594 53.9017 236.633 55.8869 236.633 55.8869C236.633 55.8869 230.141 55.2084 228.868 57.805C227.865 59.8655 230.748 61.2559 230.748 61.2559C230.052 61.5147 229.409 61.8979 228.851 62.3866C228.464 62.7184 228.188 63.1587 228.058 63.6496C227.928 64.1406 227.951 64.6591 228.123 65.137C228.296 65.6148 228.61 66.0295 229.024 66.3265C229.438 66.6235 229.934 66.7889 230.444 66.8008H230.503C230.841 66.8008 231.465 66.8846 231.718 66.65C231.718 66.65 230.596 68.9869 232.999 69.7324C235.402 70.4779 236.548 67.6635 236.548 67.6635L253.882 73.7026Z" fill="#263238"/>
<path d="M251.674 88.8798C251.674 88.8798 251.286 85.5294 253.689 77.346C253.689 77.346 253.259 77.145 253.259 77.1366C253.588 75.9891 253.942 74.9337 254.279 74.0208L243.007 80.9058C243.268 83.5192 242.307 88.5699 241.742 90.6974L244.659 95.6141L251.674 88.8798Z" fill="#FFBE9D"/>
<path opacity="0.2" d="M242.805 84.5412L249.288 83.1089C248.698 85.1108 246.902 87.4812 242.4 87.6654C242.619 86.6365 242.754 85.5917 242.805 84.5412Z" fill="black"/>
<path d="M235.275 61.5239C233.943 64.1121 233.463 69.7994 237.611 68.6184C241.759 67.4373 237.56 57.0846 235.275 61.5239Z" fill="#263238"/>
<path d="M254.38 68.5514C253.604 75.6375 253.309 79.658 249.516 83.1005C243.816 88.2853 235.326 84.7003 233.952 77.5053C232.713 71.0307 234.188 60.5188 241.338 58.0897C242.922 57.5494 244.618 57.4173 246.268 57.7058C247.917 57.9943 249.466 58.694 250.769 59.7393C252.072 60.7846 253.087 62.1414 253.719 63.6826C254.35 65.2238 254.578 66.899 254.38 68.5514Z" fill="#FFBE9D"/>
<path d="M244.044 70.126C244.044 70.8547 243.589 71.4159 243.117 71.3908C242.644 71.3656 242.273 70.7542 242.273 70.0255C242.273 69.2967 242.729 68.7272 243.201 68.7607C243.673 68.7942 244.078 69.3973 244.044 70.126Z" fill="#263238"/>
<path d="M236.852 69.9333C236.852 70.6536 236.405 71.2232 235.925 71.1981C235.444 71.173 235.082 70.5615 235.082 69.8328C235.082 69.1041 235.537 68.5345 236.017 68.5596C236.498 68.5848 236.886 69.2046 236.852 69.9333Z" fill="#263238"/>
<path d="M245.823 66.2229C245.764 66.2353 245.703 66.2326 245.645 66.215C245.588 66.1974 245.536 66.1655 245.494 66.1224C245.197 65.8126 244.831 65.5758 244.426 65.4304C244.02 65.2851 243.587 65.2352 243.159 65.2848C243.114 65.2945 243.068 65.2952 243.024 65.2869C242.979 65.2786 242.937 65.2614 242.899 65.2364C242.861 65.2114 242.829 65.179 242.804 65.1413C242.779 65.1035 242.762 65.0612 242.754 65.0167C242.744 64.9732 242.744 64.9281 242.752 64.8843C242.76 64.8404 242.778 64.7988 242.803 64.7619C242.828 64.725 242.861 64.6937 242.899 64.6698C242.937 64.6459 242.979 64.63 243.024 64.6231C243.566 64.5527 244.117 64.6117 244.632 64.7952C245.146 64.9787 245.61 65.2815 245.983 65.6784C246.045 65.7425 246.08 65.8281 246.08 65.9172C246.08 66.0062 246.045 66.0918 245.983 66.1559C245.938 66.1941 245.882 66.2176 245.823 66.2229Z" fill="#263238"/>
<path d="M233.8 66.6415C233.736 66.6195 233.678 66.5821 233.632 66.5326C233.576 66.4622 233.55 66.3729 233.559 66.2836C233.568 66.1944 233.613 66.1124 233.682 66.0552C234.095 65.7054 234.586 65.4596 235.114 65.3386C235.643 65.2176 236.192 65.2249 236.717 65.36C236.804 65.387 236.877 65.447 236.92 65.527C236.962 65.607 236.971 65.7005 236.945 65.7871C236.913 65.8616 236.856 65.9226 236.784 65.9594C236.711 65.9962 236.628 66.0064 236.549 65.9882C236.133 65.8796 235.697 65.8748 235.28 65.9742C234.862 66.0736 234.475 66.274 234.154 66.5577C234.109 66.603 234.052 66.6349 233.989 66.6497C233.927 66.6645 233.861 66.6616 233.8 66.6415Z" fill="#263238"/>
<path d="M239.626 77.2038C240.773 76.8436 242.897 76.0814 243.926 75.0093C244.06 75.254 244.16 75.5162 244.221 75.7882C244.34 76.2697 244.34 76.7726 244.221 77.254C243.968 78.234 243.1 79.2978 240.773 79.9428H240.705C240.705 79.9428 239.458 80.261 238.825 77.43C238.834 77.4383 239.146 77.3629 239.626 77.2038Z" fill="#263238"/>
<path d="M239.626 77.2038L240.073 77.9744C242.256 77.3629 243.715 76.6426 244.221 75.7882C244.16 75.5162 244.06 75.254 243.926 75.0093C242.897 76.0814 240.764 76.8771 239.626 77.2038Z" fill="white"/>
<path d="M240.764 79.9426C243.083 79.2977 243.951 78.2674 244.204 77.2539C243.325 77.5146 242.5 77.9287 241.767 78.4768C241.285 78.8469 240.933 79.3604 240.764 79.9426Z" fill="#FB504E"/>
<path d="M252.239 74.0461C251.59 73.7667 251.035 73.3108 250.637 72.7311C250.372 72.1311 250.29 71.4671 250.401 70.8213C250.458 70.1492 250.554 69.4809 250.687 68.8195C250.055 69.1378 249.279 68.6268 248.934 67.9819C248.497 67.0104 248.353 65.9337 248.521 64.8827C248.115 64.9735 247.692 64.9563 247.296 64.8328C246.899 64.7092 246.542 64.4837 246.261 64.1792C245.997 63.8589 245.853 63.4579 245.853 63.0442C245.853 62.6305 245.997 62.2295 246.261 61.9093C243.618 62.2599 240.932 62.0949 238.353 61.4234C238.53 61.7501 238.353 62.1438 238.092 62.4369C237.161 63.6391 235.816 64.4567 234.314 64.732C234.095 64.732 233.825 64.7822 233.699 64.598C233.65 64.4905 233.629 64.3722 233.64 64.2545C233.796 62.8035 234.524 61.4727 235.663 60.5523C236.794 59.644 238.075 58.9383 239.449 58.4667C241.682 57.557 244.042 56.992 246.447 56.7915C248.861 56.5864 251.288 57.0018 253.495 57.9977C253.98 58.2006 254.414 58.5065 254.768 58.8939C255.067 59.297 255.282 59.7555 255.4 60.2424C256.285 63.1433 256.623 66.1819 256.395 69.2048" fill="#263238"/>
<path d="M256.926 74.6071C256.615 75.4373 256.141 76.1979 255.531 76.8449C254.922 77.4919 254.19 78.0124 253.377 78.3763C251.193 79.3312 249.743 77.455 250.055 75.227C250.325 73.2167 251.8 70.3019 254.135 70.2935C256.471 70.2851 257.685 72.5466 256.926 74.6071Z" fill="#FFBE9D"/>
<path opacity="0.2" d="M255.383 72.5718C255.239 72.3588 255.032 72.1944 254.791 72.1002C254.551 72.0061 254.287 71.9865 254.035 72.0441C253.527 72.1679 253.08 72.4643 252.77 72.8817C252.378 73.3663 252.12 73.9435 252.02 74.5569" stroke="black" stroke-width="0.5" stroke-linecap="round" stroke-linejoin="round"/>
<path d="M241.202 100.447C241.202 100.447 220.235 106.528 212.621 106.796C205.008 107.064 188.172 103.53 188.172 103.53L189.125 95.8487L213.861 97.1051L240.764 88.1763L241.202 100.447Z" fill="#FFBE9D"/>
<path d="M233.708 105.138L237.83 88.2098L248.301 86.3922C248.757 86.3252 257.263 85.63 259.818 94.9023L260.383 102.273L233.708 105.138Z" fill="#263238"/>
<path d="M243.572 103.454C242.99 103.454 226.668 106.411 226.668 106.411L223.295 93.2271C228.035 91.2812 232.883 89.6033 237.813 88.2015C245.57 86.1159 252.829 85.4709 254.507 89.0391C257.693 95.8823 243.572 103.454 243.572 103.454Z" fill="#263238"/>
<path opacity="0.3" d="M209.772 97.0215L213.844 97.2225L224.425 93.6208C224.425 93.6208 226.617 92.6827 226.06 92.8753C225.504 93.068 221.12 92.6157 220.825 92.6575C220.53 92.6994 209.772 97.0215 209.772 97.0215Z" fill="black"/>
<path d="M180.989 92.3477C180.508 92.6324 174.902 98.3868 174.902 98.3868L175.998 105.523L183.046 98.2946L180.989 92.3477Z" fill="#263238"/>
<path d="M189.428 107.232C188.83 107.523 188.14 107.567 187.508 107.355C186.877 107.144 186.355 106.693 186.056 106.101L174.894 83.5779C174.601 82.9831 174.556 82.2975 174.769 81.6701C174.982 81.0428 175.436 80.5243 176.032 80.2275C176.629 79.9359 177.319 79.8902 177.95 80.1004C178.581 80.3105 179.104 80.7595 179.404 81.3499L190.592 103.865C190.739 104.161 190.825 104.484 190.846 104.814C190.867 105.144 190.822 105.475 190.714 105.788C190.606 106.101 190.437 106.39 190.216 106.637C189.995 106.885 189.728 107.087 189.428 107.232Z" fill="#263238"/>
<path d="M197.48 96.4602L188.273 95.2289L185.618 92.0293C185.618 92.0293 180.938 91.6189 179.935 92.4481C178.932 93.2773 177.92 95.9074 177.92 95.9074C177.92 95.9074 176.698 98.0768 178.763 99.2076C178.763 99.2076 177.44 101.134 179.8 102.499C179.8 102.499 178.064 103.471 180.551 104.484C181.507 104.863 182.53 105.048 183.56 105.028C184.589 105.008 185.604 104.783 186.545 104.367C187.923 104.033 189.348 103.928 190.76 104.057L199.132 105.523L197.48 96.4602Z" fill="#FFBE9D"/>
</svg>
