<svg width="460" height="118" viewBox="0 0 460 118" fill="none" xmlns="http://www.w3.org/2000/svg">
<g clip-path="url(#clip0_5497_40957)">
<path opacity="0.2" d="M-3.05176e-05 112.307C-3.05176e-05 115.447 102.967 118 229.989 118C357.011 118 460 115.538 460 112.307C460 109.076 357.033 106.614 229.989 106.614C102.946 106.614 -3.05176e-05 109.167 -3.05176e-05 112.307Z" fill="black"/>
<path d="M388.37 62.4773H392.394V49.1799C392.394 48.6512 392.182 48.1441 391.805 47.7703C391.427 47.3964 390.916 47.1864 390.382 47.1864C390.117 47.1834 389.854 47.2329 389.608 47.332C389.363 47.4311 389.14 47.5778 388.952 47.7635C388.765 47.9492 388.617 48.1702 388.517 48.4134C388.417 48.6567 388.367 48.9173 388.37 49.1799V62.4773Z" fill="#D1D1D1"/>
<path d="M228.228 34.5008L286.029 23.1742C295.335 21.3491 304.992 23.1766 312.963 28.2712L336.193 43.041H316.256L308.871 37.423C305.369 34.7632 301.333 32.8774 297.034 31.8928C292.735 30.9081 288.273 30.8473 283.948 31.7144L241.855 40.0508L228.228 34.5008Z" fill="#ED5100"/>
<path d="M59.8553 95.075H323.847V102.415H59.8553V95.075Z" fill="#1F1F1F"/>
<path d="M60.6325 56.8366L42.0666 24.4426H3.1973L6.32973 29.2677C7.04068 30.3837 7.43678 31.6681 7.47686 32.9872C7.51693 34.3063 7.19951 35.612 6.55759 36.7683C5.91566 37.9247 4.97272 38.8895 3.82685 39.5623C2.68098 40.2352 1.37405 40.5915 0.0420456 40.5943L18.9051 79.7162H62.7817L60.6325 54.0502" fill="#085C99"/>
<path d="M6.28399 53.3481H58.6433L60.6325 56.8367V54.0957L62.7817 79.7617H18.9965L6.28399 53.3481Z" fill="#ED5100"/>
<path d="M61.936 95.1431H285.412L317.285 79.286H378.904L434.236 88.0754C440.283 89.4459 446.587 89.2351 452.527 87.4637C453.6 87.1419 454.548 86.5051 455.247 85.6375C455.947 84.7699 456.363 83.7124 456.443 82.605C456.522 81.4975 456.26 80.3923 455.691 79.4356C455.123 78.4789 454.275 77.7158 453.259 77.2472L380.344 51.3547C368.359 45.8752 355.315 43.0387 342.115 43.041H284.817C272.855 37.4201 259.782 34.503 246.542 34.5008H228.251V30.7404L229.531 29.2906C230.636 28.0366 231.238 26.4245 231.223 24.7599V11.6438H143.219L62.5076 64.2216L61.936 95.1431Z" fill="#0D99FF"/>
<path d="M342.115 43.0408C355.315 43.0385 368.359 45.875 380.344 51.3545L453.213 77.247C454.229 77.7155 455.077 78.4787 455.646 79.4354C456.214 80.3921 456.476 81.4973 456.397 82.6048C456.317 83.7122 455.901 84.7697 455.201 85.6373C454.502 86.5049 453.554 87.1417 452.481 87.4635C448.304 88.7011 443.933 89.1695 439.586 88.8453C436.293 88.4376 434.235 88.0751 434.235 88.0751L377.989 72.0594L342.115 43.0408Z" fill="#085C99"/>
<path opacity="0.17" d="M405.312 68.6388L438.214 82.2307C439.114 82.5985 440.126 82.5976 441.026 82.2282C441.926 81.8587 442.641 81.1509 443.015 80.2598C443.199 79.8196 443.293 79.3478 443.292 78.8716C443.291 78.3953 443.196 77.9238 443.011 77.4841C442.826 77.0444 442.556 76.6451 442.215 76.309C441.875 75.9729 441.471 75.7066 441.026 75.5253L408.124 61.9335C407.23 61.5652 406.224 61.5635 405.328 61.9287C404.433 62.2939 403.72 62.9962 403.346 63.8816C402.973 64.7712 402.971 65.7706 403.339 66.6618C403.708 67.553 404.417 68.2637 405.312 68.6388Z" fill="white"/>
<path d="M257.929 90.8389L259.918 89.3665C280.695 74.169 305.84 65.9678 331.666 65.9658H374.582L443.175 88.9361C440.102 89.0407 437.028 88.7513 434.03 88.0752L378.904 79.2858H317.17L285.297 95.143H257.86L257.929 90.8389Z" fill="#ED5100"/>
<path d="M84.526 35.0218L143.196 11.6438H161.876L97.0556 49.8369L84.526 35.0218Z" fill="#ED5100"/>
<path d="M355.628 112.292C337.179 112.292 322.223 97.1189 322.223 78.4025C322.223 59.6861 337.179 44.5134 355.628 44.5134C374.077 44.5134 389.033 59.6861 389.033 78.4025C389.033 97.1189 374.077 112.292 355.628 112.292Z" fill="#292929"/>
<path d="M355.628 101.984C342.798 101.984 332.398 91.4263 332.398 78.4024C332.398 65.3785 342.798 54.8206 355.628 54.8206C368.457 54.8206 378.858 65.3785 378.858 78.4024C378.858 91.4263 368.457 101.984 355.628 101.984Z" stroke="#F7E041" stroke-width="1.32" stroke-miterlimit="10"/>
<path d="M369.05 78.4024C368.991 81.0191 368.154 83.5604 366.645 85.7081C365.135 87.8557 363.019 89.5142 360.562 90.4756C358.105 91.4371 355.416 91.6587 352.832 91.1129C350.249 90.567 347.885 89.2779 346.038 87.407C344.19 85.5362 342.941 83.1668 342.447 80.5957C341.953 78.0246 342.236 75.3662 343.259 72.9535C344.283 70.5409 346.003 68.4813 348.204 67.0327C350.404 65.5842 352.987 64.8112 355.628 64.8105C359.226 64.8524 362.661 66.3072 365.177 68.8555C367.693 71.4039 369.086 74.8375 369.05 78.4024Z" fill="#D1D1D1"/>
<path d="M366.832 78.4025C366.787 80.5877 366.091 82.711 364.833 84.5064C363.575 86.3017 361.81 87.6891 359.759 88.4946C357.709 89.3001 355.464 89.4879 353.306 89.0343C351.148 88.5808 349.173 87.5062 347.629 85.9452C346.085 84.3842 345.04 82.4063 344.626 80.2595C344.212 78.1127 344.447 75.8926 345.301 73.8775C346.155 71.8624 347.591 70.142 349.428 68.932C351.265 67.7221 353.422 67.0764 355.628 67.0759C358.62 67.1352 361.47 68.3547 363.564 70.4724C365.659 72.5902 366.832 75.4373 366.832 78.4025Z" fill="#888888"/>
<path d="M357.046 78.1533H354.21V65.9886H357.046V78.1533Z" fill="#D1D1D1"/>
<path d="M356.438 77.2244L354.433 79.2107L345.751 70.6089L347.756 68.6227L356.438 77.2244Z" fill="#D1D1D1"/>
<path d="M355.354 76.9979V79.8069H343.075V76.9979H355.354Z" fill="#D1D1D1"/>
<path d="M354.439 77.6002L356.444 79.5864L347.762 88.1882L345.757 86.2019L354.439 77.6002Z" fill="#D1D1D1"/>
<path d="M354.21 78.6743H357.045V90.839H354.21V78.6743Z" fill="#D1D1D1"/>
<path d="M354.818 79.6029L356.823 77.6167L365.505 86.2184L363.5 88.2047L354.818 79.6029Z" fill="#D1D1D1"/>
<path d="M355.902 79.8295V77.0205H368.18V79.8295H355.902Z" fill="#D1D1D1"/>
<path d="M356.839 79.2045L354.834 77.2183L363.516 68.6165L365.521 70.6028L356.839 79.2045Z" fill="#D1D1D1"/>
<path d="M358.646 78.4024C358.633 78.9907 358.444 79.562 358.104 80.0448C357.765 80.5275 357.289 80.9001 356.736 81.1161C356.184 81.332 355.579 81.3816 354.998 81.2587C354.417 81.1357 353.886 80.8457 353.471 80.425C353.056 80.0042 352.775 79.4714 352.664 78.8933C352.553 78.3152 352.617 77.7174 352.847 77.175C353.077 76.6326 353.464 76.1695 353.959 75.8438C354.453 75.5182 355.034 75.3444 355.628 75.3442C356.029 75.3472 356.426 75.4288 356.795 75.5844C357.165 75.7399 357.499 75.9664 357.78 76.2507C358.06 76.535 358.281 76.8715 358.43 77.2408C358.579 77.6101 358.652 78.0049 358.646 78.4024Z" fill="#888888"/>
<path d="M406.41 80.1694H459.844V99.1301H406.41V80.1694Z" fill="#085C99"/>
<path d="M257.7 84.0202L262.273 77.5868C263.921 75.227 266.121 73.2978 268.685 71.9643C271.249 70.6309 274.102 69.9329 276.998 69.93C278.035 69.933 279.064 69.733 280.023 69.3416C280.983 68.9502 281.855 68.375 282.59 67.649C283.325 66.923 283.908 66.0604 284.306 65.1107C284.704 64.161 284.909 63.1429 284.909 62.1147V43.0408L243.181 47.5714C230.424 48.9997 218.388 54.1659 208.61 62.4092C196.978 72.2906 182.16 77.7224 166.837 77.7227H95.9579L89.9446 95.1429H236.162C240.392 95.1508 244.561 94.1431 248.312 92.206C252.063 90.2689 255.284 87.4602 257.7 84.0202Z" fill="white"/>
<path opacity="0.2" d="M182.659 89.8422C196.337 89.6295 209.884 87.1565 222.74 82.5252C234.515 77.9946 247.274 71.6744 255.299 68.2084C263.325 64.7425 271.899 64.5839 274.848 67.3476C275.932 68.3506 277.176 69.1696 278.529 69.7715C277.996 69.8825 277.451 69.9357 276.906 69.9301C274.01 69.9329 271.158 70.6309 268.593 71.9644C266.029 73.2979 263.829 75.227 262.181 77.5868L257.608 84.0203C255.201 87.4477 251.994 90.2486 248.261 92.1851C244.527 94.1215 240.376 95.1362 236.162 95.143H180.922C176.897 92.334 176.234 90.046 182.659 89.8422Z" fill="black"/>
<path d="M187.369 84.7452L301.965 87.894L285.412 96.1171H89.9445V77.9719L187.369 84.7452Z" fill="#ED5100"/>
<path d="M67.0573 112.291C45.8935 112.291 28.7368 94.8774 28.7368 73.3961C28.7368 51.9148 45.8935 34.5007 67.0573 34.5007C88.2212 34.5007 105.378 51.9148 105.378 73.3961C105.378 94.8774 88.2212 112.291 67.0573 112.291Z" fill="#292929"/>
<path d="M67.0573 99.719C52.7249 99.719 41.1063 87.9339 41.1063 73.3961C41.1063 58.8584 52.7249 47.0732 67.0573 47.0732C81.3896 47.0732 93.0083 58.8584 93.0083 73.3961C93.0083 87.9339 81.3896 99.719 67.0573 99.719Z" stroke="#F7E041" stroke-width="1.47" stroke-miterlimit="10"/>
<path d="M82.9482 73.3961C82.8985 76.526 81.9148 79.5714 80.1212 82.1484C78.3275 84.7255 75.8042 86.7189 72.869 87.8775C69.9338 89.0361 66.7182 89.3081 63.6273 88.6592C60.5364 88.0102 57.7084 86.4694 55.4999 84.2309C53.2913 81.9923 51.8009 79.1562 51.2164 76.0799C50.6319 73.0035 50.9795 69.8246 52.2154 66.9437C53.4513 64.0627 55.5203 61.6087 58.1615 59.8907C60.8027 58.1727 63.898 57.2677 67.0575 57.2897C69.171 57.3044 71.2606 57.7337 73.2058 58.5528C75.1509 59.3719 76.9131 60.5646 78.3905 62.0621C79.8679 63.5595 81.0313 65.3321 81.8136 67.2774C82.5959 69.2227 82.9815 71.3023 82.9482 73.3961Z" fill="#D1D1D1"/>
<path d="M67.0575 86.8747C59.7335 86.8747 53.7962 80.8401 53.7962 73.3961C53.7962 65.9521 59.7335 59.9175 67.0575 59.9175C74.3816 59.9175 80.3188 65.9521 80.3188 73.3961C80.3188 80.8401 74.3816 86.8747 67.0575 86.8747Z" fill="#888888"/>
<path d="M68.7492 73.0789H65.3882V58.6941H68.7492V73.0789Z" fill="#D1D1D1"/>
<path d="M68.0368 72.0086L65.6602 74.3633L55.3938 64.1917L57.7704 61.8371L68.0368 72.0086Z" fill="#D1D1D1"/>
<path d="M66.7373 71.7423V75.0723H52.2185V71.7423H66.7373Z" fill="#D1D1D1"/>
<path d="M65.6424 72.44L68.019 74.7947L57.7527 84.9662L55.376 82.6115L65.6424 72.44Z" fill="#D1D1D1"/>
<path d="M65.3655 73.7131H68.7266V88.0978H65.3655V73.7131Z" fill="#D1D1D1"/>
<path d="M66.1068 74.8061L68.4834 72.4514L78.7498 82.6229L76.3731 84.9776L66.1068 74.8061Z" fill="#D1D1D1"/>
<path d="M67.3774 75.0724V71.7424H81.8963V75.0724H67.3774Z" fill="#D1D1D1"/>
<path d="M68.4889 74.3522L66.1123 71.9976L76.3787 61.826L78.7553 64.1807L68.4889 74.3522Z" fill="#D1D1D1"/>
<path d="M70.6242 73.396C70.6062 74.0908 70.3818 74.7649 69.9791 75.334C69.5764 75.9031 69.0133 76.3419 68.3602 76.5956C67.7071 76.8492 66.9929 76.9064 66.3072 76.7599C65.6214 76.6135 64.9944 76.27 64.5047 75.7724C64.015 75.2747 63.6843 74.6451 63.5539 73.9621C63.4235 73.2792 63.4993 72.5734 63.7717 71.9329C64.0442 71.2924 64.5012 70.7458 65.0856 70.3613C65.67 69.9769 66.3559 69.7717 67.0574 69.7715C67.5318 69.7774 68.0004 69.8758 68.4364 70.0612C68.8724 70.2466 69.2673 70.5152 69.5985 70.8518C69.9298 71.1883 70.1908 71.5863 70.3668 72.0228C70.5428 72.4593 70.6303 72.9259 70.6242 73.396Z" fill="#888888"/>
<path d="M265.154 95.143L278.324 79.7389C280.005 77.7594 282.106 76.171 284.477 75.0866C286.848 74.0021 289.431 73.4481 292.042 73.464H297.598C298.236 69.9279 300.109 66.7267 302.889 64.4202C305.668 62.1136 309.177 60.8485 312.803 60.8462H316.69V95.143H265.154Z" fill="#085C99"/>
<path d="M211.377 0H228.845C230.561 0 232.207 0.675425 233.421 1.87769C234.634 3.07995 235.316 4.71057 235.316 6.41083H217.848C216.131 6.41083 214.486 5.7354 213.272 4.53314C212.059 3.33088 211.377 1.70026 211.377 0Z" fill="#292929"/>
<path d="M219.059 6.41089H231.2V11.6438H219.059V6.41089Z" fill="#292929"/>
<path opacity="0.1" d="M188.947 21.3164H224.57C225.54 21.3164 226.47 20.9346 227.157 20.2549C227.843 19.5751 228.228 18.6532 228.228 17.6919C228.228 16.7307 227.843 15.8088 227.157 15.129C226.47 14.4493 225.54 14.0675 224.57 14.0675H188.947C188.465 14.0645 187.987 14.156 187.54 14.3368C187.094 14.5176 186.688 14.7841 186.346 15.121C186.003 15.4579 185.732 15.8584 185.547 16.2997C185.361 16.7409 185.266 17.2141 185.266 17.6919C185.266 18.1698 185.361 18.643 185.547 19.0842C185.732 19.5255 186.003 19.926 186.346 20.2629C186.688 20.5998 187.094 20.8663 187.54 21.0471C187.987 21.2279 188.465 21.3194 188.947 21.3164Z" fill="white"/>
<path opacity="0.1" d="M234.95 58.3316L270.459 55.6359C270.939 55.6015 271.409 55.4733 271.839 55.2586C272.27 55.0439 272.654 54.7469 272.968 54.3849C273.283 54.0228 273.522 53.6026 273.672 53.1487C273.822 52.6947 273.88 52.2158 273.842 51.7396C273.808 51.2631 273.678 50.7982 273.462 50.3714C273.245 49.9447 272.945 49.5646 272.58 49.2531C272.214 48.9415 271.79 48.7046 271.332 48.5559C270.874 48.4073 270.391 48.3498 269.91 48.3869L234.379 51.0826C233.411 51.1578 232.514 51.6105 231.884 52.3412C231.253 53.0719 230.942 54.0207 231.018 54.979C231.052 55.4554 231.182 55.9204 231.398 56.3471C231.615 56.7738 231.915 57.1539 232.28 57.4655C232.646 57.777 233.07 58.0139 233.528 58.1626C233.986 58.3112 234.47 58.3687 234.95 58.3316Z" fill="white"/>
<path d="M279.673 66.3056C280.119 66.3056 280.561 66.2181 280.973 66.0482C281.385 65.8783 281.759 65.6293 282.074 65.3156C282.388 65.0019 282.637 64.6296 282.806 64.2202C282.975 63.8108 283.06 63.3724 283.057 62.9303V48.7494C283.066 48.3024 282.985 47.858 282.82 47.4421C282.654 47.0262 282.407 46.6471 282.092 46.3267C281.777 46.0064 281.401 45.7512 280.986 45.576C280.57 45.4008 280.124 45.3091 279.673 45.3062C278.769 45.3062 277.903 45.6618 277.264 46.2948C276.625 46.9278 276.266 47.7863 276.266 48.6815V62.8623C276.254 63.3121 276.333 63.7597 276.499 64.1785C276.665 64.5972 276.914 64.9786 277.232 65.2999C277.55 65.6212 277.93 65.8759 278.349 66.0486C278.769 66.2214 279.219 66.3088 279.673 66.3056Z" fill="#1F1F1F"/>
<path d="M129.203 56.9045H169.467V64.6519H129.203V56.9045Z" fill="#002E51"/>
<path d="M15.5215 30.7402H37.8828V37.9439H15.5215V30.7402Z" fill="white"/>
<path d="M208.313 37.151C208.29 38.0516 208.539 38.9384 209.028 39.6982C209.516 40.458 210.222 41.0563 211.055 41.4166C211.889 41.777 212.812 41.883 213.706 41.7212C214.601 41.5594 215.426 41.1371 216.077 40.5082C216.728 39.8793 217.175 39.0724 217.361 38.1906C217.547 37.3088 217.463 36.3921 217.121 35.5576C216.778 34.7232 216.192 34.0088 215.438 33.5058C214.684 33.0027 213.795 32.7339 212.886 32.7336C211.693 32.7333 210.547 33.195 209.692 34.0203C208.838 34.8457 208.343 35.9691 208.313 37.151Z" fill="#002E51"/>
<path d="M287.172 84.7678H312.049V88.2111H287.172V84.7678Z" fill="white"/>
<path d="M294.237 48.3643H320.44V53.3479H294.237V48.3643Z" fill="white"/>
<path d="M182.659 37.9438H195.966V49.8367H182.659V37.9438Z" fill="#002E51"/>
<path d="M156.16 37.9438H169.467V49.8367H156.16V37.9438Z" fill="#002E51"/>
<path d="M404.444 99.1299H459.844V103.887H404.444V99.1299Z" fill="#1F1F1F"/>
<path d="M459.844 94.8032H430.76L406.41 85.4248V99.1299H459.844V94.8032Z" fill="#ED5100"/>
</g>
<defs>
<clipPath id="clip0_5497_40957">
<rect width="460" height="118" fill="white" transform="matrix(-1 0 0 1 460 0)"/>
</clipPath>
</defs>
</svg>
