<svg width="461" height="283" viewBox="0 0 461 283" fill="none" xmlns="http://www.w3.org/2000/svg">
<g clip-path="url(#clip0_5497_41327)">
<path d="M431.563 1H144.437C137.568 1 132 6.13465 132 12.4686V151.531C132 157.865 137.568 163 144.437 163H431.563C438.432 163 444 157.865 444 151.531V12.4686C444 6.13465 438.432 1 431.563 1Z" fill="#003A65"/>
<path d="M132 108.75H181.38V134.197H226.373V164.099H379.106V116.745H410.628V55H444V158.936C444 163.462 442.192 167.802 438.975 171.002C435.757 174.202 431.394 176 426.843 176H150.684C145.729 176 140.976 174.042 137.472 170.557C133.968 167.072 132 162.346 132 157.417V108.75Z" fill="#002E51"/>
<path d="M3.50635 22.6972V157.678H104.294V22.6743C104.294 22.6743 3.50635 23.7857 3.50635 22.6972Z" fill="#003A65"/>
<path d="M3.50635 22.9722V43.9738L104.329 44.5925V22.6973L3.50635 22.9722Z" fill="#002E51"/>
<path d="M39.9609 32.356V36.4692H72.2424V32.9059C72.2424 32.9059 40.7887 32.356 39.9609 32.356Z" fill="#003A65"/>
<path d="M40.6852 53.644H9.12793V87.3749H40.6852V53.644Z" fill="#002E51"/>
<path d="M36.2705 122.698H37.6731H41.6738L56.3315 122.595L56.2395 122.687C56.2395 112.65 56.2395 99.3822 56.2395 84.877V76.2953H56.3315H85.348L85.2561 76.387C85.348 70.1312 85.4285 65.0326 85.486 61.4923C85.486 59.7622 85.555 58.3987 85.5665 57.4134C85.578 56.428 85.5665 55.9812 85.5665 55.9812C85.5665 55.9812 85.5665 56.4739 85.5665 57.4134C85.5665 58.3529 85.5665 59.7049 85.5665 61.4923C85.5665 65.0784 85.4745 70.177 85.4055 76.387V76.4786H85.325L56.3315 76.5359L56.4464 76.4099V84.8655C56.4464 99.3936 56.4464 112.661 56.4464 122.675V122.755H56.3315H41.6623H37.6616L36.2705 122.698Z" fill="#002E51"/>
<path d="M95.6833 132.689C95.6833 132.689 94.8555 132.689 93.292 132.689H86.5322H62.3901H62.2866V132.586C62.2866 122.893 62.2866 111.459 62.2866 99.2563V83.6398H82.3361L82.2326 83.7429C82.2326 74.4165 82.2326 66.6598 82.2326 61.1945C82.2326 58.5135 82.2326 56.3938 82.2326 54.8929C82.2326 53.392 82.2326 52.6702 82.2326 52.6702C82.2326 52.6702 82.2326 53.4493 82.2326 54.8929C82.2326 56.3366 82.2326 58.5135 82.2326 61.1945C82.2326 66.6598 82.2326 74.4165 82.2326 83.7429V83.846H62.4361L62.551 83.7314V99.3594C62.551 111.562 62.551 122.996 62.551 132.689L62.4476 132.586H86.5897H93.3495L95.6833 132.689Z" fill="#002E51"/>
<path d="M9.32324 94.742V97.9042H34.8564V94.1118L9.32324 94.742Z" fill="#002E51"/>
<path d="M9.12793 100.253V103.427H34.6611V99.6228L9.12793 100.253Z" fill="#002E51"/>
<path d="M308.261 32.8601L269.346 18.9392L230.811 32.6882C225.89 34.9797 221.614 36.389 221.614 40.949V63.6807C221.529 79.6442 225.908 95.3156 234.259 108.938C242.599 122.708 254.973 133.6 269.714 140.148C285.464 135.049 297.224 121.449 304.41 109.831C312.761 96.2093 317.14 80.5379 317.055 64.5744V44.1228C317.113 37.6035 313.653 34.4297 308.261 32.8601Z" fill="#0D99FF"/>
<g opacity="0.3">
<path d="M269.725 126.949C258.05 121.694 248.264 113.012 241.674 102.063C235.051 91.287 231.572 78.8845 231.627 66.2472V50.2984C231.627 46.6892 233.811 43.2978 238.157 41.2813L269.346 29.6634V18.9392L230.811 32.6882C226.764 34.4412 221.614 36.389 221.614 40.949V63.6807C221.529 79.6442 225.908 95.3156 234.259 108.938C242.599 122.708 254.973 133.6 269.714 140.148L269.725 126.949Z" fill="black"/>
</g>
<g opacity="0.4">
<path d="M269.725 140.148C272.363 139.282 274.921 138.19 277.37 136.883C283.37 133.488 288.823 129.212 293.545 124.199C297.828 119.593 301.601 114.542 304.8 109.133C313.28 95.4209 317.559 79.5407 317.113 63.4401V44.6613C317.113 35.312 312.273 34.6245 308.238 32.8601L269.346 18.9392V29.6634L300.903 41.4646C305.249 43.4926 307.433 46.8726 307.433 50.4931V66.4534C307.491 79.0859 304.015 91.4844 297.397 102.258C290.953 113.142 281.287 121.771 269.725 126.96V140.148Z" fill="black"/>
</g>
<path opacity="0.5" d="M279.669 65.2274V62.1568C279.669 59.4858 278.605 56.9242 276.71 55.0355C274.815 53.1468 272.244 52.0857 269.564 52.0857C266.884 52.0857 264.314 53.1468 262.419 55.0355C260.524 56.9242 259.459 59.4858 259.459 62.1568V65.2847C258.119 65.4826 256.896 66.1539 256.012 67.1762C255.127 68.1984 254.641 69.5034 254.642 70.8531V88.9559C254.642 89.6956 254.788 90.4281 255.073 91.1114C255.357 91.7947 255.774 92.4153 256.299 92.9379C256.825 93.4604 257.448 93.8746 258.135 94.1566C258.821 94.4386 259.556 94.583 260.298 94.5815H279.152C280.65 94.5815 282.087 93.9892 283.148 92.9345C284.208 91.8798 284.805 90.449 284.808 88.9559V70.8416C284.808 69.4357 284.281 68.0805 283.331 67.0418C282.38 66.0031 281.074 65.356 279.669 65.2274ZM272.3 84.4302H267.368L268.139 80.8898C267.704 80.6187 267.345 80.2422 267.096 79.7953C266.846 79.3485 266.715 78.846 266.713 78.3348C266.714 77.8167 266.849 77.3076 267.106 76.8571C267.363 76.4066 267.733 76.03 268.179 75.764C268.625 75.4979 269.132 75.3515 269.652 75.339C270.172 75.3264 270.686 75.4482 271.145 75.6923C271.603 75.9365 271.99 76.2948 272.269 76.7324C272.547 77.17 272.707 77.6719 272.733 78.1894C272.759 78.7069 272.651 79.2223 272.418 79.6855C272.185 80.1486 271.835 80.5438 271.404 80.8325L272.3 84.4302ZM277.485 65.2045H261.643V62.1568C261.721 60.1137 262.591 58.1802 264.069 56.7622C265.547 55.3442 267.518 54.5521 269.57 54.5521C271.622 54.5521 273.593 55.3442 275.071 56.7622C276.549 58.1802 277.419 60.1137 277.497 62.1568L277.485 65.2045Z" fill="white"/>
<path d="M237.973 65.0098C237.638 63.99 237.441 62.9305 237.386 61.8589C237.1 59.2953 236.993 56.715 237.065 54.1366C237.065 52.6242 237.214 51.192 237.352 49.8859C237.413 48.694 237.71 47.5259 238.226 46.4486C238.6 45.7163 239.195 45.1192 239.927 44.7415C240.456 44.4894 240.778 44.5009 240.789 44.5467C239.844 44.9736 239.084 45.7262 238.651 46.6663C238.233 47.7063 238.004 48.8119 237.973 49.9317C237.869 51.2264 237.789 52.6471 237.754 54.1481C237.662 57.1385 237.754 59.8768 237.869 61.8017C237.988 62.8667 238.023 63.9393 237.973 65.0098Z" fill="white"/>
<path d="M238.502 74.9089C238.318 74.9089 238.145 73.9808 238.122 72.8236C238.099 71.6664 238.237 70.7269 238.421 70.7154C238.605 70.704 238.789 71.6549 238.8 72.8122C238.812 73.9694 238.697 74.9089 238.502 74.9089Z" fill="white"/>
<path d="M321.458 21.3567C322.514 21.606 323.549 21.9393 324.551 22.3535C325.772 22.8389 326.93 23.4698 328 24.2325C329.506 25.2609 330.75 26.6264 331.633 28.2197C332.741 30.2349 333.344 32.4872 333.392 34.7849C333.449 37.2826 333.392 39.9866 333.392 42.9082C333.392 48.7401 333.449 55.4083 333.392 62.8442C333.242 80.6087 328.49 98.0333 319.596 113.429C314.254 122.666 307.637 131.108 299.937 138.51C291.89 146.175 281.957 152.957 270.358 156.555H270.254H270.162C266.098 154.827 262.134 152.877 258.287 150.712C254.348 148.445 250.558 145.93 246.94 143.184C239.458 137.488 232.801 130.791 227.155 123.283C214.939 107.244 207.677 88.0058 206.254 67.9199C205.887 63.1651 205.979 58.4675 205.967 53.8501C205.956 49.2327 205.967 44.6841 205.967 40.2386V33.5474C205.931 32.4424 205.97 31.3362 206.082 30.2362C206.255 29.1191 206.714 28.0654 207.416 27.1771C208.868 25.5497 210.667 24.2658 212.681 23.419C214.601 22.5139 216.544 21.7233 218.429 20.8869L269.679 3.70068H269.748L307.778 16.6591L317.929 20.0964L320.55 21.0015L321.424 21.3338L320.527 21.0588L317.895 20.1995L307.72 16.7622L269.656 4.03295H269.783L218.567 21.3681C216.67 22.2045 214.739 22.9951 212.819 23.9002C210.884 24.7185 209.156 25.9552 207.76 27.5208C207.108 28.3355 206.683 29.308 206.53 30.3393C206.426 31.4091 206.391 32.4846 206.427 33.5589C206.427 35.7473 206.427 37.9586 206.427 40.1928V53.8501C206.427 58.4331 206.358 63.1536 206.726 67.8741C208.195 87.8379 215.457 106.945 227.626 122.87C233.239 130.332 239.853 136.99 247.285 142.657C250.887 145.379 254.653 147.877 258.562 150.139C262.388 152.297 266.329 154.244 270.369 155.971H270.162C281.658 152.419 291.499 145.659 299.535 138.074C307.209 130.72 313.807 122.328 319.136 113.143C323.892 104.955 327.494 96.1528 329.839 86.9852C331.843 79.093 332.919 70.9956 333.047 62.8557C333.047 55.4313 333.047 48.7515 333.116 42.9197C333.116 39.998 333.116 37.2826 333.116 34.8078C333.103 32.5495 332.551 30.3266 331.506 28.3228C330.643 26.7511 329.432 25.3955 327.965 24.3585C326.892 23.5953 325.735 22.9571 324.516 22.4566C323.765 22.1424 322.997 21.8671 322.217 21.6317L321.458 21.3567Z" fill="#0D99FF"/>
<path d="M200.368 202.328L203.219 256.178L275.14 257.817L269.817 215.974L275.312 173.157C271.703 153.129 243.537 151.743 243.537 151.743L221.418 151.388C213.852 150.842 206.291 152.515 199.667 156.2C199.667 156.2 177.215 168.425 177.422 199.36" fill="#455A64"/>
<path d="M243.721 151.239C243.228 152.754 242.577 154.213 241.778 155.593C240.701 157.166 239.253 158.451 237.561 159.336C235.869 160.221 233.986 160.679 232.075 160.669C230.166 160.704 228.278 160.264 226.582 159.39C224.886 158.516 223.435 157.235 222.361 155.662C221.746 154.672 221.278 153.599 220.969 152.476C220.886 152.053 220.763 151.639 220.602 151.239C220.552 151.677 220.587 152.12 220.705 152.545C220.926 153.726 221.346 154.861 221.947 155.902C222.867 157.459 224.179 158.75 225.752 159.649C227.666 160.776 229.851 161.366 232.075 161.356C234.301 161.365 236.486 160.758 238.386 159.603C239.934 158.675 241.235 157.39 242.18 155.856C242.796 154.823 243.254 153.703 243.537 152.534C243.662 152.114 243.724 151.677 243.721 151.239Z" fill="#263238"/>
<path d="M260.655 169.204C257.225 171.926 254.423 175.352 252.44 179.248C250.456 183.145 249.337 187.421 249.158 191.787C248.607 205.467 247.744 224.464 247.239 225.415C245.664 228.348 204.059 225.85 199.679 225.541L194.402 223.914C194.402 223.914 184.676 215.527 182.906 218.048C181.135 220.568 188.01 222.184 189.343 227.133C190.677 232.083 176.858 228.21 175.962 227.603L172.398 226.595C172.398 226.595 174.513 233.355 176.318 235.497C182.066 242.372 195.275 245.809 195.275 245.809C195.275 245.809 249.158 263.259 270.932 248.857C278.037 244.148 279.256 197.986 276.554 180.112C276.042 176.7 274.306 173.589 271.668 171.355C269.03 169.122 265.668 167.918 262.207 167.967L260.655 169.204Z" fill="#FFBE9D"/>
<path d="M180.721 234.214C179.665 233.571 178.567 233 177.433 232.507C176.369 231.887 175.263 231.344 174.122 230.88C175.058 231.697 176.112 232.369 177.249 232.873C178.331 233.495 179.502 233.947 180.721 234.214Z" fill="#EB996E"/>
<path d="M269.53 162.754C276.163 169.078 282.589 181.762 280.21 207.175L244.87 205.719L245.79 170.957C245.841 169.216 246.279 167.507 247.075 165.955C247.87 164.404 249.002 163.048 250.388 161.986C253.151 159.829 256.594 158.722 260.101 158.862C263.607 159.003 266.95 160.382 269.53 162.754Z" fill="#455A64"/>
<path d="M144.278 254.643L230.374 253.566L212.371 293.908L157.303 294.125L151.992 417.717H118.412L121.619 279.861C121.768 273.65 124.14 267.697 128.305 263.075C132.47 258.453 138.156 255.467 144.336 254.654L144.278 254.643Z" fill="#263238"/>
<path d="M226.085 297.196L228.522 415.907L189.596 417.809C189.596 417.809 183.411 301.527 186.492 268.529C188.607 245.947 275.082 255.651 275.082 255.651C276.335 300.622 226.085 297.219 226.085 297.219" fill="#263238"/>
<path d="M228.086 253.795C227.841 253.765 227.594 253.765 227.35 253.795H225.246C223.418 253.795 220.774 253.944 217.509 254.127C214.244 254.31 210.347 254.597 206.013 255.273C201.303 255.907 196.782 257.527 192.746 260.028C191.699 260.73 190.741 261.557 189.895 262.491C189.078 263.426 188.446 264.507 188.033 265.676C187.345 267.849 186.887 270.088 186.665 272.356C186.31 276.165 186.153 279.989 186.193 283.813C186.193 286.999 186.193 289.611 186.193 291.536C186.193 292.384 186.193 293.071 186.193 293.633C186.163 293.876 186.163 294.122 186.193 294.366C186.257 294.126 186.291 293.88 186.297 293.633C186.297 293.163 186.4 292.487 186.435 291.536C186.538 289.714 186.596 287.079 186.665 283.825C186.734 280.571 186.791 276.687 187.286 272.425C187.51 270.202 187.969 268.009 188.654 265.883C189.525 263.682 191.09 261.824 193.114 260.589C197.071 258.144 201.495 256.544 206.105 255.892C210.358 255.227 214.233 254.895 217.486 254.643L225.212 254.104L227.315 253.932C227.577 253.92 227.836 253.874 228.086 253.795Z" fill="#455A64"/>
<path d="M231.787 161.253C230.24 161.253 228.709 160.947 227.281 160.353C225.853 159.759 224.558 158.888 223.471 157.791C222.383 156.695 221.525 155.394 220.946 153.964C220.366 152.535 220.077 151.005 220.096 149.463C220.096 145.418 220.211 141.912 220.211 141.912C220.211 141.912 210.807 141.042 210.117 131.773C209.427 122.503 209.726 101.112 209.726 101.112C214.877 98.5235 220.628 97.3509 226.385 97.7154C232.142 98.08 237.698 99.9685 242.479 103.186L243.916 104.16L243.479 149.715C243.446 152.785 242.2 155.717 240.011 157.877C237.822 160.037 234.867 161.25 231.787 161.253Z" fill="#FFBE9D"/>
<path d="M219.969 126.033C219.282 126.223 218.565 126.289 217.854 126.227C217.664 126.26 217.47 126.26 217.279 126.227C217.148 126.197 217.026 126.136 216.923 126.051C216.819 125.965 216.736 125.857 216.681 125.735C216.551 125.272 216.584 124.779 216.773 124.337L217.567 121.656C218.716 117.875 219.866 114.861 220.038 114.919C220.211 114.976 219.429 118.092 218.256 121.873C217.969 122.79 217.682 123.661 217.406 124.532C217.255 124.833 217.192 125.17 217.222 125.505C217.222 125.689 217.532 125.746 217.877 125.758C218.585 125.73 219.293 125.823 219.969 126.033Z" fill="#263238"/>
<path d="M220.188 141.775C224.486 141.599 228.634 140.147 232.098 137.604C232.098 137.604 229.649 144.479 220.314 144.181L220.188 141.775Z" fill="#EB996E"/>
<path d="M241.513 114.415C241.686 114.346 247.411 113.601 246.87 120.327C246.33 127.052 239.685 124.291 239.697 124.096C239.708 123.901 241.513 114.415 241.513 114.415Z" fill="#FFBE9D"/>
<path d="M241.95 121.896C241.95 121.896 242.065 121.988 242.249 122.091C242.383 122.164 242.53 122.21 242.682 122.226C242.834 122.242 242.988 122.227 243.134 122.183C243.588 121.939 243.97 121.582 244.242 121.146C244.514 120.709 244.668 120.21 244.686 119.697C244.748 119.12 244.681 118.537 244.491 117.989C244.444 117.773 244.345 117.572 244.203 117.402C244.061 117.232 243.88 117.1 243.674 117.015C243.544 116.968 243.4 116.968 243.269 117.017C243.139 117.065 243.03 117.158 242.962 117.279C242.847 117.462 242.881 117.6 242.847 117.611C242.812 117.623 242.709 117.485 242.789 117.21C242.838 117.045 242.944 116.903 243.088 116.809C243.288 116.688 243.526 116.647 243.755 116.695C244.029 116.772 244.278 116.918 244.479 117.118C244.681 117.319 244.827 117.568 244.905 117.84C245.147 118.447 245.238 119.104 245.169 119.754C245.153 120.355 244.959 120.938 244.611 121.429C244.263 121.92 243.777 122.298 243.215 122.515C243.03 122.556 242.838 122.554 242.655 122.508C242.471 122.462 242.301 122.374 242.157 122.252C241.95 122.057 241.927 121.908 241.95 121.896Z" fill="#EB996E"/>
<path d="M210.462 101.674C209.324 101.336 208.331 100.632 207.636 99.6725C206.942 98.713 206.585 97.5516 206.622 96.369C206.708 95.1872 207.113 94.0506 207.795 93.0801C208.478 92.1097 209.411 91.3417 210.496 90.858C211.59 90.3931 212.769 90.1631 213.958 90.1828C215.146 90.2026 216.317 90.4717 217.394 90.9726C217.731 89.2467 218.671 87.6959 220.048 86.5963C221.424 85.4966 223.147 84.9195 224.911 84.9676C226.674 85.0158 228.363 85.686 229.677 86.8591C230.991 88.0322 231.845 89.6319 232.086 91.3736C232.305 89.5862 234.386 88.5894 236.145 88.4748C237.046 88.3834 237.957 88.4979 238.807 88.8096C239.658 89.1213 240.426 89.622 241.054 90.2736C241.659 90.9431 241.995 91.8126 241.995 92.7141C241.995 93.6156 241.659 94.4851 241.054 95.1545C243.074 94.8975 245.118 95.3866 246.802 96.5294C247.629 97.1181 248.297 97.9029 248.745 98.813C249.192 99.7231 249.406 100.73 249.365 101.743C249.291 102.751 248.9 103.711 248.248 104.486C247.596 105.261 246.716 105.813 245.732 106.062C245.043 106.211 244.882 105.753 244.514 106.337C244.315 106.967 244.226 107.625 244.249 108.285C244.375 110.408 244.248 112.539 243.87 114.632C243.245 114.415 242.561 114.443 241.956 114.711C241.352 114.979 240.872 115.468 240.617 116.076C240.159 117.317 240.033 118.655 240.249 119.96C239.685 120.819 238.237 120.567 237.605 119.742C237.075 118.847 236.842 117.809 236.938 116.775L236.823 106.051C236.292 106.357 235.69 106.521 235.076 106.528C234.462 106.534 233.857 106.383 233.319 106.088C232.782 105.793 232.329 105.364 232.007 104.844C231.684 104.323 231.502 103.729 231.477 103.117C230.716 103.846 229.801 104.396 228.8 104.729C227.799 105.062 226.736 105.168 225.688 105.041C224.641 104.914 223.635 104.556 222.743 103.993C221.851 103.431 221.096 102.678 220.533 101.788C219.457 102.697 218.271 103.466 217.003 104.08C215.716 104.708 214.24 104.835 212.865 104.435C212.183 104.225 211.584 103.809 211.149 103.244C210.715 102.68 210.466 101.995 210.439 101.284L210.91 100.883" fill="#263238"/>
<path d="M243.755 255.193H151.842L136.69 196.702H213.37L225.511 251.377L243.755 251.813V255.193Z" fill="#ED5100"/>
<path d="M216.13 115.194C216.233 115.32 215.383 115.984 214.106 116.007C212.83 116.03 211.957 115.423 212.049 115.285C212.141 115.148 213.003 115.446 214.095 115.411C215.187 115.377 216.13 115.045 216.13 115.194Z" fill="#263238"/>
<path d="M212.853 115.812C212.853 116.125 212.978 116.426 213.2 116.647C213.422 116.868 213.723 116.993 214.037 116.993C214.351 116.993 214.652 116.868 214.874 116.647C215.097 116.426 215.221 116.125 215.221 115.812" fill="#263238"/>
<path d="M229.097 115.274C229.189 115.4 228.339 116.064 227.074 116.087C225.81 116.11 224.924 115.503 225.016 115.377C225.108 115.251 225.959 115.526 227.051 115.491C228.143 115.457 229.006 115.125 229.097 115.274Z" fill="#263238"/>
<path d="M225.787 115.893C225.787 116.206 225.911 116.506 226.133 116.727C226.356 116.948 226.657 117.073 226.971 117.073C227.285 117.073 227.586 116.948 227.808 116.727C228.03 116.506 228.155 116.206 228.155 115.893" fill="#263238"/>
<path d="M229.925 112.284C229.845 112.776 228.511 112.96 226.925 112.982C225.338 113.005 224.005 112.845 223.913 112.352C223.821 111.86 225.154 111.207 226.902 111.207C228.649 111.207 230.006 111.779 229.925 112.284Z" fill="#263238"/>
<path d="M216.589 113.005C216.509 113.498 215.175 113.693 213.589 113.716C212.002 113.739 210.669 113.567 210.577 113.074C210.485 112.581 211.807 111.928 213.566 111.928C215.325 111.928 216.67 112.524 216.589 113.005Z" fill="#263238"/>
<path d="M250.17 117.886C250.17 119.56 249.503 121.166 248.315 122.35C247.127 123.534 245.516 124.199 243.836 124.199C240.387 124.199 239.122 121.381 239.122 117.886C239.122 114.392 240.341 111.584 243.836 111.584C245.514 111.584 247.123 112.248 248.311 113.429C249.498 114.611 250.167 116.214 250.17 117.886Z" fill="#455A64"/>
<path d="M243.295 113.074C243.295 113.074 248.204 89.6548 232.098 90.5714L231.339 89.1049C231.339 89.1049 241.077 86.8134 244.652 94.3753C247.423 100.264 245.618 112.822 245.618 112.822L243.295 113.074Z" fill="#455A64"/>
<path d="M244.652 124.199C243.87 124.23 243.106 123.954 242.525 123.432C241.035 122.291 240.056 120.612 239.8 118.757C239.583 116.911 239.988 115.045 240.95 113.452C241.778 112.226 242.801 112.066 242.778 112.146C242.185 112.541 241.687 113.061 241.318 113.67C240.535 115.216 240.223 116.956 240.421 118.677C240.679 120.386 241.529 121.95 242.824 123.099C243.389 123.535 244.002 123.904 244.652 124.199Z" fill="#263238"/>
<path d="M220.372 128.473C220.475 128.611 220.291 128.897 219.923 129C219.555 129.103 219.256 129 219.268 128.782C219.279 128.565 219.509 128.496 219.762 128.427C220.015 128.358 220.28 128.324 220.372 128.473Z" fill="#263238"/>
<path d="M195.505 132.403C197.01 132.403 198.23 131.187 198.23 129.687C198.23 128.188 197.01 126.972 195.505 126.972C194.001 126.972 192.781 128.188 192.781 129.687C192.781 131.187 194.001 132.403 195.505 132.403Z" fill="white"/>
<path d="M197.828 128.782C196.387 127.227 195.193 125.461 194.287 123.546C193.226 121.728 192.296 119.836 191.505 117.886C192.813 119.544 193.924 121.347 194.816 123.26C196.437 126.33 197.954 128.679 197.828 128.782Z" fill="white"/>
<path d="M196.517 114.896C196.667 114.896 196.092 116.362 194.563 117.336C194.141 117.673 193.652 117.916 193.129 118.051C192.606 118.185 192.06 118.207 191.528 118.115C191.528 117.944 192.861 117.737 194.229 116.844C195.597 115.95 196.368 114.816 196.517 114.896Z" fill="white"/>
<path d="M197.736 117.451C197.897 117.451 197.379 118.917 195.816 119.742C195.385 120.041 194.888 120.231 194.368 120.297C193.847 120.363 193.319 120.302 192.827 120.12C193.751 119.901 194.655 119.602 195.528 119.227C196.873 118.505 197.552 117.371 197.736 117.451Z" fill="white"/>
<path d="M181.365 128.106C181.157 128.376 180.873 128.578 180.55 128.687C180.226 128.796 179.878 128.806 179.548 128.718C179.219 128.629 178.923 128.445 178.698 128.188C178.474 127.932 178.331 127.615 178.288 127.278C178.244 126.94 178.302 126.598 178.454 126.293C178.606 125.988 178.845 125.736 179.142 125.567C179.438 125.398 179.778 125.32 180.118 125.344C180.459 125.368 180.785 125.492 181.054 125.7C181.234 125.837 181.385 126.008 181.498 126.204C181.611 126.399 181.684 126.615 181.713 126.839C181.742 127.062 181.726 127.29 181.666 127.507C181.606 127.725 181.504 127.928 181.365 128.106Z" fill="white"/>
<path d="M181.514 127.499C181.289 126.166 181.343 124.8 181.675 123.489C181.811 122.157 182.116 120.848 182.583 119.593C182.703 120.931 182.594 122.279 182.262 123.58C182.132 124.906 181.882 126.218 181.514 127.499Z" fill="white"/>
<path d="M187.803 121.553C187.331 121.764 186.823 121.882 186.306 121.897C185.789 121.913 185.274 121.827 184.791 121.644C184.059 121.45 183.397 121.053 182.882 120.498C182.492 120.075 182.434 119.685 182.503 119.662C182.572 119.639 182.767 119.903 183.17 120.189C183.708 120.573 184.312 120.856 184.952 121.025C186.458 121.449 187.791 121.369 187.803 121.553Z" fill="white"/>
<path d="M186.596 130.077C186.317 130.439 185.905 130.675 185.451 130.734C184.997 130.793 184.539 130.67 184.176 130.392C183.813 130.114 183.576 129.704 183.517 129.252C183.457 128.799 183.581 128.342 183.86 127.98C183.998 127.801 184.17 127.651 184.366 127.538C184.563 127.426 184.779 127.353 185.004 127.323C185.229 127.294 185.457 127.309 185.676 127.368C185.895 127.427 186.1 127.528 186.28 127.665C186.459 127.803 186.61 127.975 186.723 128.17C186.836 128.366 186.909 128.582 186.939 128.806C186.968 129.03 186.953 129.257 186.894 129.476C186.835 129.694 186.734 129.898 186.596 130.077Z" fill="white"/>
<path d="M186.745 129.47C186.519 128.137 186.57 126.772 186.895 125.459C187.044 124.126 187.349 122.815 187.803 121.552C187.936 122.893 187.831 124.247 187.493 125.551C187.363 126.877 187.113 128.189 186.745 129.47Z" fill="white"/>
<path d="M187.665 122.721C187.238 122.961 186.766 123.107 186.278 123.151C185.791 123.194 185.299 123.134 184.837 122.973C183.239 122.595 182.308 121.587 182.423 121.484C182.538 121.381 183.572 122.057 184.975 122.389C186.377 122.721 187.619 122.595 187.665 122.721Z" fill="white"/>
<path d="M280.21 207.174C280.003 207.192 279.796 207.192 279.589 207.174H277.819L271.312 206.922C265.84 206.693 258.264 206.338 249.906 205.903L245.618 205.685H245.342V205.41C245.342 198.123 245.411 191.661 245.445 186.941C245.445 184.649 245.503 182.827 245.526 181.464C245.526 180.868 245.526 180.387 245.526 179.986C245.514 179.812 245.533 179.637 245.583 179.47C245.603 179.642 245.603 179.814 245.583 179.986C245.583 180.387 245.583 180.868 245.641 181.464C245.641 182.827 245.641 184.672 245.733 186.941C245.733 191.672 245.79 198.123 245.825 205.41L245.549 205.112L249.837 205.33C258.195 205.765 265.759 206.189 271.231 206.476L277.715 206.911L279.474 207.06C279.724 207.055 279.973 207.094 280.21 207.174Z" fill="#263238"/>
<path d="M263.793 157.185C262.428 157.014 261.05 156.972 259.678 157.059C256.37 157.418 253.285 158.889 250.929 161.23C248.63 163.629 247.07 166.635 246.434 169.892C245.928 172.389 246.031 174.005 245.916 173.994C245.818 173.62 245.779 173.233 245.802 172.848C245.778 171.823 245.851 170.799 246.02 169.789C246.548 166.398 248.114 163.253 250.503 160.783C252.945 158.337 256.191 156.852 259.643 156.601C260.675 156.533 261.711 156.603 262.724 156.807C263.1 156.871 263.461 156.999 263.793 157.185Z" fill="#263238"/>
<path d="M200.345 174.956C200.511 176.059 200.58 177.175 200.552 178.29C200.552 180.353 200.61 183.251 200.552 186.425C200.483 189.427 200.426 192.154 200.38 194.376C200.38 195.648 200.38 196.565 200.38 197.47C200.38 196.439 200.38 195.408 200.38 193.964C200.38 191.73 200.276 189.014 200.207 186.001C200.138 182.988 200.207 180.272 200.207 178.221C200.147 177.131 200.194 176.038 200.345 174.956Z" fill="#263238"/>
<path d="M182.618 225.942C182.621 226.969 182.317 227.974 181.745 228.83C181.174 229.685 180.361 230.352 179.409 230.746C178.457 231.14 177.409 231.244 176.397 231.044C175.386 230.844 174.457 230.35 173.728 229.623C172.999 228.897 172.503 227.971 172.302 226.963C172.102 225.955 172.206 224.911 172.601 223.962C172.997 223.013 173.666 222.202 174.524 221.633C175.382 221.063 176.391 220.761 177.422 220.763C178.8 220.763 180.122 221.309 181.096 222.28C182.071 223.251 182.618 224.568 182.618 225.942Z" fill="#F5F5F5"/>
</g>
<defs>
<clipPath id="clip0_5497_41327">
<rect width="461" height="283" fill="white"/>
</clipPath>
</defs>
</svg>
